<REAPER_PROJECT 0.1 "4.13/OSX"
  RIPPLE 0
  GROUPOVERRIDE 0 0 0
  AUTOXFADE 1
  ENVATTACH 1
  MIXERUIFLAGS 11 48
  PEAKGAIN 1.00000000000000
  FEEDBACK 0
  PANLAW 1.00000000000000
  PROJOFFS 0.00000000000000 0
  MAXPROJLEN 0 600.00000000000000
  GRID 3199 8 1.00000000000000 8 1.00000000000000 0
  TIMEMODE 1 0 -1
  PANMODE 3
  CURSOR 137.51351351351352
  ZOOM 11.73870960142480 1144 0
  VZOOMEX 3
  USE_REC_CFG 0
  RECMODE 1
  SMPTESYNC 0 23.976024 100 40 1000 300 0 0.000000 1
  LOOP 0
  LOOPGRAN 0 4.00000000000000
  RECORD_PATH "../media" ""
  <RECORD_CFG
    ZXZhdxgA
  >
  <APPLYFX_CFG
  >
  RENDER_FILE ""
  RENDER_PATTERN ""
  RENDER_FMT 0 2 0
  RENDER_1X 0
  RENDER_RANGE 1 0.00000000000000 0.00000000000000
  RENDER_RESAMPLE 4 0 1
  RENDER_ADDTOPROJ 0
  RENDER_STEMS 0
  RENDER_DITHER 0
  TIMELOCKMODE 0
  ITEMMIX 0
  DEFPITCHMODE 393216
  TAKELANE 1
  SAMPLERATE 44100 0 0
  <RENDER_CFG
  >
  LOCK 1
  <METRONOME 6 2.000000
    VOL 0.250000 0.125000
    FREQ 800 1600 1
    BEATLEN 4
    SAMPLES "" ""
  >
  GLOBAL_AUTO -1
  TEMPO 120.00000000000000 4 4
  PLAYRATE 1.00000000000000 0 0.25000 4.00000
  SELECTION 86.91895853359088 86.91895853359088
  SELECTION2 86.91895853359088 86.91895853359088
  MASTERAUTOMODE 0
  MASTERTRACKHEIGHT 0
  MASTERMUTESOLO 0
  MASTERTRACKVIEW 0 0.666700 0.500000 0.500000 -1 -1 -1
  MASTERHWOUT 0 0 1.00000000000000 0.00000000000000 0 0 0 -1.00000000000000
  MASTER_NCH 2 2
  MASTER_VOLUME 1.00000000000000 0.00000000000000 -1.00000000000000 -1.00000000000000 1.00000000000000
  MASTER_PANMODE -1
  MASTER_FX 1
  MASTER_SEL 0
  <MASTERPLAYSPEEDENV
    ACT 0
    VIS 0 1 1.000000
    LANEHEIGHT 0 0
    ARM 0
    DEFSHAPE 0 -1 -1
  >
  <TEMPOENVEX
    ACT 0
    VIS 1 0 1.000000
    LANEHEIGHT 0 0
    ARM 0
    DEFSHAPE 1 -1 -1
    PT 0.000000000000 185.0000000000 1 262148
  >
  <PROJBAY
  >
  <TRACK '{4A0DF3A6-FEEF-854A-916F-3FA31F9029EE}'
    NAME "Drums (MIDI)"
    PEAKCOL 16576
    BEAT -1
    AUTOMODE 0
    VOLPAN 1.00000000000000 0.00000000000000 -1.00000000000000 -1.00000000000000 1.00000000000000
    MUTESOLO 1 0 0
    IPHASE 0
    ISBUS 0 0
    BUSCOMP 0 0
    SHOWINMIX 1 0.666700 0.500000 1 0.500000 -1 -1 -1
    FREEMODE 0
    SEL 0
    REC 0 0 0 0 0 0 0
    VU 2
    TRACKHEIGHT 0 0
    INQ 0 0 0 0.5000000000 100 0 0 100
    NCHAN 2
    FX 1
    TRACKID {4A0DF3A6-FEEF-854A-916F-3FA31F9029EE}
    PERF 0
    MIDIOUT -1
    MAINSEND 1 0
    <ITEM
      POSITION 0.00000000000000
      SNAPOFFS 0.00000000000000
      LENGTH 18.16216216215125
      LOOP 1
      ALLTAKES 0
      SEL 0
      FADEIN 1 0.000000 0.000000 1 0
      FADEOUT 1 0.000000 0.000000 1 0
      MUTE 0
      IGUID {920C3655-15AB-914C-9DBF-F47C638314C8}
      IID 1220
      NAME "miesjuna - miesjuna.mid"
      VOLPAN 1.000000 0.000000 1.000000 -1.000000
      SOFFS 0.00000000000000 0.00000000000000
      PLAYRATE 1.00000000000000 1 0.00000000000000 -1
      CHANMODE 0
      GUID {FD89190E-87A8-A448-B588-A06BD80965F5}
      <SOURCE MIDI
        HASDATA 1 480 QN
        POOLEDEVTS {7ED64BFA-018D-864A-A959-BA50DF2FAAE0}
        <X 0 0
          /wNtaWVzanVuYQ==
        >
        E 3840 90 2a 2f
        E 0 90 24 7f
        E 56 90 2a 00
        E 64 90 24 00
        E 120 90 26 7f
        E 2 90 2a 7f
        E 99 90 2a 00
        E 19 90 26 00
        E 120 90 2a 2d
        E 0 90 24 7f
        E 56 90 2a 00
        E 64 90 24 00
        E 120 90 26 7f
        E 2 90 2a 7f
        E 99 90 2a 00
        E 19 90 26 00
        E 120 90 2a 2d
        E 0 90 24 7f
        E 56 90 2a 00
        E 64 90 24 00
        E 120 90 26 7f
        E 2 90 2a 7f
        E 99 90 2a 00
        E 19 90 26 00
        E 120 90 2a 30
        E 0 90 24 7f
        E 61 90 2a 00
        E 59 90 24 00
        E 120 90 26 7f
        E 3 90 2a 7f
        E 74 90 2a 00
        E 43 90 26 00
        E 120 90 2a 2f
        E 0 90 24 7f
        E 56 90 2a 00
        E 64 90 24 00
        E 120 90 26 7f
        E 2 90 2a 7f
        E 99 90 2a 00
        E 19 90 26 00
        E 120 90 2a 2d
        E 0 90 24 7f
        E 56 90 2a 00
        E 64 90 24 00
        E 120 90 26 7f
        E 2 90 2a 7f
        E 99 90 2a 00
        E 19 90 26 00
        E 120 90 2a 2d
        E 0 90 24 7f
        E 56 90 2a 00
        E 64 90 24 00
        E 120 90 26 7f
        E 2 90 2a 7f
        E 99 90 2a 00
        E 19 90 26 00
        E 120 90 2a 30
        E 0 90 24 7f
        E 61 90 2a 00
        E 59 90 24 00
        E 120 90 26 7f
        E 3 90 2a 7f
        E 74 90 2a 00
        E 43 90 26 00
        E 120 90 2a 2f
        E 0 90 24 7f
        E 56 90 2a 00
        E 64 90 24 00
        E 120 90 26 7f
        E 2 90 2a 7f
        E 99 90 2a 00
        E 19 90 26 00
        E 120 90 2a 2d
        E 0 90 24 7f
        E 56 90 2a 00
        E 64 90 24 00
        E 120 90 26 7f
        E 2 90 2a 7f
        E 99 90 2a 00
        E 19 90 26 00
        E 120 90 2a 2d
        E 0 90 24 7f
        E 56 90 2a 00
        E 64 90 24 00
        E 120 90 26 7f
        E 2 90 2a 7f
        E 99 90 2a 00
        E 19 90 26 00
        E 120 90 2a 30
        E 0 90 24 7f
        E 61 90 2a 00
        E 59 90 24 00
        E 120 90 26 7f
        E 3 90 2a 7f
        E 74 90 2a 00
        E 43 90 26 00
        E 120 90 2a 2f
        E 0 90 24 7f
        E 56 90 2a 00
        E 64 90 24 00
        E 120 90 26 7f
        E 2 90 2a 7f
        E 99 90 2a 00
        E 19 90 26 00
        E 120 90 2a 2d
        E 0 90 24 7f
        E 56 90 2a 00
        E 64 90 24 00
        E 120 90 26 7f
        E 2 90 2a 7f
        E 99 90 2a 00
        E 19 90 26 00
        E 120 90 2a 2d
        E 0 90 24 7f
        E 56 90 2a 00
        E 64 90 24 00
        E 120 90 26 7f
        E 2 90 2a 7f
        E 99 90 2a 00
        E 19 90 26 00
        E 120 90 2a 30
        E 0 90 24 7f
        E 61 90 2a 00
        E 59 90 24 00
        E 120 90 26 7f
        E 3 90 2a 7f
        E 74 90 2a 00
        E 43 90 26 00
        E 120 90 2a 2f
        E 0 90 24 7f
        E 56 90 2a 00
        E 64 90 24 00
        E 120 90 26 7f
        E 2 90 2a 7f
        E 99 90 2a 00
        E 19 90 26 00
        E 120 90 2a 2d
        E 0 90 24 7f
        E 56 90 2a 00
        E 64 90 24 00
        E 120 90 26 7f
        E 2 90 2a 7f
        E 99 90 2a 00
        E 19 90 26 00
        E 120 90 2a 2d
        E 0 90 24 7f
        E 56 90 2a 00
        E 64 90 24 00
        E 120 90 26 7f
        E 2 90 2a 7f
        E 99 90 2a 00
        E 19 90 26 00
        E 120 90 2a 30
        E 0 90 24 7f
        E 61 90 2a 00
        E 59 90 24 00
        E 120 90 26 7f
        E 3 90 2a 7f
        E 74 90 2a 00
        E 43 90 26 00
        E 120 90 2a 2f
        E 0 90 24 7f
        E 56 90 2a 00
        E 64 90 24 00
        E 120 90 26 7f
        E 2 90 2a 7f
        E 99 90 2a 00
        E 19 90 26 00
        E 120 90 2a 2d
        E 0 90 24 7f
        E 56 90 2a 00
        E 64 90 24 00
        E 120 90 26 7f
        E 2 90 2a 7f
        E 99 90 2a 00
        E 19 90 26 00
        E 120 90 2a 2d
        E 0 90 24 7f
        E 56 90 2a 00
        E 64 90 24 00
        E 120 90 26 7f
        E 2 90 2a 7f
        E 99 90 2a 00
        E 19 90 26 00
        E 120 90 2a 30
        E 0 90 24 7f
        E 61 90 2a 00
        E 59 90 24 00
        E 120 90 26 7f
        E 3 90 2a 7f
        E 74 90 2a 00
        E 43 90 26 00
        E 120 90 18 19
        E 0 90 24 7f
        E 29 90 18 00
        E 91 90 24 00
        E 120 90 26 7f
        E 5 90 18 6b
        E 41 90 18 00
        E 74 90 26 00
        E 120 90 18 19
        E 0 90 24 7f
        E 29 90 18 00
        E 91 90 24 00
        E 120 90 26 7f
        E 5 90 18 6b
        E 41 90 18 00
        E 74 90 26 00
        E 120 90 18 19
        E 0 90 24 7f
        E 29 90 18 00
        E 91 90 24 00
        E 120 90 26 7f
        E 5 90 18 6b
        E 41 90 18 00
        E 74 90 26 00
        E 120 90 18 15
        E 0 90 24 7f
        E 35 90 18 00
        E 85 90 24 00
        E 120 90 26 7f
        E 7 90 18 7f
        E 43 90 18 00
        E 70 90 26 00
        E 120 90 18 19
        E 0 90 24 7f
        E 29 90 18 00
        E 91 90 24 00
        E 120 90 26 7f
        E 5 90 18 6b
        E 41 90 18 00
        E 74 90 26 00
        E 120 90 18 19
        E 0 90 24 7f
        E 29 90 18 00
        E 91 90 24 00
        E 120 90 26 7f
        E 5 90 18 6b
        E 41 90 18 00
        E 74 90 26 00
        E 120 90 18 19
        E 0 90 24 7f
        E 29 90 18 00
        E 91 90 24 00
        E 120 90 26 7f
        E 5 90 18 6b
        E 41 90 18 00
        E 74 90 26 00
        E 120 90 18 15
        E 0 90 24 7f
        E 35 90 18 00
        E 85 90 24 00
        E 120 90 26 7f
        E 7 90 18 7f
        E 43 90 18 00
        E 70 90 26 00
        E 120 90 18 19
        E 0 90 24 7f
        E 29 90 18 00
        E 91 90 24 00
        E 120 90 26 7f
        E 5 90 18 6b
        E 41 90 18 00
        E 74 90 26 00
        E 120 90 18 19
        E 0 90 24 7f
        E 29 90 18 00
        E 91 90 24 00
        E 120 90 26 7f
        E 5 90 18 6b
        E 41 90 18 00
        E 74 90 26 00
        E 120 90 18 19
        E 0 90 24 7f
        E 29 90 18 00
        E 91 90 24 00
        E 120 90 26 7f
        E 5 90 18 6b
        E 41 90 18 00
        E 74 90 26 00
        E 120 90 18 15
        E 0 90 24 7f
        E 35 90 18 00
        E 85 90 24 00
        E 120 90 26 7f
        E 7 90 18 7f
        E 43 90 18 00
        E 70 90 26 00
        E 120 90 18 19
        E 0 90 24 7f
        E 29 90 18 00
        E 91 90 24 00
        E 120 90 26 7f
        E 5 90 18 6b
        E 41 90 18 00
        E 74 90 26 00
        E 120 90 18 19
        E 0 90 24 7f
        E 29 90 18 00
        E 91 90 24 00
        E 120 90 26 7f
        E 5 90 18 6b
        E 41 90 18 00
        E 74 90 26 00
        E 120 90 18 19
        E 0 90 24 7f
        E 29 90 18 00
        E 91 90 24 00
        E 120 90 26 7f
        E 5 90 18 6b
        E 41 90 18 00
        E 74 90 26 00
        E 120 90 18 15
        E 0 90 24 7f
        E 35 90 18 00
        E 85 90 24 00
        E 120 90 26 7f
        E 7 90 18 7f
        E 43 90 18 00
        E 70 90 26 00
        E 120 90 18 19
        E 0 90 24 7f
        E 29 90 18 00
        E 91 90 24 00
        E 120 90 26 7f
        E 5 90 18 6b
        E 41 90 18 00
        E 74 90 26 00
        E 120 90 18 19
        E 0 90 24 7f
        E 29 90 18 00
        E 91 90 24 00
        E 120 90 26 7f
        E 5 90 18 6b
        E 41 90 18 00
        E 74 90 26 00
        E 120 90 18 19
        E 0 90 24 7f
        E 29 90 18 00
        E 91 90 24 00
        E 120 90 26 7f
        E 5 90 18 6b
        E 41 90 18 00
        E 74 90 26 00
        E 120 90 18 15
        E 0 90 24 7f
        E 35 90 18 00
        E 85 90 24 00
        E 120 90 26 7f
        E 7 90 18 7f
        E 43 90 18 00
        E 70 90 26 00
        E 120 90 18 19
        E 0 90 24 7f
        E 29 90 18 00
        E 91 90 24 00
        E 120 90 26 7f
        E 5 90 18 6b
        E 41 90 18 00
        E 74 90 26 00
        E 120 90 18 19
        E 0 90 24 7f
        E 29 90 18 00
        E 91 90 24 00
        E 120 90 26 7f
        E 5 90 18 6b
        E 41 90 18 00
        E 74 90 26 00
        E 120 90 18 19
        E 0 90 24 7f
        E 29 90 18 00
        E 91 90 24 00
        E 120 90 26 7f
        E 5 90 18 6b
        E 41 90 18 00
        E 74 90 26 00
        E 120 90 18 15
        E 0 90 24 7f
        E 35 90 18 00
        E 85 90 24 00
        E 120 90 26 7f
        E 7 90 18 7f
        E 43 90 18 00
        E 70 90 26 00
        E 120 b0 7b 00
        GUID {CB48AC5F-2A7C-0D43-A3AE-3AB5C80B3BE5}
        IGNTEMPO 0 120.00000000 4 4
        SRCCOLOR 119
        VELLANE -1 100 0
      >
    >
    <ITEM
      POSITION 18.16216216213070
      SNAPOFFS 0.00000000000000
      LENGTH 7.78378378378231
      LOOP 1
      ALLTAKES 0
      SEL 0
      FADEIN 1 0.000000 0.000000 1 0
      FADEOUT 1 0.000000 0.000000 1 0
      MUTE 0
      IGUID {B56B042D-BBA7-7241-BAC2-CB7CC95039EE}
      IID 1220
      NAME "miesjuna - miesjuna.mid"
      VOLPAN 1.000000 0.000000 1.000000 -1.000000
      SOFFS 0.00000000000000 0.00000000000000
      PLAYRATE 1.00000000000000 1 0.00000000000000 -1
      CHANMODE 0
      GUID {C03AF325-12AA-A649-B3E1-89FAB5CAB750}
      <SOURCE MIDI
        HASDATA 1 480 QN
        POOLEDEVTS {8607991F-C508-B549-A3AD-60046845078C}
        E 0 90 18 19
        E 29 90 18 00
        E 216 90 18 6b
        E 41 90 18 00
        E 74 90 24 7f
        E 120 90 24 00
        E 0 90 24 7f
        E 0 90 18 19
        E 120 90 24 00
        E 0 90 18 00
        E 120 90 18 6b
        E 120 90 18 00
        E 2 90 24 7f
        E 118 90 18 19
        E 2 90 24 00
        E 0 90 24 7f
        E 27 90 18 00
        E 93 90 24 00
        E 123 90 18 6b
        E 41 90 18 00
        E 194 90 18 15
        E 35 90 18 00
        E 205 90 24 64
        E 7 90 18 7f
        E 43 90 18 00
        E 70 90 24 00
        E 0 90 24 64
        E 120 90 24 00
        E 0 90 24 64
        E 3 90 18 19
        E 29 90 18 00
        E 208 90 24 00
        E 0 90 24 64
        E 8 90 18 6b
        E 41 90 18 00
        E 71 90 24 00
        E 2 90 24 64
        E 118 90 24 00
        E 0 90 24 64
        E 2 90 24 00
        E 1 90 18 19
        E 117 90 24 64
        E 3 90 18 00
        E 117 90 24 00
        E 0 90 24 64
        E 3 90 18 6b
        E 117 90 24 00
        E 0 90 24 64
        E 3 90 18 00
        E 117 90 24 00
        E 0 90 24 64
        E 3 90 18 19
        E 29 90 18 00
        E 88 90 24 00
        E 120 90 24 64
        E 8 90 18 6b
        E 41 90 18 00
        E 71 90 24 00
        E 120 90 24 64
        E 3 90 18 15
        E 35 90 18 00
        E 82 90 24 00
        E 120 90 24 64
        E 10 90 18 7f
        E 43 90 18 00
        E 67 90 24 00
        E 120 90 18 19
        E 29 90 18 00
        E 216 90 18 6b
        E 41 90 18 00
        E 74 90 24 7f
        E 120 90 24 00
        E 0 90 18 19
        E 0 90 24 7f
        E 120 90 18 00
        E 0 90 24 00
        E 120 90 18 6b
        E 120 90 18 00
        E 2 90 24 7f
        E 118 90 18 19
        E 2 90 24 7f
        E 1 90 24 00 -1
        E 26 90 18 00
        E 91 90 24 00
        E 125 90 18 6b
        E 41 90 18 00
        E 194 90 18 15
        E 35 90 18 00
        E 205 90 24 64
        E 7 90 18 7f
        E 43 90 18 00
        E 70 90 24 00
        E 0 90 24 64
        E 120 90 24 00
        E 0 90 24 64
        E 3 90 18 19
        E 29 90 18 00
        E 208 90 24 00
        E 0 90 24 64
        E 8 90 18 6b
        E 41 90 18 00
        E 71 90 24 00
        E 2 90 24 64
        E 118 90 24 00
        E 0 90 24 64
        E 2 90 24 00
        E 1 90 18 19
        E 117 90 24 64
        E 3 90 18 00
        E 117 90 24 00
        E 0 90 24 64
        E 3 90 18 6b
        E 117 90 24 00
        E 0 90 24 64
        E 3 90 18 00
        E 117 90 24 00
        E 0 90 24 64
        E 3 90 18 19
        E 29 90 18 00
        E 88 90 24 00
        E 120 90 24 64
        E 8 90 18 6b
        E 41 90 18 00
        E 71 90 24 00
        E 120 90 24 64
        E 3 90 18 15
        E 35 90 18 00
        E 82 90 24 00
        E 120 90 24 64
        E 10 90 18 7f
        E 43 90 18 00
        E 67 90 24 00
        E 120 90 18 19
        E 29 90 18 00
        E 216 90 18 6b
        E 41 90 18 00
        e 74 90 24 7f
        e 120 90 24 00
        e 0 90 24 7f
        E 0 90 18 19
        e 120 90 24 00
        E 0 90 18 00
        E 120 90 18 6b
        E 120 90 18 00
        e 2 90 24 7f
        E 118 90 18 19
        e 2 90 24 7f
        e 1 90 24 00 -1
        E 26 90 18 00
        e 91 90 24 00
        E 125 90 18 6b
        E 41 90 18 00
        E 194 90 18 15
        E 35 90 18 00
        E 205 90 24 64
        E 7 90 18 7f
        E 43 90 18 00
        E 70 90 24 00
        E 0 90 24 64
        E 120 90 24 00
        E 0 90 24 64
        E 3 90 18 19
        E 29 90 18 00
        E 208 90 24 00
        E 0 90 24 64
        E 8 90 18 6b
        E 41 90 18 00
        E 71 90 24 00
        E 2 90 24 64
        E 118 90 24 00
        E 0 90 24 64
        E 2 90 24 00
        E 1 90 18 19
        E 117 90 24 64
        E 3 90 18 00
        E 117 90 24 00
        E 0 90 24 64
        E 3 90 18 6b
        E 117 90 24 00
        E 0 90 24 64
        E 3 90 18 00
        E 117 90 24 00
        E 0 90 24 64
        E 3 90 18 19
        E 29 90 18 00
        E 88 90 24 00
        E 120 90 24 64
        E 8 90 18 6b
        E 41 90 18 00
        E 71 90 24 00
        E 120 90 24 64
        E 3 90 18 15
        E 35 90 18 00
        E 82 90 24 00
        E 120 90 24 64
        E 10 90 18 7f
        E 43 90 18 00
        E 67 90 24 00
        E 120 b0 7b 00
        GUID {C7485C8A-24D8-0E49-B5B6-95E57AC114B6}
        IGNTEMPO 0 120.00000000 4 4
        SRCCOLOR 122
        VELLANE -1 100 0
        CFGEDITVIEW 11913.023695 0.124760 73 12 0 0 0
        CFGEDIT 1 1 0 1 0 0 1 0 1 1 1 0.06250000 285 133 1710 794 0 0 0 0 0.00000000 0 0 0 0 0.500000 0 0 1.000000 64
        KEYSNAP 0 0 "102034050607" 0 "Major"
        EVTFILTER 0 -1 -1 -1 -1 0 1 0 0 -1.00000000 -1.00000000
      >
    >
    <ITEM
      POSITION 25.94594594591763
      SNAPOFFS 0.00000000000000
      LENGTH 6.16216216216223
      LOOP 1
      ALLTAKES 0
      SEL 0
      FADEIN 1 0.000000 0.000000 1 0
      FADEOUT 1 0.000000 0.000000 1 0
      MUTE 0
      IGUID {D62DA5D2-E32F-B246-9309-C719637915B4}
      IID 1220
      NAME "miesjuna - miesjuna.mid"
      VOLPAN 1.000000 0.000000 1.000000 -1.000000
      SOFFS 0.00000000000000 0.00000000000000
      PLAYRATE 1.00000000000000 1 0.00000000000000 -1
      CHANMODE 0
      GUID {5F15E471-A1CE-DD4D-9595-F9C47A600668}
      <SOURCE MIDI
        HASDATA 1 480 QN
        POOLEDEVTS {A80CE8A5-D020-9747-AC19-1A156AE95A3A}
        E 0 90 1d 64
        E 240 90 1d 00
        E 118 90 24 7f
        E 120 90 24 00
        E 0 90 24 7f
        E 6 90 1d 64
        E 114 90 24 00
        E 126 90 1d 00
        E 116 90 24 7f
        E 120 90 24 7f
        E 1 90 24 00 -1
        E 0 90 1d 64
        E 117 90 24 00
        E 123 90 1d 00
        E 243 90 1d 64
        E 240 90 1d 00
        E 237 90 1d 64
        E 240 90 1d 00
        E 244 90 1d 64
        E 240 90 1d 00
        E 237 90 1d 64
        E 240 90 1d 00
        E 244 90 1d 64
        E 240 90 1d 00
        E 234 90 1d 64
        E 240 90 1d 00
        E 118 90 24 7f
        E 120 90 24 00
        E 0 90 24 7f
        E 6 90 1d 64
        E 114 90 24 00
        E 126 90 1d 00
        E 116 90 24 7f
        E 120 90 24 7f
        E 1 90 24 00 -1
        E 0 90 1d 64
        E 117 90 24 00
        E 123 90 1d 00
        E 243 90 1d 64
        E 240 90 1d 00
        E 237 90 1d 64
        E 240 90 1d 00
        E 244 90 1d 64
        E 240 90 1d 00
        E 237 90 1d 64
        E 240 90 1d 00
        E 244 90 1d 64
        E 240 90 1d 00
        E 234 90 1d 64
        E 240 90 1d 00
        e 118 90 24 7f
        e 120 90 24 00
        e 0 90 24 7f
        E 6 90 1d 64
        e 114 90 24 00
        E 126 90 1d 00
        e 116 90 24 7f
        e 120 90 24 7f
        e 1 90 24 00
        E 0 90 1d 64
        e 117 90 24 00
        E 123 90 1d 00
        E 239 b0 7b 00
        GUID {B4A532B7-6133-2B4B-B467-A5A23B0C41BE}
        IGNTEMPO 0 120.00000000 4 4
        SRCCOLOR 123
        VELLANE -1 100 0
        CFGEDITVIEW 6238.227874 0.195781 70 12 0 0 0
        CFGEDIT 1 1 0 1 0 0 1 0 1 1 1 0.06250000 285 133 1710 794 0 0 0 0 0.00000000 0 0 0 0 0.500000 0 0 1.000000 64
        KEYSNAP 0 0 "102034050607" 0 "Major"
        EVTFILTER 0 -1 -1 -1 -1 0 1 0 0 -1.00000000 -1.00000000
      >
    >
    <ITEM
      POSITION 32.10810810804833
      SNAPOFFS 0.00000000000000
      LENGTH 11.99999999999993
      LOOP 1
      ALLTAKES 0
      SEL 0
      FADEIN 1 0.000000 0.000000 1 0
      FADEOUT 1 0.000000 0.000000 1 0
      MUTE 0
      IGUID {71540D25-2BEB-1F49-8EF5-778BF861BA2A}
      IID 1220
      NAME "miesjuna - miesjuna.mid"
      VOLPAN 1.000000 0.000000 1.000000 -1.000000
      SOFFS 0.00000000000000 0.00000000000000
      PLAYRATE 1.00000000000000 1 0.00000000000000 -1
      CHANMODE 0
      GUID {896BCBFA-66E3-5E45-B1DB-2A08E7C3C52E}
      <SOURCE MIDI
        HASDATA 1 480 QN
        POOLEDEVTS {F5ACAC58-D471-3F4D-8D10-F93D93FD8122}
        E 4 90 1d 64
        E 240 90 1d 00
        E 237 90 1d 64
        E 240 90 1d 00
        E 244 90 1d 64
        E 240 90 1d 00
        E 237 90 1d 64
        E 240 90 1d 00
        E 244 90 1d 64
        E 240 90 1d 00
        E 234 90 1d 64
        E 0 90 26 64
        E 0 90 23 64
        E 240 90 1d 00
        E 0 90 26 00
        E 0 90 23 00
        E 0 90 26 64
        E 240 90 26 00
        E 0 90 26 64
        E 0 90 23 64
        E 4 90 1d 64
        E 236 90 26 00
        E 0 90 23 00
        E 0 90 26 64
        E 4 90 1d 00
        E 236 90 26 00
        E 0 90 26 64
        E 0 90 23 64
        E 1 90 1d 64
        E 239 90 26 00
        E 0 90 23 00
        E 0 90 26 64
        E 1 90 1d 00
        E 239 90 26 00
        E 0 90 26 64
        E 0 90 23 64
        E 4 90 1d 64
        E 236 90 26 00
        E 0 90 23 00
        E 0 90 26 64
        E 4 90 1d 00
        E 236 90 26 00
        E 0 90 26 64
        E 0 90 23 64
        E 1 90 1d 64
        E 239 90 26 00
        E 0 90 23 00
        E 0 90 26 64
        E 1 90 1d 00
        E 239 90 26 00
        E 0 90 26 64
        E 0 90 23 64
        E 5 90 1d 64
        E 235 90 26 00
        E 0 90 23 00
        E 0 90 26 64
        E 5 90 1d 00
        E 235 90 26 00
        E 0 90 26 64
        E 0 90 23 64
        E 2 90 1d 64
        E 238 90 26 00
        E 0 90 23 00
        E 0 90 26 64
        E 2 90 1d 00
        E 238 90 26 00
        E 0 90 26 64
        E 0 90 23 64
        E 6 90 1d 64
        E 234 90 26 00
        E 0 90 23 00
        E 0 90 26 64
        E 6 90 1d 00
        E 234 90 26 00
        E 0 90 1d 64
        E 0 90 26 64
        E 0 90 23 64
        E 240 90 1d 00
        E 0 90 26 00
        E 0 90 23 00
        E 0 90 26 64
        E 240 90 26 00
        E 0 90 26 64
        E 0 90 23 64
        E 4 90 1d 64
        E 236 90 26 00
        E 0 90 23 00
        E 0 90 26 64
        E 4 90 1d 00
        E 236 90 26 00
        E 0 90 26 64
        E 0 90 23 64
        E 1 90 1d 64
        E 239 90 26 00
        E 0 90 23 00
        E 0 90 26 64
        E 1 90 1d 00
        E 239 90 26 00
        E 0 90 26 64
        E 0 90 23 64
        E 4 90 1d 64
        E 236 90 26 00
        E 0 90 23 00
        E 0 90 26 64
        E 4 90 1d 00
        E 236 90 26 00
        E 0 90 26 64
        E 0 90 23 64
        E 1 90 1d 64
        E 239 90 26 00
        E 0 90 23 00
        E 0 90 26 64
        E 1 90 1d 00
        E 239 90 26 00
        E 0 90 26 64
        E 0 90 23 64
        E 5 90 1d 64
        E 235 90 26 00
        E 0 90 23 00
        E 0 90 26 64
        E 5 90 1d 00
        E 235 90 26 00
        E 0 90 26 64
        E 0 90 23 64
        E 2 90 1d 64
        E 238 90 26 00
        E 0 90 23 00
        E 0 90 26 64
        E 2 90 1d 00
        E 238 90 26 00
        E 0 90 26 64
        E 0 90 23 64
        E 6 90 1d 64
        E 234 90 26 00
        E 0 90 23 00
        E 0 90 26 64
        E 6 90 1d 00
        E 234 90 26 00
        E 0 90 24 7f
        E 5 90 1a 7f
        E 1 90 26 7f
        E 24 90 24 00
        E 5 90 1a 00
        E 1 90 26 00
        E 84 90 24 72
        E 30 90 24 00
        E 90 90 24 72
        E 1 90 1a 41
        E 29 90 24 00
        E 1 90 1a 00
        E 89 90 24 72
        E 30 90 24 00
        E 90 90 24 72
        E 3 90 1a 7f
        E 5 90 26 7f
        E 22 90 24 00
        E 3 90 1a 00
        E 5 90 26 00
        E 82 90 24 72
        E 30 90 24 00
        E 88 90 1a 41
        E 2 90 24 72
        E 28 90 1a 00
        E 2 90 24 00
        E 90 90 24 72
        E 30 90 24 00
        E 90 90 24 7f
        E 3 90 1a 7f
        E 8 90 26 7f
        E 19 90 24 00
        E 3 90 1a 00
        E 8 90 26 00
        E 79 90 24 72
        E 30 90 24 00
        E 90 90 24 72
        E 3 90 1a 41
        E 27 90 24 00
        E 3 90 1a 00
        E 87 90 24 72
        E 30 90 24 00
        E 90 90 24 72
        E 6 90 26 7f
        E 2 90 1a 7f
        E 22 90 24 00
        E 6 90 26 00
        E 2 90 1a 00
        E 82 90 24 72
        E 30 90 24 00
        E 89 90 1a 41
        E 1 90 24 72
        E 29 90 1a 00
        E 1 90 24 00
        E 90 90 24 72
        E 30 90 24 00
        E 90 90 24 7f
        E 3 90 1a 7f
        E 6 90 26 7f
        E 21 90 24 00
        E 3 90 1a 00
        E 6 90 26 00
        E 81 90 24 72
        E 30 90 24 00
        E 90 90 24 72
        E 0 90 1a 41
        E 30 90 24 00
        E 0 90 1a 00
        E 90 90 24 72
        E 30 90 24 00
        E 90 90 24 72
        E 3 90 26 7f
        E 3 90 1a 7f
        E 24 90 24 00
        E 3 90 26 00
        E 3 90 1a 00
        E 84 90 24 72
        E 30 90 24 00
        E 88 90 1a 41
        E 2 90 24 72
        E 28 90 1a 00
        E 2 90 24 00
        E 90 90 24 72
        E 30 90 24 00
        E 90 90 24 7f
        E 5 90 1a 7f
        E 1 90 26 7f
        E 24 90 24 00
        E 5 90 1a 00
        E 1 90 26 00
        E 84 90 24 72
        E 30 90 24 00
        E 90 90 24 72
        E 2 90 1a 41
        E 28 90 24 00
        E 2 90 1a 00
        E 88 90 24 72
        E 30 90 24 00
        E 90 90 24 72
        E 2 90 26 7f
        E 6 90 1a 7f
        E 22 90 24 00
        E 2 90 26 00
        E 6 90 1a 00
        E 82 90 24 72
        E 30 90 24 00
        E 88 90 1a 41
        E 2 90 24 72
        E 28 90 1a 00
        E 2 90 24 00
        E 90 90 24 72
        E 30 90 24 00
        E 90 90 24 7f
        E 5 90 26 7f
        E 0 90 1a 7f
        E 25 90 24 00
        E 5 90 26 00
        E 0 90 1a 00
        E 85 90 24 72
        E 30 90 24 00
        E 90 90 24 72
        E 0 90 1a 41
        E 30 90 24 00
        E 0 90 1a 00
        E 90 90 24 72
        E 30 90 24 00
        E 90 90 24 72
        E 1 90 26 7f
        E 2 90 1a 7f
        E 27 90 24 00
        E 1 90 26 00
        E 2 90 1a 00
        E 87 90 24 72
        E 30 90 24 00
        E 90 90 24 72
        E 3 90 1a 41
        E 27 90 24 00
        E 3 90 1a 00
        E 87 90 24 72
        E 30 90 24 00
        E 90 90 24 7f
        E 4 90 26 7f
        E 1 90 1a 7f
        E 25 90 24 00
        E 4 90 26 00
        E 1 90 1a 00
        E 85 90 24 72
        E 30 90 24 00
        E 90 90 24 72
        E 1 90 1a 41
        E 29 90 24 00
        E 1 90 1a 00
        E 89 90 24 72
        E 30 90 24 00
        E 89 90 26 7f
        E 1 90 24 72
        E 3 90 1a 7f
        E 26 90 26 00
        E 1 90 24 00
        E 3 90 1a 00
        E 87 90 24 72
        E 30 90 24 00
        E 88 90 1a 41
        E 2 90 24 72
        E 28 90 1a 00
        E 2 90 24 00
        E 90 90 24 72
        E 30 90 24 00
        E 90 90 24 7f
        E 2 90 26 7f
        E 3 90 1a 7f
        E 25 90 24 00
        E 2 90 26 00
        E 3 90 1a 00
        E 85 90 24 72
        E 30 90 24 00
        E 90 90 24 72
        E 3 90 1a 41
        E 27 90 24 00
        E 3 90 1a 00
        E 87 90 24 72
        E 30 90 24 00
        E 90 90 24 72
        E 5 90 1a 7f
        E 0 90 26 7f
        E 25 90 24 00
        E 5 90 1a 00
        E 0 90 26 00
        E 85 90 24 72
        E 30 90 24 00
        E 87 90 1a 41
        E 3 90 24 72
        E 27 90 1a 00
        E 3 90 24 00
        E 90 90 24 72
        E 30 90 24 00
        E 90 90 24 7f
        E 3 90 1a 7f
        E 5 90 26 7f
        E 22 90 24 00
        E 3 90 1a 00
        E 5 90 26 00
        E 82 90 24 72
        E 30 90 24 00
        E 90 90 24 72
        E 2 90 1a 41
        E 28 90 24 00
        E 2 90 1a 00
        E 88 90 24 72
        E 30 90 24 00
        E 90 90 24 72
        E 3 90 26 7f
        E 2 90 1a 7f
        E 25 90 24 00
        E 3 90 26 00
        E 2 90 1a 00
        E 85 90 24 72
        E 30 90 24 00
        E 88 90 1a 42
        E 2 90 24 72
        E 28 90 1a 00
        E 2 90 24 00
        E 90 90 24 72
        E 30 90 24 00
        E 90 b0 7b 00
        GUID {5E8C3264-F9BA-774C-9D1B-51C3CADCB441}
        IGNTEMPO 0 120.00000000 4 4
        SRCCOLOR 126
        VELLANE -1 100 0
        CFGEDITVIEW 0.000000 0.000000 91 12 0 0 0
        CFGEDIT 1 1 0 1 0 0 1 0 1 1 1 0.06250000 285 133 1710 794 0 0 0 0 0.00000000 0 0 0 0 0.500000 0 0 1.000000 64
        KEYSNAP 0 0 "102034050607" 0 "Major"
        EVTFILTER 0 -1 -1 -1 -1 0 1 0 0 -1.00000000 -1.00000000
      >
    >
    <ITEM
      POSITION 44.10810810804833
      SNAPOFFS 0.00000000000000
      LENGTH 5.18918918918918
      LOOP 1
      ALLTAKES 0
      SEL 0
      FADEIN 1 0.000000 0.000000 1 0
      FADEOUT 1 0.000000 0.000000 1 0
      MUTE 0
      IGUID {88D5EFB5-17F3-CA40-BDFB-CF885829E606}
      IID 1220
      NAME "miesjuna - miesjuna.mid"
      VOLPAN 1.000000 0.000000 1.000000 -1.000000
      SOFFS 0.00000000000000 0.00000000000000
      PLAYRATE 1.00000000000000 1 0.00000000000000 -1
      CHANMODE 0
      GUID {5E6B35B0-55A4-6049-9A0D-25BAEA2C7C76}
      <SOURCE MIDI
        HASDATA 1 480 QN
        POOLEDEVTS {B2ADB6F5-2C6F-6345-B4BF-C71A73F3BF94}
        E 0 90 1c 64
        E 0 90 24 64
        E 240 90 1c 00
        E 0 90 24 00
        E 120 90 26 7f
        E 120 90 26 00
        E 0 90 26 7f
        E 120 90 26 00
        E 242 90 26 7f
        E 120 90 26 00
        E 0 90 26 7f
        E 120 90 26 00
        E 598 90 26 64
        E 120 90 26 00
        E 0 90 26 64
        E 120 90 26 00
        E 0 90 26 64
        E 240 90 26 00
        E 0 90 26 64
        E 120 90 26 00
        E 2 90 26 64
        E 118 90 26 00
        E 0 90 26 64
        E 2 90 26 00
        E 118 90 26 64
        E 120 90 26 00
        E 0 90 26 64
        E 120 90 26 00
        E 0 90 26 64
        E 120 90 26 00
        E 0 90 26 64
        E 120 90 26 00
        E 120 90 26 64
        E 120 90 26 00
        E 120 90 26 64
        E 120 90 26 00
        E 120 90 26 64
        E 120 90 26 00
        e 479 90 29 7f
        e 120 90 29 00
        e 0 90 29 7f
        e 120 90 29 00
        e 243 90 29 7f
        e 120 90 29 00
        e 0 90 29 7f
        e 120 90 29 00
        e 722 90 29 7f
        e 120 90 29 00
        e 0 90 29 7f
        e 120 90 29 00
        e 242 90 29 7f
        e 120 90 29 00
        e 0 90 29 7f
        e 120 90 29 00
        E 1314 b0 7b 00
        GUID {4FF5A163-A28C-EE49-98AD-D647F6C366F7}
        IGNTEMPO 0 120.00000000 4 4
        SRCCOLOR 127
        VELLANE -1 100 0
        CFGEDITVIEW 0.000000 0.000000 91 12 0 0 0
        CFGEDIT 1 1 0 1 0 0 1 0 1 1 1 0.06250000 285 133 1710 794 0 0 0 0 0.00000000 0 0 0 0 0.500000 0 0 1.000000 64
        KEYSNAP 0 0 "102034050607" 0 "Major"
        EVTFILTER 0 -1 -1 -1 -1 0 1 0 0 -1.00000000 -1.00000000
      >
    >
    <ITEM
      POSITION 49.29729729727842
      SNAPOFFS 0.00000000000000
      LENGTH 88.86486486486487
      LOOP 1
      ALLTAKES 0
      SEL 0
      FADEIN 1 0.000000 0.000000 1 0
      FADEOUT 1 0.000000 0.000000 1 0
      MUTE 0
      IGUID {2E96CDE4-2203-904E-B6BC-9B2B4A630257}
      IID 1220
      NAME "miesjuna - miesjuna.mid"
      VOLPAN 1.000000 0.000000 1.000000 -1.000000
      SOFFS 0.00000000000000 0.00000000000000
      PLAYRATE 1.00000000000000 1 0.00000000000000 -1
      CHANMODE 0
      GUID {0A64F640-5BE8-FB46-8DC4-5CEE79C2B542}
      <SOURCE MIDI
        HASDATA 1 480 QN
        POOLEDEVTS {ED85C893-ACF2-BB43-8187-1AE2FFA0DE96}
        E 0 90 24 64
        E 0 90 1a 64
        E 240 90 24 00
        E 0 90 1a 00
        E 240 90 1a 64
        E 240 90 1a 00
        E 240 90 1a 64
        E 240 90 1a 00
        E 240 90 26 64
        E 2 90 1a 64
        E 238 90 26 00
        E 2 90 1a 00
        E 240 90 1a 64
        E 240 90 1a 00
        E 238 90 24 64
        E 2 90 1a 64
        E 238 90 24 00
        E 0 90 24 64
        E 2 90 1a 00
        E 238 90 24 00
        E 0 90 1a 64
        E 0 90 24 64
        E 0 90 1a 64
        E 240 90 1a 00
        E 0 90 24 00
        E 0 90 1a 00
        E 240 90 1a 64
        E 240 90 1a 00
        E 240 90 1a 64
        E 240 90 1a 00
        E 240 90 26 64
        E 2 90 1a 64
        E 238 90 26 00
        E 2 90 1a 00
        E 238 90 24 64
        E 2 90 1a 64
        E 238 90 24 00
        E 2 90 1a 00
        E 240 90 1a 64
        E 238 90 24 64
        E 2 90 1a 00
        E 238 90 24 00
        E 0 90 1a 64
        E 0 90 24 64
        E 0 90 1a 64
        E 240 90 1a 00
        E 0 90 24 00
        E 0 90 1a 00
        E 240 90 1a 64
        E 240 90 1a 00
        E 240 90 1a 64
        E 240 90 1a 00
        E 240 90 26 64
        E 2 90 1a 64
        E 238 90 26 00
        E 2 90 1a 00
        E 240 90 1a 64
        E 240 90 1a 00
        E 238 90 24 64
        E 2 90 1a 64
        E 238 90 24 00
        E 0 90 24 64
        E 2 90 1a 00
        E 238 90 24 00
        E 0 90 1a 64
        E 0 90 24 64
        E 0 90 1a 64
        E 240 90 1a 00
        E 0 90 24 00
        E 0 90 1a 00
        E 240 90 1a 64
        E 240 90 1a 00
        E 240 90 1a 64
        E 240 90 1a 00
        E 240 90 26 64
        E 2 90 1a 64
        E 238 90 26 00
        E 2 90 1a 00
        E 238 90 24 64
        E 2 90 1a 64
        E 238 90 24 00
        E 2 90 1a 00
        E 240 90 1a 64
        E 238 90 24 64
        E 2 90 1a 00
        E 238 90 24 00
        E 0 90 1a 64
        E 0 90 24 64
        E 0 90 1a 64
        E 240 90 1a 00
        E 0 90 24 00
        E 0 90 1a 00
        E 240 90 1c 64
        E 240 90 1c 00
        E 240 90 1a 64
        E 240 90 1a 00
        E 240 90 26 64
        E 2 90 1c 64
        E 238 90 26 00
        E 2 90 1c 00
        E 240 90 1a 64
        E 240 90 1a 00
        E 238 90 24 64
        E 2 90 1c 64
        E 238 90 24 00
        E 0 90 24 64
        E 2 90 1c 00
        E 238 90 24 00
        E 0 90 1a 64
        E 0 90 24 64
        E 0 90 1a 64
        E 240 90 1a 00
        E 0 90 24 00
        E 0 90 1a 00
        E 240 90 1c 64
        E 240 90 1c 00
        E 240 90 1a 64
        E 240 90 1a 00
        E 240 90 26 64
        E 2 90 1c 64
        E 238 90 26 00
        E 2 90 1c 00
        E 238 90 24 64
        E 2 90 1a 64
        E 238 90 24 00
        E 2 90 1a 00
        E 240 90 1c 64
        E 238 90 24 64
        E 2 90 1c 00
        E 238 90 24 00
        E 0 90 1a 64
        E 0 90 24 64
        E 0 90 1a 64
        E 240 90 1a 00
        E 0 90 24 00
        E 0 90 1a 00
        E 240 90 1c 64
        E 240 90 1c 00
        E 240 90 1a 64
        E 240 90 1a 00
        E 240 90 26 64
        E 2 90 1c 64
        E 238 90 26 00
        E 2 90 1c 00
        E 240 90 1a 64
        E 240 90 1a 00
        E 238 90 24 64
        E 2 90 1c 64
        E 238 90 24 00
        E 0 90 24 64
        E 2 90 1c 00
        E 238 90 24 00
        E 0 90 1a 64
        E 0 90 24 64
        E 0 90 1a 64
        E 240 90 1a 00
        E 0 90 24 00
        E 0 90 1a 00
        E 240 90 1c 64
        E 240 90 1c 00
        E 240 90 1a 64
        E 240 90 1a 00
        E 240 90 26 64
        E 2 90 1c 64
        E 238 90 26 00
        E 2 90 1c 00
        E 238 90 24 64
        E 2 90 1a 64
        E 238 90 24 00
        E 2 90 1a 00
        E 240 90 1c 64
        E 238 90 24 64
        E 2 90 1c 00
        E 238 90 24 00
        E 0 90 1a 64
        E 0 90 24 64
        E 240 90 1a 00
        E 0 90 24 00
        E 1680 90 26 7f
        E 9 90 2a 7f
        E 51 90 26 00
        E 9 90 2a 00
        E 171 90 2a 2f
        E 0 90 24 7f
        E 60 90 2a 00
        E 0 90 24 00
        E 180 90 26 7f
        E 2 90 2a 7f
        E 58 90 26 00
        E 2 90 2a 00
        E 178 90 2a 2d
        E 60 90 2a 00
        E 180 90 26 7f
        E 2 90 2a 7f
        E 58 90 26 00
        E 2 90 2a 00
        E 178 90 2a 2d
        E 60 90 2a 00
        E 180 90 26 7f
        E 2 90 2a 7f
        E 58 90 26 00
        E 2 90 2a 00
        E 178 90 2a 30
        E 0 90 24 7f
        E 60 90 2a 00
        E 0 90 24 00
        E 180 90 26 7f
        E 9 90 2a 7f
        E 51 90 26 00
        E 9 90 2a 00
        E 171 90 2a 2f
        E 0 90 24 7f
        E 60 90 2a 00
        E 0 90 24 00
        E 180 90 26 7f
        E 2 90 2a 7f
        E 58 90 26 00
        E 2 90 2a 00
        E 178 90 2a 2d
        E 60 90 2a 00
        E 180 90 26 7f
        E 2 90 2a 7f
        E 58 90 26 00
        E 2 90 2a 00
        E 178 90 2a 2d
        E 60 90 2a 00
        E 180 90 26 7f
        E 2 90 2a 7f
        E 58 90 26 00
        E 2 90 2a 00
        E 178 90 2a 30
        E 0 90 24 7f
        E 60 90 2a 00
        E 0 90 24 00
        E 60 90 24 7f
        E 60 90 24 00
        E 60 90 26 7f
        E 9 90 2a 7f
        E 51 90 26 00
        E 9 90 2a 00
        E 171 90 2a 2f
        E 0 90 24 7f
        E 60 90 2a 00
        E 0 90 24 00
        E 180 90 26 7f
        E 2 90 2a 7f
        E 58 90 26 00
        E 2 90 2a 00
        E 178 90 2a 2d
        E 60 90 2a 00
        E 180 90 26 7f
        E 2 90 2a 7f
        E 58 90 26 00
        E 2 90 2a 00
        E 178 90 2a 2d
        E 60 90 2a 00
        E 180 90 26 7f
        E 2 90 2a 7f
        E 58 90 26 00
        E 2 90 2a 00
        E 178 90 2a 30
        E 0 90 24 7f
        E 60 90 2a 00
        E 0 90 24 00
        E 180 90 26 7f
        E 9 90 2a 7f
        E 51 90 26 00
        E 9 90 2a 00
        E 171 90 2a 2f
        E 0 90 24 7f
        E 60 90 2a 00
        E 0 90 24 00
        E 180 90 26 7f
        E 2 90 2a 7f
        E 58 90 26 00
        E 2 90 2a 00
        E 178 90 2a 2d
        E 60 90 2a 00
        E 180 90 26 7f
        E 2 90 2a 7f
        E 58 90 26 00
        E 2 90 2a 00
        E 178 90 2a 2d
        E 60 90 2a 00
        E 180 90 26 7f
        E 2 90 2a 7f
        E 58 90 26 00
        E 2 90 2a 00
        E 178 90 2a 30
        E 0 90 24 7f
        E 60 90 2a 00
        E 0 90 24 00
        E 60 90 24 7f
        E 60 90 24 00
        E 60 90 26 7f
        E 9 90 2a 7f
        E 51 90 26 00
        E 9 90 2a 00
        E 171 90 2a 2f
        E 0 90 24 7f
        E 60 90 2a 00
        E 0 90 24 00
        E 180 90 26 7f
        E 2 90 2a 7f
        E 58 90 26 00
        E 2 90 2a 00
        E 178 90 2a 2d
        E 60 90 2a 00
        E 180 90 26 7f
        E 2 90 2a 7f
        E 58 90 26 00
        E 2 90 2a 00
        E 178 90 2a 2d
        E 60 90 2a 00
        E 180 90 26 7f
        E 2 90 2a 7f
        E 58 90 26 00
        E 2 90 2a 00
        E 178 90 2a 30
        E 0 90 24 7f
        E 60 90 2a 00
        E 0 90 24 00
        E 180 90 26 7f
        E 9 90 2a 7f
        E 51 90 26 00
        E 9 90 2a 00
        E 171 90 2a 2f
        E 0 90 24 7f
        E 60 90 2a 00
        E 0 90 24 00
        E 180 90 26 7f
        E 2 90 2a 7f
        E 58 90 26 00
        E 2 90 2a 00
        E 178 90 2a 2d
        E 60 90 2a 00
        E 180 90 26 7f
        E 2 90 2a 7f
        E 58 90 26 00
        E 2 90 2a 00
        E 178 90 2a 2d
        E 60 90 2a 00
        E 180 90 26 7f
        E 2 90 2a 7f
        E 58 90 26 00
        E 2 90 2a 00
        E 178 90 2a 30
        E 0 90 24 7f
        E 60 90 2a 00
        E 0 90 24 00
        E 60 90 24 7f
        E 60 90 24 00
        E 60 90 26 7f
        E 9 90 2a 7f
        E 51 90 26 00
        E 9 90 2a 00
        E 171 90 2a 2f
        E 0 90 24 7f
        E 60 90 2a 00
        E 0 90 24 00
        E 180 90 26 7f
        E 2 90 2a 7f
        E 58 90 26 00
        E 2 90 2a 00
        E 178 90 2a 2d
        E 60 90 2a 00
        E 180 90 26 7f
        E 2 90 2a 7f
        E 58 90 26 00
        E 2 90 2a 00
        E 178 90 2a 2d
        E 60 90 2a 00
        E 180 90 26 7f
        E 2 90 2a 7f
        E 58 90 26 00
        E 2 90 2a 00
        E 178 90 2a 30
        E 0 90 24 7f
        E 60 90 2a 00
        E 0 90 24 00
        E 180 90 26 7f
        E 9 90 2a 7f
        E 51 90 26 00
        E 9 90 2a 00
        E 171 90 2a 2f
        E 0 90 24 7f
        E 60 90 2a 00
        E 0 90 24 00
        E 180 90 26 7f
        E 2 90 2a 7f
        E 58 90 26 00
        E 2 90 2a 00
        E 178 90 2a 2d
        E 60 90 2a 00
        E 180 90 26 7f
        E 2 90 2a 7f
        E 58 90 26 00
        E 2 90 2a 00
        E 178 90 2a 2d
        E 60 90 2a 00
        E 180 90 26 7f
        E 2 90 2a 7f
        E 58 90 26 00
        E 2 90 2a 00
        E 178 90 2a 30
        E 0 90 24 7f
        E 60 90 2a 00
        E 0 90 24 00
        E 60 90 24 7f
        E 60 90 24 00
        E 60 90 24 7f
        E 1 90 1b 7f
        E 2 90 2c 7f
        E 117 90 24 00
        E 82 90 1b 00
        E 56 90 2c 00
        E 223 90 1b 1a
        E 2 90 2c 71
        E 86 90 1b 00
        E 195 90 2c 00
        E 191 90 2c 7f
        E 5 90 26 7f
        E 3 90 1b 7f
        E 117 90 26 00
        E 65 90 1b 00
        E 101 90 2c 00
        E 187 90 2c 7f
        E 7 90 1b 15
        E 89 90 1b 00
        E 155 90 2c 00
        E 236 90 24 7f
        E 1 90 1b 7f
        E 2 90 2c 7f
        E 117 90 24 00
        E 82 90 1b 00
        E 56 90 2c 00
        E 223 90 1b 1a
        E 2 90 2c 71
        E 86 90 1b 00
        E 195 90 2c 00
        E 191 90 2c 7f
        E 5 90 26 7f
        E 3 90 1b 7f
        E 117 90 26 00
        E 65 90 1b 00
        E 101 90 2c 00
        E 187 90 2c 7f
        E 7 90 1b 15
        E 89 90 1b 00
        E 155 90 2c 00
        E 236 90 24 7f
        E 1 90 1b 7f
        E 2 90 2c 7f
        E 117 90 24 00
        E 82 90 1b 00
        E 56 90 2c 00
        E 223 90 1b 1a
        E 2 90 2c 71
        E 86 90 1b 00
        E 195 90 2c 00
        E 191 90 2c 7f
        E 5 90 26 7f
        E 3 90 1b 7f
        E 117 90 26 00
        E 65 90 1b 00
        E 101 90 2c 00
        E 187 90 2c 7f
        E 7 90 1b 15
        E 89 90 1b 00
        E 155 90 2c 00
        E 236 90 24 7f
        E 1 90 1b 7f
        E 2 90 2c 7f
        E 117 90 24 00
        E 82 90 1b 00
        E 56 90 2c 00
        E 223 90 1b 1a
        E 2 90 2c 71
        E 86 90 1b 00
        E 195 90 2c 00
        E 191 90 2c 7f
        E 5 90 26 7f
        E 3 90 1b 7f
        E 117 90 26 00
        E 65 90 1b 00
        E 101 90 2c 00
        E 187 90 2c 7f
        E 7 90 1b 15
        E 89 90 1b 00
        E 155 90 2c 00
        E 236 90 24 7f
        E 1 90 1b 7f
        E 2 90 2c 7f
        E 117 90 24 00
        E 82 90 1b 00
        E 56 90 2c 00
        E 223 90 1b 1a
        E 2 90 2c 71
        E 86 90 1b 00
        E 195 90 2c 00
        E 191 90 2c 7f
        E 5 90 26 7f
        E 3 90 1b 7f
        E 117 90 26 00
        E 65 90 1b 00
        E 101 90 2c 00
        E 187 90 2c 7f
        E 7 90 1b 15
        E 89 90 1b 00
        E 155 90 2c 00
        E 236 90 24 7f
        E 1 90 1b 7f
        E 2 90 2c 7f
        E 117 90 24 00
        E 82 90 1b 00
        E 56 90 2c 00
        E 223 90 1b 1a
        E 2 90 2c 71
        E 86 90 1b 00
        E 195 90 2c 00
        E 191 90 2c 7f
        E 5 90 26 7f
        E 3 90 1b 7f
        E 117 90 26 00
        E 65 90 1b 00
        E 101 90 2c 00
        E 187 90 2c 7f
        E 7 90 1b 15
        E 89 90 1b 00
        E 155 90 2c 00
        E 236 90 24 7f
        E 1 90 1b 7f
        E 2 90 2c 7f
        E 117 90 24 00
        E 82 90 1b 00
        E 56 90 2c 00
        E 223 90 1b 1a
        E 2 90 2c 71
        E 86 90 1b 00
        E 195 90 2c 00
        E 191 90 2c 7f
        E 5 90 26 7f
        E 3 90 1b 7f
        E 117 90 26 00
        E 65 90 1b 00
        E 101 90 2c 00
        E 187 90 2c 7f
        E 7 90 1b 15
        E 89 90 1b 00
        E 155 90 2c 00
        E 236 90 24 7f
        E 1 90 1b 7f
        E 2 90 2c 7f
        E 117 90 24 00
        E 82 90 1b 00
        E 56 90 2c 00
        E 223 90 1b 1a
        E 2 90 2c 71
        E 86 90 1b 00
        E 195 90 2c 00
        E 191 90 2c 7f
        E 5 90 26 7f
        E 3 90 1b 7f
        E 117 90 26 00
        E 65 90 1b 00
        E 101 90 2c 00
        E 187 90 2c 7f
        E 7 90 1b 15
        E 89 90 1b 00
        E 155 90 2c 00
        E 236 90 24 64
        E 0 90 1a 64
        E 240 90 24 00
        E 0 90 1a 00
        E 240 90 1a 64
        E 240 90 1a 00
        E 240 90 1a 64
        E 240 90 1a 00
        E 240 90 26 64
        E 2 90 1a 64
        E 238 90 26 00
        E 2 90 1a 00
        E 240 90 1a 64
        E 240 90 1a 00
        E 238 90 24 64
        E 2 90 1a 64
        E 238 90 24 00
        E 0 90 24 64
        E 2 90 1a 00
        E 238 90 24 00
        E 0 90 1a 64
        E 0 90 24 64
        E 0 90 1a 64
        E 240 90 1a 00
        E 0 90 24 00
        E 0 90 1a 00
        E 240 90 1a 64
        E 240 90 1a 00
        E 240 90 1a 64
        E 240 90 1a 00
        E 240 90 26 64
        E 2 90 1a 64
        E 238 90 26 00
        E 2 90 1a 00
        E 238 90 24 64
        E 2 90 1a 64
        E 238 90 24 00
        E 2 90 1a 00
        E 240 90 1a 64
        E 238 90 24 64
        E 2 90 1a 00
        E 238 90 24 00
        E 0 90 1a 64
        E 0 90 24 64
        E 0 90 1a 64
        E 240 90 1a 00
        E 0 90 24 00
        E 0 90 1a 00
        E 240 90 1a 64
        E 240 90 1a 00
        E 240 90 1a 64
        E 240 90 1a 00
        E 240 90 26 64
        E 2 90 1a 64
        E 238 90 26 00
        E 2 90 1a 00
        E 240 90 1a 64
        E 240 90 1a 00
        E 238 90 24 64
        E 2 90 1a 64
        E 238 90 24 00
        E 0 90 24 64
        E 2 90 1a 00
        E 238 90 24 00
        E 0 90 1a 64
        E 0 90 24 64
        E 0 90 1a 64
        E 240 90 1a 00
        E 0 90 24 00
        E 0 90 1a 00
        E 240 90 1a 64
        E 240 90 1a 00
        E 240 90 1a 64
        E 240 90 1a 00
        E 240 90 26 64
        E 2 90 1a 64
        E 238 90 26 00
        E 2 90 1a 00
        E 238 90 24 64
        E 2 90 1a 64
        E 238 90 24 00
        E 2 90 1a 00
        E 240 90 1a 64
        E 238 90 24 64
        E 2 90 1a 00
        E 238 90 24 00
        E 0 90 1a 64
        E 0 90 24 64
        E 0 90 1a 64
        E 240 90 1a 00
        E 0 90 24 00
        E 0 90 1a 00
        E 240 90 1c 64
        E 240 90 1c 00
        E 240 90 1a 64
        E 240 90 1a 00
        E 240 90 26 64
        E 2 90 1c 64
        E 238 90 26 00
        E 2 90 1c 00
        E 240 90 1a 64
        E 240 90 1a 00
        E 238 90 24 64
        E 2 90 1c 64
        E 238 90 24 00
        E 0 90 24 64
        E 2 90 1c 00
        E 238 90 24 00
        E 0 90 1a 64
        E 0 90 24 64
        E 0 90 1a 64
        E 240 90 1a 00
        E 0 90 24 00
        E 0 90 1a 00
        E 240 90 1c 64
        E 240 90 1c 00
        E 240 90 1a 64
        E 240 90 1a 00
        E 240 90 26 64
        E 2 90 1c 64
        E 238 90 26 00
        E 2 90 1c 00
        E 238 90 24 64
        E 2 90 1a 64
        E 238 90 24 00
        E 2 90 1a 00
        E 240 90 1c 64
        E 238 90 24 64
        E 2 90 1c 00
        E 238 90 24 00
        E 0 90 1a 64
        E 0 90 24 64
        E 0 90 1a 64
        E 240 90 1a 00
        E 0 90 24 00
        E 0 90 1a 00
        E 240 90 1c 64
        E 240 90 1c 00
        E 240 90 1a 64
        E 240 90 1a 00
        E 240 90 26 64
        E 2 90 1c 64
        E 238 90 26 00
        E 2 90 1c 00
        E 240 90 1a 64
        E 240 90 1a 00
        E 238 90 24 64
        E 2 90 1c 64
        E 238 90 24 00
        E 0 90 24 64
        E 2 90 1c 00
        E 238 90 24 00
        E 0 90 1a 64
        E 0 90 24 64
        E 0 90 1a 64
        E 240 90 1a 00
        E 0 90 24 00
        E 0 90 1a 00
        E 240 90 1c 64
        E 240 90 1c 00
        E 240 90 1a 64
        E 240 90 1a 00
        E 240 90 26 64
        E 2 90 1c 64
        E 238 90 26 00
        E 2 90 1c 00
        E 238 90 24 64
        E 2 90 1a 64
        E 238 90 24 00
        E 2 90 1a 00
        E 240 90 1c 64
        E 238 90 24 64
        E 2 90 1c 00
        E 238 90 24 00
        E 0 90 1a 64
        E 0 90 24 64
        E 0 90 1a 64
        E 240 90 1a 00
        E 0 90 24 00
        E 0 90 1a 00
        E 240 90 1a 64
        E 240 90 1a 00
        E 240 90 1a 64
        E 240 90 1a 00
        E 240 90 26 64
        E 2 90 1a 64
        E 238 90 26 00
        E 2 90 1a 00
        E 240 90 1a 64
        E 240 90 1a 00
        E 238 90 24 64
        E 2 90 1a 64
        E 238 90 24 00
        E 0 90 24 64
        E 2 90 1a 00
        E 238 90 24 00
        E 0 90 1a 64
        E 0 90 24 64
        E 0 90 1a 64
        E 240 90 1a 00
        E 0 90 24 00
        E 0 90 1a 00
        E 240 90 1a 64
        E 240 90 1a 00
        E 240 90 1a 64
        E 240 90 1a 00
        E 240 90 26 64
        E 2 90 1a 64
        E 238 90 26 00
        E 2 90 1a 00
        E 238 90 24 64
        E 2 90 1a 64
        E 238 90 24 00
        E 2 90 1a 00
        E 240 90 1a 64
        E 238 90 24 64
        E 2 90 1a 00
        E 238 90 24 00
        E 0 90 1a 64
        E 0 90 24 64
        E 0 90 1a 64
        E 240 90 1a 00
        E 0 90 24 00
        E 0 90 1a 00
        E 240 90 1a 64
        E 240 90 1a 00
        E 240 90 1a 64
        E 240 90 1a 00
        E 240 90 26 64
        E 2 90 1a 64
        E 238 90 26 00
        E 2 90 1a 00
        E 240 90 1a 64
        E 240 90 1a 00
        E 238 90 24 64
        E 2 90 1a 64
        E 238 90 24 00
        E 0 90 24 64
        E 2 90 1a 00
        E 238 90 24 00
        E 0 90 1a 64
        E 0 90 24 64
        E 0 90 1a 64
        E 240 90 1a 00
        E 0 90 24 00
        E 0 90 1a 00
        E 240 90 1a 64
        E 240 90 1a 00
        E 240 90 1a 64
        E 240 90 1a 00
        E 240 90 26 64
        E 2 90 1a 64
        E 238 90 26 00
        E 2 90 1a 00
        E 238 90 24 64
        E 2 90 1a 64
        E 238 90 24 00
        E 2 90 1a 00
        E 240 90 1a 64
        E 238 90 24 64
        E 2 90 1a 00
        E 238 90 24 00
        E 0 90 1a 64
        E 0 90 24 64
        E 0 90 1a 64
        E 240 90 1a 00
        E 0 90 24 00
        E 0 90 1a 00
        E 240 90 1c 64
        E 240 90 1c 00
        E 240 90 1a 64
        E 240 90 1a 00
        E 240 90 26 64
        E 2 90 1c 64
        E 238 90 26 00
        E 2 90 1c 00
        E 240 90 1a 64
        E 240 90 1a 00
        E 238 90 24 64
        E 2 90 1c 64
        E 238 90 24 00
        E 0 90 24 64
        E 2 90 1c 00
        E 238 90 24 00
        E 0 90 1a 64
        E 0 90 24 64
        E 0 90 1a 64
        E 240 90 1a 00
        E 0 90 24 00
        E 0 90 1a 00
        E 240 90 1c 64
        E 240 90 1c 00
        E 240 90 1a 64
        E 240 90 1a 00
        E 240 90 26 64
        E 2 90 1c 64
        E 238 90 26 00
        E 2 90 1c 00
        E 238 90 24 64
        E 2 90 1a 64
        E 238 90 24 00
        E 2 90 1a 00
        E 240 90 1c 64
        E 238 90 24 64
        E 2 90 1c 00
        E 238 90 24 00
        E 0 90 1a 64
        E 0 90 24 64
        E 0 90 1a 64
        E 240 90 1a 00
        E 0 90 24 00
        E 0 90 1a 00
        E 240 90 1c 64
        E 240 90 1c 00
        E 240 90 1a 64
        E 240 90 1a 00
        E 240 90 26 64
        E 2 90 1c 64
        E 238 90 26 00
        E 2 90 1c 00
        E 240 90 1a 64
        E 240 90 1a 00
        E 238 90 24 64
        E 2 90 1c 64
        E 238 90 24 00
        E 0 90 24 64
        E 2 90 1c 00
        E 238 90 24 00
        E 0 90 1a 64
        E 0 90 24 64
        E 0 90 1a 64
        E 240 90 1a 00
        E 0 90 24 00
        E 0 90 1a 00
        E 240 90 1c 64
        E 240 90 1c 00
        E 240 90 1a 64
        E 240 90 1a 00
        E 240 90 26 64
        E 2 90 1c 64
        E 238 90 26 00
        E 2 90 1c 00
        E 238 90 24 64
        E 2 90 1a 64
        E 238 90 24 00
        E 2 90 1a 00
        E 240 90 1c 64
        E 238 90 24 64
        E 2 90 1c 00
        E 238 90 24 00
        E 0 90 1a 64
        E 0 90 24 64
        E 240 90 1a 00
        E 0 90 24 00
        E 2640 90 24 7f
        E 2 90 55 7f
        E 4 90 2c 7f
        E 234 90 24 00
        E 164 90 55 00
        E 112 90 2c 00
        E 446 90 55 19
        E 4 90 2c 71
        E 172 90 55 00
        E 390 90 2c 00
        E 382 90 2c 7f
        E 16 90 55 7f
        E 364 90 55 00
        E 202 90 2c 00
        E 374 90 2c 7f
        E 14 90 55 15
        E 178 90 55 00
        E 310 90 2c 00
        E 472 90 26 7f
        E 2 90 55 7f
        E 4 90 2c 7f
        E 234 90 26 00
        E 164 90 55 00
        E 112 90 2c 00
        E 446 90 55 19
        E 4 90 2c 71
        E 172 90 55 00
        E 390 90 2c 00
        E 382 90 2c 7f
        E 16 90 55 7f
        E 364 90 55 00
        E 202 90 2c 00
        E 374 90 2c 7f
        E 14 90 55 15
        E 178 90 55 00
        E 310 90 2c 00
        E 472 90 24 7f
        E 2 90 55 7f
        E 4 90 2c 7f
        E 234 90 24 00
        E 164 90 55 00
        E 112 90 2c 00
        E 446 90 55 19
        E 4 90 2c 71
        E 172 90 55 00
        E 390 90 2c 00
        E 382 90 2c 7f
        E 16 90 55 7f
        E 364 90 55 00
        E 202 90 2c 00
        E 374 90 2c 7f
        E 14 90 55 15
        E 178 90 55 00
        E 310 90 2c 00
        E 472 90 26 7f
        E 2 90 55 7f
        E 4 90 2c 7f
        E 234 90 26 00
        E 164 90 55 00
        E 112 90 2c 00
        E 446 90 55 19
        E 4 90 2c 71
        E 172 90 55 00
        E 390 90 2c 00
        E 382 90 2c 7f
        E 16 90 55 7f
        E 364 90 55 00
        E 202 90 2c 00
        E 374 90 2c 7f
        E 14 90 55 15
        E 178 90 55 00
        E 310 90 2c 00
        E 472 90 24 7f
        E 2 90 55 7f
        E 4 90 2c 7f
        E 234 90 24 00
        E 164 90 55 00
        E 112 90 2c 00
        E 446 90 55 19
        E 4 90 2c 71
        E 172 90 55 00
        E 390 90 2c 00
        E 382 90 2c 7f
        E 16 90 55 7f
        E 364 90 55 00
        E 202 90 2c 00
        E 374 90 2c 7f
        E 14 90 55 15
        E 178 90 55 00
        E 310 90 2c 00
        E 472 90 26 7f
        E 2 90 55 7f
        E 4 90 2c 7f
        E 234 90 26 00
        E 164 90 55 00
        E 112 90 2c 00
        E 446 90 55 19
        E 4 90 2c 71
        E 172 90 55 00
        E 390 90 2c 00
        E 382 90 2c 7f
        E 16 90 55 7f
        E 364 90 55 00
        E 202 90 2c 00
        E 374 90 2c 7f
        E 14 90 55 15
        E 178 90 55 00
        E 310 90 2c 00
        E 472 90 24 7f
        E 2 90 55 7f
        E 4 90 2c 7f
        E 234 90 24 00
        E 164 90 55 00
        E 112 90 2c 00
        E 446 90 55 19
        E 4 90 2c 71
        E 172 90 55 00
        E 390 90 2c 00
        E 382 90 2c 7f
        E 16 90 55 7f
        E 364 90 55 00
        E 202 90 2c 00
        E 374 90 2c 7f
        E 14 90 55 15
        E 178 90 55 00
        E 310 90 2c 00
        E 472 b0 7b 00
        GUID {5FF06D6C-4CD9-8C47-B14D-A6C4DCC71B12}
        IGNTEMPO 0 120.00000000 4 4
        SRCCOLOR 128
        VELLANE -1 100 0
        CFGEDITVIEW 0.000000 0.000000 91 12 0 0 0
        CFGEDIT 1 1 0 1 0 0 1 0 1 1 1 0.06250000 285 133 1710 794 0 0 0 0 0.00000000 0 0 0 0 0.500000 0 0 1.000000 64
        KEYSNAP 0 0 "102034050607" 0 "Major"
        EVTFILTER 0 -1 -1 -1 -1 0 1 0 0 -1.00000000 -1.00000000
      >
    >
    <ITEM
      POSITION 138.16216216213070
      SNAPOFFS 0.00000000000000
      LENGTH 5.18918918918919
      LOOP 1
      ALLTAKES 0
      SEL 0
      FADEIN 1 0.000000 0.000000 1 0
      FADEOUT 1 0.000000 0.000000 1 0
      MUTE 0
      IGUID {A780478A-2E3F-DE4A-8BEF-5B5D181623E3}
      IID 1220
      NAME "miesjuna - miesjuna.mid"
      VOLPAN 1.000000 0.000000 1.000000 -1.000000
      SOFFS 0.00000000000000 0.00000000000000
      PLAYRATE 1.00000000000000 1 0.00000000000000 -1
      CHANMODE 0
      GUID {9F820054-228B-CD41-81CE-BF3C137BBAEC}
      <SOURCE MIDI
        HASDATA 1 480 QN
        POOLEDEVTS {9B63E308-54FD-BB4E-B8BA-35E936804BF8}
        E 0 90 18 19
        E 29 90 18 00
        E 216 90 18 6b
        E 41 90 18 00
        E 72 90 24 7f
        E 120 90 24 00
        E 0 90 24 7f
        E 2 90 18 19
        E 118 90 24 00
        E 2 90 18 00
        E 120 90 18 6b
        E 120 90 18 00
        E 0 90 24 7f
        E 120 90 24 00
        E 0 90 18 19
        E 0 90 24 7f
        E 29 90 18 00
        E 91 90 24 00
        E 125 90 18 6b
        E 41 90 18 00
        E 194 90 18 15
        E 35 90 18 00
        E 205 90 24 64
        E 7 90 18 7f
        E 43 90 18 00
        E 70 90 24 00
        E 0 90 24 64
        E 120 90 24 00
        E 0 90 24 64
        E 3 90 18 19
        E 29 90 18 00
        E 208 90 24 00
        E 0 90 24 64
        E 8 90 18 6b
        E 41 90 18 00
        E 71 90 24 00
        E 2 90 24 64
        E 118 90 24 00
        E 0 90 24 64
        E 2 90 24 00
        E 1 90 18 19
        E 117 90 24 64
        E 3 90 18 00
        E 117 90 24 00
        E 0 90 24 64
        E 3 90 18 6b
        E 117 90 24 00
        E 0 90 24 64
        E 3 90 18 00
        E 117 90 24 00
        E 0 90 24 64
        E 3 90 18 19
        E 29 90 18 00
        E 88 90 24 00
        E 120 90 24 64
        E 8 90 18 6b
        E 41 90 18 00
        E 71 90 24 00
        E 120 90 24 64
        E 3 90 18 15
        E 35 90 18 00
        E 82 90 24 00
        E 120 90 24 64
        E 10 90 18 7f
        E 43 90 18 00
        E 67 90 24 00
        E 120 90 18 19
        E 29 90 18 00
        E 216 90 18 6b
        E 41 90 18 00
        E 72 90 24 7f
        E 120 90 24 00
        E 0 90 24 7f
        E 2 90 18 19
        E 118 90 24 00
        E 2 90 18 00
        E 120 90 18 6b
        E 120 90 18 00
        E 0 90 24 7f
        E 120 90 24 00
        E 0 90 18 19
        E 0 90 24 7f
        E 29 90 18 00
        E 91 90 24 00
        E 125 90 18 6b
        E 41 90 18 00
        E 194 90 18 15
        E 35 90 18 00
        E 205 90 24 64
        E 7 90 18 7f
        E 43 90 18 00
        E 70 90 24 00
        E 0 90 24 64
        E 120 90 24 00
        E 0 90 24 64
        E 3 90 18 19
        E 29 90 18 00
        E 208 90 24 00
        E 0 90 24 64
        E 8 90 18 6b
        E 41 90 18 00
        E 71 90 24 00
        E 2 90 24 64
        E 118 90 24 00
        E 0 90 24 64
        E 2 90 24 00
        E 1 90 18 19
        E 117 90 24 64
        E 3 90 18 00
        E 117 90 24 00
        E 0 90 24 64
        E 3 90 18 6b
        E 117 90 24 00
        E 0 90 24 64
        E 3 90 18 00
        E 117 90 24 00
        E 0 90 24 64
        E 3 90 18 19
        E 29 90 18 00
        E 88 90 24 00
        E 120 90 24 64
        E 8 90 18 6b
        E 41 90 18 00
        E 71 90 24 00
        E 120 90 24 64
        E 3 90 18 15
        E 35 90 18 00
        E 82 90 24 00
        E 120 90 24 64
        E 10 90 18 7f
        E 43 90 18 00
        E 67 90 24 00
        E 120 b0 7b 00
        GUID {961C8263-987B-DB4B-A6BA-C21F86FF7559}
        IGNTEMPO 0 120.00000000 4 4
        SRCCOLOR 129
        VELLANE -1 100 0
        CFGEDITVIEW -384.000000 0.148556 68 12 0 0 0
        CFGEDIT 1 1 0 1 0 0 1 0 1 1 1 0.06250000 285 133 1710 794 0 0 0 0 0.00000000 0 0 0 0 0.500000 0 0 1.000000 64
        KEYSNAP 0 0 "102034050607" 0 "Major"
        EVTFILTER 0 -1 -1 -1 -1 0 1 0 0 -1.00000000 -1.00000000
      >
    >
    <ITEM
      POSITION 143.35135135136079
      SNAPOFFS 0.00000000000000
      LENGTH 2.59459459460314
      LOOP 1
      ALLTAKES 0
      SEL 0
      FADEIN 1 0.000000 0.000000 1 0
      FADEOUT 1 0.000000 0.000000 1 0
      MUTE 0
      IGUID {56DF5F31-A0C8-FB43-AEAF-E6AB68C3C3D6}
      IID 1220
      NAME "miesjuna - miesjuna.mid"
      VOLPAN 1.000000 0.000000 1.000000 -1.000000
      SOFFS 5.18918918927932 16.00000000027791
      PLAYRATE 1.00000000000000 1 0.00000000000000 -1
      CHANMODE 0
      GUID {0658BDD3-DE45-EF48-8873-52A4F1F3BAC8}
      <SOURCE MIDI
        HASDATA 1 480 QN
        POOLEDEVTS {93DBFAA5-C144-B74B-AC06-713C0B5957CD}
        E 0 90 18 19
        E 29 90 18 00
        E 216 90 18 6b
        E 41 90 18 00
        E 72 90 24 7f
        E 120 90 24 00
        E 0 90 24 7f
        E 2 90 18 19
        E 118 90 24 00
        E 2 90 18 00
        E 120 90 18 6b
        E 120 90 18 00
        E 0 90 24 7f
        E 120 90 24 00
        E 0 90 18 19
        E 0 90 24 7f
        E 29 90 18 00
        E 91 90 24 00
        E 125 90 18 6b
        E 41 90 18 00
        E 194 90 18 15
        E 35 90 18 00
        E 205 90 24 64
        E 7 90 18 7f
        E 43 90 18 00
        E 70 90 24 00
        E 0 90 24 64
        E 120 90 24 00
        E 0 90 24 64
        E 3 90 18 19
        E 29 90 18 00
        E 208 90 24 00
        E 0 90 24 64
        E 8 90 18 6b
        E 41 90 18 00
        E 71 90 24 00
        E 2 90 24 64
        E 118 90 24 00
        E 0 90 24 64
        E 2 90 24 00
        E 1 90 18 19
        E 117 90 24 64
        E 3 90 18 00
        E 117 90 24 00
        E 0 90 24 64
        E 3 90 18 6b
        E 117 90 24 00
        E 0 90 24 64
        E 3 90 18 00
        E 117 90 24 00
        E 0 90 24 64
        E 3 90 18 19
        E 29 90 18 00
        E 88 90 24 00
        E 120 90 24 64
        E 8 90 18 6b
        E 41 90 18 00
        E 71 90 24 00
        E 120 90 24 64
        E 3 90 18 15
        E 35 90 18 00
        E 82 90 24 00
        E 120 90 24 64
        E 10 90 18 7f
        E 43 90 18 00
        E 67 90 24 00
        E 120 90 18 19
        E 29 90 18 00
        E 216 90 18 6b
        E 41 90 18 00
        E 72 90 24 7f
        E 120 90 24 00
        E 0 90 24 7f
        E 2 90 18 19
        E 118 90 24 00
        E 2 90 18 00
        E 120 90 18 6b
        E 120 90 18 00
        E 0 90 24 7f
        E 120 90 24 00
        E 0 90 18 19
        E 0 90 24 7f
        E 29 90 18 00
        E 91 90 24 00
        E 125 90 18 6b
        E 41 90 18 00
        E 194 90 18 15
        E 35 90 18 00
        E 205 90 24 64
        E 7 90 18 7f
        E 43 90 18 00
        E 70 90 24 00
        E 0 90 24 64
        E 120 90 24 00
        E 0 90 24 64
        E 3 90 18 19
        E 29 90 18 00
        E 208 90 24 00
        E 0 90 24 64
        E 8 90 18 6b
        E 41 90 18 00
        E 71 90 24 00
        E 2 90 24 64
        E 118 90 24 00
        E 0 90 24 64
        E 2 90 24 00
        E 1 90 18 19
        E 117 90 24 64
        E 3 90 18 00
        E 117 90 24 00
        E 0 90 24 64
        E 3 90 18 6b
        E 117 90 24 00
        E 0 90 24 64
        E 3 90 18 00
        E 117 90 24 00
        E 0 90 24 64
        E 3 90 18 19
        E 29 90 18 00
        E 88 90 24 00
        E 120 90 24 64
        E 8 90 18 6b
        E 41 90 18 00
        E 71 90 24 00
        E 120 90 24 64
        E 3 90 18 15
        E 35 90 18 00
        E 82 90 24 00
        E 120 90 24 64
        E 10 90 18 7f
        E 43 90 18 00
        E 67 90 24 00
        E 120 90 1d 64
        E 240 90 1d 00
        E 120 90 24 7f
        E 120 90 24 00
        E 0 90 24 7f
        E 4 90 1d 64
        E 116 90 24 00
        E 124 90 1d 00
        E 118 90 24 7f
        E 119 90 1d 64
        E 1 90 24 00
        E 0 90 24 7f
        E 120 90 24 00
        E 119 90 1d 00
        E 243 90 1d 64
        E 240 90 1d 00
        E 237 90 1d 64
        E 240 90 1d 00
        E 244 90 1d 64
        E 240 90 1d 00
        E 237 90 1d 64
        E 240 90 1d 00
        E 244 90 1d 64
        E 240 90 1d 00
        E 234 b0 7b 00
        GUID {BF1596F2-BC3E-7C46-B9A4-FDA5E0F0FFC8}
        IGNTEMPO 0 120.00000000 4 4
        SRCCOLOR 132
        VELLANE -1 100 0
        CFGEDITVIEW 0.000000 0.000000 68 12 0 0 0
        CFGEDIT 1 1 0 1 0 0 1 0 1 1 1 0.06250000 285 133 1710 794 0 0 0 0 0.00000000 0 0 0 0 0.500000 0 0 1.000000 64
        KEYSNAP 0 0 "102034050607" 0 "Major"
        EVTFILTER 0 -1 -1 -1 -1 0 1 0 0 -1.00000000 -1.00000000
      >
    >
    <ITEM
      POSITION 145.94594594591763
      SNAPOFFS 0.00000000000000
      LENGTH 2.59459459459447
      LOOP 1
      ALLTAKES 0
      SEL 0
      FADEIN 1 0.000000 0.000000 1 0
      FADEOUT 1 0.000000 0.000000 1 0
      MUTE 0
      IGUID {2B018246-257C-034C-8B20-78B486B2925C}
      IID 1220
      NAME "miesjuna - miesjuna.mid"
      VOLPAN 1.000000 0.000000 1.000000 -1.000000
      SOFFS 5.18918918919937 16.00000000003143
      PLAYRATE 1.00000000000000 1 0.00000000000000 -1
      CHANMODE 0
      GUID {FCA0A628-DA08-564C-83F2-E33C38155C35}
      <SOURCE MIDI
        HASDATA 1 480 QN
        POOLEDEVTS {D4B40B53-6455-8E44-BF57-436002C959FE}
        E 0 90 18 19
        E 29 90 18 00
        E 216 90 18 6b
        E 41 90 18 00
        E 72 90 24 7f
        E 120 90 24 00
        E 0 90 24 7f
        E 2 90 18 19
        E 118 90 24 00
        E 2 90 18 00
        E 120 90 18 6b
        E 120 90 18 00
        E 0 90 24 7f
        E 120 90 24 00
        E 0 90 18 19
        E 0 90 24 7f
        E 29 90 18 00
        E 91 90 24 00
        E 125 90 18 6b
        E 41 90 18 00
        E 194 90 18 15
        E 35 90 18 00
        E 205 90 24 64
        E 7 90 18 7f
        E 43 90 18 00
        E 70 90 24 00
        E 0 90 24 64
        E 120 90 24 00
        E 0 90 24 64
        E 3 90 18 19
        E 29 90 18 00
        E 208 90 24 00
        E 0 90 24 64
        E 8 90 18 6b
        E 41 90 18 00
        E 71 90 24 00
        E 2 90 24 64
        E 118 90 24 00
        E 0 90 24 64
        E 2 90 24 00
        E 1 90 18 19
        E 117 90 24 64
        E 3 90 18 00
        E 117 90 24 00
        E 0 90 24 64
        E 3 90 18 6b
        E 117 90 24 00
        E 0 90 24 64
        E 3 90 18 00
        E 117 90 24 00
        E 0 90 24 64
        E 3 90 18 19
        E 29 90 18 00
        E 88 90 24 00
        E 120 90 24 64
        E 8 90 18 6b
        E 41 90 18 00
        E 71 90 24 00
        E 120 90 24 64
        E 3 90 18 15
        E 35 90 18 00
        E 82 90 24 00
        E 120 90 24 64
        E 10 90 18 7f
        E 43 90 18 00
        E 67 90 24 00
        E 120 90 18 19
        E 29 90 18 00
        E 216 90 18 6b
        E 41 90 18 00
        E 72 90 24 7f
        E 120 90 24 00
        E 0 90 24 7f
        E 2 90 18 19
        E 118 90 24 00
        E 2 90 18 00
        E 120 90 18 6b
        E 120 90 18 00
        E 0 90 24 7f
        E 120 90 24 00
        E 0 90 18 19
        E 0 90 24 7f
        E 29 90 18 00
        E 91 90 24 00
        E 125 90 18 6b
        E 41 90 18 00
        E 194 90 18 15
        E 35 90 18 00
        E 205 90 24 64
        E 7 90 18 7f
        E 43 90 18 00
        E 70 90 24 00
        E 0 90 24 64
        E 120 90 24 00
        E 0 90 24 64
        E 3 90 18 19
        E 29 90 18 00
        E 208 90 24 00
        E 0 90 24 64
        E 8 90 18 6b
        E 41 90 18 00
        E 71 90 24 00
        E 2 90 24 64
        E 118 90 24 00
        E 0 90 24 64
        E 2 90 24 00
        E 1 90 18 19
        E 117 90 24 64
        E 3 90 18 00
        E 117 90 24 00
        E 0 90 24 64
        E 3 90 18 6b
        E 117 90 24 00
        E 0 90 24 64
        E 3 90 18 00
        E 117 90 24 00
        E 0 90 24 64
        E 3 90 18 19
        E 29 90 18 00
        E 88 90 24 00
        E 120 90 24 64
        E 8 90 18 6b
        E 41 90 18 00
        E 71 90 24 00
        E 120 90 24 64
        E 3 90 18 15
        E 35 90 18 00
        E 82 90 24 00
        E 120 90 24 64
        E 10 90 18 7f
        E 43 90 18 00
        E 67 90 24 00
        E 120 90 1d 64
        E 240 90 1d 00
        E 120 90 24 7f
        E 120 90 24 00
        E 0 90 24 7f
        E 4 90 1d 64
        E 116 90 24 00
        E 124 90 1d 00
        E 118 90 24 7f
        E 119 90 1d 64
        E 1 90 24 00
        E 0 90 24 7f
        E 120 90 24 00
        E 119 90 1d 00
        E 243 90 1d 64
        E 240 90 1d 00
        E 237 90 1d 64
        E 240 90 1d 00
        E 244 90 1d 64
        E 240 90 1d 00
        E 237 90 1d 64
        E 240 90 1d 00
        E 244 90 1d 64
        E 240 90 1d 00
        E 234 b0 7b 00
        GUID {2687C6B6-94D6-B748-8D60-37AE45720109}
        IGNTEMPO 0 120.00000000 4 4
        SRCCOLOR 135
        VELLANE -1 100 0
        CFGEDITVIEW 0.000000 0.000000 68 12 0 0 0
        CFGEDIT 1 1 0 1 0 0 1 0 1 1 1 0.06250000 285 133 1710 794 0 0 0 0 0.00000000 0 0 0 0 0.500000 0 0 1.000000 64
        KEYSNAP 0 0 "102034050607" 0 "Major"
        EVTFILTER 0 -1 -1 -1 -1 0 1 0 0 -1.00000000 -1.00000000
      >
    >
    <ITEM
      POSITION 148.54054054059088
      SNAPOFFS 0.00000000000000
      LENGTH 0.97297297296399
      LOOP 1
      ALLTAKES 0
      SEL 0
      FADEIN 1 0.000000 0.000000 1 0
      FADEOUT 1 0.000000 0.000000 1 0
      MUTE 0
      IGUID {5C39E8F7-F29B-2A46-AB31-E1B708E2D177}
      IID 1220
      NAME "miesjuna - miesjuna.mid"
      VOLPAN 1.000000 0.000000 1.000000 -1.000000
      SOFFS 5.18918918919937 16.00000000003143
      PLAYRATE 1.00000000000000 1 0.00000000000000 -1
      CHANMODE 0
      GUID {C76FF637-2CC6-F749-9C14-7F8156328633}
      <SOURCE MIDI
        HASDATA 1 480 QN
        POOLEDEVTS {5F9F45C7-F8BA-ED44-857B-57F5AAD8D22B}
        E 0 90 18 19
        E 29 90 18 00
        E 216 90 18 6b
        E 41 90 18 00
        E 72 90 24 7f
        E 120 90 24 00
        E 0 90 24 7f
        E 2 90 18 19
        E 118 90 24 00
        E 2 90 18 00
        E 120 90 18 6b
        E 120 90 18 00
        E 0 90 24 7f
        E 120 90 24 00
        E 0 90 18 19
        E 0 90 24 7f
        E 29 90 18 00
        E 91 90 24 00
        E 125 90 18 6b
        E 41 90 18 00
        E 194 90 18 15
        E 35 90 18 00
        E 205 90 24 64
        E 7 90 18 7f
        E 43 90 18 00
        E 70 90 24 00
        E 0 90 24 64
        E 120 90 24 00
        E 0 90 24 64
        E 3 90 18 19
        E 29 90 18 00
        E 208 90 24 00
        E 0 90 24 64
        E 8 90 18 6b
        E 41 90 18 00
        E 71 90 24 00
        E 2 90 24 64
        E 118 90 24 00
        E 0 90 24 64
        E 2 90 24 00
        E 1 90 18 19
        E 117 90 24 64
        E 3 90 18 00
        E 117 90 24 00
        E 0 90 24 64
        E 3 90 18 6b
        E 117 90 24 00
        E 0 90 24 64
        E 3 90 18 00
        E 117 90 24 00
        E 0 90 24 64
        E 3 90 18 19
        E 29 90 18 00
        E 88 90 24 00
        E 120 90 24 64
        E 8 90 18 6b
        E 41 90 18 00
        E 71 90 24 00
        E 120 90 24 64
        E 3 90 18 15
        E 35 90 18 00
        E 82 90 24 00
        E 120 90 24 64
        E 10 90 18 7f
        E 43 90 18 00
        E 67 90 24 00
        E 120 90 18 19
        E 29 90 18 00
        E 216 90 18 6b
        E 41 90 18 00
        E 72 90 24 7f
        E 120 90 24 00
        E 0 90 24 7f
        E 2 90 18 19
        E 118 90 24 00
        E 2 90 18 00
        E 120 90 18 6b
        E 120 90 18 00
        E 0 90 24 7f
        E 120 90 24 00
        E 0 90 18 19
        E 0 90 24 7f
        E 29 90 18 00
        E 91 90 24 00
        E 125 90 18 6b
        E 41 90 18 00
        E 194 90 18 15
        E 35 90 18 00
        E 205 90 24 64
        E 7 90 18 7f
        E 43 90 18 00
        E 70 90 24 00
        E 0 90 24 64
        E 120 90 24 00
        E 0 90 24 64
        E 3 90 18 19
        E 29 90 18 00
        E 208 90 24 00
        E 0 90 24 64
        E 8 90 18 6b
        E 41 90 18 00
        E 71 90 24 00
        E 2 90 24 64
        E 118 90 24 00
        E 0 90 24 64
        E 2 90 24 00
        E 1 90 18 19
        E 117 90 24 64
        E 3 90 18 00
        E 117 90 24 00
        E 0 90 24 64
        E 3 90 18 6b
        E 117 90 24 00
        E 0 90 24 64
        E 3 90 18 00
        E 117 90 24 00
        E 0 90 24 64
        E 3 90 18 19
        E 29 90 18 00
        E 88 90 24 00
        E 120 90 24 64
        E 8 90 18 6b
        E 41 90 18 00
        E 71 90 24 00
        E 120 90 24 64
        E 3 90 18 15
        E 35 90 18 00
        E 82 90 24 00
        E 120 90 24 64
        E 10 90 18 7f
        E 43 90 18 00
        E 67 90 24 00
        E 120 90 1d 64
        E 240 90 1d 00
        E 120 90 24 7f
        E 120 90 24 00
        E 0 90 24 7f
        E 4 90 1d 64
        E 116 90 24 00
        E 124 90 1d 00
        E 118 90 24 7f
        E 119 90 1d 64
        E 1 90 24 00
        E 0 90 24 7f
        E 120 90 24 00
        E 119 90 1d 00
        E 239 b0 7b 00
        GUID {2687C6B6-94D6-B748-8D60-37AE45720109}
        IGNTEMPO 0 120.00000000 4 4
        SRCCOLOR 135
        VELLANE -1 100 0
        CFGEDITVIEW 0.000000 0.000000 68 12 0 0 0
        CFGEDIT 1 1 0 1 0 0 1 0 1 1 1 0.06250000 285 133 1710 794 0 0 0 0 0.00000000 0 0 0 0 0.500000 0 0 1.000000 64
        KEYSNAP 0 0 "102034050607" 0 "Major"
        EVTFILTER 0 -1 -1 -1 -1 0 1 0 0 -1.00000000 -1.00000000
      >
    >
    <ITEM
      POSITION 150.16216216213070
      SNAPOFFS 0.00000000000000
      LENGTH 11.35135135125196
      LOOP 1
      ALLTAKES 0
      SEL 0
      FADEIN 1 0.000000 0.000000 1 0
      FADEOUT 1 0.000000 0.000000 1 0
      MUTE 0
      IGUID {E30C9CF9-2A3C-1D49-BD43-829C801546BB}
      IID 1220
      NAME "miesjuna - miesjuna.mid"
      VOLPAN 1.000000 0.000000 1.000000 -1.000000
      SOFFS 0.00000000000000 0.00000000000000
      PLAYRATE 1.00000000000000 1 0.00000000000000 -1
      CHANMODE 0
      GUID {10DCA626-C342-224B-9EAB-265FB49A1D9C}
      <SOURCE MIDI
        HASDATA 1 480 QN
        POOLEDEVTS {07682E39-73FC-364A-B54D-5E9866D1E052}
        E 1440 90 1d 64
        E 0 90 26 64
        E 0 90 23 64
        E 240 90 1d 00
        E 0 90 26 00
        E 0 90 23 00
        E 0 90 26 64
        E 240 90 26 00
        E 0 90 26 64
        E 0 90 23 64
        E 4 90 1d 64
        E 236 90 26 00
        E 0 90 23 00
        E 0 90 26 64
        E 4 90 1d 00
        E 236 90 26 00
        E 0 90 26 64
        E 0 90 23 64
        E 1 90 1d 64
        E 239 90 26 00
        E 0 90 23 00
        E 0 90 26 64
        E 1 90 1d 00
        E 239 90 26 00
        E 0 90 26 64
        E 0 90 23 64
        E 4 90 1d 64
        E 236 90 26 00
        E 0 90 23 00
        E 0 90 26 64
        E 4 90 1d 00
        E 236 90 26 00
        E 0 90 26 64
        E 0 90 23 64
        E 1 90 1d 64
        E 239 90 26 00
        E 0 90 23 00
        E 0 90 26 64
        E 1 90 1d 00
        E 239 90 26 00
        E 0 90 26 64
        E 0 90 23 64
        E 5 90 1d 64
        E 235 90 26 00
        E 0 90 23 00
        E 0 90 26 64
        E 5 90 1d 00
        E 235 90 26 00
        E 0 90 26 64
        E 0 90 23 64
        E 2 90 1d 64
        E 238 90 26 00
        E 0 90 23 00
        E 0 90 26 64
        E 2 90 1d 00
        E 238 90 26 00
        E 0 90 26 64
        E 0 90 23 64
        E 6 90 1d 64
        E 234 90 26 00
        E 0 90 23 00
        E 0 90 26 64
        E 6 90 1d 00
        E 234 90 26 00
        E 0 90 1d 64
        E 0 90 26 64
        E 0 90 23 64
        E 240 90 1d 00
        E 0 90 26 00
        E 0 90 23 00
        E 0 90 26 64
        E 240 90 26 00
        E 0 90 26 64
        E 0 90 23 64
        E 4 90 1d 64
        E 236 90 26 00
        E 0 90 23 00
        E 0 90 26 64
        E 4 90 1d 00
        E 236 90 26 00
        E 0 90 26 64
        E 0 90 23 64
        E 1 90 1d 64
        E 239 90 26 00
        E 0 90 23 00
        E 0 90 26 64
        E 1 90 1d 00
        E 239 90 26 00
        E 0 90 26 64
        E 0 90 23 64
        E 4 90 1d 64
        E 236 90 26 00
        E 0 90 23 00
        E 0 90 26 64
        E 4 90 1d 00
        E 236 90 26 00
        E 0 90 26 64
        E 0 90 23 64
        E 1 90 1d 64
        E 239 90 26 00
        E 0 90 23 00
        E 0 90 26 64
        E 1 90 1d 00
        E 239 90 26 00
        E 0 90 26 64
        E 0 90 23 64
        E 5 90 1d 64
        E 235 90 26 00
        E 0 90 23 00
        E 0 90 26 64
        E 5 90 1d 00
        E 235 90 26 00
        E 0 90 26 64
        E 0 90 23 64
        E 2 90 1d 64
        E 238 90 26 00
        E 0 90 23 00
        E 0 90 26 64
        E 2 90 1d 00
        E 238 90 26 00
        E 0 90 26 64
        E 0 90 23 64
        E 6 90 1d 64
        E 234 90 26 00
        E 0 90 23 00
        E 0 90 26 64
        E 6 90 1d 00
        E 234 90 26 00
        E 0 90 24 7f
        E 0 90 1d 64
        E 30 90 24 00
        E 89 90 1d 64
        E 1 90 1d 00
        E 0 90 24 72
        E 30 90 24 00
        E 89 90 1d 00
        E 1 90 24 72
        E 30 90 24 00
        E 90 90 24 72
        E 30 90 24 00
        E 90 90 24 72
        E 2 90 1d 64
        E 28 90 24 00
        E 90 90 24 72
        E 1 90 1d 64
        E 1 90 1d 00
        E 28 90 24 00
        E 90 90 24 72
        E 1 90 1d 00
        E 29 90 24 00
        E 90 90 24 72
        E 30 90 24 00
        E 90 90 1d 64
        E 0 90 24 7f
        E 30 90 24 00
        E 89 90 1d 64
        E 1 90 1d 00
        E 0 90 24 72
        E 30 90 24 00
        E 89 90 1d 00
        E 1 90 24 72
        E 30 90 24 00
        E 90 90 24 72
        E 30 90 24 00
        E 90 90 24 72
        E 2 90 1d 64
        E 28 90 24 00
        E 90 90 24 72
        E 1 90 1d 64
        E 1 90 1d 00
        E 28 90 24 00
        E 90 90 24 72
        E 1 90 1d 00
        E 29 90 24 00
        E 90 90 24 72
        E 30 90 24 00
        E 90 90 24 7f
        E 0 90 1d 64
        E 30 90 24 00
        E 89 90 1d 64
        E 1 90 24 72
        E 0 90 1d 00
        E 30 90 24 00
        E 89 90 1d 00
        E 1 90 24 72
        E 30 90 24 00
        E 90 90 24 72
        E 30 90 24 00
        E 90 90 24 72
        E 2 90 1d 64
        E 28 90 24 00
        E 90 90 24 72
        E 1 90 1d 64
        E 1 90 1d 00
        E 28 90 24 00
        E 90 90 24 72
        E 1 90 1d 00
        E 29 90 24 00
        E 90 90 24 72
        E 30 90 24 00
        E 90 90 24 7f
        E 1 90 1d 64
        E 29 90 24 00
        E 90 90 1d 64
        E 0 90 24 72
        E 1 90 1d 00
        E 29 90 24 00
        E 90 90 1d 00
        E 0 90 24 72
        E 30 90 24 00
        E 90 90 24 72
        E 30 90 24 00
        E 90 90 24 72
        E 3 90 1d 64
        E 27 90 24 00
        E 90 90 24 72
        E 2 90 1d 64
        E 1 90 1d 00
        E 27 90 24 00
        E 90 90 24 72
        E 2 90 1d 00
        E 28 90 24 00
        E 90 90 24 72
        E 30 90 24 00
        E 90 90 24 7f
        E 1 90 1d 64
        E 29 90 24 00
        E 90 90 24 72
        E 0 90 1d 64
        E 1 90 1d 00
        E 29 90 24 00
        E 90 90 24 72
        E 0 90 1d 00
        E 30 90 24 00
        E 90 90 24 72
        E 30 90 24 00
        E 90 90 24 72
        E 3 90 1d 64
        E 27 90 24 00
        E 90 90 24 72
        E 2 90 1d 64
        E 1 90 1d 00
        E 27 90 24 00
        E 90 90 24 72
        E 2 90 1d 00
        E 28 90 24 00
        E 90 90 24 72
        E 30 90 24 00
        E 90 90 1d 64
        E 0 90 24 7f
        E 30 90 24 00
        E 89 90 1d 64
        E 1 90 1d 00
        E 0 90 24 72
        E 30 90 24 00
        E 89 90 1d 00
        E 1 90 24 72
        E 30 90 24 00
        E 90 90 24 72
        E 30 90 24 00
        E 90 90 24 72
        E 1 90 1d 64
        E 29 90 24 00
        E 90 90 24 72
        E 0 90 1d 64
        E 1 90 1d 00
        E 29 90 24 00
        E 90 90 24 72
        E 0 90 1d 00
        E 30 90 24 00
        E 90 90 24 72
        E 30 90 24 00
        E 90 90 24 7f
        E 0 90 1d 64
        E 30 90 24 00
        E 89 90 1d 64
        E 1 90 1d 00
        E 0 90 24 72
        E 30 90 24 00
        E 89 90 1d 00
        E 1 90 24 72
        E 30 90 24 00
        E 90 90 24 72
        E 30 90 24 00
        E 90 90 24 72
        E 2 90 1d 64
        E 28 90 24 00
        E 90 90 24 72
        E 1 90 1d 64
        E 1 90 1d 00
        E 28 90 24 00
        E 90 90 24 72
        E 1 90 1d 00
        E 29 90 24 00
        E 90 90 24 72
        E 30 90 24 00
        E 90 90 24 7f
        E 0 90 1d 64
        E 30 90 24 00
        E 89 90 1d 64
        E 1 90 1d 00
        E 0 90 24 72
        E 30 90 24 00
        E 89 90 1d 00
        E 1 90 24 72
        E 30 90 24 00
        E 90 90 24 72
        E 30 90 24 00
        E 90 90 24 72
        E 2 90 1d 64
        E 28 90 24 00
        E 90 90 24 72
        E 1 90 1d 64
        E 1 90 1d 00
        E 28 90 24 00
        E 90 90 24 72
        E 1 90 1d 00
        E 29 90 24 00
        E 90 90 24 72
        E 30 90 24 00
        E 2970 b0 7b 00
        GUID {A4379FDC-F6EA-9240-87EA-1978AAED9805}
        IGNTEMPO 0 120.00000000 4 4
        SRCCOLOR 130
        VELLANE -1 100 0
        CFGEDITVIEW 0.000000 0.000000 91 12 0 0 0
        CFGEDIT 1 1 0 1 0 0 1 0 1 1 1 0.06250000 285 133 1710 794 0 0 0 0 0.00000000 0 0 0 0 0.500000 0 0 1.000000 64
        KEYSNAP 0 0 "102034050607" 0 "Major"
        EVTFILTER 0 -1 -1 -1 -1 0 1 0 0 -1.00000000 -1.00000000
      >
    >
    <ITEM
      POSITION 165.40540540544316
      SNAPOFFS 0.00000000000000
      LENGTH 31.13513513513544
      LOOP 1
      ALLTAKES 0
      SEL 0
      FADEIN 1 0.000000 0.000000 1 0
      FADEOUT 1 0.000000 0.000000 1 0
      MUTE 0
      IGUID {308F7216-E8A4-CE40-BD0E-3E803F5511AD}
      IID 1220
      NAME "miesjuna - miesjuna.mid"
      VOLPAN 1.000000 0.000000 1.000000 -1.000000
      SOFFS 160.86486486485165 495.99999999995924
      PLAYRATE 1.00000000000000 1 0.00000000000000 -1
      CHANMODE 0
      GUID {451112DF-2E61-924E-BCE1-7A47E6D08FD7}
      <SOURCE MIDI
        HASDATA 1 480 QN
        POOLEDEVTS {1952CA1F-F25B-B042-BFFD-6BF17DA030B3}
        <X 0 0
          /wNtaWVzanVuYQ==
        >
        E 3840 90 2a 2f
        E 0 90 24 7f
        E 56 90 2a 00
        E 64 90 24 00
        E 120 90 26 7f
        E 2 90 2a 7f
        E 99 90 2a 00
        E 19 90 26 00
        E 120 90 2a 2d
        E 0 90 24 7f
        E 56 90 2a 00
        E 64 90 24 00
        E 120 90 26 7f
        E 2 90 2a 7f
        E 99 90 2a 00
        E 19 90 26 00
        E 120 90 2a 2d
        E 0 90 24 7f
        E 56 90 2a 00
        E 64 90 24 00
        E 120 90 26 7f
        E 2 90 2a 7f
        E 99 90 2a 00
        E 19 90 26 00
        E 120 90 2a 30
        E 0 90 24 7f
        E 61 90 2a 00
        E 59 90 24 00
        E 120 90 26 7f
        E 3 90 2a 7f
        E 74 90 2a 00
        E 43 90 26 00
        E 120 90 2a 2f
        E 0 90 24 7f
        E 56 90 2a 00
        E 64 90 24 00
        E 120 90 26 7f
        E 2 90 2a 7f
        E 99 90 2a 00
        E 19 90 26 00
        E 120 90 2a 2d
        E 0 90 24 7f
        E 56 90 2a 00
        E 64 90 24 00
        E 120 90 26 7f
        E 2 90 2a 7f
        E 99 90 2a 00
        E 19 90 26 00
        E 120 90 2a 2d
        E 0 90 24 7f
        E 56 90 2a 00
        E 64 90 24 00
        E 120 90 26 7f
        E 2 90 2a 7f
        E 99 90 2a 00
        E 19 90 26 00
        E 120 90 2a 30
        E 0 90 24 7f
        E 61 90 2a 00
        E 59 90 24 00
        E 120 90 26 7f
        E 3 90 2a 7f
        E 74 90 2a 00
        E 43 90 26 00
        E 120 90 2a 2f
        E 0 90 24 7f
        E 56 90 2a 00
        E 64 90 24 00
        E 120 90 26 7f
        E 2 90 2a 7f
        E 99 90 2a 00
        E 19 90 26 00
        E 120 90 2a 2d
        E 0 90 24 7f
        E 56 90 2a 00
        E 64 90 24 00
        E 120 90 26 7f
        E 2 90 2a 7f
        E 99 90 2a 00
        E 19 90 26 00
        E 120 90 2a 2d
        E 0 90 24 7f
        E 56 90 2a 00
        E 64 90 24 00
        E 120 90 26 7f
        E 2 90 2a 7f
        E 99 90 2a 00
        E 19 90 26 00
        E 120 90 2a 30
        E 0 90 24 7f
        E 61 90 2a 00
        E 59 90 24 00
        E 120 90 26 7f
        E 3 90 2a 7f
        E 74 90 2a 00
        E 43 90 26 00
        E 120 90 2a 2f
        E 0 90 24 7f
        E 56 90 2a 00
        E 64 90 24 00
        E 120 90 26 7f
        E 2 90 2a 7f
        E 99 90 2a 00
        E 19 90 26 00
        E 120 90 2a 2d
        E 0 90 24 7f
        E 56 90 2a 00
        E 64 90 24 00
        E 120 90 26 7f
        E 2 90 2a 7f
        E 99 90 2a 00
        E 19 90 26 00
        E 120 90 2a 2d
        E 0 90 24 7f
        E 56 90 2a 00
        E 64 90 24 00
        E 120 90 26 7f
        E 2 90 2a 7f
        E 99 90 2a 00
        E 19 90 26 00
        E 120 90 2a 30
        E 0 90 24 7f
        E 61 90 2a 00
        E 59 90 24 00
        E 120 90 26 7f
        E 3 90 2a 7f
        E 74 90 2a 00
        E 43 90 26 00
        E 120 90 2a 2f
        E 0 90 24 7f
        E 56 90 2a 00
        E 64 90 24 00
        E 120 90 26 7f
        E 2 90 2a 7f
        E 99 90 2a 00
        E 19 90 26 00
        E 120 90 2a 2d
        E 0 90 24 7f
        E 56 90 2a 00
        E 64 90 24 00
        E 120 90 26 7f
        E 2 90 2a 7f
        E 99 90 2a 00
        E 19 90 26 00
        E 120 90 2a 2d
        E 0 90 24 7f
        E 56 90 2a 00
        E 64 90 24 00
        E 120 90 26 7f
        E 2 90 2a 7f
        E 99 90 2a 00
        E 19 90 26 00
        E 120 90 2a 30
        E 0 90 24 7f
        E 61 90 2a 00
        E 59 90 24 00
        E 120 90 26 7f
        E 3 90 2a 7f
        E 74 90 2a 00
        E 43 90 26 00
        E 120 90 2a 2f
        E 0 90 24 7f
        E 56 90 2a 00
        E 64 90 24 00
        E 120 90 26 7f
        E 2 90 2a 7f
        E 99 90 2a 00
        E 19 90 26 00
        E 120 90 2a 2d
        E 0 90 24 7f
        E 56 90 2a 00
        E 64 90 24 00
        E 120 90 26 7f
        E 2 90 2a 7f
        E 99 90 2a 00
        E 19 90 26 00
        E 120 90 2a 2d
        E 0 90 24 7f
        E 56 90 2a 00
        E 64 90 24 00
        E 120 90 26 7f
        E 2 90 2a 7f
        E 99 90 2a 00
        E 19 90 26 00
        E 120 90 2a 30
        E 0 90 24 7f
        E 61 90 2a 00
        E 59 90 24 00
        E 120 90 26 7f
        E 3 90 2a 7f
        E 74 90 2a 00
        E 43 90 26 00
        E 120 90 18 19
        E 0 90 24 7f
        E 29 90 18 00
        E 91 90 24 00
        E 120 90 26 7f
        E 5 90 18 6b
        E 41 90 18 00
        E 74 90 26 00
        E 120 90 18 19
        E 0 90 24 7f
        E 29 90 18 00
        E 91 90 24 00
        E 120 90 26 7f
        E 5 90 18 6b
        E 41 90 18 00
        E 74 90 26 00
        E 120 90 18 19
        E 0 90 24 7f
        E 29 90 18 00
        E 91 90 24 00
        E 120 90 26 7f
        E 5 90 18 6b
        E 41 90 18 00
        E 74 90 26 00
        E 120 90 18 15
        E 0 90 24 7f
        E 35 90 18 00
        E 85 90 24 00
        E 120 90 26 7f
        E 7 90 18 7f
        E 43 90 18 00
        E 70 90 26 00
        E 120 90 18 19
        E 0 90 24 7f
        E 29 90 18 00
        E 91 90 24 00
        E 120 90 26 7f
        E 5 90 18 6b
        E 41 90 18 00
        E 74 90 26 00
        E 120 90 18 19
        E 0 90 24 7f
        E 29 90 18 00
        E 91 90 24 00
        E 120 90 26 7f
        E 5 90 18 6b
        E 41 90 18 00
        E 74 90 26 00
        E 120 90 18 19
        E 0 90 24 7f
        E 29 90 18 00
        E 91 90 24 00
        E 120 90 26 7f
        E 5 90 18 6b
        E 41 90 18 00
        E 74 90 26 00
        E 120 90 18 15
        E 0 90 24 7f
        E 35 90 18 00
        E 85 90 24 00
        E 120 90 26 7f
        E 7 90 18 7f
        E 43 90 18 00
        E 70 90 26 00
        E 120 90 18 19
        E 0 90 24 7f
        E 29 90 18 00
        E 91 90 24 00
        E 120 90 26 7f
        E 5 90 18 6b
        E 41 90 18 00
        E 74 90 26 00
        E 120 90 18 19
        E 0 90 24 7f
        E 29 90 18 00
        E 91 90 24 00
        E 120 90 26 7f
        E 5 90 18 6b
        E 41 90 18 00
        E 74 90 26 00
        E 120 90 18 19
        E 0 90 24 7f
        E 29 90 18 00
        E 91 90 24 00
        E 120 90 26 7f
        E 5 90 18 6b
        E 41 90 18 00
        E 74 90 26 00
        E 120 90 18 15
        E 0 90 24 7f
        E 35 90 18 00
        E 85 90 24 00
        E 120 90 26 7f
        E 7 90 18 7f
        E 43 90 18 00
        E 70 90 26 00
        E 120 90 18 19
        E 0 90 24 7f
        E 29 90 18 00
        E 91 90 24 00
        E 120 90 26 7f
        E 5 90 18 6b
        E 41 90 18 00
        E 74 90 26 00
        E 120 90 18 19
        E 0 90 24 7f
        E 29 90 18 00
        E 91 90 24 00
        E 120 90 26 7f
        E 5 90 18 6b
        E 41 90 18 00
        E 74 90 26 00
        E 120 90 18 19
        E 0 90 24 7f
        E 29 90 18 00
        E 91 90 24 00
        E 120 90 26 7f
        E 5 90 18 6b
        E 41 90 18 00
        E 74 90 26 00
        E 120 90 18 15
        E 0 90 24 7f
        E 35 90 18 00
        E 85 90 24 00
        E 120 90 26 7f
        E 7 90 18 7f
        E 43 90 18 00
        E 70 90 26 00
        E 120 90 18 19
        E 0 90 24 7f
        E 29 90 18 00
        E 91 90 24 00
        E 120 90 26 7f
        E 5 90 18 6b
        E 41 90 18 00
        E 74 90 26 00
        E 120 90 18 19
        E 0 90 24 7f
        E 29 90 18 00
        E 91 90 24 00
        E 120 90 26 7f
        E 5 90 18 6b
        E 41 90 18 00
        E 74 90 26 00
        E 120 90 18 19
        E 0 90 24 7f
        E 29 90 18 00
        E 91 90 24 00
        E 120 90 26 7f
        E 5 90 18 6b
        E 41 90 18 00
        E 74 90 26 00
        E 120 90 18 15
        E 0 90 24 7f
        E 35 90 18 00
        E 85 90 24 00
        E 120 90 26 7f
        E 7 90 18 7f
        E 43 90 18 00
        E 70 90 26 00
        E 120 90 18 19
        E 0 90 24 7f
        E 29 90 18 00
        E 91 90 24 00
        E 120 90 26 7f
        E 5 90 18 6b
        E 41 90 18 00
        E 74 90 26 00
        E 120 90 18 19
        E 0 90 24 7f
        E 29 90 18 00
        E 91 90 24 00
        E 120 90 26 7f
        E 5 90 18 6b
        E 41 90 18 00
        E 74 90 26 00
        E 120 90 18 19
        E 0 90 24 7f
        E 29 90 18 00
        E 91 90 24 00
        E 120 90 26 7f
        E 5 90 18 6b
        E 41 90 18 00
        E 74 90 26 00
        E 120 90 18 15
        E 0 90 24 7f
        E 35 90 18 00
        E 85 90 24 00
        E 120 90 26 7f
        E 7 90 18 7f
        E 43 90 18 00
        E 70 90 26 00
        E 120 90 18 19
        E 29 90 18 00
        E 216 90 18 6b
        E 41 90 18 00
        E 194 90 18 19
        E 0 90 24 7f
        E 120 90 18 00
        E 0 90 24 00
        E 0 90 24 7f
        E 120 90 24 00
        E 0 90 18 6b
        E 120 90 18 00
        E 120 90 18 19
        E 2 90 24 7f
        E 27 90 18 00
        E 93 90 24 00
        E 0 90 24 7f
        E 120 90 24 00
        E 3 90 18 6b
        E 41 90 18 00
        E 194 90 18 15
        E 35 90 18 00
        E 205 90 24 64
        E 7 90 18 7f
        E 43 90 18 00
        E 70 90 24 00
        E 0 90 24 64
        E 120 90 24 00
        E 0 90 24 64
        E 3 90 18 19
        E 29 90 18 00
        E 208 90 24 00
        E 0 90 24 64
        E 8 90 18 6b
        E 41 90 18 00
        E 71 90 24 00
        E 2 90 24 64
        E 118 90 24 64
        E 2 90 24 00
        E 1 90 18 19
        E 117 90 24 00
        E 0 90 24 64
        E 3 90 18 00
        E 117 90 24 00
        E 0 90 24 64
        E 3 90 18 6b
        E 117 90 24 00
        E 0 90 24 64
        E 3 90 18 00
        E 117 90 24 00
        E 0 90 24 64
        E 3 90 18 19
        E 29 90 18 00
        E 88 90 24 00
        E 120 90 24 64
        E 8 90 18 6b
        E 41 90 18 00
        E 71 90 24 00
        E 120 90 24 64
        E 3 90 18 15
        E 35 90 18 00
        E 82 90 24 00
        E 120 90 24 64
        E 10 90 18 7f
        E 43 90 18 00
        E 67 90 24 00
        E 120 90 18 19
        E 29 90 18 00
        E 216 90 18 6b
        E 41 90 18 00
        E 194 90 18 19
        E 0 90 24 7f
        E 120 90 18 00
        E 0 90 24 00
        E 0 90 24 7f
        E 120 90 24 00
        E 0 90 18 6b
        E 120 90 18 00
        E 120 90 18 19
        E 2 90 24 7f
        E 27 90 18 00
        E 93 90 24 7f
        E 0 90 24 00
        E 120 90 24 00
        E 3 90 18 6b
        E 41 90 18 00
        E 194 90 18 15
        E 35 90 18 00
        E 205 90 24 64
        E 7 90 18 7f
        E 43 90 18 00
        E 70 90 24 00
        E 0 90 24 64
        E 120 90 24 00
        E 0 90 24 64
        E 3 90 18 19
        E 29 90 18 00
        E 208 90 24 00
        E 0 90 24 64
        E 8 90 18 6b
        E 41 90 18 00
        E 71 90 24 00
        E 2 90 24 64
        E 118 90 24 64
        E 2 90 24 00
        E 1 90 18 19
        E 117 90 24 00
        E 0 90 24 64
        E 3 90 18 00
        E 117 90 24 00
        E 0 90 24 64
        E 3 90 18 6b
        E 117 90 24 00
        E 0 90 24 64
        E 3 90 18 00
        E 117 90 24 00
        E 0 90 24 64
        E 3 90 18 19
        E 29 90 18 00
        E 88 90 24 00
        E 120 90 24 64
        E 8 90 18 6b
        E 41 90 18 00
        E 71 90 24 00
        E 120 90 24 64
        E 3 90 18 15
        E 35 90 18 00
        E 82 90 24 00
        E 120 90 24 64
        E 10 90 18 7f
        E 43 90 18 00
        E 67 90 24 00
        E 120 90 18 19
        E 29 90 18 00
        E 216 90 18 6b
        E 41 90 18 00
        E 194 90 18 19
        E 0 90 24 7f
        E 120 90 18 00
        E 0 90 24 00
        E 0 90 24 7f
        E 120 90 24 00
        E 0 90 18 6b
        E 120 90 18 00
        E 120 90 18 19
        E 2 90 24 7f
        E 27 90 18 00
        E 93 90 24 7f
        E 0 90 24 00
        E 120 90 24 00
        E 3 90 18 6b
        E 41 90 18 00
        E 194 90 18 15
        E 35 90 18 00
        E 205 90 24 64
        E 7 90 18 7f
        E 43 90 18 00
        E 70 90 24 00
        E 0 90 24 64
        E 120 90 24 00
        E 0 90 24 64
        E 3 90 18 19
        E 29 90 18 00
        E 208 90 24 00
        E 0 90 24 64
        E 8 90 18 6b
        E 41 90 18 00
        E 71 90 24 00
        E 2 90 24 64
        E 118 90 24 64
        E 2 90 24 00
        E 1 90 18 19
        E 117 90 24 00
        E 0 90 24 64
        E 3 90 18 00
        E 117 90 24 00
        E 0 90 24 64
        E 3 90 18 6b
        E 117 90 24 00
        E 0 90 24 64
        E 3 90 18 00
        E 117 90 24 00
        E 0 90 24 64
        E 3 90 18 19
        E 29 90 18 00
        E 88 90 24 00
        E 120 90 24 64
        E 8 90 18 6b
        E 41 90 18 00
        E 71 90 24 00
        E 120 90 24 64
        E 3 90 18 15
        E 35 90 18 00
        E 82 90 24 00
        E 120 90 24 64
        E 10 90 18 7f
        E 43 90 18 00
        E 67 90 24 00
        E 120 90 1d 64
        E 240 90 1d 00
        E 240 90 24 7f
        E 4 90 1d 64
        E 116 90 24 00
        E 0 90 24 7f
        E 120 90 24 00
        E 4 90 1d 00
        E 237 90 1d 64
        E 1 90 24 7f
        E 120 90 24 7f
        E 0 90 24 00
        E 119 90 1d 00
        E 1 90 24 00
        E 242 90 1d 64
        E 240 90 1d 00
        E 237 90 1d 64
        E 240 90 1d 00
        E 244 90 1d 64
        E 240 90 1d 00
        E 237 90 1d 64
        E 240 90 1d 00
        E 244 90 1d 64
        E 240 90 1d 00
        E 234 90 1d 64
        E 240 90 1d 00
        E 240 90 24 7f
        E 4 90 1d 64
        E 116 90 24 00
        E 0 90 24 7f
        E 120 90 24 00
        E 4 90 1d 00
        E 237 90 1d 64
        E 1 90 24 7f
        E 120 90 24 7f
        E 0 90 24 00
        E 119 90 1d 00
        E 1 90 24 00
        E 242 90 1d 64
        E 240 90 1d 00
        E 237 90 1d 64
        E 240 90 1d 00
        E 244 90 1d 64
        E 240 90 1d 00
        E 237 90 1d 64
        E 240 90 1d 00
        E 244 90 1d 64
        E 240 90 1d 00
        E 234 90 1d 64
        E 240 90 1d 00
        E 240 90 24 7f
        E 4 90 1d 64
        E 116 90 24 00
        E 0 90 24 7f
        E 120 90 24 00
        E 4 90 1d 00
        E 237 90 1d 64
        E 1 90 24 7f
        E 120 90 24 7f
        E 0 90 24 00
        E 119 90 1d 00
        E 1 90 24 00
        E 242 90 1d 64
        E 240 90 1d 00
        E 237 90 1d 64
        E 240 90 1d 00
        E 244 90 1d 64
        E 240 90 1d 00
        E 237 90 1d 64
        E 240 90 1d 00
        E 244 90 1d 64
        E 240 90 1d 00
        E 234 90 1d 64
        E 0 90 26 64
        E 0 90 23 64
        E 240 90 1d 00
        E 0 90 26 00
        E 0 90 23 00
        E 0 90 26 64
        E 240 90 26 00
        E 0 90 26 64
        E 0 90 23 64
        E 4 90 1d 64
        E 236 90 26 00
        E 0 90 23 00
        E 0 90 26 64
        E 4 90 1d 00
        E 236 90 26 00
        E 0 90 26 64
        E 0 90 23 64
        E 1 90 1d 64
        E 239 90 26 00
        E 0 90 23 00
        E 0 90 26 64
        E 1 90 1d 00
        E 239 90 26 00
        E 0 90 26 64
        E 0 90 23 64
        E 4 90 1d 64
        E 236 90 26 00
        E 0 90 23 00
        E 0 90 26 64
        E 4 90 1d 00
        E 236 90 26 00
        E 0 90 26 64
        E 0 90 23 64
        E 1 90 1d 64
        E 239 90 26 00
        E 0 90 23 00
        E 0 90 26 64
        E 1 90 1d 00
        E 239 90 26 00
        E 0 90 26 64
        E 0 90 23 64
        E 5 90 1d 64
        E 235 90 26 00
        E 0 90 23 00
        E 0 90 26 64
        E 5 90 1d 00
        E 235 90 26 00
        E 0 90 26 64
        E 0 90 23 64
        E 2 90 1d 64
        E 238 90 26 00
        E 0 90 23 00
        E 0 90 26 64
        E 2 90 1d 00
        E 238 90 26 00
        E 0 90 26 64
        E 0 90 23 64
        E 6 90 1d 64
        E 234 90 26 00
        E 0 90 23 00
        E 0 90 26 64
        E 6 90 1d 00
        E 234 90 26 00
        E 0 90 1d 64
        E 0 90 26 64
        E 0 90 23 64
        E 240 90 1d 00
        E 0 90 26 00
        E 0 90 23 00
        E 0 90 26 64
        E 240 90 26 00
        E 0 90 26 64
        E 0 90 23 64
        E 4 90 1d 64
        E 236 90 26 00
        E 0 90 23 00
        E 0 90 26 64
        E 4 90 1d 00
        E 236 90 26 00
        E 0 90 26 64
        E 0 90 23 64
        E 1 90 1d 64
        E 239 90 26 00
        E 0 90 23 00
        E 0 90 26 64
        E 1 90 1d 00
        E 239 90 26 00
        E 0 90 26 64
        E 0 90 23 64
        E 4 90 1d 64
        E 236 90 26 00
        E 0 90 23 00
        E 0 90 26 64
        E 4 90 1d 00
        E 236 90 26 00
        E 0 90 26 64
        E 0 90 23 64
        E 1 90 1d 64
        E 239 90 26 00
        E 0 90 23 00
        E 0 90 26 64
        E 1 90 1d 00
        E 239 90 26 00
        E 0 90 26 64
        E 0 90 23 64
        E 5 90 1d 64
        E 235 90 26 00
        E 0 90 23 00
        E 0 90 26 64
        E 5 90 1d 00
        E 235 90 26 00
        E 0 90 26 64
        E 0 90 23 64
        E 2 90 1d 64
        E 238 90 26 00
        E 0 90 23 00
        E 0 90 26 64
        E 2 90 1d 00
        E 238 90 26 00
        E 0 90 26 64
        E 0 90 23 64
        E 6 90 1d 64
        E 234 90 26 00
        E 0 90 23 00
        E 0 90 26 64
        E 6 90 1d 00
        E 234 90 26 00
        E 0 90 24 7f
        E 5 90 1a 7f
        E 1 90 26 7f
        E 24 90 24 00
        E 5 90 1a 00
        E 1 90 26 00
        E 84 90 24 72
        E 30 90 24 00
        E 90 90 24 72
        E 1 90 1a 41
        E 29 90 24 00
        E 1 90 1a 00
        E 89 90 24 72
        E 30 90 24 00
        E 90 90 24 72
        E 3 90 1a 7f
        E 5 90 26 7f
        E 22 90 24 00
        E 3 90 1a 00
        E 5 90 26 00
        E 82 90 24 72
        E 30 90 24 00
        E 88 90 1a 41
        E 2 90 24 72
        E 28 90 1a 00
        E 2 90 24 00
        E 90 90 24 72
        E 30 90 24 00
        E 90 90 24 7f
        E 3 90 1a 7f
        E 8 90 26 7f
        E 19 90 24 00
        E 3 90 1a 00
        E 8 90 26 00
        E 79 90 24 72
        E 30 90 24 00
        E 90 90 24 72
        E 3 90 1a 41
        E 27 90 24 00
        E 3 90 1a 00
        E 87 90 24 72
        E 30 90 24 00
        E 90 90 24 72
        E 6 90 26 7f
        E 2 90 1a 7f
        E 22 90 24 00
        E 6 90 26 00
        E 2 90 1a 00
        E 82 90 24 72
        E 30 90 24 00
        E 89 90 1a 41
        E 1 90 24 72
        E 29 90 1a 00
        E 1 90 24 00
        E 90 90 24 72
        E 30 90 24 00
        E 90 90 24 7f
        E 3 90 1a 7f
        E 6 90 26 7f
        E 21 90 24 00
        E 3 90 1a 00
        E 6 90 26 00
        E 81 90 24 72
        E 30 90 24 00
        E 90 90 24 72
        E 0 90 1a 41
        E 30 90 24 00
        E 0 90 1a 00
        E 90 90 24 72
        E 30 90 24 00
        E 90 90 24 72
        E 3 90 26 7f
        E 3 90 1a 7f
        E 24 90 24 00
        E 3 90 26 00
        E 3 90 1a 00
        E 84 90 24 72
        E 30 90 24 00
        E 88 90 1a 41
        E 2 90 24 72
        E 28 90 1a 00
        E 2 90 24 00
        E 90 90 24 72
        E 30 90 24 00
        E 90 90 24 7f
        E 5 90 1a 7f
        E 1 90 26 7f
        E 24 90 24 00
        E 5 90 1a 00
        E 1 90 26 00
        E 84 90 24 72
        E 30 90 24 00
        E 90 90 24 72
        E 2 90 1a 41
        E 28 90 24 00
        E 2 90 1a 00
        E 88 90 24 72
        E 30 90 24 00
        E 90 90 24 72
        E 2 90 26 7f
        E 6 90 1a 7f
        E 22 90 24 00
        E 2 90 26 00
        E 6 90 1a 00
        E 82 90 24 72
        E 30 90 24 00
        E 88 90 1a 41
        E 2 90 24 72
        E 28 90 1a 00
        E 2 90 24 00
        E 90 90 24 72
        E 30 90 24 00
        E 90 90 24 7f
        E 5 90 26 7f
        E 0 90 1a 7f
        E 25 90 24 00
        E 5 90 26 00
        E 0 90 1a 00
        E 85 90 24 72
        E 30 90 24 00
        E 90 90 24 72
        E 0 90 1a 41
        E 30 90 24 00
        E 0 90 1a 00
        E 90 90 24 72
        E 30 90 24 00
        E 90 90 24 72
        E 1 90 26 7f
        E 2 90 1a 7f
        E 27 90 24 00
        E 1 90 26 00
        E 2 90 1a 00
        E 87 90 24 72
        E 30 90 24 00
        E 90 90 24 72
        E 3 90 1a 41
        E 27 90 24 00
        E 3 90 1a 00
        E 87 90 24 72
        E 30 90 24 00
        E 90 90 24 7f
        E 4 90 26 7f
        E 1 90 1a 7f
        E 25 90 24 00
        E 4 90 26 00
        E 1 90 1a 00
        E 85 90 24 72
        E 30 90 24 00
        E 90 90 24 72
        E 1 90 1a 41
        E 29 90 24 00
        E 1 90 1a 00
        E 89 90 24 72
        E 30 90 24 00
        E 89 90 26 7f
        E 1 90 24 72
        E 3 90 1a 7f
        E 26 90 26 00
        E 1 90 24 00
        E 3 90 1a 00
        E 87 90 24 72
        E 30 90 24 00
        E 88 90 1a 41
        E 2 90 24 72
        E 28 90 1a 00
        E 2 90 24 00
        E 90 90 24 72
        E 30 90 24 00
        E 90 90 24 7f
        E 2 90 26 7f
        E 3 90 1a 7f
        E 25 90 24 00
        E 2 90 26 00
        E 3 90 1a 00
        E 85 90 24 72
        E 30 90 24 00
        E 90 90 24 72
        E 3 90 1a 41
        E 27 90 24 00
        E 3 90 1a 00
        E 87 90 24 72
        E 30 90 24 00
        E 90 90 24 72
        E 5 90 1a 7f
        E 0 90 26 7f
        E 25 90 24 00
        E 5 90 1a 00
        E 0 90 26 00
        E 85 90 24 72
        E 30 90 24 00
        E 87 90 1a 41
        E 3 90 24 72
        E 27 90 1a 00
        E 3 90 24 00
        E 90 90 24 72
        E 30 90 24 00
        E 90 90 24 7f
        E 3 90 1a 7f
        E 5 90 26 7f
        E 22 90 24 00
        E 3 90 1a 00
        E 5 90 26 00
        E 82 90 24 72
        E 30 90 24 00
        E 90 90 24 72
        E 2 90 1a 41
        E 28 90 24 00
        E 2 90 1a 00
        E 88 90 24 72
        E 30 90 24 00
        E 90 90 24 72
        E 3 90 26 7f
        E 2 90 1a 7f
        E 25 90 24 00
        E 3 90 26 00
        E 2 90 1a 00
        E 85 90 24 72
        E 30 90 24 00
        E 88 90 1a 42
        E 2 90 24 72
        E 28 90 1a 00
        E 2 90 24 00
        E 90 90 24 72
        E 30 90 24 00
        E 90 90 24 64
        E 0 90 1c 64
        E 240 90 24 00
        E 0 90 1c 00
        E 240 90 26 7f
        E 120 90 26 00
        E 0 90 26 7f
        E 120 90 26 00
        E 242 90 26 7f
        E 120 90 26 00
        E 0 90 26 7f
        E 120 90 26 00
        E 478 90 26 64
        E 120 90 26 00
        E 0 90 26 64
        E 120 90 26 00
        E 0 90 26 64
        E 240 90 26 00
        E 0 90 26 64
        E 120 90 26 00
        E 2 90 26 64
        E 118 90 26 64
        E 2 90 26 00
        E 118 90 26 00
        E 0 90 26 64
        E 120 90 26 00
        E 0 90 26 64
        E 120 90 26 00
        E 0 90 26 64
        E 120 90 26 00
        E 0 90 26 64
        E 120 90 26 00
        E 120 90 26 64
        E 120 90 26 00
        E 120 90 26 64
        E 120 90 26 00
        E 120 90 26 64
        E 120 90 26 00
        E 599 90 29 7f
        E 120 90 29 00
        E 0 90 29 7f
        E 120 90 29 00
        E 243 90 29 7f
        E 120 90 29 00
        E 0 90 29 7f
        E 120 90 29 00
        E 722 90 29 7f
        E 120 90 29 00
        E 0 90 29 7f
        E 120 90 29 00
        E 242 90 29 7f
        E 120 90 29 00
        E 0 90 29 7f
        E 120 90 29 00
        E 1194 90 24 64
        E 0 90 1a 64
        E 240 90 24 00
        E 0 90 1a 00
        E 240 90 1a 64
        E 240 90 1a 00
        E 240 90 1a 64
        E 240 90 1a 00
        E 240 90 26 64
        E 2 90 1a 64
        E 238 90 26 00
        E 2 90 1a 00
        E 240 90 1a 64
        E 240 90 1a 00
        E 238 90 24 64
        E 2 90 1a 64
        E 238 90 24 00
        E 0 90 24 64
        E 2 90 1a 00
        E 238 90 24 00
        E 0 90 1a 64
        E 0 90 24 64
        E 0 90 1a 64
        E 240 90 1a 00
        E 0 90 24 00
        E 0 90 1a 00
        E 240 90 1a 64
        E 240 90 1a 00
        E 240 90 1a 64
        E 240 90 1a 00
        E 240 90 26 64
        E 2 90 1a 64
        E 238 90 26 00
        E 2 90 1a 00
        E 238 90 24 64
        E 2 90 1a 64
        E 238 90 24 00
        E 2 90 1a 00
        E 240 90 1a 64
        E 238 90 24 64
        E 2 90 1a 00
        E 238 90 24 00
        E 0 90 1a 64
        E 0 90 24 64
        E 0 90 1a 64
        E 240 90 1a 00
        E 0 90 24 00
        E 0 90 1a 00
        E 240 90 1a 64
        E 240 90 1a 00
        E 240 90 1a 64
        E 240 90 1a 00
        E 240 90 26 64
        E 2 90 1a 64
        E 238 90 26 00
        E 2 90 1a 00
        E 240 90 1a 64
        E 240 90 1a 00
        E 238 90 24 64
        E 2 90 1a 64
        E 238 90 24 00
        E 0 90 24 64
        E 2 90 1a 00
        E 238 90 24 00
        E 0 90 1a 64
        E 0 90 24 64
        E 0 90 1a 64
        E 240 90 1a 00
        E 0 90 24 00
        E 0 90 1a 00
        E 240 90 1a 64
        E 240 90 1a 00
        E 240 90 1a 64
        E 240 90 1a 00
        E 240 90 26 64
        E 2 90 1a 64
        E 238 90 26 00
        E 2 90 1a 00
        E 238 90 24 64
        E 2 90 1a 64
        E 238 90 24 00
        E 2 90 1a 00
        E 240 90 1a 64
        E 238 90 24 64
        E 2 90 1a 00
        E 238 90 24 00
        E 0 90 1a 64
        E 0 90 24 64
        E 0 90 1a 64
        E 240 90 1a 00
        E 0 90 24 00
        E 0 90 1a 00
        E 240 90 1c 64
        E 240 90 1c 00
        E 240 90 1a 64
        E 240 90 1a 00
        E 240 90 26 64
        E 2 90 1c 64
        E 238 90 26 00
        E 2 90 1c 00
        E 240 90 1a 64
        E 240 90 1a 00
        E 238 90 24 64
        E 2 90 1c 64
        E 238 90 24 00
        E 0 90 24 64
        E 2 90 1c 00
        E 238 90 24 00
        E 0 90 1a 64
        E 0 90 24 64
        E 0 90 1a 64
        E 240 90 1a 00
        E 0 90 24 00
        E 0 90 1a 00
        E 240 90 1c 64
        E 240 90 1c 00
        E 240 90 1a 64
        E 240 90 1a 00
        E 240 90 26 64
        E 2 90 1c 64
        E 238 90 26 00
        E 2 90 1c 00
        E 238 90 24 64
        E 2 90 1a 64
        E 238 90 24 00
        E 2 90 1a 00
        E 240 90 1c 64
        E 238 90 24 64
        E 2 90 1c 00
        E 238 90 24 00
        E 0 90 1a 64
        E 0 90 24 64
        E 0 90 1a 64
        E 240 90 1a 00
        E 0 90 24 00
        E 0 90 1a 00
        E 240 90 1c 64
        E 240 90 1c 00
        E 240 90 1a 64
        E 240 90 1a 00
        E 240 90 26 64
        E 2 90 1c 64
        E 238 90 26 00
        E 2 90 1c 00
        E 240 90 1a 64
        E 240 90 1a 00
        E 238 90 24 64
        E 2 90 1c 64
        E 238 90 24 00
        E 0 90 24 64
        E 2 90 1c 00
        E 238 90 24 00
        E 0 90 1a 64
        E 0 90 24 64
        E 0 90 1a 64
        E 240 90 1a 00
        E 0 90 24 00
        E 0 90 1a 00
        E 240 90 1c 64
        E 240 90 1c 00
        E 240 90 1a 64
        E 240 90 1a 00
        E 240 90 26 64
        E 2 90 1c 64
        E 238 90 26 00
        E 2 90 1c 00
        E 238 90 24 64
        E 2 90 1a 64
        E 238 90 24 00
        E 2 90 1a 00
        E 240 90 1c 64
        E 238 90 24 64
        E 2 90 1c 00
        E 238 90 24 00
        E 0 90 1a 64
        E 0 90 24 64
        E 240 90 1a 00
        E 0 90 24 00
        E 1680 90 26 7f
        E 9 90 2a 7f
        E 51 90 26 00
        E 9 90 2a 00
        E 171 90 2a 2f
        E 0 90 24 7f
        E 60 90 2a 00
        E 0 90 24 00
        E 180 90 26 7f
        E 2 90 2a 7f
        E 58 90 26 00
        E 2 90 2a 00
        E 178 90 2a 2d
        E 60 90 2a 00
        E 180 90 26 7f
        E 2 90 2a 7f
        E 58 90 26 00
        E 2 90 2a 00
        E 178 90 2a 2d
        E 60 90 2a 00
        E 180 90 26 7f
        E 2 90 2a 7f
        E 58 90 26 00
        E 2 90 2a 00
        E 178 90 2a 30
        E 0 90 24 7f
        E 60 90 2a 00
        E 0 90 24 00
        E 180 90 26 7f
        E 9 90 2a 7f
        E 51 90 26 00
        E 9 90 2a 00
        E 171 90 2a 2f
        E 0 90 24 7f
        E 60 90 2a 00
        E 0 90 24 00
        E 180 90 26 7f
        E 2 90 2a 7f
        E 58 90 26 00
        E 2 90 2a 00
        E 178 90 2a 2d
        E 60 90 2a 00
        E 180 90 26 7f
        E 2 90 2a 7f
        E 58 90 26 00
        E 2 90 2a 00
        E 178 90 2a 2d
        E 60 90 2a 00
        E 180 90 26 7f
        E 2 90 2a 7f
        E 58 90 26 00
        E 2 90 2a 00
        E 178 90 2a 30
        E 0 90 24 7f
        E 60 90 2a 00
        E 0 90 24 00
        E 60 90 24 7f
        E 60 90 24 00
        E 60 90 26 7f
        E 9 90 2a 7f
        E 51 90 26 00
        E 9 90 2a 00
        E 171 90 2a 2f
        E 0 90 24 7f
        E 60 90 2a 00
        E 0 90 24 00
        E 180 90 26 7f
        E 2 90 2a 7f
        E 58 90 26 00
        E 2 90 2a 00
        E 178 90 2a 2d
        E 60 90 2a 00
        E 180 90 26 7f
        E 2 90 2a 7f
        E 58 90 26 00
        E 2 90 2a 00
        E 178 90 2a 2d
        E 60 90 2a 00
        E 180 90 26 7f
        E 2 90 2a 7f
        E 58 90 26 00
        E 2 90 2a 00
        E 178 90 2a 30
        E 0 90 24 7f
        E 60 90 2a 00
        E 0 90 24 00
        E 180 90 26 7f
        E 9 90 2a 7f
        E 51 90 26 00
        E 9 90 2a 00
        E 171 90 2a 2f
        E 0 90 24 7f
        E 60 90 2a 00
        E 0 90 24 00
        E 180 90 26 7f
        E 2 90 2a 7f
        E 58 90 26 00
        E 2 90 2a 00
        E 178 90 2a 2d
        E 60 90 2a 00
        E 180 90 26 7f
        E 2 90 2a 7f
        E 58 90 26 00
        E 2 90 2a 00
        E 178 90 2a 2d
        E 60 90 2a 00
        E 180 90 26 7f
        E 2 90 2a 7f
        E 58 90 26 00
        E 2 90 2a 00
        E 178 90 2a 30
        E 0 90 24 7f
        E 60 90 2a 00
        E 0 90 24 00
        E 60 90 24 7f
        E 60 90 24 00
        E 60 90 26 7f
        E 9 90 2a 7f
        E 51 90 26 00
        E 9 90 2a 00
        E 171 90 2a 2f
        E 0 90 24 7f
        E 60 90 2a 00
        E 0 90 24 00
        E 180 90 26 7f
        E 2 90 2a 7f
        E 58 90 26 00
        E 2 90 2a 00
        E 178 90 2a 2d
        E 60 90 2a 00
        E 180 90 26 7f
        E 2 90 2a 7f
        E 58 90 26 00
        E 2 90 2a 00
        E 178 90 2a 2d
        E 60 90 2a 00
        E 180 90 26 7f
        E 2 90 2a 7f
        E 58 90 26 00
        E 2 90 2a 00
        E 178 90 2a 30
        E 0 90 24 7f
        E 60 90 2a 00
        E 0 90 24 00
        E 180 90 26 7f
        E 9 90 2a 7f
        E 51 90 26 00
        E 9 90 2a 00
        E 171 90 2a 2f
        E 0 90 24 7f
        E 60 90 2a 00
        E 0 90 24 00
        E 180 90 26 7f
        E 2 90 2a 7f
        E 58 90 26 00
        E 2 90 2a 00
        E 178 90 2a 2d
        E 60 90 2a 00
        E 180 90 26 7f
        E 2 90 2a 7f
        E 58 90 26 00
        E 2 90 2a 00
        E 178 90 2a 2d
        E 60 90 2a 00
        E 180 90 26 7f
        E 2 90 2a 7f
        E 58 90 26 00
        E 2 90 2a 00
        E 178 90 2a 30
        E 0 90 24 7f
        E 60 90 2a 00
        E 0 90 24 00
        E 60 90 24 7f
        E 60 90 24 00
        E 60 90 26 7f
        E 9 90 2a 7f
        E 51 90 26 00
        E 9 90 2a 00
        E 171 90 2a 2f
        E 0 90 24 7f
        E 60 90 2a 00
        E 0 90 24 00
        E 180 90 26 7f
        E 2 90 2a 7f
        E 58 90 26 00
        E 2 90 2a 00
        E 178 90 2a 2d
        E 60 90 2a 00
        E 180 90 26 7f
        E 2 90 2a 7f
        E 58 90 26 00
        E 2 90 2a 00
        E 178 90 2a 2d
        E 60 90 2a 00
        E 180 90 26 7f
        E 2 90 2a 7f
        E 58 90 26 00
        E 2 90 2a 00
        E 178 90 2a 30
        E 0 90 24 7f
        E 60 90 2a 00
        E 0 90 24 00
        E 180 90 26 7f
        E 9 90 2a 7f
        E 51 90 26 00
        E 9 90 2a 00
        E 171 90 2a 2f
        E 0 90 24 7f
        E 60 90 2a 00
        E 0 90 24 00
        E 180 90 26 7f
        E 2 90 2a 7f
        E 58 90 26 00
        E 2 90 2a 00
        E 178 90 2a 2d
        E 60 90 2a 00
        E 180 90 26 7f
        E 2 90 2a 7f
        E 58 90 26 00
        E 2 90 2a 00
        E 178 90 2a 2d
        E 60 90 2a 00
        E 180 90 26 7f
        E 2 90 2a 7f
        E 58 90 26 00
        E 2 90 2a 00
        E 178 90 2a 30
        E 0 90 24 7f
        E 60 90 2a 00
        E 0 90 24 00
        E 60 90 24 7f
        E 60 90 24 00
        E 60 90 24 7f
        E 1 90 1b 7f
        E 2 90 2c 7f
        E 117 90 24 00
        E 82 90 1b 00
        E 56 90 2c 00
        E 223 90 1b 1a
        E 2 90 2c 71
        E 86 90 1b 00
        E 195 90 2c 00
        E 191 90 2c 7f
        E 5 90 26 7f
        E 3 90 1b 7f
        E 117 90 26 00
        E 65 90 1b 00
        E 101 90 2c 00
        E 187 90 2c 7f
        E 7 90 1b 15
        E 89 90 1b 00
        E 155 90 2c 00
        E 236 90 24 7f
        E 1 90 1b 7f
        E 2 90 2c 7f
        E 117 90 24 00
        E 82 90 1b 00
        E 56 90 2c 00
        E 223 90 1b 1a
        E 2 90 2c 71
        E 86 90 1b 00
        E 195 90 2c 00
        E 191 90 2c 7f
        E 5 90 26 7f
        E 3 90 1b 7f
        E 117 90 26 00
        E 65 90 1b 00
        E 101 90 2c 00
        E 187 90 2c 7f
        E 7 90 1b 15
        E 89 90 1b 00
        E 155 90 2c 00
        E 236 90 24 7f
        E 1 90 1b 7f
        E 2 90 2c 7f
        E 117 90 24 00
        E 82 90 1b 00
        E 56 90 2c 00
        E 223 90 1b 1a
        E 2 90 2c 71
        E 86 90 1b 00
        E 195 90 2c 00
        E 191 90 2c 7f
        E 5 90 26 7f
        E 3 90 1b 7f
        E 117 90 26 00
        E 65 90 1b 00
        E 101 90 2c 00
        E 187 90 2c 7f
        E 7 90 1b 15
        E 89 90 1b 00
        E 155 90 2c 00
        E 236 90 24 7f
        E 1 90 1b 7f
        E 2 90 2c 7f
        E 117 90 24 00
        E 82 90 1b 00
        E 56 90 2c 00
        E 223 90 1b 1a
        E 2 90 2c 71
        E 86 90 1b 00
        E 195 90 2c 00
        E 191 90 2c 7f
        E 5 90 26 7f
        E 3 90 1b 7f
        E 117 90 26 00
        E 65 90 1b 00
        E 101 90 2c 00
        E 187 90 2c 7f
        E 7 90 1b 15
        E 89 90 1b 00
        E 155 90 2c 00
        E 236 90 24 7f
        E 1 90 1b 7f
        E 2 90 2c 7f
        E 117 90 24 00
        E 82 90 1b 00
        E 56 90 2c 00
        E 223 90 1b 1a
        E 2 90 2c 71
        E 86 90 1b 00
        E 195 90 2c 00
        E 191 90 2c 7f
        E 5 90 26 7f
        E 3 90 1b 7f
        E 117 90 26 00
        E 65 90 1b 00
        E 101 90 2c 00
        E 187 90 2c 7f
        E 7 90 1b 15
        E 89 90 1b 00
        E 155 90 2c 00
        E 236 90 24 7f
        E 1 90 1b 7f
        E 2 90 2c 7f
        E 117 90 24 00
        E 82 90 1b 00
        E 56 90 2c 00
        E 223 90 1b 1a
        E 2 90 2c 71
        E 86 90 1b 00
        E 195 90 2c 00
        E 191 90 2c 7f
        E 5 90 26 7f
        E 3 90 1b 7f
        E 117 90 26 00
        E 65 90 1b 00
        E 101 90 2c 00
        E 187 90 2c 7f
        E 7 90 1b 15
        E 89 90 1b 00
        E 155 90 2c 00
        E 236 90 24 7f
        E 1 90 1b 7f
        E 2 90 2c 7f
        E 117 90 24 00
        E 82 90 1b 00
        E 56 90 2c 00
        E 223 90 1b 1a
        E 2 90 2c 71
        E 86 90 1b 00
        E 195 90 2c 00
        E 191 90 2c 7f
        E 5 90 26 7f
        E 3 90 1b 7f
        E 117 90 26 00
        E 65 90 1b 00
        E 101 90 2c 00
        E 187 90 2c 7f
        E 7 90 1b 15
        E 89 90 1b 00
        E 155 90 2c 00
        E 236 90 24 7f
        E 1 90 1b 7f
        E 2 90 2c 7f
        E 117 90 24 00
        E 82 90 1b 00
        E 56 90 2c 00
        E 223 90 1b 1a
        E 2 90 2c 71
        E 86 90 1b 00
        E 195 90 2c 00
        E 191 90 2c 7f
        E 5 90 26 7f
        E 3 90 1b 7f
        E 117 90 26 00
        E 65 90 1b 00
        E 101 90 2c 00
        E 187 90 2c 7f
        E 7 90 1b 15
        E 89 90 1b 00
        E 155 90 2c 00
        E 236 90 24 64
        E 0 90 1a 64
        E 240 90 24 00
        E 0 90 1a 00
        E 240 90 1a 64
        E 240 90 1a 00
        E 240 90 1a 64
        E 240 90 1a 00
        E 240 90 26 64
        E 2 90 1a 64
        E 238 90 26 00
        E 2 90 1a 00
        E 240 90 1a 64
        E 240 90 1a 00
        E 238 90 24 64
        E 2 90 1a 64
        E 238 90 24 00
        E 0 90 24 64
        E 2 90 1a 00
        E 238 90 24 00
        E 0 90 1a 64
        E 0 90 24 64
        E 0 90 1a 64
        E 240 90 1a 00
        E 0 90 24 00
        E 0 90 1a 00
        E 240 90 1a 64
        E 240 90 1a 00
        E 240 90 1a 64
        E 240 90 1a 00
        E 240 90 26 64
        E 2 90 1a 64
        E 238 90 26 00
        E 2 90 1a 00
        E 238 90 24 64
        E 2 90 1a 64
        E 238 90 24 00
        E 2 90 1a 00
        E 240 90 1a 64
        E 238 90 24 64
        E 2 90 1a 00
        E 238 90 24 00
        E 0 90 1a 64
        E 0 90 24 64
        E 0 90 1a 64
        E 240 90 1a 00
        E 0 90 24 00
        E 0 90 1a 00
        E 240 90 1a 64
        E 240 90 1a 00
        E 240 90 1a 64
        E 240 90 1a 00
        E 240 90 26 64
        E 2 90 1a 64
        E 238 90 26 00
        E 2 90 1a 00
        E 240 90 1a 64
        E 240 90 1a 00
        E 238 90 24 64
        E 2 90 1a 64
        E 238 90 24 00
        E 0 90 24 64
        E 2 90 1a 00
        E 238 90 24 00
        E 0 90 1a 64
        E 0 90 24 64
        E 0 90 1a 64
        E 240 90 1a 00
        E 0 90 24 00
        E 0 90 1a 00
        E 240 90 1a 64
        E 240 90 1a 00
        E 240 90 1a 64
        E 240 90 1a 00
        E 240 90 26 64
        E 2 90 1a 64
        E 238 90 26 00
        E 2 90 1a 00
        E 238 90 24 64
        E 2 90 1a 64
        E 238 90 24 00
        E 2 90 1a 00
        E 240 90 1a 64
        E 238 90 24 64
        E 2 90 1a 00
        E 238 90 24 00
        E 0 90 1a 64
        E 0 90 24 64
        E 0 90 1a 64
        E 240 90 1a 00
        E 0 90 24 00
        E 0 90 1a 00
        E 240 90 1c 64
        E 240 90 1c 00
        E 240 90 1a 64
        E 240 90 1a 00
        E 240 90 26 64
        E 2 90 1c 64
        E 238 90 26 00
        E 2 90 1c 00
        E 240 90 1a 64
        E 240 90 1a 00
        E 238 90 24 64
        E 2 90 1c 64
        E 238 90 24 00
        E 0 90 24 64
        E 2 90 1c 00
        E 238 90 24 00
        E 0 90 1a 64
        E 0 90 24 64
        E 0 90 1a 64
        E 240 90 1a 00
        E 0 90 24 00
        E 0 90 1a 00
        E 240 90 1c 64
        E 240 90 1c 00
        E 240 90 1a 64
        E 240 90 1a 00
        E 240 90 26 64
        E 2 90 1c 64
        E 238 90 26 00
        E 2 90 1c 00
        E 238 90 24 64
        E 2 90 1a 64
        E 238 90 24 00
        E 2 90 1a 00
        E 240 90 1c 64
        E 238 90 24 64
        E 2 90 1c 00
        E 238 90 24 00
        E 0 90 1a 64
        E 0 90 24 64
        E 0 90 1a 64
        E 240 90 1a 00
        E 0 90 24 00
        E 0 90 1a 00
        E 240 90 1c 64
        E 240 90 1c 00
        E 240 90 1a 64
        E 240 90 1a 00
        E 240 90 26 64
        E 2 90 1c 64
        E 238 90 26 00
        E 2 90 1c 00
        E 240 90 1a 64
        E 240 90 1a 00
        E 238 90 24 64
        E 2 90 1c 64
        E 238 90 24 00
        E 0 90 24 64
        E 2 90 1c 00
        E 238 90 24 00
        E 0 90 1a 64
        E 0 90 24 64
        E 0 90 1a 64
        E 240 90 1a 00
        E 0 90 24 00
        E 0 90 1a 00
        E 240 90 1c 64
        E 240 90 1c 00
        E 240 90 1a 64
        E 240 90 1a 00
        E 240 90 26 64
        E 2 90 1c 64
        E 238 90 26 00
        E 2 90 1c 00
        E 238 90 24 64
        E 2 90 1a 64
        E 238 90 24 00
        E 2 90 1a 00
        E 240 90 1c 64
        E 238 90 24 64
        E 2 90 1c 00
        E 238 90 24 00
        E 0 90 1a 64
        E 0 90 24 64
        E 0 90 1a 64
        E 240 90 1a 00
        E 0 90 24 00
        E 0 90 1a 00
        E 240 90 1a 64
        E 240 90 1a 00
        E 240 90 1a 64
        E 240 90 1a 00
        E 240 90 26 64
        E 2 90 1a 64
        E 238 90 26 00
        E 2 90 1a 00
        E 240 90 1a 64
        E 240 90 1a 00
        E 238 90 24 64
        E 2 90 1a 64
        E 238 90 24 00
        E 0 90 24 64
        E 2 90 1a 00
        E 238 90 24 00
        E 0 90 1a 64
        E 0 90 24 64
        E 0 90 1a 64
        E 240 90 1a 00
        E 0 90 24 00
        E 0 90 1a 00
        E 240 90 1a 64
        E 240 90 1a 00
        E 240 90 1a 64
        E 240 90 1a 00
        E 240 90 26 64
        E 2 90 1a 64
        E 238 90 26 00
        E 2 90 1a 00
        E 238 90 24 64
        E 2 90 1a 64
        E 238 90 24 00
        E 2 90 1a 00
        E 240 90 1a 64
        E 238 90 24 64
        E 2 90 1a 00
        E 238 90 24 00
        E 0 90 1a 64
        E 0 90 24 64
        E 0 90 1a 64
        E 240 90 1a 00
        E 0 90 24 00
        E 0 90 1a 00
        E 240 90 1a 64
        E 240 90 1a 00
        E 240 90 1a 64
        E 240 90 1a 00
        E 240 90 26 64
        E 2 90 1a 64
        E 238 90 26 00
        E 2 90 1a 00
        E 240 90 1a 64
        E 240 90 1a 00
        E 238 90 24 64
        E 2 90 1a 64
        E 238 90 24 00
        E 0 90 24 64
        E 2 90 1a 00
        E 238 90 24 00
        E 0 90 1a 64
        E 0 90 24 64
        E 0 90 1a 64
        E 240 90 1a 00
        E 0 90 24 00
        E 0 90 1a 00
        E 240 90 1a 64
        E 240 90 1a 00
        E 240 90 1a 64
        E 240 90 1a 00
        E 240 90 26 64
        E 2 90 1a 64
        E 238 90 26 00
        E 2 90 1a 00
        E 238 90 24 64
        E 2 90 1a 64
        E 238 90 24 00
        E 2 90 1a 00
        E 240 90 1a 64
        E 238 90 24 64
        E 2 90 1a 00
        E 238 90 24 00
        E 0 90 1a 64
        E 0 90 24 64
        E 0 90 1a 64
        E 240 90 1a 00
        E 0 90 24 00
        E 0 90 1a 00
        E 240 90 1c 64
        E 240 90 1c 00
        E 240 90 1a 64
        E 240 90 1a 00
        E 240 90 26 64
        E 2 90 1c 64
        E 238 90 26 00
        E 2 90 1c 00
        E 240 90 1a 64
        E 240 90 1a 00
        E 238 90 24 64
        E 2 90 1c 64
        E 238 90 24 00
        E 0 90 24 64
        E 2 90 1c 00
        E 238 90 24 00
        E 0 90 1a 64
        E 0 90 24 64
        E 0 90 1a 64
        E 240 90 1a 00
        E 0 90 24 00
        E 0 90 1a 00
        E 240 90 1c 64
        E 240 90 1c 00
        E 240 90 1a 64
        E 240 90 1a 00
        E 240 90 26 64
        E 2 90 1c 64
        E 238 90 26 00
        E 2 90 1c 00
        E 238 90 24 64
        E 2 90 1a 64
        E 238 90 24 00
        E 2 90 1a 00
        E 240 90 1c 64
        E 238 90 24 64
        E 2 90 1c 00
        E 238 90 24 00
        E 0 90 1a 64
        E 0 90 24 64
        E 0 90 1a 64
        E 240 90 1a 00
        E 0 90 24 00
        E 0 90 1a 00
        E 240 90 1c 64
        E 240 90 1c 00
        E 240 90 1a 64
        E 240 90 1a 00
        E 240 90 26 64
        E 2 90 1c 64
        E 238 90 26 00
        E 2 90 1c 00
        E 240 90 1a 64
        E 240 90 1a 00
        E 238 90 24 64
        E 2 90 1c 64
        E 238 90 24 00
        E 0 90 24 64
        E 2 90 1c 00
        E 238 90 24 00
        E 0 90 1a 64
        E 0 90 24 64
        E 0 90 1a 64
        E 240 90 1a 00
        E 0 90 24 00
        E 0 90 1a 00
        E 240 90 1c 64
        E 240 90 1c 00
        E 240 90 1a 64
        E 240 90 1a 00
        E 240 90 26 64
        E 2 90 1c 64
        E 238 90 26 00
        E 2 90 1c 00
        E 238 90 24 64
        E 2 90 1a 64
        E 238 90 24 00
        E 2 90 1a 00
        E 240 90 1c 64
        E 238 90 24 64
        E 2 90 1c 00
        E 238 90 24 00
        E 0 90 1a 64
        E 0 90 24 64
        E 240 90 1a 00
        E 0 90 24 00
        E 2640 90 24 7f
        E 2 90 55 7f
        E 4 90 2c 7f
        E 234 90 24 00
        E 164 90 55 00
        E 112 90 2c 00
        E 446 90 55 19
        E 4 90 2c 71
        E 172 90 55 00
        E 390 90 2c 00
        E 382 90 2c 7f
        E 16 90 55 7f
        E 364 90 55 00
        E 202 90 2c 00
        E 374 90 2c 7f
        E 14 90 55 15
        E 178 90 55 00
        E 310 90 2c 00
        E 472 90 26 7f
        E 2 90 55 7f
        E 4 90 2c 7f
        E 234 90 26 00
        E 164 90 55 00
        E 112 90 2c 00
        E 446 90 55 19
        E 4 90 2c 71
        E 172 90 55 00
        E 390 90 2c 00
        E 382 90 2c 7f
        E 16 90 55 7f
        E 364 90 55 00
        E 202 90 2c 00
        E 374 90 2c 7f
        E 14 90 55 15
        E 178 90 55 00
        E 310 90 2c 00
        E 472 90 24 7f
        E 2 90 55 7f
        E 4 90 2c 7f
        E 234 90 24 00
        E 164 90 55 00
        E 112 90 2c 00
        E 446 90 55 19
        E 4 90 2c 71
        E 172 90 55 00
        E 390 90 2c 00
        E 382 90 2c 7f
        E 16 90 55 7f
        E 364 90 55 00
        E 202 90 2c 00
        E 374 90 2c 7f
        E 14 90 55 15
        E 178 90 55 00
        E 310 90 2c 00
        E 472 90 26 7f
        E 2 90 55 7f
        E 4 90 2c 7f
        E 234 90 26 00
        E 164 90 55 00
        E 112 90 2c 00
        E 446 90 55 19
        E 4 90 2c 71
        E 172 90 55 00
        E 390 90 2c 00
        E 382 90 2c 7f
        E 16 90 55 7f
        E 364 90 55 00
        E 202 90 2c 00
        E 374 90 2c 7f
        E 14 90 55 15
        E 178 90 55 00
        E 310 90 2c 00
        E 472 90 24 7f
        E 2 90 55 7f
        E 4 90 2c 7f
        E 234 90 24 00
        E 164 90 55 00
        E 112 90 2c 00
        E 446 90 55 19
        E 4 90 2c 71
        E 172 90 55 00
        E 390 90 2c 00
        E 382 90 2c 7f
        E 16 90 55 7f
        E 364 90 55 00
        E 202 90 2c 00
        E 374 90 2c 7f
        E 14 90 55 15
        E 178 90 55 00
        E 310 90 2c 00
        E 472 90 26 7f
        E 2 90 55 7f
        E 4 90 2c 7f
        E 234 90 26 00
        E 164 90 55 00
        E 112 90 2c 00
        E 446 90 55 19
        E 4 90 2c 71
        E 172 90 55 00
        E 390 90 2c 00
        E 382 90 2c 7f
        E 16 90 55 7f
        E 364 90 55 00
        E 202 90 2c 00
        E 374 90 2c 7f
        E 14 90 55 15
        E 178 90 55 00
        E 310 90 2c 00
        E 472 90 24 7f
        E 2 90 55 7f
        E 4 90 2c 7f
        E 234 90 24 00
        E 164 90 55 00
        E 112 90 2c 00
        E 446 90 55 19
        E 4 90 2c 71
        E 172 90 55 00
        E 390 90 2c 00
        E 382 90 2c 7f
        E 16 90 55 7f
        E 364 90 55 00
        E 202 90 2c 00
        E 374 90 2c 7f
        E 14 90 55 15
        E 178 90 55 00
        E 310 90 2c 00
        E 472 90 18 19
        E 29 90 18 00
        E 216 90 18 6b
        E 41 90 18 00
        E 194 90 18 19
        E 0 90 24 7f
        E 120 90 18 00
        E 0 90 24 00
        E 0 90 24 7f
        E 120 90 24 00
        E 0 90 18 6b
        E 120 90 18 00
        E 120 90 18 19
        E 2 90 24 7f
        E 27 90 18 00
        E 93 90 24 00
        E 0 90 24 7f
        E 120 90 24 00
        E 3 90 18 6b
        E 41 90 18 00
        E 194 90 18 15
        E 35 90 18 00
        E 205 90 24 64
        E 7 90 18 7f
        E 43 90 18 00
        E 70 90 24 00
        E 0 90 24 64
        E 120 90 24 00
        E 0 90 24 64
        E 3 90 18 19
        E 29 90 18 00
        E 208 90 24 00
        E 0 90 24 64
        E 8 90 18 6b
        E 41 90 18 00
        E 71 90 24 00
        E 2 90 24 64
        E 118 90 24 64
        E 2 90 24 00
        E 1 90 18 19
        E 117 90 24 00
        E 0 90 24 64
        E 3 90 18 00
        E 117 90 24 00
        E 0 90 24 64
        E 3 90 18 6b
        E 117 90 24 00
        E 0 90 24 64
        E 3 90 18 00
        E 117 90 24 00
        E 0 90 24 64
        E 3 90 18 19
        E 29 90 18 00
        E 88 90 24 00
        E 120 90 24 64
        E 8 90 18 6b
        E 41 90 18 00
        E 71 90 24 00
        E 120 90 24 64
        E 3 90 18 15
        E 35 90 18 00
        E 82 90 24 00
        E 120 90 24 64
        E 10 90 18 7f
        E 43 90 18 00
        E 67 90 24 00
        E 120 90 18 19
        E 29 90 18 00
        E 216 90 18 6b
        E 41 90 18 00
        E 194 90 18 19
        E 0 90 24 7f
        E 120 90 18 00
        E 0 90 24 00
        E 0 90 24 7f
        E 120 90 24 00
        E 0 90 18 6b
        E 120 90 18 00
        E 120 90 18 19
        E 2 90 24 7f
        E 27 90 18 00
        E 93 90 24 00
        E 0 90 24 7f
        E 120 90 24 00
        E 3 90 18 6b
        E 41 90 18 00
        E 194 90 18 15
        E 35 90 18 00
        E 205 90 24 64
        E 7 90 18 7f
        E 43 90 18 00
        E 70 90 24 00
        E 0 90 24 64
        E 120 90 24 00
        E 0 90 24 64
        E 3 90 18 19
        E 29 90 18 00
        E 208 90 24 00
        E 0 90 24 64
        E 8 90 18 6b
        E 41 90 18 00
        E 71 90 24 00
        E 2 90 24 64
        E 118 90 24 64
        E 2 90 24 00
        E 1 90 18 19
        E 117 90 24 00
        E 0 90 24 64
        E 3 90 18 00
        E 117 90 24 00
        E 0 90 24 64
        E 3 90 18 6b
        E 117 90 24 00
        E 0 90 24 64
        E 3 90 18 00
        E 117 90 24 00
        E 0 90 24 64
        E 3 90 18 19
        E 29 90 18 00
        E 88 90 24 00
        E 120 90 24 64
        E 8 90 18 6b
        E 41 90 18 00
        E 71 90 24 00
        E 120 90 24 64
        E 3 90 18 15
        E 35 90 18 00
        E 82 90 24 00
        E 120 90 24 64
        E 10 90 18 7f
        E 43 90 18 00
        E 67 90 24 00
        E 120 90 1d 64
        E 240 90 1d 00
        E 240 90 24 7f
        E 4 90 1d 64
        E 116 90 24 00
        E 0 90 24 7f
        E 120 90 24 00
        E 4 90 1d 00
        E 237 90 1d 64
        E 1 90 24 7f
        E 120 90 24 00
        E 0 90 24 7f
        E 119 90 1d 00
        E 1 90 24 00
        E 242 90 1d 64
        E 240 90 1d 00
        E 237 90 1d 64
        E 240 90 1d 00
        E 244 90 1d 64
        E 240 90 1d 00
        E 237 90 1d 64
        E 240 90 1d 00
        E 244 90 1d 64
        E 240 90 1d 00
        E 234 90 1d 64
        E 240 90 1d 00
        E 240 90 24 7f
        E 4 90 1d 64
        E 116 90 24 00
        E 0 90 24 7f
        E 120 90 24 00
        E 4 90 1d 00
        E 237 90 1d 64
        E 1 90 24 7f
        E 120 90 24 00
        E 0 90 24 7f
        E 119 90 1d 00
        E 1 90 24 00
        E 238 90 24 7f
        E 4 90 1d 64
        E 116 90 24 00
        E 0 90 24 7f
        E 120 90 24 00
        E 4 90 1d 00
        E 237 90 1d 64
        E 1 90 24 7f
        E 120 90 24 00
        E 0 90 24 7f
        E 119 90 1d 00
        E 1 90 24 00
        E 1678 90 1d 64
        E 0 90 26 64
        E 0 90 23 64
        E 240 90 1d 00
        E 0 90 26 00
        E 0 90 23 00
        E 0 90 26 64
        E 240 90 26 00
        E 0 90 26 64
        E 0 90 23 64
        E 4 90 1d 64
        E 236 90 26 00
        E 0 90 23 00
        E 0 90 26 64
        E 4 90 1d 00
        E 236 90 26 00
        E 0 90 26 64
        E 0 90 23 64
        E 1 90 1d 64
        E 239 90 26 00
        E 0 90 23 00
        E 0 90 26 64
        E 1 90 1d 00
        E 239 90 26 00
        E 0 90 26 64
        E 0 90 23 64
        E 4 90 1d 64
        E 236 90 26 00
        E 0 90 23 00
        E 0 90 26 64
        E 4 90 1d 00
        E 236 90 26 00
        E 0 90 26 64
        E 0 90 23 64
        E 1 90 1d 64
        E 239 90 26 00
        E 0 90 23 00
        E 0 90 26 64
        E 1 90 1d 00
        E 239 90 26 00
        E 0 90 26 64
        E 0 90 23 64
        E 5 90 1d 64
        E 235 90 26 00
        E 0 90 23 00
        E 0 90 26 64
        E 5 90 1d 00
        E 235 90 26 00
        E 0 90 26 64
        E 0 90 23 64
        E 2 90 1d 64
        E 238 90 26 00
        E 0 90 23 00
        E 0 90 26 64
        E 2 90 1d 00
        E 238 90 26 00
        E 0 90 26 64
        E 0 90 23 64
        E 6 90 1d 64
        E 234 90 26 00
        E 0 90 23 00
        E 0 90 26 64
        E 6 90 1d 00
        E 234 90 26 00
        E 0 90 1d 64
        E 0 90 26 64
        E 0 90 23 64
        E 240 90 1d 00
        E 0 90 26 00
        E 0 90 23 00
        E 0 90 26 64
        E 240 90 26 00
        E 0 90 26 64
        E 0 90 23 64
        E 4 90 1d 64
        E 236 90 26 00
        E 0 90 23 00
        E 0 90 26 64
        E 4 90 1d 00
        E 236 90 26 00
        E 0 90 26 64
        E 0 90 23 64
        E 1 90 1d 64
        E 239 90 26 00
        E 0 90 23 00
        E 0 90 26 64
        E 1 90 1d 00
        E 239 90 26 00
        E 0 90 26 64
        E 0 90 23 64
        E 4 90 1d 64
        E 236 90 26 00
        E 0 90 23 00
        E 0 90 26 64
        E 4 90 1d 00
        E 236 90 26 00
        E 0 90 26 64
        E 0 90 23 64
        E 1 90 1d 64
        E 239 90 26 00
        E 0 90 23 00
        E 0 90 26 64
        E 1 90 1d 00
        E 239 90 26 00
        E 0 90 26 64
        E 0 90 23 64
        E 5 90 1d 64
        E 235 90 26 00
        E 0 90 23 00
        E 0 90 26 64
        E 5 90 1d 00
        E 235 90 26 00
        E 0 90 26 64
        E 0 90 23 64
        E 2 90 1d 64
        E 238 90 26 00
        E 0 90 23 00
        E 0 90 26 64
        E 2 90 1d 00
        E 238 90 26 00
        E 0 90 26 64
        E 0 90 23 64
        E 6 90 1d 64
        E 234 90 26 00
        E 0 90 23 00
        E 0 90 26 64
        E 6 90 1d 00
        E 234 90 26 00
        E 0 90 24 7f
        E 0 90 1d 64
        E 30 90 24 00
        E 89 90 1d 64
        E 1 90 1d 00
        E 0 90 24 72
        E 30 90 24 00
        E 89 90 1d 00
        E 1 90 24 72
        E 30 90 24 00
        E 90 90 24 72
        E 30 90 24 00
        E 90 90 24 72
        E 2 90 1d 64
        E 28 90 24 00
        E 90 90 24 72
        E 1 90 1d 64
        E 1 90 1d 00
        E 28 90 24 00
        E 90 90 24 72
        E 1 90 1d 00
        E 29 90 24 00
        E 90 90 24 72
        E 30 90 24 00
        E 90 90 1d 64
        E 0 90 24 7f
        E 30 90 24 00
        E 89 90 1d 64
        E 1 90 1d 00
        E 0 90 24 72
        E 30 90 24 00
        E 89 90 1d 00
        E 1 90 24 72
        E 30 90 24 00
        E 90 90 24 72
        E 30 90 24 00
        E 90 90 24 72
        E 2 90 1d 64
        E 28 90 24 00
        E 90 90 24 72
        E 1 90 1d 64
        E 1 90 1d 00
        E 28 90 24 00
        E 90 90 24 72
        E 1 90 1d 00
        E 29 90 24 00
        E 90 90 24 72
        E 30 90 24 00
        E 90 90 24 7f
        E 0 90 1d 64
        E 30 90 24 00
        E 89 90 1d 64
        E 1 90 24 72
        E 0 90 1d 00
        E 30 90 24 00
        E 89 90 1d 00
        E 1 90 24 72
        E 30 90 24 00
        E 90 90 24 72
        E 30 90 24 00
        E 90 90 24 72
        E 2 90 1d 64
        E 28 90 24 00
        E 90 90 24 72
        E 1 90 1d 64
        E 1 90 1d 00
        E 28 90 24 00
        E 90 90 24 72
        E 1 90 1d 00
        E 29 90 24 00
        E 90 90 24 72
        E 30 90 24 00
        E 90 90 24 7f
        E 1 90 1d 64
        E 29 90 24 00
        E 90 90 1d 64
        E 0 90 24 72
        E 1 90 1d 00
        E 29 90 24 00
        E 90 90 1d 00
        E 0 90 24 72
        E 30 90 24 00
        E 90 90 24 72
        E 30 90 24 00
        E 90 90 24 72
        E 3 90 1d 64
        E 27 90 24 00
        E 90 90 24 72
        E 2 90 1d 64
        E 1 90 1d 00
        E 27 90 24 00
        E 90 90 24 72
        E 2 90 1d 00
        E 28 90 24 00
        E 90 90 24 72
        E 30 90 24 00
        E 90 90 24 7f
        E 1 90 1d 64
        E 29 90 24 00
        E 90 90 24 72
        E 0 90 1d 64
        E 1 90 1d 00
        E 29 90 24 00
        E 90 90 24 72
        E 0 90 1d 00
        E 30 90 24 00
        E 90 90 24 72
        E 30 90 24 00
        E 90 90 24 72
        E 3 90 1d 64
        E 27 90 24 00
        E 90 90 24 72
        E 2 90 1d 64
        E 1 90 1d 00
        E 27 90 24 00
        E 90 90 24 72
        E 2 90 1d 00
        E 28 90 24 00
        E 90 90 24 72
        E 30 90 24 00
        E 90 90 1d 64
        E 0 90 24 7f
        E 30 90 24 00
        E 89 90 1d 64
        E 1 90 1d 00
        E 0 90 24 72
        E 30 90 24 00
        E 89 90 1d 00
        E 1 90 24 72
        E 30 90 24 00
        E 90 90 24 72
        E 30 90 24 00
        E 90 90 24 72
        E 1 90 1d 64
        E 29 90 24 00
        E 90 90 24 72
        E 0 90 1d 64
        E 1 90 1d 00
        E 29 90 24 00
        E 90 90 24 72
        E 0 90 1d 00
        E 30 90 24 00
        E 90 90 24 72
        E 30 90 24 00
        E 90 90 24 7f
        E 0 90 1d 64
        E 30 90 24 00
        E 89 90 1d 64
        E 1 90 1d 00
        E 0 90 24 72
        E 30 90 24 00
        E 89 90 1d 00
        E 1 90 24 72
        E 30 90 24 00
        E 90 90 24 72
        E 30 90 24 00
        E 90 90 24 72
        E 2 90 1d 64
        E 28 90 24 00
        E 90 90 24 72
        E 1 90 1d 64
        E 1 90 1d 00
        E 28 90 24 00
        E 90 90 24 72
        E 1 90 1d 00
        E 29 90 24 00
        E 90 90 24 72
        E 30 90 24 00
        E 90 90 24 7f
        E 0 90 1d 64
        E 30 90 24 00
        E 89 90 1d 64
        E 1 90 1d 00
        E 0 90 24 72
        E 30 90 24 00
        E 89 90 1d 00
        E 1 90 24 72
        E 30 90 24 00
        E 90 90 24 72
        E 30 90 24 00
        E 90 90 24 72
        E 2 90 1d 64
        E 28 90 24 00
        E 90 90 24 72
        E 1 90 1d 64
        E 1 90 1d 00
        E 28 90 24 00
        E 90 90 24 72
        E 1 90 1d 00
        E 29 90 24 00
        E 90 90 24 72
        E 30 90 24 00
        E 2970 90 24 64
        E 0 90 1c 64
        E 240 90 24 00
        E 0 90 1c 00
        E 240 90 1c 64
        E 240 90 1c 00
        E 240 90 1c 64
        E 240 90 1c 00
        E 240 90 26 64
        E 2 90 1c 64
        E 238 90 26 00
        E 2 90 1c 00
        E 240 90 1c 64
        E 240 90 1c 00
        E 238 90 24 64
        E 2 90 1c 64
        E 238 90 24 00
        E 0 90 24 64
        E 2 90 1c 00
        E 238 90 24 00
        E 0 90 1a 64
        E 0 90 24 64
        E 0 90 1a 64
        E 240 90 1a 00
        E 0 90 24 00
        E 0 90 1a 00
        E 240 90 1a 64
        E 240 90 1a 00
        E 240 90 1a 64
        E 240 90 1a 00
        E 240 90 26 64
        E 2 90 1a 64
        E 238 90 26 00
        E 2 90 1a 00
        E 238 90 24 64
        E 2 90 1a 64
        E 238 90 24 00
        E 2 90 1a 00
        E 240 90 1a 64
        E 238 90 24 64
        E 2 90 1a 00
        E 238 90 24 00
        E 0 90 1a 64
        E 0 90 24 64
        E 0 90 1c 64
        E 240 90 1a 00
        E 0 90 24 00
        E 0 90 1c 00
        E 240 90 1c 64
        E 240 90 1c 00
        E 240 90 1c 64
        E 240 90 1c 00
        E 240 90 26 64
        E 2 90 1c 64
        E 238 90 26 00
        E 2 90 1c 00
        E 240 90 1c 64
        E 240 90 1c 00
        E 238 90 24 64
        E 2 90 1c 64
        E 238 90 24 00
        E 0 90 24 64
        E 2 90 1c 00
        E 238 90 24 00
        E 0 90 1a 64
        E 0 90 24 64
        E 0 90 1a 64
        E 240 90 1a 00
        E 0 90 24 00
        E 0 90 1a 00
        E 240 90 1a 64
        E 240 90 1a 00
        E 240 90 1a 64
        E 240 90 1a 00
        E 240 90 26 64
        E 2 90 1a 64
        E 238 90 26 00
        E 2 90 1a 00
        E 238 90 24 64
        E 2 90 1a 64
        E 238 90 24 00
        E 2 90 1a 00
        E 240 90 1a 64
        E 238 90 24 64
        E 2 90 1a 00
        E 238 90 24 00
        E 0 90 1a 64
        E 0 90 24 64
        E 0 90 1c 64
        E 240 90 1a 00
        E 0 90 24 00
        E 0 90 1c 00
        E 240 90 1c 64
        E 240 90 1c 00
        E 240 90 1c 64
        E 240 90 1c 00
        E 240 90 26 64
        E 2 90 1c 64
        E 238 90 26 00
        E 2 90 1c 00
        E 240 90 1c 64
        E 240 90 1c 00
        E 238 90 24 64
        E 2 90 1c 64
        E 238 90 24 00
        E 0 90 24 64
        E 2 90 1c 00
        E 238 90 24 00
        E 0 90 1a 64
        E 0 90 24 64
        E 0 90 1a 64
        E 240 90 1a 00
        E 0 90 24 00
        E 0 90 1a 00
        E 240 90 1a 64
        E 240 90 1a 00
        E 240 90 1a 64
        E 240 90 1a 00
        E 240 90 26 64
        E 2 90 1a 64
        E 238 90 26 00
        E 2 90 1a 00
        E 238 90 24 64
        E 2 90 1a 64
        E 238 90 24 00
        E 2 90 1a 00
        E 240 90 1a 64
        E 238 90 24 64
        E 2 90 1a 00
        E 238 90 24 00
        E 0 90 1a 64
        E 0 90 24 64
        E 0 90 1c 64
        E 240 90 1a 00
        E 0 90 24 00
        E 0 90 1c 00
        E 240 90 1c 64
        E 240 90 1c 00
        E 240 90 1c 64
        E 240 90 1c 00
        E 240 90 26 64
        E 2 90 1c 64
        E 238 90 26 00
        E 2 90 1c 00
        E 240 90 1c 64
        E 240 90 1c 00
        E 238 90 24 64
        E 2 90 1c 64
        E 238 90 24 00
        E 0 90 24 64
        E 2 90 1c 00
        E 238 90 24 00
        E 0 90 1a 64
        E 0 90 24 64
        E 0 90 1a 64
        E 240 90 1a 00
        E 0 90 24 00
        E 0 90 1a 00
        E 240 90 1a 64
        E 240 90 1a 00
        E 240 90 1a 64
        E 240 90 1a 00
        E 240 90 26 64
        E 2 90 1a 64
        E 238 90 26 00
        E 2 90 1a 00
        E 238 90 24 64
        E 2 90 1a 64
        E 238 90 24 00
        E 2 90 1a 00
        E 240 90 1a 64
        E 238 90 24 64
        E 2 90 1a 00
        E 238 90 24 00
        E 0 90 1a 64
        E 0 90 24 64
        E 0 90 1c 64
        E 240 90 1a 00
        E 0 90 24 00
        E 0 90 1c 00
        E 240 90 1c 64
        E 240 90 1c 00
        E 240 90 1c 64
        E 240 90 1c 00
        E 240 90 26 64
        E 2 90 1c 64
        E 238 90 26 00
        E 2 90 1c 00
        E 240 90 1c 64
        E 240 90 1c 00
        E 238 90 24 64
        E 2 90 1c 64
        E 238 90 24 00
        E 0 90 24 64
        E 2 90 1c 00
        E 238 90 24 00
        E 0 90 1a 64
        E 0 90 24 64
        E 0 90 1a 64
        E 240 90 1a 00
        E 0 90 24 00
        E 0 90 1a 00
        E 240 90 1a 64
        E 240 90 1a 00
        E 240 90 1a 64
        E 240 90 1a 00
        E 240 90 26 64
        E 2 90 1a 64
        E 238 90 26 00
        E 2 90 1a 00
        E 238 90 24 64
        E 2 90 1a 64
        E 238 90 24 00
        E 2 90 1a 00
        E 240 90 1a 64
        E 238 90 24 64
        E 2 90 1a 00
        E 238 90 24 00
        E 0 90 1a 64
        E 0 90 24 64
        E 0 90 1c 64
        E 240 90 1a 00
        E 0 90 24 00
        E 0 90 1c 00
        E 240 90 1c 64
        E 240 90 1c 00
        E 240 90 1c 64
        E 240 90 1c 00
        E 240 90 26 64
        E 2 90 1c 64
        E 238 90 26 00
        E 2 90 1c 00
        E 240 90 1c 64
        E 240 90 1c 00
        E 238 90 24 64
        E 2 90 1c 64
        E 238 90 24 00
        E 0 90 24 64
        E 2 90 1c 00
        E 238 90 24 00
        E 0 90 1a 64
        E 0 90 24 64
        E 0 90 1a 64
        E 240 90 1a 00
        E 0 90 24 00
        E 0 90 1a 00
        E 240 90 1a 64
        E 240 90 1a 00
        E 240 90 1a 64
        E 240 90 1a 00
        E 240 90 26 64
        E 2 90 1a 64
        E 238 90 26 00
        E 2 90 1a 00
        E 238 90 24 64
        E 2 90 1a 64
        E 238 90 24 00
        E 2 90 1a 00
        E 240 90 1a 64
        E 238 90 24 64
        E 2 90 1a 00
        E 238 90 24 00
        E 0 90 1a 64
        E 0 90 24 64
        E 0 90 1c 64
        E 240 90 1a 00
        E 0 90 24 00
        E 0 90 1c 00
        E 240 90 1c 64
        E 240 90 1c 00
        E 240 90 1c 64
        E 240 90 1c 00
        E 240 90 26 64
        E 2 90 1c 64
        E 238 90 26 00
        E 2 90 1c 00
        E 240 90 1c 64
        E 240 90 1c 00
        E 238 90 24 64
        E 2 90 1c 64
        E 238 90 24 00
        E 0 90 24 64
        E 2 90 1c 00
        E 238 90 24 00
        E 0 90 1a 64
        E 0 90 24 64
        E 0 90 1a 64
        E 240 90 1a 00
        E 0 90 24 00
        E 0 90 1a 00
        E 240 90 1a 64
        E 240 90 1a 00
        E 240 90 1a 64
        E 240 90 1a 00
        E 240 90 26 64
        E 2 90 1a 64
        E 238 90 26 00
        E 2 90 1a 00
        E 238 90 24 64
        E 2 90 1a 64
        E 238 90 24 00
        E 2 90 1a 00
        E 240 90 1a 64
        E 238 90 24 64
        E 2 90 1a 00
        E 238 90 24 00
        E 0 90 1a 64
        E 0 90 24 64
        E 0 90 1c 64
        E 240 90 1a 00
        E 0 90 24 00
        E 0 90 1c 00
        E 240 90 1c 64
        E 240 90 1c 00
        E 240 90 1c 64
        E 240 90 1c 00
        E 240 90 26 64
        E 2 90 1c 64
        E 238 90 26 00
        E 2 90 1c 00
        E 240 90 1c 64
        E 240 90 1c 00
        E 238 90 24 64
        E 2 90 1c 64
        E 238 90 24 00
        E 0 90 24 64
        E 2 90 1c 00
        E 238 90 24 00
        E 0 90 1a 64
        E 0 90 24 64
        E 0 90 1a 64
        E 240 90 1a 00
        E 0 90 24 00
        E 0 90 1a 00
        E 240 90 1a 64
        E 240 90 1a 00
        E 240 90 1a 64
        E 240 90 1a 00
        E 240 90 26 64
        E 2 90 1a 64
        E 238 90 26 00
        E 2 90 1a 00
        E 238 90 24 64
        E 2 90 1a 64
        E 238 90 24 00
        E 2 90 1a 00
        E 240 90 1a 64
        E 238 90 24 64
        E 2 90 1a 00
        E 238 80 24 00
        E 0 b0 7b 00
        GUID {06A86C8E-5223-7C4C-A18E-DABECCEDCB74}
        IGNTEMPO 0 120.00000000 4 4
        SRCCOLOR 121
        VELLANE -1 100 0
      >
    >
    <ITEM
      POSITION 196.54054054047447
      SNAPOFFS 0.00000000000000
      LENGTH 15.56756756756729
      LOOP 1
      ALLTAKES 0
      SEL 0
      FADEIN 1 0.000000 0.000000 1 0
      FADEOUT 1 0.000000 0.000000 1 0
      MUTE 0
      IGUID {922AB3FB-F985-3147-9EC6-7FD4D7EFCFC6}
      IID 1220
      NAME "miesjuna - miesjuna.mid"
      VOLPAN 1.000000 0.000000 1.000000 -1.000000
      SOFFS 0.00000000000000 0.00000000000000
      PLAYRATE 1.00000000000000 1 0.00000000000000 -1
      CHANMODE 0
      GUID {2D6DE0C3-DB8D-4941-80A1-2ADD1B28665A}
      <SOURCE MIDI
        HASDATA 1 480 QN
        POOLEDEVTS {2445AEE1-F19C-F543-B1A3-CC679FED952D}
        E 0 90 24 00
        E 0 90 1a 64
        E 0 90 24 64
        E 0 90 1c 64
        E 240 90 1a 00
        E 0 90 24 00
        E 0 90 1c 00
        E 240 90 1c 64
        E 240 90 1c 00
        E 240 90 1c 64
        E 240 90 1c 00
        E 240 90 26 64
        E 2 90 1c 64
        E 238 90 26 00
        E 2 90 1c 00
        E 240 90 1c 64
        E 240 90 1c 00
        E 238 90 24 64
        E 2 90 1c 64
        E 238 90 24 00
        E 0 90 24 64
        E 2 90 1c 00
        E 238 90 24 00
        E 0 90 1a 64
        E 0 90 24 64
        E 0 90 1a 64
        E 240 90 1a 00
        E 0 90 24 00
        E 0 90 1a 00
        E 240 90 1a 64
        E 240 90 1a 00
        E 240 90 1a 64
        E 240 90 1a 00
        E 240 90 26 64
        E 2 90 1a 64
        E 238 90 26 00
        E 2 90 1a 00
        E 238 90 24 64
        E 2 90 1a 64
        E 238 90 24 00
        E 2 90 1a 00
        E 240 90 1a 64
        E 238 90 24 64
        E 2 90 1a 00
        E 238 90 24 00
        E 0 90 1a 64
        E 0 90 24 64
        E 0 90 1c 64
        E 240 90 1a 00
        E 0 90 24 00
        E 0 90 1c 00
        E 240 90 1c 64
        E 240 90 1c 00
        E 240 90 1c 64
        E 240 90 1c 00
        E 240 90 26 64
        E 2 90 1c 64
        E 238 90 26 00
        E 2 90 1c 00
        E 240 90 1c 64
        E 240 90 1c 00
        E 238 90 24 64
        E 2 90 1c 64
        E 238 90 24 00
        E 0 90 24 64
        E 2 90 1c 00
        E 238 90 24 00
        E 0 90 1a 64
        E 0 90 24 64
        E 0 90 1a 64
        E 240 90 1a 00
        E 0 90 24 00
        E 0 90 1a 00
        E 240 90 1a 64
        E 240 90 1a 00
        E 240 90 1a 64
        E 240 90 1a 00
        E 240 90 26 64
        E 2 90 1a 64
        E 238 90 26 00
        E 2 90 1a 00
        E 238 90 24 64
        E 2 90 1a 64
        E 238 90 24 00
        E 2 90 1a 00
        E 240 90 1a 64
        E 238 90 24 64
        E 2 90 1a 00
        E 238 90 24 00
        E 0 90 1a 64
        E 0 90 24 64
        E 0 90 1c 64
        E 240 90 1a 00
        E 0 90 24 00
        E 0 90 1c 00
        E 240 90 1c 64
        E 240 90 1c 00
        E 240 90 1c 64
        E 240 90 1c 00
        E 240 90 26 64
        E 2 90 1c 64
        E 238 90 26 00
        E 2 90 1c 00
        E 240 90 1c 64
        E 240 90 1c 00
        E 238 90 24 64
        E 2 90 1c 64
        E 238 90 24 00
        E 0 90 24 64
        E 2 90 1c 00
        E 238 90 24 00
        E 0 90 1a 64
        E 0 90 24 64
        E 0 90 1a 64
        E 240 90 1a 00
        E 0 90 24 00
        E 0 90 1a 00
        E 240 90 1a 64
        E 240 90 1a 00
        E 240 90 1a 64
        E 240 90 1a 00
        E 240 90 26 64
        E 2 90 1a 64
        E 238 90 26 00
        E 2 90 1a 00
        E 238 90 24 64
        E 2 90 1a 64
        E 238 90 24 00
        E 2 90 1a 00
        E 240 90 1a 64
        E 238 90 24 64
        E 2 90 1a 00
        E 238 90 24 00
        E 0 90 1a 64
        E 0 90 24 64
        E 0 90 1c 64
        E 240 90 1a 00
        E 0 90 24 00
        E 0 90 1c 00
        E 240 90 1c 64
        E 240 90 1c 00
        E 240 90 1c 64
        E 240 90 1c 00
        E 240 90 26 64
        E 2 90 1c 64
        E 238 90 26 00
        E 2 90 1c 00
        E 240 90 1c 64
        E 240 90 1c 00
        E 238 90 24 64
        E 2 90 1c 64
        E 238 90 24 00
        E 0 90 24 64
        E 2 90 1c 00
        E 238 90 24 00
        E 0 90 1a 64
        E 0 90 24 64
        E 0 90 1a 64
        E 240 90 1a 00
        E 0 90 24 00
        E 0 90 1a 00
        E 240 90 1a 64
        E 240 90 1a 00
        E 240 90 1a 64
        E 240 90 1a 00
        E 240 90 26 64
        E 2 90 1a 64
        E 238 90 26 00
        E 2 90 1a 00
        E 238 90 24 64
        E 2 90 1a 64
        E 238 90 24 00
        E 2 90 1a 00
        E 240 90 1a 64
        E 238 90 24 64
        E 2 90 1a 00
        E 238 80 24 00
        E 0 b0 7b 00
        GUID {CCF7A674-778C-6045-8EF8-52CCFBFBC781}
        IGNTEMPO 0 120.00000000 4 4
        SRCCOLOR 3063
        VELLANE -1 100 0
      >
    >
    <ITEM
      POSITION 212.10810810816474
      SNAPOFFS 0.00000000000000
      LENGTH 15.56756756756741
      LOOP 1
      ALLTAKES 0
      SEL 0
      FADEIN 1 0.000000 0.000000 1 0
      FADEOUT 1 0.000000 0.000000 1 0
      MUTE 0
      IGUID {43037E77-99CC-5645-BF7B-17291206C2DC}
      IID 1220
      NAME "miesjuna - miesjuna.mid"
      VOLPAN 1.000000 0.000000 1.000000 -1.000000
      SOFFS 0.00000000000000 0.00000000000000
      PLAYRATE 1.00000000000000 1 0.00000000000000 -1
      CHANMODE 0
      GUID {FAE4CAC9-5C12-AD41-945F-E765A74FD091}
      <SOURCE MIDI
        HASDATA 1 480 QN
        POOLEDEVTS {50F3489E-A59A-9B48-AD88-D05C33AEAC57}
        E 0 90 24 00
        E 0 90 1a 64
        E 0 90 24 64
        E 0 90 1c 64
        E 240 90 1a 00
        E 0 90 24 00
        E 0 90 1c 00
        E 240 90 1c 64
        E 240 90 1c 00
        E 240 90 1c 64
        E 240 90 1c 00
        E 240 90 26 64
        E 2 90 1c 64
        E 238 90 26 00
        E 2 90 1c 00
        E 240 90 1c 64
        E 240 90 1c 00
        E 238 90 24 64
        E 2 90 1c 64
        E 238 90 24 00
        E 0 90 24 64
        E 2 90 1c 00
        E 238 90 24 00
        E 0 90 1a 64
        E 0 90 24 64
        E 0 90 1a 64
        E 240 90 1a 00
        E 0 90 24 00
        E 0 90 1a 00
        E 240 90 1a 64
        E 240 90 1a 00
        E 240 90 1a 64
        E 240 90 1a 00
        E 240 90 26 64
        E 2 90 1a 64
        E 238 90 26 00
        E 2 90 1a 00
        E 238 90 24 64
        E 2 90 1a 64
        E 238 90 24 00
        E 2 90 1a 00
        E 240 90 1a 64
        E 238 90 24 64
        E 2 90 1a 00
        E 238 90 24 00
        E 0 90 1a 64
        E 0 90 24 64
        E 0 90 1c 64
        E 240 90 1a 00
        E 0 90 24 00
        E 0 90 1c 00
        E 240 90 1c 64
        E 240 90 1c 00
        E 240 90 1c 64
        E 240 90 1c 00
        E 240 90 26 64
        E 2 90 1c 64
        E 238 90 26 00
        E 2 90 1c 00
        E 240 90 1c 64
        E 240 90 1c 00
        E 238 90 24 64
        E 2 90 1c 64
        E 238 90 24 00
        E 0 90 24 64
        E 2 90 1c 00
        E 238 90 24 00
        E 0 90 1a 64
        E 0 90 24 64
        E 0 90 1a 64
        E 240 90 1a 00
        E 0 90 24 00
        E 0 90 1a 00
        E 240 90 1a 64
        E 240 90 1a 00
        E 240 90 1a 64
        E 240 90 1a 00
        E 240 90 26 64
        E 2 90 1a 64
        E 238 90 26 00
        E 2 90 1a 00
        E 238 90 24 64
        E 2 90 1a 64
        E 238 90 24 00
        E 2 90 1a 00
        E 240 90 1a 64
        E 238 90 24 64
        E 2 90 1a 00
        E 238 90 24 00
        E 0 90 1a 64
        E 0 90 24 64
        E 0 90 1c 64
        E 240 90 1a 00
        E 0 90 24 00
        E 0 90 1c 00
        E 240 90 1c 64
        E 240 90 1c 00
        E 240 90 1c 64
        E 240 90 1c 00
        E 240 90 26 64
        E 2 90 1c 64
        E 238 90 26 00
        E 2 90 1c 00
        E 240 90 1c 64
        E 240 90 1c 00
        E 238 90 24 64
        E 2 90 1c 64
        E 238 90 24 00
        E 0 90 24 64
        E 2 90 1c 00
        E 238 90 24 00
        E 0 90 1a 64
        E 0 90 24 64
        E 0 90 1a 64
        E 240 90 1a 00
        E 0 90 24 00
        E 0 90 1a 00
        E 240 90 1a 64
        E 240 90 1a 00
        E 240 90 1a 64
        E 240 90 1a 00
        E 240 90 26 64
        E 2 90 1a 64
        E 238 90 26 00
        E 2 90 1a 00
        E 238 90 24 64
        E 2 90 1a 64
        E 238 90 24 00
        E 2 90 1a 00
        E 240 90 1a 64
        E 238 90 24 64
        E 2 90 1a 00
        E 238 90 24 00
        E 0 90 1a 64
        E 0 90 24 64
        E 0 90 1c 64
        E 240 90 1a 00
        E 0 90 24 00
        E 0 90 1c 00
        E 240 90 1c 64
        E 240 90 1c 00
        E 240 90 1c 64
        E 240 90 1c 00
        E 240 90 26 64
        E 2 90 1c 64
        E 238 90 26 00
        E 2 90 1c 00
        E 240 90 1c 64
        E 240 90 1c 00
        E 238 90 24 64
        E 2 90 1c 64
        E 238 90 24 00
        E 0 90 24 64
        E 2 90 1c 00
        E 238 90 24 00
        E 0 90 1a 64
        E 0 90 24 64
        E 0 90 1a 64
        E 240 90 1a 00
        E 0 90 24 00
        E 0 90 1a 00
        E 240 90 1a 64
        E 240 90 1a 00
        E 240 90 1a 64
        E 240 90 1a 00
        E 240 90 26 64
        E 2 90 1a 64
        E 238 90 26 00
        E 2 90 1a 00
        E 238 90 24 64
        E 2 90 1a 64
        E 238 90 24 00
        E 2 90 1a 00
        E 240 90 1a 64
        E 238 90 24 64
        E 2 90 1a 00
        E 238 80 24 00
        E 0 b0 7b 00
        GUID {CCF7A674-778C-6045-8EF8-52CCFBFBC781}
        IGNTEMPO 0 120.00000000 4 4
        SRCCOLOR 3063
        VELLANE -1 100 0
      >
    >
    <ITEM
      POSITION 227.67567567562219
      SNAPOFFS 0.00000000000000
      LENGTH 7.78378378378406
      LOOP 1
      ALLTAKES 0
      SEL 0
      FADEIN 1 0.000000 0.000000 1 0
      FADEOUT 1 0.000000 0.000000 1 0
      MUTE 0
      IGUID {D7AFCB9C-F977-884D-8062-37445972543D}
      IID 1220
      NAME "miesjuna - miesjuna.mid"
      VOLPAN 1.000000 0.000000 1.000000 -1.000000
      SOFFS 207.56756756755422 639.99999999995885
      PLAYRATE 1.00000000000000 1 0.00000000000000 -1
      CHANMODE 0
      GUID {3F0B8694-FFFC-384C-9873-97F50AD67236}
      <SOURCE MIDI
        HASDATA 1 480 QN
        POOLEDEVTS {BA7E34D3-BCCD-9742-AE49-587B5D131458}
        <X 0 0
          /wNtaWVzanVuYQ==
        >
        E 3840 90 2a 2f
        E 0 90 24 7f
        E 56 90 2a 00
        E 64 90 24 00
        E 120 90 26 7f
        E 2 90 2a 7f
        E 99 90 2a 00
        E 19 90 26 00
        E 120 90 2a 2d
        E 0 90 24 7f
        E 56 90 2a 00
        E 64 90 24 00
        E 120 90 26 7f
        E 2 90 2a 7f
        E 99 90 2a 00
        E 19 90 26 00
        E 120 90 2a 2d
        E 0 90 24 7f
        E 56 90 2a 00
        E 64 90 24 00
        E 120 90 26 7f
        E 2 90 2a 7f
        E 99 90 2a 00
        E 19 90 26 00
        E 120 90 2a 30
        E 0 90 24 7f
        E 61 90 2a 00
        E 59 90 24 00
        E 120 90 26 7f
        E 3 90 2a 7f
        E 74 90 2a 00
        E 43 90 26 00
        E 120 90 2a 2f
        E 0 90 24 7f
        E 56 90 2a 00
        E 64 90 24 00
        E 120 90 26 7f
        E 2 90 2a 7f
        E 99 90 2a 00
        E 19 90 26 00
        E 120 90 2a 2d
        E 0 90 24 7f
        E 56 90 2a 00
        E 64 90 24 00
        E 120 90 26 7f
        E 2 90 2a 7f
        E 99 90 2a 00
        E 19 90 26 00
        E 120 90 2a 2d
        E 0 90 24 7f
        E 56 90 2a 00
        E 64 90 24 00
        E 120 90 26 7f
        E 2 90 2a 7f
        E 99 90 2a 00
        E 19 90 26 00
        E 120 90 2a 30
        E 0 90 24 7f
        E 61 90 2a 00
        E 59 90 24 00
        E 120 90 26 7f
        E 3 90 2a 7f
        E 74 90 2a 00
        E 43 90 26 00
        E 120 90 2a 2f
        E 0 90 24 7f
        E 56 90 2a 00
        E 64 90 24 00
        E 120 90 26 7f
        E 2 90 2a 7f
        E 99 90 2a 00
        E 19 90 26 00
        E 120 90 2a 2d
        E 0 90 24 7f
        E 56 90 2a 00
        E 64 90 24 00
        E 120 90 26 7f
        E 2 90 2a 7f
        E 99 90 2a 00
        E 19 90 26 00
        E 120 90 2a 2d
        E 0 90 24 7f
        E 56 90 2a 00
        E 64 90 24 00
        E 120 90 26 7f
        E 2 90 2a 7f
        E 99 90 2a 00
        E 19 90 26 00
        E 120 90 2a 30
        E 0 90 24 7f
        E 61 90 2a 00
        E 59 90 24 00
        E 120 90 26 7f
        E 3 90 2a 7f
        E 74 90 2a 00
        E 43 90 26 00
        E 120 90 2a 2f
        E 0 90 24 7f
        E 56 90 2a 00
        E 64 90 24 00
        E 120 90 26 7f
        E 2 90 2a 7f
        E 99 90 2a 00
        E 19 90 26 00
        E 120 90 2a 2d
        E 0 90 24 7f
        E 56 90 2a 00
        E 64 90 24 00
        E 120 90 26 7f
        E 2 90 2a 7f
        E 99 90 2a 00
        E 19 90 26 00
        E 120 90 2a 2d
        E 0 90 24 7f
        E 56 90 2a 00
        E 64 90 24 00
        E 120 90 26 7f
        E 2 90 2a 7f
        E 99 90 2a 00
        E 19 90 26 00
        E 120 90 2a 30
        E 0 90 24 7f
        E 61 90 2a 00
        E 59 90 24 00
        E 120 90 26 7f
        E 3 90 2a 7f
        E 74 90 2a 00
        E 43 90 26 00
        E 120 90 2a 2f
        E 0 90 24 7f
        E 56 90 2a 00
        E 64 90 24 00
        E 120 90 26 7f
        E 2 90 2a 7f
        E 99 90 2a 00
        E 19 90 26 00
        E 120 90 2a 2d
        E 0 90 24 7f
        E 56 90 2a 00
        E 64 90 24 00
        E 120 90 26 7f
        E 2 90 2a 7f
        E 99 90 2a 00
        E 19 90 26 00
        E 120 90 2a 2d
        E 0 90 24 7f
        E 56 90 2a 00
        E 64 90 24 00
        E 120 90 26 7f
        E 2 90 2a 7f
        E 99 90 2a 00
        E 19 90 26 00
        E 120 90 2a 30
        E 0 90 24 7f
        E 61 90 2a 00
        E 59 90 24 00
        E 120 90 26 7f
        E 3 90 2a 7f
        E 74 90 2a 00
        E 43 90 26 00
        E 120 90 2a 2f
        E 0 90 24 7f
        E 56 90 2a 00
        E 64 90 24 00
        E 120 90 26 7f
        E 2 90 2a 7f
        E 99 90 2a 00
        E 19 90 26 00
        E 120 90 2a 2d
        E 0 90 24 7f
        E 56 90 2a 00
        E 64 90 24 00
        E 120 90 26 7f
        E 2 90 2a 7f
        E 99 90 2a 00
        E 19 90 26 00
        E 120 90 2a 2d
        E 0 90 24 7f
        E 56 90 2a 00
        E 64 90 24 00
        E 120 90 26 7f
        E 2 90 2a 7f
        E 99 90 2a 00
        E 19 90 26 00
        E 120 90 2a 30
        E 0 90 24 7f
        E 61 90 2a 00
        E 59 90 24 00
        E 120 90 26 7f
        E 3 90 2a 7f
        E 74 90 2a 00
        E 43 90 26 00
        E 120 90 18 19
        E 0 90 24 7f
        E 29 90 18 00
        E 91 90 24 00
        E 120 90 26 7f
        E 5 90 18 6b
        E 41 90 18 00
        E 74 90 26 00
        E 120 90 18 19
        E 0 90 24 7f
        E 29 90 18 00
        E 91 90 24 00
        E 120 90 26 7f
        E 5 90 18 6b
        E 41 90 18 00
        E 74 90 26 00
        E 120 90 18 19
        E 0 90 24 7f
        E 29 90 18 00
        E 91 90 24 00
        E 120 90 26 7f
        E 5 90 18 6b
        E 41 90 18 00
        E 74 90 26 00
        E 120 90 18 15
        E 0 90 24 7f
        E 35 90 18 00
        E 85 90 24 00
        E 120 90 26 7f
        E 7 90 18 7f
        E 43 90 18 00
        E 70 90 26 00
        E 120 90 18 19
        E 0 90 24 7f
        E 29 90 18 00
        E 91 90 24 00
        E 120 90 26 7f
        E 5 90 18 6b
        E 41 90 18 00
        E 74 90 26 00
        E 120 90 18 19
        E 0 90 24 7f
        E 29 90 18 00
        E 91 90 24 00
        E 120 90 26 7f
        E 5 90 18 6b
        E 41 90 18 00
        E 74 90 26 00
        E 120 90 18 19
        E 0 90 24 7f
        E 29 90 18 00
        E 91 90 24 00
        E 120 90 26 7f
        E 5 90 18 6b
        E 41 90 18 00
        E 74 90 26 00
        E 120 90 18 15
        E 0 90 24 7f
        E 35 90 18 00
        E 85 90 24 00
        E 120 90 26 7f
        E 7 90 18 7f
        E 43 90 18 00
        E 70 90 26 00
        E 120 90 18 19
        E 0 90 24 7f
        E 29 90 18 00
        E 91 90 24 00
        E 120 90 26 7f
        E 5 90 18 6b
        E 41 90 18 00
        E 74 90 26 00
        E 120 90 18 19
        E 0 90 24 7f
        E 29 90 18 00
        E 91 90 24 00
        E 120 90 26 7f
        E 5 90 18 6b
        E 41 90 18 00
        E 74 90 26 00
        E 120 90 18 19
        E 0 90 24 7f
        E 29 90 18 00
        E 91 90 24 00
        E 120 90 26 7f
        E 5 90 18 6b
        E 41 90 18 00
        E 74 90 26 00
        E 120 90 18 15
        E 0 90 24 7f
        E 35 90 18 00
        E 85 90 24 00
        E 120 90 26 7f
        E 7 90 18 7f
        E 43 90 18 00
        E 70 90 26 00
        E 120 90 18 19
        E 0 90 24 7f
        E 29 90 18 00
        E 91 90 24 00
        E 120 90 26 7f
        E 5 90 18 6b
        E 41 90 18 00
        E 74 90 26 00
        E 120 90 18 19
        E 0 90 24 7f
        E 29 90 18 00
        E 91 90 24 00
        E 120 90 26 7f
        E 5 90 18 6b
        E 41 90 18 00
        E 74 90 26 00
        E 120 90 18 19
        E 0 90 24 7f
        E 29 90 18 00
        E 91 90 24 00
        E 120 90 26 7f
        E 5 90 18 6b
        E 41 90 18 00
        E 74 90 26 00
        E 120 90 18 15
        E 0 90 24 7f
        E 35 90 18 00
        E 85 90 24 00
        E 120 90 26 7f
        E 7 90 18 7f
        E 43 90 18 00
        E 70 90 26 00
        E 120 90 18 19
        E 0 90 24 7f
        E 29 90 18 00
        E 91 90 24 00
        E 120 90 26 7f
        E 5 90 18 6b
        E 41 90 18 00
        E 74 90 26 00
        E 120 90 18 19
        E 0 90 24 7f
        E 29 90 18 00
        E 91 90 24 00
        E 120 90 26 7f
        E 5 90 18 6b
        E 41 90 18 00
        E 74 90 26 00
        E 120 90 18 19
        E 0 90 24 7f
        E 29 90 18 00
        E 91 90 24 00
        E 120 90 26 7f
        E 5 90 18 6b
        E 41 90 18 00
        E 74 90 26 00
        E 120 90 18 15
        E 0 90 24 7f
        E 35 90 18 00
        E 85 90 24 00
        E 120 90 26 7f
        E 7 90 18 7f
        E 43 90 18 00
        E 70 90 26 00
        E 120 90 18 19
        E 0 90 24 7f
        E 29 90 18 00
        E 91 90 24 00
        E 120 90 26 7f
        E 5 90 18 6b
        E 41 90 18 00
        E 74 90 26 00
        E 120 90 18 19
        E 0 90 24 7f
        E 29 90 18 00
        E 91 90 24 00
        E 120 90 26 7f
        E 5 90 18 6b
        E 41 90 18 00
        E 74 90 26 00
        E 120 90 18 19
        E 0 90 24 7f
        E 29 90 18 00
        E 91 90 24 00
        E 120 90 26 7f
        E 5 90 18 6b
        E 41 90 18 00
        E 74 90 26 00
        E 120 90 18 15
        E 0 90 24 7f
        E 35 90 18 00
        E 85 90 24 00
        E 120 90 26 7f
        E 7 90 18 7f
        E 43 90 18 00
        E 70 90 26 00
        E 120 90 18 19
        E 29 90 18 00
        E 216 90 18 6b
        E 41 90 18 00
        E 194 90 18 19
        E 0 90 24 7f
        E 120 90 18 00
        E 0 90 24 00
        E 0 90 24 7f
        E 120 90 24 00
        E 0 90 18 6b
        E 120 90 18 00
        E 120 90 18 19
        E 2 90 24 7f
        E 27 90 18 00
        E 93 90 24 00
        E 0 90 24 7f
        E 120 90 24 00
        E 3 90 18 6b
        E 41 90 18 00
        E 194 90 18 15
        E 35 90 18 00
        E 205 90 24 64
        E 7 90 18 7f
        E 43 90 18 00
        E 70 90 24 00
        E 0 90 24 64
        E 120 90 24 00
        E 0 90 24 64
        E 3 90 18 19
        E 29 90 18 00
        E 208 90 24 00
        E 0 90 24 64
        E 8 90 18 6b
        E 41 90 18 00
        E 71 90 24 00
        E 2 90 24 64
        E 118 90 24 64
        E 2 90 24 00
        E 1 90 18 19
        E 117 90 24 00
        E 0 90 24 64
        E 3 90 18 00
        E 117 90 24 00
        E 0 90 24 64
        E 3 90 18 6b
        E 117 90 24 00
        E 0 90 24 64
        E 3 90 18 00
        E 117 90 24 00
        E 0 90 24 64
        E 3 90 18 19
        E 29 90 18 00
        E 88 90 24 00
        E 120 90 24 64
        E 8 90 18 6b
        E 41 90 18 00
        E 71 90 24 00
        E 120 90 24 64
        E 3 90 18 15
        E 35 90 18 00
        E 82 90 24 00
        E 120 90 24 64
        E 10 90 18 7f
        E 43 90 18 00
        E 67 90 24 00
        E 120 90 18 19
        E 29 90 18 00
        E 216 90 18 6b
        E 41 90 18 00
        E 194 90 18 19
        E 0 90 24 7f
        E 120 90 18 00
        E 0 90 24 00
        E 0 90 24 7f
        E 120 90 24 00
        E 0 90 18 6b
        E 120 90 18 00
        E 120 90 18 19
        E 2 90 24 7f
        E 27 90 18 00
        E 93 90 24 7f
        E 0 90 24 00
        E 120 90 24 00
        E 3 90 18 6b
        E 41 90 18 00
        E 194 90 18 15
        E 35 90 18 00
        E 205 90 24 64
        E 7 90 18 7f
        E 43 90 18 00
        E 70 90 24 00
        E 0 90 24 64
        E 120 90 24 00
        E 0 90 24 64
        E 3 90 18 19
        E 29 90 18 00
        E 208 90 24 00
        E 0 90 24 64
        E 8 90 18 6b
        E 41 90 18 00
        E 71 90 24 00
        E 2 90 24 64
        E 118 90 24 64
        E 2 90 24 00
        E 1 90 18 19
        E 117 90 24 00
        E 0 90 24 64
        E 3 90 18 00
        E 117 90 24 00
        E 0 90 24 64
        E 3 90 18 6b
        E 117 90 24 00
        E 0 90 24 64
        E 3 90 18 00
        E 117 90 24 00
        E 0 90 24 64
        E 3 90 18 19
        E 29 90 18 00
        E 88 90 24 00
        E 120 90 24 64
        E 8 90 18 6b
        E 41 90 18 00
        E 71 90 24 00
        E 120 90 24 64
        E 3 90 18 15
        E 35 90 18 00
        E 82 90 24 00
        E 120 90 24 64
        E 10 90 18 7f
        E 43 90 18 00
        E 67 90 24 00
        E 120 90 18 19
        E 29 90 18 00
        E 216 90 18 6b
        E 41 90 18 00
        E 194 90 18 19
        E 0 90 24 7f
        E 120 90 18 00
        E 0 90 24 00
        E 0 90 24 7f
        E 120 90 24 00
        E 0 90 18 6b
        E 120 90 18 00
        E 120 90 18 19
        E 2 90 24 7f
        E 27 90 18 00
        E 93 90 24 7f
        E 0 90 24 00
        E 120 90 24 00
        E 3 90 18 6b
        E 41 90 18 00
        E 194 90 18 15
        E 35 90 18 00
        E 205 90 24 64
        E 7 90 18 7f
        E 43 90 18 00
        E 70 90 24 00
        E 0 90 24 64
        E 120 90 24 00
        E 0 90 24 64
        E 3 90 18 19
        E 29 90 18 00
        E 208 90 24 00
        E 0 90 24 64
        E 8 90 18 6b
        E 41 90 18 00
        E 71 90 24 00
        E 2 90 24 64
        E 118 90 24 64
        E 2 90 24 00
        E 1 90 18 19
        E 117 90 24 00
        E 0 90 24 64
        E 3 90 18 00
        E 117 90 24 00
        E 0 90 24 64
        E 3 90 18 6b
        E 117 90 24 00
        E 0 90 24 64
        E 3 90 18 00
        E 117 90 24 00
        E 0 90 24 64
        E 3 90 18 19
        E 29 90 18 00
        E 88 90 24 00
        E 120 90 24 64
        E 8 90 18 6b
        E 41 90 18 00
        E 71 90 24 00
        E 120 90 24 64
        E 3 90 18 15
        E 35 90 18 00
        E 82 90 24 00
        E 120 90 24 64
        E 10 90 18 7f
        E 43 90 18 00
        E 67 90 24 00
        E 120 90 1d 64
        E 240 90 1d 00
        E 240 90 24 7f
        E 4 90 1d 64
        E 116 90 24 00
        E 0 90 24 7f
        E 120 90 24 00
        E 4 90 1d 00
        E 237 90 1d 64
        E 1 90 24 7f
        E 120 90 24 7f
        E 0 90 24 00
        E 119 90 1d 00
        E 1 90 24 00
        E 242 90 1d 64
        E 240 90 1d 00
        E 237 90 1d 64
        E 240 90 1d 00
        E 244 90 1d 64
        E 240 90 1d 00
        E 237 90 1d 64
        E 240 90 1d 00
        E 244 90 1d 64
        E 240 90 1d 00
        E 234 90 1d 64
        E 240 90 1d 00
        E 240 90 24 7f
        E 4 90 1d 64
        E 116 90 24 00
        E 0 90 24 7f
        E 120 90 24 00
        E 4 90 1d 00
        E 237 90 1d 64
        E 1 90 24 7f
        E 120 90 24 7f
        E 0 90 24 00
        E 119 90 1d 00
        E 1 90 24 00
        E 242 90 1d 64
        E 240 90 1d 00
        E 237 90 1d 64
        E 240 90 1d 00
        E 244 90 1d 64
        E 240 90 1d 00
        E 237 90 1d 64
        E 240 90 1d 00
        E 244 90 1d 64
        E 240 90 1d 00
        E 234 90 1d 64
        E 240 90 1d 00
        E 240 90 24 7f
        E 4 90 1d 64
        E 116 90 24 00
        E 0 90 24 7f
        E 120 90 24 00
        E 4 90 1d 00
        E 237 90 1d 64
        E 1 90 24 7f
        E 120 90 24 7f
        E 0 90 24 00
        E 119 90 1d 00
        E 1 90 24 00
        E 242 90 1d 64
        E 240 90 1d 00
        E 237 90 1d 64
        E 240 90 1d 00
        E 244 90 1d 64
        E 240 90 1d 00
        E 237 90 1d 64
        E 240 90 1d 00
        E 244 90 1d 64
        E 240 90 1d 00
        E 234 90 1d 64
        E 0 90 26 64
        E 0 90 23 64
        E 240 90 1d 00
        E 0 90 26 00
        E 0 90 23 00
        E 0 90 26 64
        E 240 90 26 00
        E 0 90 26 64
        E 0 90 23 64
        E 4 90 1d 64
        E 236 90 26 00
        E 0 90 23 00
        E 0 90 26 64
        E 4 90 1d 00
        E 236 90 26 00
        E 0 90 26 64
        E 0 90 23 64
        E 1 90 1d 64
        E 239 90 26 00
        E 0 90 23 00
        E 0 90 26 64
        E 1 90 1d 00
        E 239 90 26 00
        E 0 90 26 64
        E 0 90 23 64
        E 4 90 1d 64
        E 236 90 26 00
        E 0 90 23 00
        E 0 90 26 64
        E 4 90 1d 00
        E 236 90 26 00
        E 0 90 26 64
        E 0 90 23 64
        E 1 90 1d 64
        E 239 90 26 00
        E 0 90 23 00
        E 0 90 26 64
        E 1 90 1d 00
        E 239 90 26 00
        E 0 90 26 64
        E 0 90 23 64
        E 5 90 1d 64
        E 235 90 26 00
        E 0 90 23 00
        E 0 90 26 64
        E 5 90 1d 00
        E 235 90 26 00
        E 0 90 26 64
        E 0 90 23 64
        E 2 90 1d 64
        E 238 90 26 00
        E 0 90 23 00
        E 0 90 26 64
        E 2 90 1d 00
        E 238 90 26 00
        E 0 90 26 64
        E 0 90 23 64
        E 6 90 1d 64
        E 234 90 26 00
        E 0 90 23 00
        E 0 90 26 64
        E 6 90 1d 00
        E 234 90 26 00
        E 0 90 1d 64
        E 0 90 26 64
        E 0 90 23 64
        E 240 90 1d 00
        E 0 90 26 00
        E 0 90 23 00
        E 0 90 26 64
        E 240 90 26 00
        E 0 90 26 64
        E 0 90 23 64
        E 4 90 1d 64
        E 236 90 26 00
        E 0 90 23 00
        E 0 90 26 64
        E 4 90 1d 00
        E 236 90 26 00
        E 0 90 26 64
        E 0 90 23 64
        E 1 90 1d 64
        E 239 90 26 00
        E 0 90 23 00
        E 0 90 26 64
        E 1 90 1d 00
        E 239 90 26 00
        E 0 90 26 64
        E 0 90 23 64
        E 4 90 1d 64
        E 236 90 26 00
        E 0 90 23 00
        E 0 90 26 64
        E 4 90 1d 00
        E 236 90 26 00
        E 0 90 26 64
        E 0 90 23 64
        E 1 90 1d 64
        E 239 90 26 00
        E 0 90 23 00
        E 0 90 26 64
        E 1 90 1d 00
        E 239 90 26 00
        E 0 90 26 64
        E 0 90 23 64
        E 5 90 1d 64
        E 235 90 26 00
        E 0 90 23 00
        E 0 90 26 64
        E 5 90 1d 00
        E 235 90 26 00
        E 0 90 26 64
        E 0 90 23 64
        E 2 90 1d 64
        E 238 90 26 00
        E 0 90 23 00
        E 0 90 26 64
        E 2 90 1d 00
        E 238 90 26 00
        E 0 90 26 64
        E 0 90 23 64
        E 6 90 1d 64
        E 234 90 26 00
        E 0 90 23 00
        E 0 90 26 64
        E 6 90 1d 00
        E 234 90 26 00
        E 0 90 24 7f
        E 5 90 1a 7f
        E 1 90 26 7f
        E 24 90 24 00
        E 5 90 1a 00
        E 1 90 26 00
        E 84 90 24 72
        E 30 90 24 00
        E 90 90 24 72
        E 1 90 1a 41
        E 29 90 24 00
        E 1 90 1a 00
        E 89 90 24 72
        E 30 90 24 00
        E 90 90 24 72
        E 3 90 1a 7f
        E 5 90 26 7f
        E 22 90 24 00
        E 3 90 1a 00
        E 5 90 26 00
        E 82 90 24 72
        E 30 90 24 00
        E 88 90 1a 41
        E 2 90 24 72
        E 28 90 1a 00
        E 2 90 24 00
        E 90 90 24 72
        E 30 90 24 00
        E 90 90 24 7f
        E 3 90 1a 7f
        E 8 90 26 7f
        E 19 90 24 00
        E 3 90 1a 00
        E 8 90 26 00
        E 79 90 24 72
        E 30 90 24 00
        E 90 90 24 72
        E 3 90 1a 41
        E 27 90 24 00
        E 3 90 1a 00
        E 87 90 24 72
        E 30 90 24 00
        E 90 90 24 72
        E 6 90 26 7f
        E 2 90 1a 7f
        E 22 90 24 00
        E 6 90 26 00
        E 2 90 1a 00
        E 82 90 24 72
        E 30 90 24 00
        E 89 90 1a 41
        E 1 90 24 72
        E 29 90 1a 00
        E 1 90 24 00
        E 90 90 24 72
        E 30 90 24 00
        E 90 90 24 7f
        E 3 90 1a 7f
        E 6 90 26 7f
        E 21 90 24 00
        E 3 90 1a 00
        E 6 90 26 00
        E 81 90 24 72
        E 30 90 24 00
        E 90 90 24 72
        E 0 90 1a 41
        E 30 90 24 00
        E 0 90 1a 00
        E 90 90 24 72
        E 30 90 24 00
        E 90 90 24 72
        E 3 90 26 7f
        E 3 90 1a 7f
        E 24 90 24 00
        E 3 90 26 00
        E 3 90 1a 00
        E 84 90 24 72
        E 30 90 24 00
        E 88 90 1a 41
        E 2 90 24 72
        E 28 90 1a 00
        E 2 90 24 00
        E 90 90 24 72
        E 30 90 24 00
        E 90 90 24 7f
        E 5 90 1a 7f
        E 1 90 26 7f
        E 24 90 24 00
        E 5 90 1a 00
        E 1 90 26 00
        E 84 90 24 72
        E 30 90 24 00
        E 90 90 24 72
        E 2 90 1a 41
        E 28 90 24 00
        E 2 90 1a 00
        E 88 90 24 72
        E 30 90 24 00
        E 90 90 24 72
        E 2 90 26 7f
        E 6 90 1a 7f
        E 22 90 24 00
        E 2 90 26 00
        E 6 90 1a 00
        E 82 90 24 72
        E 30 90 24 00
        E 88 90 1a 41
        E 2 90 24 72
        E 28 90 1a 00
        E 2 90 24 00
        E 90 90 24 72
        E 30 90 24 00
        E 90 90 24 7f
        E 5 90 26 7f
        E 0 90 1a 7f
        E 25 90 24 00
        E 5 90 26 00
        E 0 90 1a 00
        E 85 90 24 72
        E 30 90 24 00
        E 90 90 24 72
        E 0 90 1a 41
        E 30 90 24 00
        E 0 90 1a 00
        E 90 90 24 72
        E 30 90 24 00
        E 90 90 24 72
        E 1 90 26 7f
        E 2 90 1a 7f
        E 27 90 24 00
        E 1 90 26 00
        E 2 90 1a 00
        E 87 90 24 72
        E 30 90 24 00
        E 90 90 24 72
        E 3 90 1a 41
        E 27 90 24 00
        E 3 90 1a 00
        E 87 90 24 72
        E 30 90 24 00
        E 90 90 24 7f
        E 4 90 26 7f
        E 1 90 1a 7f
        E 25 90 24 00
        E 4 90 26 00
        E 1 90 1a 00
        E 85 90 24 72
        E 30 90 24 00
        E 90 90 24 72
        E 1 90 1a 41
        E 29 90 24 00
        E 1 90 1a 00
        E 89 90 24 72
        E 30 90 24 00
        E 89 90 26 7f
        E 1 90 24 72
        E 3 90 1a 7f
        E 26 90 26 00
        E 1 90 24 00
        E 3 90 1a 00
        E 87 90 24 72
        E 30 90 24 00
        E 88 90 1a 41
        E 2 90 24 72
        E 28 90 1a 00
        E 2 90 24 00
        E 90 90 24 72
        E 30 90 24 00
        E 90 90 24 7f
        E 2 90 26 7f
        E 3 90 1a 7f
        E 25 90 24 00
        E 2 90 26 00
        E 3 90 1a 00
        E 85 90 24 72
        E 30 90 24 00
        E 90 90 24 72
        E 3 90 1a 41
        E 27 90 24 00
        E 3 90 1a 00
        E 87 90 24 72
        E 30 90 24 00
        E 90 90 24 72
        E 5 90 1a 7f
        E 0 90 26 7f
        E 25 90 24 00
        E 5 90 1a 00
        E 0 90 26 00
        E 85 90 24 72
        E 30 90 24 00
        E 87 90 1a 41
        E 3 90 24 72
        E 27 90 1a 00
        E 3 90 24 00
        E 90 90 24 72
        E 30 90 24 00
        E 90 90 24 7f
        E 3 90 1a 7f
        E 5 90 26 7f
        E 22 90 24 00
        E 3 90 1a 00
        E 5 90 26 00
        E 82 90 24 72
        E 30 90 24 00
        E 90 90 24 72
        E 2 90 1a 41
        E 28 90 24 00
        E 2 90 1a 00
        E 88 90 24 72
        E 30 90 24 00
        E 90 90 24 72
        E 3 90 26 7f
        E 2 90 1a 7f
        E 25 90 24 00
        E 3 90 26 00
        E 2 90 1a 00
        E 85 90 24 72
        E 30 90 24 00
        E 88 90 1a 42
        E 2 90 24 72
        E 28 90 1a 00
        E 2 90 24 00
        E 90 90 24 72
        E 30 90 24 00
        E 90 90 24 64
        E 0 90 1c 64
        E 240 90 24 00
        E 0 90 1c 00
        E 240 90 26 7f
        E 120 90 26 00
        E 0 90 26 7f
        E 120 90 26 00
        E 242 90 26 7f
        E 120 90 26 00
        E 0 90 26 7f
        E 120 90 26 00
        E 478 90 26 64
        E 120 90 26 00
        E 0 90 26 64
        E 120 90 26 00
        E 0 90 26 64
        E 240 90 26 00
        E 0 90 26 64
        E 120 90 26 00
        E 2 90 26 64
        E 118 90 26 64
        E 2 90 26 00
        E 118 90 26 00
        E 0 90 26 64
        E 120 90 26 00
        E 0 90 26 64
        E 120 90 26 00
        E 0 90 26 64
        E 120 90 26 00
        E 0 90 26 64
        E 120 90 26 00
        E 120 90 26 64
        E 120 90 26 00
        E 120 90 26 64
        E 120 90 26 00
        E 120 90 26 64
        E 120 90 26 00
        E 599 90 29 7f
        E 120 90 29 00
        E 0 90 29 7f
        E 120 90 29 00
        E 243 90 29 7f
        E 120 90 29 00
        E 0 90 29 7f
        E 120 90 29 00
        E 722 90 29 7f
        E 120 90 29 00
        E 0 90 29 7f
        E 120 90 29 00
        E 242 90 29 7f
        E 120 90 29 00
        E 0 90 29 7f
        E 120 90 29 00
        E 1194 90 24 64
        E 0 90 1a 64
        E 240 90 24 00
        E 0 90 1a 00
        E 240 90 1a 64
        E 240 90 1a 00
        E 240 90 1a 64
        E 240 90 1a 00
        E 240 90 26 64
        E 2 90 1a 64
        E 238 90 26 00
        E 2 90 1a 00
        E 240 90 1a 64
        E 240 90 1a 00
        E 238 90 24 64
        E 2 90 1a 64
        E 238 90 24 00
        E 0 90 24 64
        E 2 90 1a 00
        E 238 90 24 00
        E 0 90 1a 64
        E 0 90 24 64
        E 0 90 1a 64
        E 240 90 1a 00
        E 0 90 24 00
        E 0 90 1a 00
        E 240 90 1a 64
        E 240 90 1a 00
        E 240 90 1a 64
        E 240 90 1a 00
        E 240 90 26 64
        E 2 90 1a 64
        E 238 90 26 00
        E 2 90 1a 00
        E 238 90 24 64
        E 2 90 1a 64
        E 238 90 24 00
        E 2 90 1a 00
        E 240 90 1a 64
        E 238 90 24 64
        E 2 90 1a 00
        E 238 90 24 00
        E 0 90 1a 64
        E 0 90 24 64
        E 0 90 1a 64
        E 240 90 1a 00
        E 0 90 24 00
        E 0 90 1a 00
        E 240 90 1a 64
        E 240 90 1a 00
        E 240 90 1a 64
        E 240 90 1a 00
        E 240 90 26 64
        E 2 90 1a 64
        E 238 90 26 00
        E 2 90 1a 00
        E 240 90 1a 64
        E 240 90 1a 00
        E 238 90 24 64
        E 2 90 1a 64
        E 238 90 24 00
        E 0 90 24 64
        E 2 90 1a 00
        E 238 90 24 00
        E 0 90 1a 64
        E 0 90 24 64
        E 0 90 1a 64
        E 240 90 1a 00
        E 0 90 24 00
        E 0 90 1a 00
        E 240 90 1a 64
        E 240 90 1a 00
        E 240 90 1a 64
        E 240 90 1a 00
        E 240 90 26 64
        E 2 90 1a 64
        E 238 90 26 00
        E 2 90 1a 00
        E 238 90 24 64
        E 2 90 1a 64
        E 238 90 24 00
        E 2 90 1a 00
        E 240 90 1a 64
        E 238 90 24 64
        E 2 90 1a 00
        E 238 90 24 00
        E 0 90 1a 64
        E 0 90 24 64
        E 0 90 1a 64
        E 240 90 1a 00
        E 0 90 24 00
        E 0 90 1a 00
        E 240 90 1c 64
        E 240 90 1c 00
        E 240 90 1a 64
        E 240 90 1a 00
        E 240 90 26 64
        E 2 90 1c 64
        E 238 90 26 00
        E 2 90 1c 00
        E 240 90 1a 64
        E 240 90 1a 00
        E 238 90 24 64
        E 2 90 1c 64
        E 238 90 24 00
        E 0 90 24 64
        E 2 90 1c 00
        E 238 90 24 00
        E 0 90 1a 64
        E 0 90 24 64
        E 0 90 1a 64
        E 240 90 1a 00
        E 0 90 24 00
        E 0 90 1a 00
        E 240 90 1c 64
        E 240 90 1c 00
        E 240 90 1a 64
        E 240 90 1a 00
        E 240 90 26 64
        E 2 90 1c 64
        E 238 90 26 00
        E 2 90 1c 00
        E 238 90 24 64
        E 2 90 1a 64
        E 238 90 24 00
        E 2 90 1a 00
        E 240 90 1c 64
        E 238 90 24 64
        E 2 90 1c 00
        E 238 90 24 00
        E 0 90 1a 64
        E 0 90 24 64
        E 0 90 1a 64
        E 240 90 1a 00
        E 0 90 24 00
        E 0 90 1a 00
        E 240 90 1c 64
        E 240 90 1c 00
        E 240 90 1a 64
        E 240 90 1a 00
        E 240 90 26 64
        E 2 90 1c 64
        E 238 90 26 00
        E 2 90 1c 00
        E 240 90 1a 64
        E 240 90 1a 00
        E 238 90 24 64
        E 2 90 1c 64
        E 238 90 24 00
        E 0 90 24 64
        E 2 90 1c 00
        E 238 90 24 00
        E 0 90 1a 64
        E 0 90 24 64
        E 0 90 1a 64
        E 240 90 1a 00
        E 0 90 24 00
        E 0 90 1a 00
        E 240 90 1c 64
        E 240 90 1c 00
        E 240 90 1a 64
        E 240 90 1a 00
        E 240 90 26 64
        E 2 90 1c 64
        E 238 90 26 00
        E 2 90 1c 00
        E 238 90 24 64
        E 2 90 1a 64
        E 238 90 24 00
        E 2 90 1a 00
        E 240 90 1c 64
        E 238 90 24 64
        E 2 90 1c 00
        E 238 90 24 00
        E 0 90 1a 64
        E 0 90 24 64
        E 240 90 1a 00
        E 0 90 24 00
        E 1680 90 26 7f
        E 9 90 2a 7f
        E 51 90 26 00
        E 9 90 2a 00
        E 171 90 2a 2f
        E 0 90 24 7f
        E 60 90 2a 00
        E 0 90 24 00
        E 180 90 26 7f
        E 2 90 2a 7f
        E 58 90 26 00
        E 2 90 2a 00
        E 178 90 2a 2d
        E 60 90 2a 00
        E 180 90 26 7f
        E 2 90 2a 7f
        E 58 90 26 00
        E 2 90 2a 00
        E 178 90 2a 2d
        E 60 90 2a 00
        E 180 90 26 7f
        E 2 90 2a 7f
        E 58 90 26 00
        E 2 90 2a 00
        E 178 90 2a 30
        E 0 90 24 7f
        E 60 90 2a 00
        E 0 90 24 00
        E 180 90 26 7f
        E 9 90 2a 7f
        E 51 90 26 00
        E 9 90 2a 00
        E 171 90 2a 2f
        E 0 90 24 7f
        E 60 90 2a 00
        E 0 90 24 00
        E 180 90 26 7f
        E 2 90 2a 7f
        E 58 90 26 00
        E 2 90 2a 00
        E 178 90 2a 2d
        E 60 90 2a 00
        E 180 90 26 7f
        E 2 90 2a 7f
        E 58 90 26 00
        E 2 90 2a 00
        E 178 90 2a 2d
        E 60 90 2a 00
        E 180 90 26 7f
        E 2 90 2a 7f
        E 58 90 26 00
        E 2 90 2a 00
        E 178 90 2a 30
        E 0 90 24 7f
        E 60 90 2a 00
        E 0 90 24 00
        E 60 90 24 7f
        E 60 90 24 00
        E 60 90 26 7f
        E 9 90 2a 7f
        E 51 90 26 00
        E 9 90 2a 00
        E 171 90 2a 2f
        E 0 90 24 7f
        E 60 90 2a 00
        E 0 90 24 00
        E 180 90 26 7f
        E 2 90 2a 7f
        E 58 90 26 00
        E 2 90 2a 00
        E 178 90 2a 2d
        E 60 90 2a 00
        E 180 90 26 7f
        E 2 90 2a 7f
        E 58 90 26 00
        E 2 90 2a 00
        E 178 90 2a 2d
        E 60 90 2a 00
        E 180 90 26 7f
        E 2 90 2a 7f
        E 58 90 26 00
        E 2 90 2a 00
        E 178 90 2a 30
        E 0 90 24 7f
        E 60 90 2a 00
        E 0 90 24 00
        E 180 90 26 7f
        E 9 90 2a 7f
        E 51 90 26 00
        E 9 90 2a 00
        E 171 90 2a 2f
        E 0 90 24 7f
        E 60 90 2a 00
        E 0 90 24 00
        E 180 90 26 7f
        E 2 90 2a 7f
        E 58 90 26 00
        E 2 90 2a 00
        E 178 90 2a 2d
        E 60 90 2a 00
        E 180 90 26 7f
        E 2 90 2a 7f
        E 58 90 26 00
        E 2 90 2a 00
        E 178 90 2a 2d
        E 60 90 2a 00
        E 180 90 26 7f
        E 2 90 2a 7f
        E 58 90 26 00
        E 2 90 2a 00
        E 178 90 2a 30
        E 0 90 24 7f
        E 60 90 2a 00
        E 0 90 24 00
        E 60 90 24 7f
        E 60 90 24 00
        E 60 90 26 7f
        E 9 90 2a 7f
        E 51 90 26 00
        E 9 90 2a 00
        E 171 90 2a 2f
        E 0 90 24 7f
        E 60 90 2a 00
        E 0 90 24 00
        E 180 90 26 7f
        E 2 90 2a 7f
        E 58 90 26 00
        E 2 90 2a 00
        E 178 90 2a 2d
        E 60 90 2a 00
        E 180 90 26 7f
        E 2 90 2a 7f
        E 58 90 26 00
        E 2 90 2a 00
        E 178 90 2a 2d
        E 60 90 2a 00
        E 180 90 26 7f
        E 2 90 2a 7f
        E 58 90 26 00
        E 2 90 2a 00
        E 178 90 2a 30
        E 0 90 24 7f
        E 60 90 2a 00
        E 0 90 24 00
        E 180 90 26 7f
        E 9 90 2a 7f
        E 51 90 26 00
        E 9 90 2a 00
        E 171 90 2a 2f
        E 0 90 24 7f
        E 60 90 2a 00
        E 0 90 24 00
        E 180 90 26 7f
        E 2 90 2a 7f
        E 58 90 26 00
        E 2 90 2a 00
        E 178 90 2a 2d
        E 60 90 2a 00
        E 180 90 26 7f
        E 2 90 2a 7f
        E 58 90 26 00
        E 2 90 2a 00
        E 178 90 2a 2d
        E 60 90 2a 00
        E 180 90 26 7f
        E 2 90 2a 7f
        E 58 90 26 00
        E 2 90 2a 00
        E 178 90 2a 30
        E 0 90 24 7f
        E 60 90 2a 00
        E 0 90 24 00
        E 60 90 24 7f
        E 60 90 24 00
        E 60 90 26 7f
        E 9 90 2a 7f
        E 51 90 26 00
        E 9 90 2a 00
        E 171 90 2a 2f
        E 0 90 24 7f
        E 60 90 2a 00
        E 0 90 24 00
        E 180 90 26 7f
        E 2 90 2a 7f
        E 58 90 26 00
        E 2 90 2a 00
        E 178 90 2a 2d
        E 60 90 2a 00
        E 180 90 26 7f
        E 2 90 2a 7f
        E 58 90 26 00
        E 2 90 2a 00
        E 178 90 2a 2d
        E 60 90 2a 00
        E 180 90 26 7f
        E 2 90 2a 7f
        E 58 90 26 00
        E 2 90 2a 00
        E 178 90 2a 30
        E 0 90 24 7f
        E 60 90 2a 00
        E 0 90 24 00
        E 180 90 26 7f
        E 9 90 2a 7f
        E 51 90 26 00
        E 9 90 2a 00
        E 171 90 2a 2f
        E 0 90 24 7f
        E 60 90 2a 00
        E 0 90 24 00
        E 180 90 26 7f
        E 2 90 2a 7f
        E 58 90 26 00
        E 2 90 2a 00
        E 178 90 2a 2d
        E 60 90 2a 00
        E 180 90 26 7f
        E 2 90 2a 7f
        E 58 90 26 00
        E 2 90 2a 00
        E 178 90 2a 2d
        E 60 90 2a 00
        E 180 90 26 7f
        E 2 90 2a 7f
        E 58 90 26 00
        E 2 90 2a 00
        E 178 90 2a 30
        E 0 90 24 7f
        E 60 90 2a 00
        E 0 90 24 00
        E 60 90 24 7f
        E 60 90 24 00
        E 60 90 24 7f
        E 1 90 1b 7f
        E 2 90 2c 7f
        E 117 90 24 00
        E 82 90 1b 00
        E 56 90 2c 00
        E 223 90 1b 1a
        E 2 90 2c 71
        E 86 90 1b 00
        E 195 90 2c 00
        E 191 90 2c 7f
        E 5 90 26 7f
        E 3 90 1b 7f
        E 117 90 26 00
        E 65 90 1b 00
        E 101 90 2c 00
        E 187 90 2c 7f
        E 7 90 1b 15
        E 89 90 1b 00
        E 155 90 2c 00
        E 236 90 24 7f
        E 1 90 1b 7f
        E 2 90 2c 7f
        E 117 90 24 00
        E 82 90 1b 00
        E 56 90 2c 00
        E 223 90 1b 1a
        E 2 90 2c 71
        E 86 90 1b 00
        E 195 90 2c 00
        E 191 90 2c 7f
        E 5 90 26 7f
        E 3 90 1b 7f
        E 117 90 26 00
        E 65 90 1b 00
        E 101 90 2c 00
        E 187 90 2c 7f
        E 7 90 1b 15
        E 89 90 1b 00
        E 155 90 2c 00
        E 236 90 24 7f
        E 1 90 1b 7f
        E 2 90 2c 7f
        E 117 90 24 00
        E 82 90 1b 00
        E 56 90 2c 00
        E 223 90 1b 1a
        E 2 90 2c 71
        E 86 90 1b 00
        E 195 90 2c 00
        E 191 90 2c 7f
        E 5 90 26 7f
        E 3 90 1b 7f
        E 117 90 26 00
        E 65 90 1b 00
        E 101 90 2c 00
        E 187 90 2c 7f
        E 7 90 1b 15
        E 89 90 1b 00
        E 155 90 2c 00
        E 236 90 24 7f
        E 1 90 1b 7f
        E 2 90 2c 7f
        E 117 90 24 00
        E 82 90 1b 00
        E 56 90 2c 00
        E 223 90 1b 1a
        E 2 90 2c 71
        E 86 90 1b 00
        E 195 90 2c 00
        E 191 90 2c 7f
        E 5 90 26 7f
        E 3 90 1b 7f
        E 117 90 26 00
        E 65 90 1b 00
        E 101 90 2c 00
        E 187 90 2c 7f
        E 7 90 1b 15
        E 89 90 1b 00
        E 155 90 2c 00
        E 236 90 24 7f
        E 1 90 1b 7f
        E 2 90 2c 7f
        E 117 90 24 00
        E 82 90 1b 00
        E 56 90 2c 00
        E 223 90 1b 1a
        E 2 90 2c 71
        E 86 90 1b 00
        E 195 90 2c 00
        E 191 90 2c 7f
        E 5 90 26 7f
        E 3 90 1b 7f
        E 117 90 26 00
        E 65 90 1b 00
        E 101 90 2c 00
        E 187 90 2c 7f
        E 7 90 1b 15
        E 89 90 1b 00
        E 155 90 2c 00
        E 236 90 24 7f
        E 1 90 1b 7f
        E 2 90 2c 7f
        E 117 90 24 00
        E 82 90 1b 00
        E 56 90 2c 00
        E 223 90 1b 1a
        E 2 90 2c 71
        E 86 90 1b 00
        E 195 90 2c 00
        E 191 90 2c 7f
        E 5 90 26 7f
        E 3 90 1b 7f
        E 117 90 26 00
        E 65 90 1b 00
        E 101 90 2c 00
        E 187 90 2c 7f
        E 7 90 1b 15
        E 89 90 1b 00
        E 155 90 2c 00
        E 236 90 24 7f
        E 1 90 1b 7f
        E 2 90 2c 7f
        E 117 90 24 00
        E 82 90 1b 00
        E 56 90 2c 00
        E 223 90 1b 1a
        E 2 90 2c 71
        E 86 90 1b 00
        E 195 90 2c 00
        E 191 90 2c 7f
        E 5 90 26 7f
        E 3 90 1b 7f
        E 117 90 26 00
        E 65 90 1b 00
        E 101 90 2c 00
        E 187 90 2c 7f
        E 7 90 1b 15
        E 89 90 1b 00
        E 155 90 2c 00
        E 236 90 24 7f
        E 1 90 1b 7f
        E 2 90 2c 7f
        E 117 90 24 00
        E 82 90 1b 00
        E 56 90 2c 00
        E 223 90 1b 1a
        E 2 90 2c 71
        E 86 90 1b 00
        E 195 90 2c 00
        E 191 90 2c 7f
        E 5 90 26 7f
        E 3 90 1b 7f
        E 117 90 26 00
        E 65 90 1b 00
        E 101 90 2c 00
        E 187 90 2c 7f
        E 7 90 1b 15
        E 89 90 1b 00
        E 155 90 2c 00
        E 236 90 24 64
        E 0 90 1a 64
        E 240 90 24 00
        E 0 90 1a 00
        E 240 90 1a 64
        E 240 90 1a 00
        E 240 90 1a 64
        E 240 90 1a 00
        E 240 90 26 64
        E 2 90 1a 64
        E 238 90 26 00
        E 2 90 1a 00
        E 240 90 1a 64
        E 240 90 1a 00
        E 238 90 24 64
        E 2 90 1a 64
        E 238 90 24 00
        E 0 90 24 64
        E 2 90 1a 00
        E 238 90 24 00
        E 0 90 1a 64
        E 0 90 24 64
        E 0 90 1a 64
        E 240 90 1a 00
        E 0 90 24 00
        E 0 90 1a 00
        E 240 90 1a 64
        E 240 90 1a 00
        E 240 90 1a 64
        E 240 90 1a 00
        E 240 90 26 64
        E 2 90 1a 64
        E 238 90 26 00
        E 2 90 1a 00
        E 238 90 24 64
        E 2 90 1a 64
        E 238 90 24 00
        E 2 90 1a 00
        E 240 90 1a 64
        E 238 90 24 64
        E 2 90 1a 00
        E 238 90 24 00
        E 0 90 1a 64
        E 0 90 24 64
        E 0 90 1a 64
        E 240 90 1a 00
        E 0 90 24 00
        E 0 90 1a 00
        E 240 90 1a 64
        E 240 90 1a 00
        E 240 90 1a 64
        E 240 90 1a 00
        E 240 90 26 64
        E 2 90 1a 64
        E 238 90 26 00
        E 2 90 1a 00
        E 240 90 1a 64
        E 240 90 1a 00
        E 238 90 24 64
        E 2 90 1a 64
        E 238 90 24 00
        E 0 90 24 64
        E 2 90 1a 00
        E 238 90 24 00
        E 0 90 1a 64
        E 0 90 24 64
        E 0 90 1a 64
        E 240 90 1a 00
        E 0 90 24 00
        E 0 90 1a 00
        E 240 90 1a 64
        E 240 90 1a 00
        E 240 90 1a 64
        E 240 90 1a 00
        E 240 90 26 64
        E 2 90 1a 64
        E 238 90 26 00
        E 2 90 1a 00
        E 238 90 24 64
        E 2 90 1a 64
        E 238 90 24 00
        E 2 90 1a 00
        E 240 90 1a 64
        E 238 90 24 64
        E 2 90 1a 00
        E 238 90 24 00
        E 0 90 1a 64
        E 0 90 24 64
        E 0 90 1a 64
        E 240 90 1a 00
        E 0 90 24 00
        E 0 90 1a 00
        E 240 90 1c 64
        E 240 90 1c 00
        E 240 90 1a 64
        E 240 90 1a 00
        E 240 90 26 64
        E 2 90 1c 64
        E 238 90 26 00
        E 2 90 1c 00
        E 240 90 1a 64
        E 240 90 1a 00
        E 238 90 24 64
        E 2 90 1c 64
        E 238 90 24 00
        E 0 90 24 64
        E 2 90 1c 00
        E 238 90 24 00
        E 0 90 1a 64
        E 0 90 24 64
        E 0 90 1a 64
        E 240 90 1a 00
        E 0 90 24 00
        E 0 90 1a 00
        E 240 90 1c 64
        E 240 90 1c 00
        E 240 90 1a 64
        E 240 90 1a 00
        E 240 90 26 64
        E 2 90 1c 64
        E 238 90 26 00
        E 2 90 1c 00
        E 238 90 24 64
        E 2 90 1a 64
        E 238 90 24 00
        E 2 90 1a 00
        E 240 90 1c 64
        E 238 90 24 64
        E 2 90 1c 00
        E 238 90 24 00
        E 0 90 1a 64
        E 0 90 24 64
        E 0 90 1a 64
        E 240 90 1a 00
        E 0 90 24 00
        E 0 90 1a 00
        E 240 90 1c 64
        E 240 90 1c 00
        E 240 90 1a 64
        E 240 90 1a 00
        E 240 90 26 64
        E 2 90 1c 64
        E 238 90 26 00
        E 2 90 1c 00
        E 240 90 1a 64
        E 240 90 1a 00
        E 238 90 24 64
        E 2 90 1c 64
        E 238 90 24 00
        E 0 90 24 64
        E 2 90 1c 00
        E 238 90 24 00
        E 0 90 1a 64
        E 0 90 24 64
        E 0 90 1a 64
        E 240 90 1a 00
        E 0 90 24 00
        E 0 90 1a 00
        E 240 90 1c 64
        E 240 90 1c 00
        E 240 90 1a 64
        E 240 90 1a 00
        E 240 90 26 64
        E 2 90 1c 64
        E 238 90 26 00
        E 2 90 1c 00
        E 238 90 24 64
        E 2 90 1a 64
        E 238 90 24 00
        E 2 90 1a 00
        E 240 90 1c 64
        E 238 90 24 64
        E 2 90 1c 00
        E 238 90 24 00
        E 0 90 1a 64
        E 0 90 24 64
        E 0 90 1a 64
        E 240 90 1a 00
        E 0 90 24 00
        E 0 90 1a 00
        E 240 90 1a 64
        E 240 90 1a 00
        E 240 90 1a 64
        E 240 90 1a 00
        E 240 90 26 64
        E 2 90 1a 64
        E 238 90 26 00
        E 2 90 1a 00
        E 240 90 1a 64
        E 240 90 1a 00
        E 238 90 24 64
        E 2 90 1a 64
        E 238 90 24 00
        E 0 90 24 64
        E 2 90 1a 00
        E 238 90 24 00
        E 0 90 1a 64
        E 0 90 24 64
        E 0 90 1a 64
        E 240 90 1a 00
        E 0 90 24 00
        E 0 90 1a 00
        E 240 90 1a 64
        E 240 90 1a 00
        E 240 90 1a 64
        E 240 90 1a 00
        E 240 90 26 64
        E 2 90 1a 64
        E 238 90 26 00
        E 2 90 1a 00
        E 238 90 24 64
        E 2 90 1a 64
        E 238 90 24 00
        E 2 90 1a 00
        E 240 90 1a 64
        E 238 90 24 64
        E 2 90 1a 00
        E 238 90 24 00
        E 0 90 1a 64
        E 0 90 24 64
        E 0 90 1a 64
        E 240 90 1a 00
        E 0 90 24 00
        E 0 90 1a 00
        E 240 90 1a 64
        E 240 90 1a 00
        E 240 90 1a 64
        E 240 90 1a 00
        E 240 90 26 64
        E 2 90 1a 64
        E 238 90 26 00
        E 2 90 1a 00
        E 240 90 1a 64
        E 240 90 1a 00
        E 238 90 24 64
        E 2 90 1a 64
        E 238 90 24 00
        E 0 90 24 64
        E 2 90 1a 00
        E 238 90 24 00
        E 0 90 1a 64
        E 0 90 24 64
        E 0 90 1a 64
        E 240 90 1a 00
        E 0 90 24 00
        E 0 90 1a 00
        E 240 90 1a 64
        E 240 90 1a 00
        E 240 90 1a 64
        E 240 90 1a 00
        E 240 90 26 64
        E 2 90 1a 64
        E 238 90 26 00
        E 2 90 1a 00
        E 238 90 24 64
        E 2 90 1a 64
        E 238 90 24 00
        E 2 90 1a 00
        E 240 90 1a 64
        E 238 90 24 64
        E 2 90 1a 00
        E 238 90 24 00
        E 0 90 1a 64
        E 0 90 24 64
        E 0 90 1a 64
        E 240 90 1a 00
        E 0 90 24 00
        E 0 90 1a 00
        E 240 90 1c 64
        E 240 90 1c 00
        E 240 90 1a 64
        E 240 90 1a 00
        E 240 90 26 64
        E 2 90 1c 64
        E 238 90 26 00
        E 2 90 1c 00
        E 240 90 1a 64
        E 240 90 1a 00
        E 238 90 24 64
        E 2 90 1c 64
        E 238 90 24 00
        E 0 90 24 64
        E 2 90 1c 00
        E 238 90 24 00
        E 0 90 1a 64
        E 0 90 24 64
        E 0 90 1a 64
        E 240 90 1a 00
        E 0 90 24 00
        E 0 90 1a 00
        E 240 90 1c 64
        E 240 90 1c 00
        E 240 90 1a 64
        E 240 90 1a 00
        E 240 90 26 64
        E 2 90 1c 64
        E 238 90 26 00
        E 2 90 1c 00
        E 238 90 24 64
        E 2 90 1a 64
        E 238 90 24 00
        E 2 90 1a 00
        E 240 90 1c 64
        E 238 90 24 64
        E 2 90 1c 00
        E 238 90 24 00
        E 0 90 1a 64
        E 0 90 24 64
        E 0 90 1a 64
        E 240 90 1a 00
        E 0 90 24 00
        E 0 90 1a 00
        E 240 90 1c 64
        E 240 90 1c 00
        E 240 90 1a 64
        E 240 90 1a 00
        E 240 90 26 64
        E 2 90 1c 64
        E 238 90 26 00
        E 2 90 1c 00
        E 240 90 1a 64
        E 240 90 1a 00
        E 238 90 24 64
        E 2 90 1c 64
        E 238 90 24 00
        E 0 90 24 64
        E 2 90 1c 00
        E 238 90 24 00
        E 0 90 1a 64
        E 0 90 24 64
        E 0 90 1a 64
        E 240 90 1a 00
        E 0 90 24 00
        E 0 90 1a 00
        E 240 90 1c 64
        E 240 90 1c 00
        E 240 90 1a 64
        E 240 90 1a 00
        E 240 90 26 64
        E 2 90 1c 64
        E 238 90 26 00
        E 2 90 1c 00
        E 238 90 24 64
        E 2 90 1a 64
        E 238 90 24 00
        E 2 90 1a 00
        E 240 90 1c 64
        E 238 90 24 64
        E 2 90 1c 00
        E 238 90 24 00
        E 0 90 1a 64
        E 0 90 24 64
        E 240 90 1a 00
        E 0 90 24 00
        E 2640 90 24 7f
        E 2 90 55 7f
        E 4 90 2c 7f
        E 234 90 24 00
        E 164 90 55 00
        E 112 90 2c 00
        E 446 90 55 19
        E 4 90 2c 71
        E 172 90 55 00
        E 390 90 2c 00
        E 382 90 2c 7f
        E 16 90 55 7f
        E 364 90 55 00
        E 202 90 2c 00
        E 374 90 2c 7f
        E 14 90 55 15
        E 178 90 55 00
        E 310 90 2c 00
        E 472 90 26 7f
        E 2 90 55 7f
        E 4 90 2c 7f
        E 234 90 26 00
        E 164 90 55 00
        E 112 90 2c 00
        E 446 90 55 19
        E 4 90 2c 71
        E 172 90 55 00
        E 390 90 2c 00
        E 382 90 2c 7f
        E 16 90 55 7f
        E 364 90 55 00
        E 202 90 2c 00
        E 374 90 2c 7f
        E 14 90 55 15
        E 178 90 55 00
        E 310 90 2c 00
        E 472 90 24 7f
        E 2 90 55 7f
        E 4 90 2c 7f
        E 234 90 24 00
        E 164 90 55 00
        E 112 90 2c 00
        E 446 90 55 19
        E 4 90 2c 71
        E 172 90 55 00
        E 390 90 2c 00
        E 382 90 2c 7f
        E 16 90 55 7f
        E 364 90 55 00
        E 202 90 2c 00
        E 374 90 2c 7f
        E 14 90 55 15
        E 178 90 55 00
        E 310 90 2c 00
        E 472 90 26 7f
        E 2 90 55 7f
        E 4 90 2c 7f
        E 234 90 26 00
        E 164 90 55 00
        E 112 90 2c 00
        E 446 90 55 19
        E 4 90 2c 71
        E 172 90 55 00
        E 390 90 2c 00
        E 382 90 2c 7f
        E 16 90 55 7f
        E 364 90 55 00
        E 202 90 2c 00
        E 374 90 2c 7f
        E 14 90 55 15
        E 178 90 55 00
        E 310 90 2c 00
        E 472 90 24 7f
        E 2 90 55 7f
        E 4 90 2c 7f
        E 234 90 24 00
        E 164 90 55 00
        E 112 90 2c 00
        E 446 90 55 19
        E 4 90 2c 71
        E 172 90 55 00
        E 390 90 2c 00
        E 382 90 2c 7f
        E 16 90 55 7f
        E 364 90 55 00
        E 202 90 2c 00
        E 374 90 2c 7f
        E 14 90 55 15
        E 178 90 55 00
        E 310 90 2c 00
        E 472 90 26 7f
        E 2 90 55 7f
        E 4 90 2c 7f
        E 234 90 26 00
        E 164 90 55 00
        E 112 90 2c 00
        E 446 90 55 19
        E 4 90 2c 71
        E 172 90 55 00
        E 390 90 2c 00
        E 382 90 2c 7f
        E 16 90 55 7f
        E 364 90 55 00
        E 202 90 2c 00
        E 374 90 2c 7f
        E 14 90 55 15
        E 178 90 55 00
        E 310 90 2c 00
        E 472 90 24 7f
        E 2 90 55 7f
        E 4 90 2c 7f
        E 234 90 24 00
        E 164 90 55 00
        E 112 90 2c 00
        E 446 90 55 19
        E 4 90 2c 71
        E 172 90 55 00
        E 390 90 2c 00
        E 382 90 2c 7f
        E 16 90 55 7f
        E 364 90 55 00
        E 202 90 2c 00
        E 374 90 2c 7f
        E 14 90 55 15
        E 178 90 55 00
        E 310 90 2c 00
        E 472 90 18 19
        E 29 90 18 00
        E 216 90 18 6b
        E 41 90 18 00
        E 194 90 18 19
        E 0 90 24 7f
        E 120 90 18 00
        E 0 90 24 00
        E 0 90 24 7f
        E 120 90 24 00
        E 0 90 18 6b
        E 120 90 18 00
        E 120 90 18 19
        E 2 90 24 7f
        E 27 90 18 00
        E 93 90 24 00
        E 0 90 24 7f
        E 120 90 24 00
        E 3 90 18 6b
        E 41 90 18 00
        E 194 90 18 15
        E 35 90 18 00
        E 205 90 24 64
        E 7 90 18 7f
        E 43 90 18 00
        E 70 90 24 00
        E 0 90 24 64
        E 120 90 24 00
        E 0 90 24 64
        E 3 90 18 19
        E 29 90 18 00
        E 208 90 24 00
        E 0 90 24 64
        E 8 90 18 6b
        E 41 90 18 00
        E 71 90 24 00
        E 2 90 24 64
        E 118 90 24 64
        E 2 90 24 00
        E 1 90 18 19
        E 117 90 24 00
        E 0 90 24 64
        E 3 90 18 00
        E 117 90 24 00
        E 0 90 24 64
        E 3 90 18 6b
        E 117 90 24 00
        E 0 90 24 64
        E 3 90 18 00
        E 117 90 24 00
        E 0 90 24 64
        E 3 90 18 19
        E 29 90 18 00
        E 88 90 24 00
        E 120 90 24 64
        E 8 90 18 6b
        E 41 90 18 00
        E 71 90 24 00
        E 120 90 24 64
        E 3 90 18 15
        E 35 90 18 00
        E 82 90 24 00
        E 120 90 24 64
        E 10 90 18 7f
        E 43 90 18 00
        E 67 90 24 00
        E 120 90 18 19
        E 29 90 18 00
        E 216 90 18 6b
        E 41 90 18 00
        E 194 90 18 19
        E 0 90 24 7f
        E 120 90 18 00
        E 0 90 24 00
        E 0 90 24 7f
        E 120 90 24 00
        E 0 90 18 6b
        E 120 90 18 00
        E 120 90 18 19
        E 2 90 24 7f
        E 27 90 18 00
        E 93 90 24 00
        E 0 90 24 7f
        E 120 90 24 00
        E 3 90 18 6b
        E 41 90 18 00
        E 194 90 18 15
        E 35 90 18 00
        E 205 90 24 64
        E 7 90 18 7f
        E 43 90 18 00
        E 70 90 24 00
        E 0 90 24 64
        E 120 90 24 00
        E 0 90 24 64
        E 3 90 18 19
        E 29 90 18 00
        E 208 90 24 00
        E 0 90 24 64
        E 8 90 18 6b
        E 41 90 18 00
        E 71 90 24 00
        E 2 90 24 64
        E 118 90 24 64
        E 2 90 24 00
        E 1 90 18 19
        E 117 90 24 00
        E 0 90 24 64
        E 3 90 18 00
        E 117 90 24 00
        E 0 90 24 64
        E 3 90 18 6b
        E 117 90 24 00
        E 0 90 24 64
        E 3 90 18 00
        E 117 90 24 00
        E 0 90 24 64
        E 3 90 18 19
        E 29 90 18 00
        E 88 90 24 00
        E 120 90 24 64
        E 8 90 18 6b
        E 41 90 18 00
        E 71 90 24 00
        E 120 90 24 64
        E 3 90 18 15
        E 35 90 18 00
        E 82 90 24 00
        E 120 90 24 64
        E 10 90 18 7f
        E 43 90 18 00
        E 67 90 24 00
        E 120 90 1d 64
        E 240 90 1d 00
        E 240 90 24 7f
        E 4 90 1d 64
        E 116 90 24 00
        E 0 90 24 7f
        E 120 90 24 00
        E 4 90 1d 00
        E 237 90 1d 64
        E 1 90 24 7f
        E 120 90 24 00
        E 0 90 24 7f
        E 119 90 1d 00
        E 1 90 24 00
        E 242 90 1d 64
        E 240 90 1d 00
        E 237 90 1d 64
        E 240 90 1d 00
        E 244 90 1d 64
        E 240 90 1d 00
        E 237 90 1d 64
        E 240 90 1d 00
        E 244 90 1d 64
        E 240 90 1d 00
        E 234 90 1d 64
        E 240 90 1d 00
        E 240 90 24 7f
        E 4 90 1d 64
        E 116 90 24 00
        E 0 90 24 7f
        E 120 90 24 00
        E 4 90 1d 00
        E 237 90 1d 64
        E 1 90 24 7f
        E 120 90 24 00
        E 0 90 24 7f
        E 119 90 1d 00
        E 1 90 24 00
        E 238 90 24 7f
        E 4 90 1d 64
        E 116 90 24 00
        E 0 90 24 7f
        E 120 90 24 00
        E 4 90 1d 00
        E 237 90 1d 64
        E 1 90 24 7f
        E 120 90 24 00
        E 0 90 24 7f
        E 119 90 1d 00
        E 1 90 24 00
        E 1678 90 1d 64
        E 0 90 26 64
        E 0 90 23 64
        E 240 90 1d 00
        E 0 90 26 00
        E 0 90 23 00
        E 0 90 26 64
        E 240 90 26 00
        E 0 90 26 64
        E 0 90 23 64
        E 4 90 1d 64
        E 236 90 26 00
        E 0 90 23 00
        E 0 90 26 64
        E 4 90 1d 00
        E 236 90 26 00
        E 0 90 26 64
        E 0 90 23 64
        E 1 90 1d 64
        E 239 90 26 00
        E 0 90 23 00
        E 0 90 26 64
        E 1 90 1d 00
        E 239 90 26 00
        E 0 90 26 64
        E 0 90 23 64
        E 4 90 1d 64
        E 236 90 26 00
        E 0 90 23 00
        E 0 90 26 64
        E 4 90 1d 00
        E 236 90 26 00
        E 0 90 26 64
        E 0 90 23 64
        E 1 90 1d 64
        E 239 90 26 00
        E 0 90 23 00
        E 0 90 26 64
        E 1 90 1d 00
        E 239 90 26 00
        E 0 90 26 64
        E 0 90 23 64
        E 5 90 1d 64
        E 235 90 26 00
        E 0 90 23 00
        E 0 90 26 64
        E 5 90 1d 00
        E 235 90 26 00
        E 0 90 26 64
        E 0 90 23 64
        E 2 90 1d 64
        E 238 90 26 00
        E 0 90 23 00
        E 0 90 26 64
        E 2 90 1d 00
        E 238 90 26 00
        E 0 90 26 64
        E 0 90 23 64
        E 6 90 1d 64
        E 234 90 26 00
        E 0 90 23 00
        E 0 90 26 64
        E 6 90 1d 00
        E 234 90 26 00
        E 0 90 1d 64
        E 0 90 26 64
        E 0 90 23 64
        E 240 90 1d 00
        E 0 90 26 00
        E 0 90 23 00
        E 0 90 26 64
        E 240 90 26 00
        E 0 90 26 64
        E 0 90 23 64
        E 4 90 1d 64
        E 236 90 26 00
        E 0 90 23 00
        E 0 90 26 64
        E 4 90 1d 00
        E 236 90 26 00
        E 0 90 26 64
        E 0 90 23 64
        E 1 90 1d 64
        E 239 90 26 00
        E 0 90 23 00
        E 0 90 26 64
        E 1 90 1d 00
        E 239 90 26 00
        E 0 90 26 64
        E 0 90 23 64
        E 4 90 1d 64
        E 236 90 26 00
        E 0 90 23 00
        E 0 90 26 64
        E 4 90 1d 00
        E 236 90 26 00
        E 0 90 26 64
        E 0 90 23 64
        E 1 90 1d 64
        E 239 90 26 00
        E 0 90 23 00
        E 0 90 26 64
        E 1 90 1d 00
        E 239 90 26 00
        E 0 90 26 64
        E 0 90 23 64
        E 5 90 1d 64
        E 235 90 26 00
        E 0 90 23 00
        E 0 90 26 64
        E 5 90 1d 00
        E 235 90 26 00
        E 0 90 26 64
        E 0 90 23 64
        E 2 90 1d 64
        E 238 90 26 00
        E 0 90 23 00
        E 0 90 26 64
        E 2 90 1d 00
        E 238 90 26 00
        E 0 90 26 64
        E 0 90 23 64
        E 6 90 1d 64
        E 234 90 26 00
        E 0 90 23 00
        E 0 90 26 64
        E 6 90 1d 00
        E 234 90 26 00
        E 0 90 24 7f
        E 0 90 1d 64
        E 30 90 24 00
        E 89 90 1d 64
        E 1 90 1d 00
        E 0 90 24 72
        E 30 90 24 00
        E 89 90 1d 00
        E 1 90 24 72
        E 30 90 24 00
        E 90 90 24 72
        E 30 90 24 00
        E 90 90 24 72
        E 2 90 1d 64
        E 28 90 24 00
        E 90 90 24 72
        E 1 90 1d 64
        E 1 90 1d 00
        E 28 90 24 00
        E 90 90 24 72
        E 1 90 1d 00
        E 29 90 24 00
        E 90 90 24 72
        E 30 90 24 00
        E 90 90 1d 64
        E 0 90 24 7f
        E 30 90 24 00
        E 89 90 1d 64
        E 1 90 1d 00
        E 0 90 24 72
        E 30 90 24 00
        E 89 90 1d 00
        E 1 90 24 72
        E 30 90 24 00
        E 90 90 24 72
        E 30 90 24 00
        E 90 90 24 72
        E 2 90 1d 64
        E 28 90 24 00
        E 90 90 24 72
        E 1 90 1d 64
        E 1 90 1d 00
        E 28 90 24 00
        E 90 90 24 72
        E 1 90 1d 00
        E 29 90 24 00
        E 90 90 24 72
        E 30 90 24 00
        E 90 90 24 7f
        E 0 90 1d 64
        E 30 90 24 00
        E 89 90 1d 64
        E 1 90 24 72
        E 0 90 1d 00
        E 30 90 24 00
        E 89 90 1d 00
        E 1 90 24 72
        E 30 90 24 00
        E 90 90 24 72
        E 30 90 24 00
        E 90 90 24 72
        E 2 90 1d 64
        E 28 90 24 00
        E 90 90 24 72
        E 1 90 1d 64
        E 1 90 1d 00
        E 28 90 24 00
        E 90 90 24 72
        E 1 90 1d 00
        E 29 90 24 00
        E 90 90 24 72
        E 30 90 24 00
        E 90 90 24 7f
        E 1 90 1d 64
        E 29 90 24 00
        E 90 90 1d 64
        E 0 90 24 72
        E 1 90 1d 00
        E 29 90 24 00
        E 90 90 1d 00
        E 0 90 24 72
        E 30 90 24 00
        E 90 90 24 72
        E 30 90 24 00
        E 90 90 24 72
        E 3 90 1d 64
        E 27 90 24 00
        E 90 90 24 72
        E 2 90 1d 64
        E 1 90 1d 00
        E 27 90 24 00
        E 90 90 24 72
        E 2 90 1d 00
        E 28 90 24 00
        E 90 90 24 72
        E 30 90 24 00
        E 90 90 24 7f
        E 1 90 1d 64
        E 29 90 24 00
        E 90 90 24 72
        E 0 90 1d 64
        E 1 90 1d 00
        E 29 90 24 00
        E 90 90 24 72
        E 0 90 1d 00
        E 30 90 24 00
        E 90 90 24 72
        E 30 90 24 00
        E 90 90 24 72
        E 3 90 1d 64
        E 27 90 24 00
        E 90 90 24 72
        E 2 90 1d 64
        E 1 90 1d 00
        E 27 90 24 00
        E 90 90 24 72
        E 2 90 1d 00
        E 28 90 24 00
        E 90 90 24 72
        E 30 90 24 00
        E 90 90 1d 64
        E 0 90 24 7f
        E 30 90 24 00
        E 89 90 1d 64
        E 1 90 1d 00
        E 0 90 24 72
        E 30 90 24 00
        E 89 90 1d 00
        E 1 90 24 72
        E 30 90 24 00
        E 90 90 24 72
        E 30 90 24 00
        E 90 90 24 72
        E 1 90 1d 64
        E 29 90 24 00
        E 90 90 24 72
        E 0 90 1d 64
        E 1 90 1d 00
        E 29 90 24 00
        E 90 90 24 72
        E 0 90 1d 00
        E 30 90 24 00
        E 90 90 24 72
        E 30 90 24 00
        E 90 90 24 7f
        E 0 90 1d 64
        E 30 90 24 00
        E 89 90 1d 64
        E 1 90 1d 00
        E 0 90 24 72
        E 30 90 24 00
        E 89 90 1d 00
        E 1 90 24 72
        E 30 90 24 00
        E 90 90 24 72
        E 30 90 24 00
        E 90 90 24 72
        E 2 90 1d 64
        E 28 90 24 00
        E 90 90 24 72
        E 1 90 1d 64
        E 1 90 1d 00
        E 28 90 24 00
        E 90 90 24 72
        E 1 90 1d 00
        E 29 90 24 00
        E 90 90 24 72
        E 30 90 24 00
        E 90 90 24 7f
        E 0 90 1d 64
        E 30 90 24 00
        E 89 90 1d 64
        E 1 90 1d 00
        E 0 90 24 72
        E 30 90 24 00
        E 89 90 1d 00
        E 1 90 24 72
        E 30 90 24 00
        E 90 90 24 72
        E 30 90 24 00
        E 90 90 24 72
        E 2 90 1d 64
        E 28 90 24 00
        E 90 90 24 72
        E 1 90 1d 64
        E 1 90 1d 00
        E 28 90 24 00
        E 90 90 24 72
        E 1 90 1d 00
        E 29 90 24 00
        E 90 90 24 72
        E 30 90 24 00
        E 2970 90 24 64
        E 0 90 1c 64
        E 240 90 24 00
        E 0 90 1c 00
        E 240 90 1c 64
        E 240 90 1c 00
        E 240 90 1c 64
        E 240 90 1c 00
        E 240 90 26 64
        E 2 90 1c 64
        E 238 90 26 00
        E 2 90 1c 00
        E 240 90 1c 64
        E 240 90 1c 00
        E 238 90 24 64
        E 2 90 1c 64
        E 238 90 24 00
        E 0 90 24 64
        E 2 90 1c 00
        E 238 90 24 00
        E 0 90 1a 64
        E 0 90 24 64
        E 0 90 1a 64
        E 240 90 1a 00
        E 0 90 24 00
        E 0 90 1a 00
        E 240 90 1a 64
        E 240 90 1a 00
        E 240 90 1a 64
        E 240 90 1a 00
        E 240 90 26 64
        E 2 90 1a 64
        E 238 90 26 00
        E 2 90 1a 00
        E 238 90 24 64
        E 2 90 1a 64
        E 238 90 24 00
        E 2 90 1a 00
        E 240 90 1a 64
        E 238 90 24 64
        E 2 90 1a 00
        E 238 90 24 00
        E 0 90 1a 64
        E 0 90 24 64
        E 0 90 1c 64
        E 240 90 1a 00
        E 0 90 24 00
        E 0 90 1c 00
        E 240 90 1c 64
        E 240 90 1c 00
        E 240 90 1c 64
        E 240 90 1c 00
        E 240 90 26 64
        E 2 90 1c 64
        E 238 90 26 00
        E 2 90 1c 00
        E 240 90 1c 64
        E 240 90 1c 00
        E 238 90 24 64
        E 2 90 1c 64
        E 238 90 24 00
        E 0 90 24 64
        E 2 90 1c 00
        E 238 90 24 00
        E 0 90 1a 64
        E 0 90 24 64
        E 0 90 1a 64
        E 240 90 1a 00
        E 0 90 24 00
        E 0 90 1a 00
        E 240 90 1a 64
        E 240 90 1a 00
        E 240 90 1a 64
        E 240 90 1a 00
        E 240 90 26 64
        E 2 90 1a 64
        E 238 90 26 00
        E 2 90 1a 00
        E 238 90 24 64
        E 2 90 1a 64
        E 238 90 24 00
        E 2 90 1a 00
        E 240 90 1a 64
        E 238 90 24 64
        E 2 90 1a 00
        E 238 90 24 00
        E 0 90 1a 64
        E 0 90 24 64
        E 0 90 1c 64
        E 240 90 1a 00
        E 0 90 24 00
        E 0 90 1c 00
        E 240 90 1c 64
        E 240 90 1c 00
        E 240 90 1c 64
        E 240 90 1c 00
        E 240 90 26 64
        E 2 90 1c 64
        E 238 90 26 00
        E 2 90 1c 00
        E 240 90 1c 64
        E 240 90 1c 00
        E 238 90 24 64
        E 2 90 1c 64
        E 238 90 24 00
        E 0 90 24 64
        E 2 90 1c 00
        E 238 90 24 00
        E 0 90 1a 64
        E 0 90 24 64
        E 0 90 1a 64
        E 240 90 1a 00
        E 0 90 24 00
        E 0 90 1a 00
        E 240 90 1a 64
        E 240 90 1a 00
        E 240 90 1a 64
        E 240 90 1a 00
        E 240 90 26 64
        E 2 90 1a 64
        E 238 90 26 00
        E 2 90 1a 00
        E 238 90 24 64
        E 2 90 1a 64
        E 238 90 24 00
        E 2 90 1a 00
        E 240 90 1a 64
        E 238 90 24 64
        E 2 90 1a 00
        E 238 90 24 00
        E 0 90 1a 64
        E 0 90 24 64
        E 0 90 1c 64
        E 240 90 1a 00
        E 0 90 24 00
        E 0 90 1c 00
        E 240 90 1c 64
        E 240 90 1c 00
        E 240 90 1c 64
        E 240 90 1c 00
        E 240 90 26 64
        E 2 90 1c 64
        E 238 90 26 00
        E 2 90 1c 00
        E 240 90 1c 64
        E 240 90 1c 00
        E 238 90 24 64
        E 2 90 1c 64
        E 238 90 24 00
        E 0 90 24 64
        E 2 90 1c 00
        E 238 90 24 00
        E 0 90 1a 64
        E 0 90 24 64
        E 0 90 1a 64
        E 240 90 1a 00
        E 0 90 24 00
        E 0 90 1a 00
        E 240 90 1a 64
        E 240 90 1a 00
        E 240 90 1a 64
        E 240 90 1a 00
        E 240 90 26 64
        E 2 90 1a 64
        E 238 90 26 00
        E 2 90 1a 00
        E 238 90 24 64
        E 2 90 1a 64
        E 238 90 24 00
        E 2 90 1a 00
        E 240 90 1a 64
        E 238 90 24 64
        E 2 90 1a 00
        E 238 90 24 00
        E 0 90 1a 64
        E 0 90 24 64
        E 0 90 1c 64
        E 240 90 1a 00
        E 0 90 24 00
        E 0 90 1c 00
        E 240 90 1c 64
        E 240 90 1c 00
        E 240 90 1c 64
        E 240 90 1c 00
        E 240 90 26 64
        E 2 90 1c 64
        E 238 90 26 00
        E 2 90 1c 00
        E 240 90 1c 64
        E 240 90 1c 00
        E 238 90 24 64
        E 2 90 1c 64
        E 238 90 24 00
        E 0 90 24 64
        E 2 90 1c 00
        E 238 90 24 00
        E 0 90 1a 64
        E 0 90 24 64
        E 0 90 1a 64
        E 240 90 1a 00
        E 0 90 24 00
        E 0 90 1a 00
        E 240 90 1a 64
        E 240 90 1a 00
        E 240 90 1a 64
        E 240 90 1a 00
        E 240 90 26 64
        E 2 90 1a 64
        E 238 90 26 00
        E 2 90 1a 00
        E 238 90 24 64
        E 2 90 1a 64
        E 238 90 24 00
        E 2 90 1a 00
        E 240 90 1a 64
        E 238 90 24 64
        E 2 90 1a 00
        E 238 90 24 00
        E 0 90 1a 64
        E 0 90 24 64
        E 0 90 1c 64
        E 240 90 1a 00
        E 0 90 24 00
        E 0 90 1c 00
        E 240 90 1c 64
        E 240 90 1c 00
        E 240 90 1c 64
        E 240 90 1c 00
        E 240 90 26 64
        E 2 90 1c 64
        E 238 90 26 00
        E 2 90 1c 00
        E 240 90 1c 64
        E 240 90 1c 00
        E 238 90 24 64
        E 2 90 1c 64
        E 238 90 24 00
        E 0 90 24 64
        E 2 90 1c 00
        E 238 90 24 00
        E 0 90 1a 64
        E 0 90 24 64
        E 0 90 1a 64
        E 240 90 1a 00
        E 0 90 24 00
        E 0 90 1a 00
        E 240 90 1a 64
        E 240 90 1a 00
        E 240 90 1a 64
        E 240 90 1a 00
        E 240 90 26 64
        E 2 90 1a 64
        E 238 90 26 00
        E 2 90 1a 00
        E 238 90 24 64
        E 2 90 1a 64
        E 238 90 24 00
        E 2 90 1a 00
        E 240 90 1a 64
        E 238 90 24 64
        E 2 90 1a 00
        E 238 90 24 00
        E 0 90 1a 64
        E 0 90 24 64
        E 0 90 1c 64
        E 240 90 1a 00
        E 0 90 24 00
        E 0 90 1c 00
        E 240 90 1c 64
        E 240 90 1c 00
        E 240 90 1c 64
        E 240 90 1c 00
        E 240 90 26 64
        E 2 90 1c 64
        E 238 90 26 00
        E 2 90 1c 00
        E 240 90 1c 64
        E 240 90 1c 00
        E 238 90 24 64
        E 2 90 1c 64
        E 238 90 24 00
        E 0 90 24 64
        E 2 90 1c 00
        E 238 90 24 00
        E 0 90 1a 64
        E 0 90 24 64
        E 0 90 1a 64
        E 240 90 1a 00
        E 0 90 24 00
        E 0 90 1a 00
        E 240 90 1a 64
        E 240 90 1a 00
        E 240 90 1a 64
        E 240 90 1a 00
        E 240 90 26 64
        E 2 90 1a 64
        E 238 90 26 00
        E 2 90 1a 00
        E 238 90 24 64
        E 2 90 1a 64
        E 238 90 24 00
        E 2 90 1a 00
        E 240 90 1a 64
        E 238 90 24 64
        E 2 90 1a 00
        E 238 90 24 00
        E 0 90 1a 64
        E 0 90 24 64
        E 0 90 1c 64
        E 240 90 1a 00
        E 0 90 24 00
        E 0 90 1c 00
        E 240 90 1c 64
        E 240 90 1c 00
        E 240 90 1c 64
        E 240 90 1c 00
        E 240 90 26 64
        E 2 90 1c 64
        E 238 90 26 00
        E 2 90 1c 00
        E 240 90 1c 64
        E 240 90 1c 00
        E 238 90 24 64
        E 2 90 1c 64
        E 238 90 24 00
        E 0 90 24 64
        E 2 90 1c 00
        E 238 90 24 00
        E 0 90 1a 64
        E 0 90 24 64
        E 0 90 1a 64
        E 240 90 1a 00
        E 0 90 24 00
        E 0 90 1a 00
        E 240 90 1a 64
        E 240 90 1a 00
        E 240 90 1a 64
        E 240 90 1a 00
        E 240 90 26 64
        E 2 90 1a 64
        E 238 90 26 00
        E 2 90 1a 00
        E 238 90 24 64
        E 2 90 1a 64
        E 238 90 24 00
        E 2 90 1a 00
        E 240 90 1a 64
        E 238 90 24 64
        E 2 90 1a 00
        E 238 90 24 00
        E 0 90 1a 64
        E 0 90 24 64
        E 0 90 1c 64
        E 240 90 1a 00
        E 0 90 24 00
        E 0 90 1c 00
        E 240 90 1c 64
        E 240 90 1c 00
        E 240 90 1c 64
        E 240 90 1c 00
        E 240 90 26 64
        E 2 90 1c 64
        E 238 90 26 00
        E 2 90 1c 00
        E 240 90 1c 64
        E 240 90 1c 00
        E 238 90 24 64
        E 2 90 1c 64
        E 238 90 24 00
        E 0 90 24 64
        E 2 90 1c 00
        E 238 90 24 00
        E 0 90 1a 64
        E 0 90 24 64
        E 0 90 1a 64
        E 240 90 1a 00
        E 0 90 24 00
        E 0 90 1a 00
        E 240 90 1a 64
        E 240 90 1a 00
        E 240 90 1a 64
        E 240 90 1a 00
        E 240 90 26 64
        E 2 90 1a 64
        E 238 90 26 00
        E 2 90 1a 00
        E 238 90 24 64
        E 2 90 1a 64
        E 238 90 24 00
        E 2 90 1a 00
        E 240 90 1a 64
        E 238 90 24 64
        E 2 90 1a 00
        E 238 90 24 00
        E 0 90 1a 64
        E 0 90 24 64
        E 0 90 1c 64
        E 240 90 1a 00
        E 0 90 24 00
        E 0 90 1c 00
        E 240 90 1c 64
        E 240 90 1c 00
        E 240 90 1c 64
        E 240 90 1c 00
        E 240 90 26 64
        E 2 90 1c 64
        E 238 90 26 00
        E 2 90 1c 00
        E 240 90 1c 64
        E 240 90 1c 00
        E 238 90 24 64
        E 2 90 1c 64
        E 238 90 24 00
        E 0 90 24 64
        E 2 90 1c 00
        E 238 90 24 00
        E 0 90 1a 64
        E 0 90 24 64
        E 0 90 1a 64
        E 240 90 1a 00
        E 0 90 24 00
        E 0 90 1a 00
        E 240 90 1a 64
        E 240 90 1a 00
        E 240 90 1a 64
        E 240 90 1a 00
        E 240 90 26 64
        E 2 90 1a 64
        E 238 90 26 00
        E 2 90 1a 00
        E 238 90 24 64
        E 2 90 1a 64
        E 238 90 24 00
        E 2 90 1a 00
        E 240 90 1a 64
        E 238 90 24 64
        E 2 90 1a 00
        E 238 90 24 00
        E 0 90 1a 64
        E 0 90 24 64
        E 0 90 1c 64
        E 240 90 1a 00
        E 0 90 24 00
        E 0 90 1c 00
        E 240 90 1c 64
        E 240 90 1c 00
        E 240 90 1c 64
        E 240 90 1c 00
        E 240 90 26 64
        E 2 90 1c 64
        E 238 90 26 00
        E 2 90 1c 00
        E 240 90 1c 64
        E 240 90 1c 00
        E 238 90 24 64
        E 2 90 1c 64
        E 238 90 24 00
        E 0 90 24 64
        E 2 90 1c 00
        E 238 90 24 00
        E 0 90 1a 64
        E 0 90 24 64
        E 0 90 1a 64
        E 240 90 1a 00
        E 0 90 24 00
        E 0 90 1a 00
        E 240 90 1a 64
        E 240 90 1a 00
        E 240 90 1a 64
        E 240 90 1a 00
        E 240 90 26 64
        E 2 90 1a 64
        E 238 90 26 00
        E 2 90 1a 00
        E 238 90 24 64
        E 2 90 1a 64
        E 238 90 24 00
        E 2 90 1a 00
        E 240 90 1a 64
        E 238 90 24 64
        E 2 90 1a 00
        E 238 90 24 00
        E 0 90 1a 64
        E 0 90 24 64
        E 0 90 1c 64
        E 240 90 1a 00
        E 0 90 24 00
        E 0 90 1c 00
        E 240 90 1c 64
        E 240 90 1c 00
        E 240 90 1c 64
        E 240 90 1c 00
        E 240 90 26 64
        E 2 90 1c 64
        E 238 90 26 00
        E 2 90 1c 00
        E 240 90 1c 64
        E 240 90 1c 00
        E 238 90 24 64
        E 2 90 1c 64
        E 238 90 24 00
        E 0 90 24 64
        E 2 90 1c 00
        E 238 90 24 00
        E 0 90 1a 64
        E 0 90 24 64
        E 0 90 1a 64
        E 240 90 1a 00
        E 0 90 24 00
        E 0 90 1a 00
        E 240 90 1a 64
        E 240 90 1a 00
        E 240 90 1a 64
        E 240 90 1a 00
        E 240 90 26 64
        E 2 90 1a 64
        E 238 90 26 00
        E 2 90 1a 00
        E 238 90 24 64
        E 2 90 1a 64
        E 238 90 24 00
        E 2 90 1a 00
        E 240 90 1a 64
        E 238 90 24 64
        E 2 90 1a 00
        E 238 90 24 00
        E 0 90 1a 64
        E 0 90 24 64
        E 0 90 24 7f
        E 0 90 1d 64
        E 30 90 24 00
        E 89 90 1d 64
        E 1 90 1d 00
        E 0 90 24 72
        E 30 90 24 00
        E 89 90 1d 00
        E 1 90 1a 00
        E 0 90 24 00
        E 0 90 24 72
        E 0 90 20 64
        E 0 90 1f 64
        E 0 90 1a 64
        E 30 90 24 00
        E 90 90 24 72
        E 30 90 24 00
        E 90 90 20 00
        E 0 90 1f 00
        E 0 90 1a 00
        E 0 90 24 72
        E 0 90 1a 64
        E 2 90 1d 64
        E 28 90 24 00
        E 90 90 24 72
        E 1 90 1d 64
        E 1 90 1d 00
        E 28 90 24 00
        E 90 90 1a 00
        E 0 90 24 72
        E 0 90 1b 64
        E 0 90 1a 64
        E 1 90 1d 00
        E 29 90 24 00
        E 90 90 24 72
        E 30 90 24 00
        E 90 90 1d 64
        E 0 90 1b 00
        E 0 90 1a 00
        E 0 90 24 7f
        E 0 90 1a 64
        E 30 90 24 00
        E 89 90 1d 64
        E 1 90 1d 00
        E 0 90 24 72
        E 30 90 24 00
        E 89 90 1d 00
        E 1 90 1a 00
        E 0 90 24 72
        E 0 90 19 64
        E 30 90 24 00
        E 90 90 24 72
        E 30 90 24 00
        E 90 90 19 00
        E 0 90 24 72
        E 0 90 1a 64
        E 2 90 1d 64
        E 28 90 24 00
        E 90 90 24 72
        E 1 90 1d 64
        E 1 90 1d 00
        E 28 90 24 00
        E 90 90 1a 00
        E 0 90 24 72
        E 0 90 1a 64
        E 1 90 1d 00
        E 29 90 24 00
        E 90 90 24 72
        E 30 90 24 00
        E 90 90 1a 00
        E 0 90 24 7f
        E 0 90 1a 64
        E 0 90 1d 64
        E 30 90 24 00
        E 89 90 1d 64
        E 1 90 24 72
        E 0 90 1d 00
        E 30 90 24 00
        E 89 90 1d 00
        E 1 90 1a 00
        E 0 90 24 72
        E 0 90 1a 64
        E 30 90 24 00
        E 90 90 24 72
        E 30 90 24 00
        E 90 90 1a 00
        E 0 90 24 72
        E 0 90 1a 64
        E 2 90 1d 64
        E 28 90 24 00
        E 90 90 24 72
        E 1 90 1d 64
        E 1 90 1d 00
        E 28 90 24 00
        E 90 90 1a 00
        E 0 90 24 72
        E 0 90 1a 64
        E 1 90 1d 00
        E 29 90 24 00
        E 90 90 24 72
        E 30 90 24 00
        E 90 90 1a 00
        E 0 90 24 7f
        E 1 90 1d 64
        E 29 90 24 00
        E 90 90 1d 64
        E 0 90 24 72
        E 1 90 1d 00
        E 29 90 24 00
        E 90 90 1d 00
        E 0 90 24 72
        E 0 90 1a 64
        E 30 90 24 00
        E 90 90 24 72
        E 30 90 24 00
        E 90 90 1a 00
        E 0 90 24 72
        E 3 90 1d 64
        E 27 90 24 00
        E 90 90 24 72
        E 2 90 1d 64
        E 1 90 1d 00
        E 27 90 24 00
        E 90 90 24 72
        E 0 90 1a 64
        E 2 90 1d 00
        E 28 90 24 00
        E 90 90 24 72
        E 30 90 24 00
        E 90 90 1a 00
        E 0 90 24 7f
        E 0 90 19 64
        E 1 90 1d 64
        E 29 90 24 00
        E 90 90 24 72
        E 0 90 1d 64
        E 1 90 1d 00
        E 29 90 24 00
        E 90 90 19 00
        E 0 90 24 72
        E 0 90 18 64
        E 0 90 1d 00
        E 30 90 24 00
        E 90 90 24 72
        E 30 90 24 00
        E 90 90 18 00
        E 0 90 24 72
        E 0 90 19 64
        E 3 90 1d 64
        E 27 90 24 00
        E 90 90 24 72
        E 2 90 1d 64
        E 1 90 1d 00
        E 27 90 24 00
        E 90 90 19 00
        E 0 90 24 72
        E 0 90 1a 64
        E 2 90 1d 00
        E 28 90 24 00
        E 90 90 24 72
        E 30 90 24 00
        E 90 90 1d 64
        E 0 90 1a 00
        E 0 90 24 7f
        E 30 90 24 00
        E 89 90 1d 64
        E 1 90 1d 00
        E 0 90 24 72
        E 30 90 24 00
        E 89 90 1d 00
        E 1 90 24 72
        E 30 90 24 00
        E 90 90 24 72
        E 30 90 24 00
        E 90 90 24 72
        E 0 90 18 64
        E 1 90 1d 64
        E 29 90 24 00
        E 90 90 24 72
        E 0 90 1d 64
        E 1 90 1d 00
        E 29 90 24 00
        E 90 90 18 00
        E 0 90 24 72
        E 0 90 1a 64
        E 0 90 1d 00
        E 30 90 24 00
        E 90 90 24 72
        E 30 90 24 00
        E 90 90 1a 00
        E 0 90 24 7f
        E 0 90 1d 64
        E 0 90 24 7f
        E 0 90 1d 64
        E 30 90 24 00
        E 89 90 1d 64
        E 1 90 1d 00
        E 0 90 24 72
        E 30 90 24 00
        E 89 90 1d 00
        E 1 90 24 72
        E 0 90 20 64
        E 0 90 1f 64
        E 0 90 1a 64
        E 30 90 24 00
        E 90 90 24 72
        E 30 90 24 00
        E 90 90 20 00
        E 0 90 1f 00
        E 0 90 1a 00
        E 0 90 24 72
        E 0 90 1a 64
        E 2 90 1d 64
        E 28 90 24 00
        E 90 90 24 72
        E 1 90 1d 64
        E 1 90 1d 00
        E 28 90 24 00
        E 90 90 1a 00
        E 0 90 24 72
        E 0 90 1b 64
        E 0 90 1a 64
        E 1 90 1d 00
        E 29 90 24 00
        E 90 90 24 72
        E 30 90 24 00
        E 90 90 1d 64
        E 0 90 1b 00
        E 0 90 1a 00
        E 0 90 24 7f
        E 0 90 1a 64
        E 30 90 24 00
        E 89 90 1d 64
        E 1 90 1d 00
        E 0 90 24 72
        E 30 90 24 00
        E 89 90 1d 00
        E 1 90 1a 00
        E 0 90 24 72
        E 0 90 19 64
        E 30 90 24 00
        E 90 90 24 72
        E 30 90 24 00
        E 90 90 19 00
        E 0 90 24 72
        E 0 90 1a 64
        E 2 90 1d 64
        E 28 90 24 00
        E 90 90 24 72
        E 1 90 1d 64
        E 1 90 1d 00
        E 28 90 24 00
        E 90 90 1a 00
        E 0 90 24 72
        E 0 90 1a 64
        E 1 90 1d 00
        E 29 90 24 00
        E 90 90 24 72
        E 30 90 24 00
        E 90 90 1a 00
        E 0 90 24 7f
        E 0 90 1a 64
        E 0 90 1d 64
        E 30 90 24 00
        E 89 90 1d 64
        E 1 90 24 72
        E 0 90 1d 00
        E 30 90 24 00
        E 89 90 1d 00
        E 1 90 1a 00
        E 0 90 24 72
        E 0 90 1a 64
        E 30 90 24 00
        E 90 90 24 72
        E 30 90 24 00
        E 90 90 1a 00
        E 0 90 24 72
        E 0 90 1a 64
        E 2 90 1d 64
        E 28 90 24 00
        E 90 90 24 72
        E 1 90 1d 64
        E 1 90 1d 00
        E 28 90 24 00
        E 90 90 1a 00
        E 0 90 24 72
        E 0 90 1a 64
        E 1 90 1d 00
        E 29 90 24 00
        E 90 90 24 72
        E 30 90 24 00
        E 90 90 1a 00
        E 0 90 24 7f
        E 1 90 1d 64
        E 29 90 24 00
        E 90 90 1d 64
        E 0 90 24 72
        E 1 90 1d 00
        E 29 90 24 00
        E 90 90 1d 00
        E 0 90 24 72
        E 0 90 1a 64
        E 30 90 24 00
        E 90 90 24 72
        E 30 90 24 00
        E 90 90 1a 00
        E 0 90 24 72
        E 3 90 1d 64
        E 27 90 24 00
        E 90 90 24 72
        E 2 90 1d 64
        E 1 90 1d 00
        E 27 90 24 00
        E 90 90 24 72
        E 0 90 1a 64
        E 2 90 1d 00
        E 28 90 24 00
        E 90 90 24 72
        E 30 90 24 00
        E 90 90 1a 00
        E 0 90 24 7f
        E 0 90 19 64
        E 1 90 1d 64
        E 29 90 24 00
        E 90 90 24 72
        E 0 90 1d 64
        E 1 90 1d 00
        E 29 90 24 00
        E 90 90 19 00
        E 0 90 24 72
        E 0 90 18 64
        E 0 90 1d 00
        E 30 90 24 00
        E 90 90 24 72
        E 30 90 24 00
        E 90 90 18 00
        E 0 90 24 72
        E 0 90 19 64
        E 3 90 1d 64
        E 27 90 24 00
        E 90 90 24 72
        E 2 90 1d 64
        E 1 90 1d 00
        E 27 90 24 00
        E 90 90 19 00
        E 0 90 24 72
        E 0 90 1a 64
        E 2 90 1d 00
        E 28 90 24 00
        E 90 90 24 72
        E 30 90 24 00
        E 90 90 1d 64
        E 0 90 1a 00
        E 0 90 24 7f
        E 30 90 24 00
        E 89 90 1d 64
        E 1 90 1d 00
        E 0 90 24 72
        E 30 90 24 00
        E 89 90 1d 00
        E 1 90 24 72
        E 30 90 24 00
        E 90 90 24 72
        E 30 90 24 00
        E 90 90 24 72
        E 0 90 18 64
        E 1 90 1d 64
        E 29 90 24 00
        E 90 90 24 72
        E 0 90 1d 64
        E 1 90 1d 00
        E 29 90 24 00
        E 90 90 18 00
        E 0 90 24 72
        E 0 90 1a 64
        E 0 90 1d 00
        E 30 90 24 00
        E 90 90 24 72
        E 30 90 24 00
        E 90 80 1a 00
        E 0 b0 7b 00
        GUID {4F9155F5-348F-194B-A0BC-2FC55D648B06}
        IGNTEMPO 0 120.00000000 4 4
        SRCCOLOR 140
        VELLANE -1 100 0
      >
    >
    <ITEM
      POSITION 235.45945945940912
      SNAPOFFS 0.00000000000000
      LENGTH 3.89189189189190
      LOOP 1
      ALLTAKES 0
      SEL 0
      FADEIN 1 0.000000 0.000000 1 0
      FADEOUT 1 0.000000 0.000000 1 0
      MUTE 0
      IGUID {4F37B0D4-28FC-8D49-8CA9-72B253A716BF}
      IID 1220
      NAME "miesjuna - miesjuna.mid"
      VOLPAN 1.000000 0.000000 1.000000 -1.000000
      SOFFS 207.56756756755485 639.99999999996078
      PLAYRATE 1.00000000000000 1 0.00000000000000 -1
      CHANMODE 0
      GUID {F67C39F4-265F-5E4F-94D6-6D819EDD03BF}
      <SOURCE MIDI
        HASDATA 1 480 QN
        POOLEDEVTS {414822E9-3536-3B42-A69F-CE97EA8E3676}
        <X 0 0
          /wNtaWVzanVuYQ==
        >
        E 3840 90 2a 2f
        E 0 90 24 7f
        E 56 90 2a 00
        E 64 90 24 00
        E 120 90 26 7f
        E 2 90 2a 7f
        E 99 90 2a 00
        E 19 90 26 00
        E 120 90 2a 2d
        E 0 90 24 7f
        E 56 90 2a 00
        E 64 90 24 00
        E 120 90 26 7f
        E 2 90 2a 7f
        E 99 90 2a 00
        E 19 90 26 00
        E 120 90 2a 2d
        E 0 90 24 7f
        E 56 90 2a 00
        E 64 90 24 00
        E 120 90 26 7f
        E 2 90 2a 7f
        E 99 90 2a 00
        E 19 90 26 00
        E 120 90 2a 30
        E 0 90 24 7f
        E 61 90 2a 00
        E 59 90 24 00
        E 120 90 26 7f
        E 3 90 2a 7f
        E 74 90 2a 00
        E 43 90 26 00
        E 120 90 2a 2f
        E 0 90 24 7f
        E 56 90 2a 00
        E 64 90 24 00
        E 120 90 26 7f
        E 2 90 2a 7f
        E 99 90 2a 00
        E 19 90 26 00
        E 120 90 2a 2d
        E 0 90 24 7f
        E 56 90 2a 00
        E 64 90 24 00
        E 120 90 26 7f
        E 2 90 2a 7f
        E 99 90 2a 00
        E 19 90 26 00
        E 120 90 2a 2d
        E 0 90 24 7f
        E 56 90 2a 00
        E 64 90 24 00
        E 120 90 26 7f
        E 2 90 2a 7f
        E 99 90 2a 00
        E 19 90 26 00
        E 120 90 2a 30
        E 0 90 24 7f
        E 61 90 2a 00
        E 59 90 24 00
        E 120 90 26 7f
        E 3 90 2a 7f
        E 74 90 2a 00
        E 43 90 26 00
        E 120 90 2a 2f
        E 0 90 24 7f
        E 56 90 2a 00
        E 64 90 24 00
        E 120 90 26 7f
        E 2 90 2a 7f
        E 99 90 2a 00
        E 19 90 26 00
        E 120 90 2a 2d
        E 0 90 24 7f
        E 56 90 2a 00
        E 64 90 24 00
        E 120 90 26 7f
        E 2 90 2a 7f
        E 99 90 2a 00
        E 19 90 26 00
        E 120 90 2a 2d
        E 0 90 24 7f
        E 56 90 2a 00
        E 64 90 24 00
        E 120 90 26 7f
        E 2 90 2a 7f
        E 99 90 2a 00
        E 19 90 26 00
        E 120 90 2a 30
        E 0 90 24 7f
        E 61 90 2a 00
        E 59 90 24 00
        E 120 90 26 7f
        E 3 90 2a 7f
        E 74 90 2a 00
        E 43 90 26 00
        E 120 90 2a 2f
        E 0 90 24 7f
        E 56 90 2a 00
        E 64 90 24 00
        E 120 90 26 7f
        E 2 90 2a 7f
        E 99 90 2a 00
        E 19 90 26 00
        E 120 90 2a 2d
        E 0 90 24 7f
        E 56 90 2a 00
        E 64 90 24 00
        E 120 90 26 7f
        E 2 90 2a 7f
        E 99 90 2a 00
        E 19 90 26 00
        E 120 90 2a 2d
        E 0 90 24 7f
        E 56 90 2a 00
        E 64 90 24 00
        E 120 90 26 7f
        E 2 90 2a 7f
        E 99 90 2a 00
        E 19 90 26 00
        E 120 90 2a 30
        E 0 90 24 7f
        E 61 90 2a 00
        E 59 90 24 00
        E 120 90 26 7f
        E 3 90 2a 7f
        E 74 90 2a 00
        E 43 90 26 00
        E 120 90 2a 2f
        E 0 90 24 7f
        E 56 90 2a 00
        E 64 90 24 00
        E 120 90 26 7f
        E 2 90 2a 7f
        E 99 90 2a 00
        E 19 90 26 00
        E 120 90 2a 2d
        E 0 90 24 7f
        E 56 90 2a 00
        E 64 90 24 00
        E 120 90 26 7f
        E 2 90 2a 7f
        E 99 90 2a 00
        E 19 90 26 00
        E 120 90 2a 2d
        E 0 90 24 7f
        E 56 90 2a 00
        E 64 90 24 00
        E 120 90 26 7f
        E 2 90 2a 7f
        E 99 90 2a 00
        E 19 90 26 00
        E 120 90 2a 30
        E 0 90 24 7f
        E 61 90 2a 00
        E 59 90 24 00
        E 120 90 26 7f
        E 3 90 2a 7f
        E 74 90 2a 00
        E 43 90 26 00
        E 120 90 2a 2f
        E 0 90 24 7f
        E 56 90 2a 00
        E 64 90 24 00
        E 120 90 26 7f
        E 2 90 2a 7f
        E 99 90 2a 00
        E 19 90 26 00
        E 120 90 2a 2d
        E 0 90 24 7f
        E 56 90 2a 00
        E 64 90 24 00
        E 120 90 26 7f
        E 2 90 2a 7f
        E 99 90 2a 00
        E 19 90 26 00
        E 120 90 2a 2d
        E 0 90 24 7f
        E 56 90 2a 00
        E 64 90 24 00
        E 120 90 26 7f
        E 2 90 2a 7f
        E 99 90 2a 00
        E 19 90 26 00
        E 120 90 2a 30
        E 0 90 24 7f
        E 61 90 2a 00
        E 59 90 24 00
        E 120 90 26 7f
        E 3 90 2a 7f
        E 74 90 2a 00
        E 43 90 26 00
        E 120 90 18 19
        E 0 90 24 7f
        E 29 90 18 00
        E 91 90 24 00
        E 120 90 26 7f
        E 5 90 18 6b
        E 41 90 18 00
        E 74 90 26 00
        E 120 90 18 19
        E 0 90 24 7f
        E 29 90 18 00
        E 91 90 24 00
        E 120 90 26 7f
        E 5 90 18 6b
        E 41 90 18 00
        E 74 90 26 00
        E 120 90 18 19
        E 0 90 24 7f
        E 29 90 18 00
        E 91 90 24 00
        E 120 90 26 7f
        E 5 90 18 6b
        E 41 90 18 00
        E 74 90 26 00
        E 120 90 18 15
        E 0 90 24 7f
        E 35 90 18 00
        E 85 90 24 00
        E 120 90 26 7f
        E 7 90 18 7f
        E 43 90 18 00
        E 70 90 26 00
        E 120 90 18 19
        E 0 90 24 7f
        E 29 90 18 00
        E 91 90 24 00
        E 120 90 26 7f
        E 5 90 18 6b
        E 41 90 18 00
        E 74 90 26 00
        E 120 90 18 19
        E 0 90 24 7f
        E 29 90 18 00
        E 91 90 24 00
        E 120 90 26 7f
        E 5 90 18 6b
        E 41 90 18 00
        E 74 90 26 00
        E 120 90 18 19
        E 0 90 24 7f
        E 29 90 18 00
        E 91 90 24 00
        E 120 90 26 7f
        E 5 90 18 6b
        E 41 90 18 00
        E 74 90 26 00
        E 120 90 18 15
        E 0 90 24 7f
        E 35 90 18 00
        E 85 90 24 00
        E 120 90 26 7f
        E 7 90 18 7f
        E 43 90 18 00
        E 70 90 26 00
        E 120 90 18 19
        E 0 90 24 7f
        E 29 90 18 00
        E 91 90 24 00
        E 120 90 26 7f
        E 5 90 18 6b
        E 41 90 18 00
        E 74 90 26 00
        E 120 90 18 19
        E 0 90 24 7f
        E 29 90 18 00
        E 91 90 24 00
        E 120 90 26 7f
        E 5 90 18 6b
        E 41 90 18 00
        E 74 90 26 00
        E 120 90 18 19
        E 0 90 24 7f
        E 29 90 18 00
        E 91 90 24 00
        E 120 90 26 7f
        E 5 90 18 6b
        E 41 90 18 00
        E 74 90 26 00
        E 120 90 18 15
        E 0 90 24 7f
        E 35 90 18 00
        E 85 90 24 00
        E 120 90 26 7f
        E 7 90 18 7f
        E 43 90 18 00
        E 70 90 26 00
        E 120 90 18 19
        E 0 90 24 7f
        E 29 90 18 00
        E 91 90 24 00
        E 120 90 26 7f
        E 5 90 18 6b
        E 41 90 18 00
        E 74 90 26 00
        E 120 90 18 19
        E 0 90 24 7f
        E 29 90 18 00
        E 91 90 24 00
        E 120 90 26 7f
        E 5 90 18 6b
        E 41 90 18 00
        E 74 90 26 00
        E 120 90 18 19
        E 0 90 24 7f
        E 29 90 18 00
        E 91 90 24 00
        E 120 90 26 7f
        E 5 90 18 6b
        E 41 90 18 00
        E 74 90 26 00
        E 120 90 18 15
        E 0 90 24 7f
        E 35 90 18 00
        E 85 90 24 00
        E 120 90 26 7f
        E 7 90 18 7f
        E 43 90 18 00
        E 70 90 26 00
        E 120 90 18 19
        E 0 90 24 7f
        E 29 90 18 00
        E 91 90 24 00
        E 120 90 26 7f
        E 5 90 18 6b
        E 41 90 18 00
        E 74 90 26 00
        E 120 90 18 19
        E 0 90 24 7f
        E 29 90 18 00
        E 91 90 24 00
        E 120 90 26 7f
        E 5 90 18 6b
        E 41 90 18 00
        E 74 90 26 00
        E 120 90 18 19
        E 0 90 24 7f
        E 29 90 18 00
        E 91 90 24 00
        E 120 90 26 7f
        E 5 90 18 6b
        E 41 90 18 00
        E 74 90 26 00
        E 120 90 18 15
        E 0 90 24 7f
        E 35 90 18 00
        E 85 90 24 00
        E 120 90 26 7f
        E 7 90 18 7f
        E 43 90 18 00
        E 70 90 26 00
        E 120 90 18 19
        E 0 90 24 7f
        E 29 90 18 00
        E 91 90 24 00
        E 120 90 26 7f
        E 5 90 18 6b
        E 41 90 18 00
        E 74 90 26 00
        E 120 90 18 19
        E 0 90 24 7f
        E 29 90 18 00
        E 91 90 24 00
        E 120 90 26 7f
        E 5 90 18 6b
        E 41 90 18 00
        E 74 90 26 00
        E 120 90 18 19
        E 0 90 24 7f
        E 29 90 18 00
        E 91 90 24 00
        E 120 90 26 7f
        E 5 90 18 6b
        E 41 90 18 00
        E 74 90 26 00
        E 120 90 18 15
        E 0 90 24 7f
        E 35 90 18 00
        E 85 90 24 00
        E 120 90 26 7f
        E 7 90 18 7f
        E 43 90 18 00
        E 70 90 26 00
        E 120 90 18 19
        E 29 90 18 00
        E 216 90 18 6b
        E 41 90 18 00
        E 194 90 18 19
        E 0 90 24 7f
        E 120 90 18 00
        E 0 90 24 00
        E 0 90 24 7f
        E 120 90 24 00
        E 0 90 18 6b
        E 120 90 18 00
        E 120 90 18 19
        E 2 90 24 7f
        E 27 90 18 00
        E 93 90 24 00
        E 0 90 24 7f
        E 120 90 24 00
        E 3 90 18 6b
        E 41 90 18 00
        E 194 90 18 15
        E 35 90 18 00
        E 205 90 24 64
        E 7 90 18 7f
        E 43 90 18 00
        E 70 90 24 00
        E 0 90 24 64
        E 120 90 24 00
        E 0 90 24 64
        E 3 90 18 19
        E 29 90 18 00
        E 208 90 24 00
        E 0 90 24 64
        E 8 90 18 6b
        E 41 90 18 00
        E 71 90 24 00
        E 2 90 24 64
        E 118 90 24 64
        E 2 90 24 00
        E 1 90 18 19
        E 117 90 24 00
        E 0 90 24 64
        E 3 90 18 00
        E 117 90 24 00
        E 0 90 24 64
        E 3 90 18 6b
        E 117 90 24 00
        E 0 90 24 64
        E 3 90 18 00
        E 117 90 24 00
        E 0 90 24 64
        E 3 90 18 19
        E 29 90 18 00
        E 88 90 24 00
        E 120 90 24 64
        E 8 90 18 6b
        E 41 90 18 00
        E 71 90 24 00
        E 120 90 24 64
        E 3 90 18 15
        E 35 90 18 00
        E 82 90 24 00
        E 120 90 24 64
        E 10 90 18 7f
        E 43 90 18 00
        E 67 90 24 00
        E 120 90 18 19
        E 29 90 18 00
        E 216 90 18 6b
        E 41 90 18 00
        E 194 90 18 19
        E 0 90 24 7f
        E 120 90 18 00
        E 0 90 24 00
        E 0 90 24 7f
        E 120 90 24 00
        E 0 90 18 6b
        E 120 90 18 00
        E 120 90 18 19
        E 2 90 24 7f
        E 27 90 18 00
        E 93 90 24 7f
        E 0 90 24 00
        E 120 90 24 00
        E 3 90 18 6b
        E 41 90 18 00
        E 194 90 18 15
        E 35 90 18 00
        E 205 90 24 64
        E 7 90 18 7f
        E 43 90 18 00
        E 70 90 24 00
        E 0 90 24 64
        E 120 90 24 00
        E 0 90 24 64
        E 3 90 18 19
        E 29 90 18 00
        E 208 90 24 00
        E 0 90 24 64
        E 8 90 18 6b
        E 41 90 18 00
        E 71 90 24 00
        E 2 90 24 64
        E 118 90 24 64
        E 2 90 24 00
        E 1 90 18 19
        E 117 90 24 00
        E 0 90 24 64
        E 3 90 18 00
        E 117 90 24 00
        E 0 90 24 64
        E 3 90 18 6b
        E 117 90 24 00
        E 0 90 24 64
        E 3 90 18 00
        E 117 90 24 00
        E 0 90 24 64
        E 3 90 18 19
        E 29 90 18 00
        E 88 90 24 00
        E 120 90 24 64
        E 8 90 18 6b
        E 41 90 18 00
        E 71 90 24 00
        E 120 90 24 64
        E 3 90 18 15
        E 35 90 18 00
        E 82 90 24 00
        E 120 90 24 64
        E 10 90 18 7f
        E 43 90 18 00
        E 67 90 24 00
        E 120 90 18 19
        E 29 90 18 00
        E 216 90 18 6b
        E 41 90 18 00
        E 194 90 18 19
        E 0 90 24 7f
        E 120 90 18 00
        E 0 90 24 00
        E 0 90 24 7f
        E 120 90 24 00
        E 0 90 18 6b
        E 120 90 18 00
        E 120 90 18 19
        E 2 90 24 7f
        E 27 90 18 00
        E 93 90 24 7f
        E 0 90 24 00
        E 120 90 24 00
        E 3 90 18 6b
        E 41 90 18 00
        E 194 90 18 15
        E 35 90 18 00
        E 205 90 24 64
        E 7 90 18 7f
        E 43 90 18 00
        E 70 90 24 00
        E 0 90 24 64
        E 120 90 24 00
        E 0 90 24 64
        E 3 90 18 19
        E 29 90 18 00
        E 208 90 24 00
        E 0 90 24 64
        E 8 90 18 6b
        E 41 90 18 00
        E 71 90 24 00
        E 2 90 24 64
        E 118 90 24 64
        E 2 90 24 00
        E 1 90 18 19
        E 117 90 24 00
        E 0 90 24 64
        E 3 90 18 00
        E 117 90 24 00
        E 0 90 24 64
        E 3 90 18 6b
        E 117 90 24 00
        E 0 90 24 64
        E 3 90 18 00
        E 117 90 24 00
        E 0 90 24 64
        E 3 90 18 19
        E 29 90 18 00
        E 88 90 24 00
        E 120 90 24 64
        E 8 90 18 6b
        E 41 90 18 00
        E 71 90 24 00
        E 120 90 24 64
        E 3 90 18 15
        E 35 90 18 00
        E 82 90 24 00
        E 120 90 24 64
        E 10 90 18 7f
        E 43 90 18 00
        E 67 90 24 00
        E 120 90 1d 64
        E 240 90 1d 00
        E 240 90 24 7f
        E 4 90 1d 64
        E 116 90 24 00
        E 0 90 24 7f
        E 120 90 24 00
        E 4 90 1d 00
        E 237 90 1d 64
        E 1 90 24 7f
        E 120 90 24 7f
        E 0 90 24 00
        E 119 90 1d 00
        E 1 90 24 00
        E 242 90 1d 64
        E 240 90 1d 00
        E 237 90 1d 64
        E 240 90 1d 00
        E 244 90 1d 64
        E 240 90 1d 00
        E 237 90 1d 64
        E 240 90 1d 00
        E 244 90 1d 64
        E 240 90 1d 00
        E 234 90 1d 64
        E 240 90 1d 00
        E 240 90 24 7f
        E 4 90 1d 64
        E 116 90 24 00
        E 0 90 24 7f
        E 120 90 24 00
        E 4 90 1d 00
        E 237 90 1d 64
        E 1 90 24 7f
        E 120 90 24 7f
        E 0 90 24 00
        E 119 90 1d 00
        E 1 90 24 00
        E 242 90 1d 64
        E 240 90 1d 00
        E 237 90 1d 64
        E 240 90 1d 00
        E 244 90 1d 64
        E 240 90 1d 00
        E 237 90 1d 64
        E 240 90 1d 00
        E 244 90 1d 64
        E 240 90 1d 00
        E 234 90 1d 64
        E 240 90 1d 00
        E 240 90 24 7f
        E 4 90 1d 64
        E 116 90 24 00
        E 0 90 24 7f
        E 120 90 24 00
        E 4 90 1d 00
        E 237 90 1d 64
        E 1 90 24 7f
        E 120 90 24 7f
        E 0 90 24 00
        E 119 90 1d 00
        E 1 90 24 00
        E 242 90 1d 64
        E 240 90 1d 00
        E 237 90 1d 64
        E 240 90 1d 00
        E 244 90 1d 64
        E 240 90 1d 00
        E 237 90 1d 64
        E 240 90 1d 00
        E 244 90 1d 64
        E 240 90 1d 00
        E 234 90 1d 64
        E 0 90 26 64
        E 0 90 23 64
        E 240 90 1d 00
        E 0 90 26 00
        E 0 90 23 00
        E 0 90 26 64
        E 240 90 26 00
        E 0 90 26 64
        E 0 90 23 64
        E 4 90 1d 64
        E 236 90 26 00
        E 0 90 23 00
        E 0 90 26 64
        E 4 90 1d 00
        E 236 90 26 00
        E 0 90 26 64
        E 0 90 23 64
        E 1 90 1d 64
        E 239 90 26 00
        E 0 90 23 00
        E 0 90 26 64
        E 1 90 1d 00
        E 239 90 26 00
        E 0 90 26 64
        E 0 90 23 64
        E 4 90 1d 64
        E 236 90 26 00
        E 0 90 23 00
        E 0 90 26 64
        E 4 90 1d 00
        E 236 90 26 00
        E 0 90 26 64
        E 0 90 23 64
        E 1 90 1d 64
        E 239 90 26 00
        E 0 90 23 00
        E 0 90 26 64
        E 1 90 1d 00
        E 239 90 26 00
        E 0 90 26 64
        E 0 90 23 64
        E 5 90 1d 64
        E 235 90 26 00
        E 0 90 23 00
        E 0 90 26 64
        E 5 90 1d 00
        E 235 90 26 00
        E 0 90 26 64
        E 0 90 23 64
        E 2 90 1d 64
        E 238 90 26 00
        E 0 90 23 00
        E 0 90 26 64
        E 2 90 1d 00
        E 238 90 26 00
        E 0 90 26 64
        E 0 90 23 64
        E 6 90 1d 64
        E 234 90 26 00
        E 0 90 23 00
        E 0 90 26 64
        E 6 90 1d 00
        E 234 90 26 00
        E 0 90 1d 64
        E 0 90 26 64
        E 0 90 23 64
        E 240 90 1d 00
        E 0 90 26 00
        E 0 90 23 00
        E 0 90 26 64
        E 240 90 26 00
        E 0 90 26 64
        E 0 90 23 64
        E 4 90 1d 64
        E 236 90 26 00
        E 0 90 23 00
        E 0 90 26 64
        E 4 90 1d 00
        E 236 90 26 00
        E 0 90 26 64
        E 0 90 23 64
        E 1 90 1d 64
        E 239 90 26 00
        E 0 90 23 00
        E 0 90 26 64
        E 1 90 1d 00
        E 239 90 26 00
        E 0 90 26 64
        E 0 90 23 64
        E 4 90 1d 64
        E 236 90 26 00
        E 0 90 23 00
        E 0 90 26 64
        E 4 90 1d 00
        E 236 90 26 00
        E 0 90 26 64
        E 0 90 23 64
        E 1 90 1d 64
        E 239 90 26 00
        E 0 90 23 00
        E 0 90 26 64
        E 1 90 1d 00
        E 239 90 26 00
        E 0 90 26 64
        E 0 90 23 64
        E 5 90 1d 64
        E 235 90 26 00
        E 0 90 23 00
        E 0 90 26 64
        E 5 90 1d 00
        E 235 90 26 00
        E 0 90 26 64
        E 0 90 23 64
        E 2 90 1d 64
        E 238 90 26 00
        E 0 90 23 00
        E 0 90 26 64
        E 2 90 1d 00
        E 238 90 26 00
        E 0 90 26 64
        E 0 90 23 64
        E 6 90 1d 64
        E 234 90 26 00
        E 0 90 23 00
        E 0 90 26 64
        E 6 90 1d 00
        E 234 90 26 00
        E 0 90 24 7f
        E 5 90 1a 7f
        E 1 90 26 7f
        E 24 90 24 00
        E 5 90 1a 00
        E 1 90 26 00
        E 84 90 24 72
        E 30 90 24 00
        E 90 90 24 72
        E 1 90 1a 41
        E 29 90 24 00
        E 1 90 1a 00
        E 89 90 24 72
        E 30 90 24 00
        E 90 90 24 72
        E 3 90 1a 7f
        E 5 90 26 7f
        E 22 90 24 00
        E 3 90 1a 00
        E 5 90 26 00
        E 82 90 24 72
        E 30 90 24 00
        E 88 90 1a 41
        E 2 90 24 72
        E 28 90 1a 00
        E 2 90 24 00
        E 90 90 24 72
        E 30 90 24 00
        E 90 90 24 7f
        E 3 90 1a 7f
        E 8 90 26 7f
        E 19 90 24 00
        E 3 90 1a 00
        E 8 90 26 00
        E 79 90 24 72
        E 30 90 24 00
        E 90 90 24 72
        E 3 90 1a 41
        E 27 90 24 00
        E 3 90 1a 00
        E 87 90 24 72
        E 30 90 24 00
        E 90 90 24 72
        E 6 90 26 7f
        E 2 90 1a 7f
        E 22 90 24 00
        E 6 90 26 00
        E 2 90 1a 00
        E 82 90 24 72
        E 30 90 24 00
        E 89 90 1a 41
        E 1 90 24 72
        E 29 90 1a 00
        E 1 90 24 00
        E 90 90 24 72
        E 30 90 24 00
        E 90 90 24 7f
        E 3 90 1a 7f
        E 6 90 26 7f
        E 21 90 24 00
        E 3 90 1a 00
        E 6 90 26 00
        E 81 90 24 72
        E 30 90 24 00
        E 90 90 24 72
        E 0 90 1a 41
        E 30 90 24 00
        E 0 90 1a 00
        E 90 90 24 72
        E 30 90 24 00
        E 90 90 24 72
        E 3 90 26 7f
        E 3 90 1a 7f
        E 24 90 24 00
        E 3 90 26 00
        E 3 90 1a 00
        E 84 90 24 72
        E 30 90 24 00
        E 88 90 1a 41
        E 2 90 24 72
        E 28 90 1a 00
        E 2 90 24 00
        E 90 90 24 72
        E 30 90 24 00
        E 90 90 24 7f
        E 5 90 1a 7f
        E 1 90 26 7f
        E 24 90 24 00
        E 5 90 1a 00
        E 1 90 26 00
        E 84 90 24 72
        E 30 90 24 00
        E 90 90 24 72
        E 2 90 1a 41
        E 28 90 24 00
        E 2 90 1a 00
        E 88 90 24 72
        E 30 90 24 00
        E 90 90 24 72
        E 2 90 26 7f
        E 6 90 1a 7f
        E 22 90 24 00
        E 2 90 26 00
        E 6 90 1a 00
        E 82 90 24 72
        E 30 90 24 00
        E 88 90 1a 41
        E 2 90 24 72
        E 28 90 1a 00
        E 2 90 24 00
        E 90 90 24 72
        E 30 90 24 00
        E 90 90 24 7f
        E 5 90 26 7f
        E 0 90 1a 7f
        E 25 90 24 00
        E 5 90 26 00
        E 0 90 1a 00
        E 85 90 24 72
        E 30 90 24 00
        E 90 90 24 72
        E 0 90 1a 41
        E 30 90 24 00
        E 0 90 1a 00
        E 90 90 24 72
        E 30 90 24 00
        E 90 90 24 72
        E 1 90 26 7f
        E 2 90 1a 7f
        E 27 90 24 00
        E 1 90 26 00
        E 2 90 1a 00
        E 87 90 24 72
        E 30 90 24 00
        E 90 90 24 72
        E 3 90 1a 41
        E 27 90 24 00
        E 3 90 1a 00
        E 87 90 24 72
        E 30 90 24 00
        E 90 90 24 7f
        E 4 90 26 7f
        E 1 90 1a 7f
        E 25 90 24 00
        E 4 90 26 00
        E 1 90 1a 00
        E 85 90 24 72
        E 30 90 24 00
        E 90 90 24 72
        E 1 90 1a 41
        E 29 90 24 00
        E 1 90 1a 00
        E 89 90 24 72
        E 30 90 24 00
        E 89 90 26 7f
        E 1 90 24 72
        E 3 90 1a 7f
        E 26 90 26 00
        E 1 90 24 00
        E 3 90 1a 00
        E 87 90 24 72
        E 30 90 24 00
        E 88 90 1a 41
        E 2 90 24 72
        E 28 90 1a 00
        E 2 90 24 00
        E 90 90 24 72
        E 30 90 24 00
        E 90 90 24 7f
        E 2 90 26 7f
        E 3 90 1a 7f
        E 25 90 24 00
        E 2 90 26 00
        E 3 90 1a 00
        E 85 90 24 72
        E 30 90 24 00
        E 90 90 24 72
        E 3 90 1a 41
        E 27 90 24 00
        E 3 90 1a 00
        E 87 90 24 72
        E 30 90 24 00
        E 90 90 24 72
        E 5 90 1a 7f
        E 0 90 26 7f
        E 25 90 24 00
        E 5 90 1a 00
        E 0 90 26 00
        E 85 90 24 72
        E 30 90 24 00
        E 87 90 1a 41
        E 3 90 24 72
        E 27 90 1a 00
        E 3 90 24 00
        E 90 90 24 72
        E 30 90 24 00
        E 90 90 24 7f
        E 3 90 1a 7f
        E 5 90 26 7f
        E 22 90 24 00
        E 3 90 1a 00
        E 5 90 26 00
        E 82 90 24 72
        E 30 90 24 00
        E 90 90 24 72
        E 2 90 1a 41
        E 28 90 24 00
        E 2 90 1a 00
        E 88 90 24 72
        E 30 90 24 00
        E 90 90 24 72
        E 3 90 26 7f
        E 2 90 1a 7f
        E 25 90 24 00
        E 3 90 26 00
        E 2 90 1a 00
        E 85 90 24 72
        E 30 90 24 00
        E 88 90 1a 42
        E 2 90 24 72
        E 28 90 1a 00
        E 2 90 24 00
        E 90 90 24 72
        E 30 90 24 00
        E 90 90 24 64
        E 0 90 1c 64
        E 240 90 24 00
        E 0 90 1c 00
        E 240 90 26 7f
        E 120 90 26 00
        E 0 90 26 7f
        E 120 90 26 00
        E 242 90 26 7f
        E 120 90 26 00
        E 0 90 26 7f
        E 120 90 26 00
        E 478 90 26 64
        E 120 90 26 00
        E 0 90 26 64
        E 120 90 26 00
        E 0 90 26 64
        E 240 90 26 00
        E 0 90 26 64
        E 120 90 26 00
        E 2 90 26 64
        E 118 90 26 64
        E 2 90 26 00
        E 118 90 26 00
        E 0 90 26 64
        E 120 90 26 00
        E 0 90 26 64
        E 120 90 26 00
        E 0 90 26 64
        E 120 90 26 00
        E 0 90 26 64
        E 120 90 26 00
        E 120 90 26 64
        E 120 90 26 00
        E 120 90 26 64
        E 120 90 26 00
        E 120 90 26 64
        E 120 90 26 00
        E 599 90 29 7f
        E 120 90 29 00
        E 0 90 29 7f
        E 120 90 29 00
        E 243 90 29 7f
        E 120 90 29 00
        E 0 90 29 7f
        E 120 90 29 00
        E 722 90 29 7f
        E 120 90 29 00
        E 0 90 29 7f
        E 120 90 29 00
        E 242 90 29 7f
        E 120 90 29 00
        E 0 90 29 7f
        E 120 90 29 00
        E 1194 90 24 64
        E 0 90 1a 64
        E 240 90 24 00
        E 0 90 1a 00
        E 240 90 1a 64
        E 240 90 1a 00
        E 240 90 1a 64
        E 240 90 1a 00
        E 240 90 26 64
        E 2 90 1a 64
        E 238 90 26 00
        E 2 90 1a 00
        E 240 90 1a 64
        E 240 90 1a 00
        E 238 90 24 64
        E 2 90 1a 64
        E 238 90 24 00
        E 0 90 24 64
        E 2 90 1a 00
        E 238 90 24 00
        E 0 90 1a 64
        E 0 90 24 64
        E 0 90 1a 64
        E 240 90 1a 00
        E 0 90 24 00
        E 0 90 1a 00
        E 240 90 1a 64
        E 240 90 1a 00
        E 240 90 1a 64
        E 240 90 1a 00
        E 240 90 26 64
        E 2 90 1a 64
        E 238 90 26 00
        E 2 90 1a 00
        E 238 90 24 64
        E 2 90 1a 64
        E 238 90 24 00
        E 2 90 1a 00
        E 240 90 1a 64
        E 238 90 24 64
        E 2 90 1a 00
        E 238 90 24 00
        E 0 90 1a 64
        E 0 90 24 64
        E 0 90 1a 64
        E 240 90 1a 00
        E 0 90 24 00
        E 0 90 1a 00
        E 240 90 1a 64
        E 240 90 1a 00
        E 240 90 1a 64
        E 240 90 1a 00
        E 240 90 26 64
        E 2 90 1a 64
        E 238 90 26 00
        E 2 90 1a 00
        E 240 90 1a 64
        E 240 90 1a 00
        E 238 90 24 64
        E 2 90 1a 64
        E 238 90 24 00
        E 0 90 24 64
        E 2 90 1a 00
        E 238 90 24 00
        E 0 90 1a 64
        E 0 90 24 64
        E 0 90 1a 64
        E 240 90 1a 00
        E 0 90 24 00
        E 0 90 1a 00
        E 240 90 1a 64
        E 240 90 1a 00
        E 240 90 1a 64
        E 240 90 1a 00
        E 240 90 26 64
        E 2 90 1a 64
        E 238 90 26 00
        E 2 90 1a 00
        E 238 90 24 64
        E 2 90 1a 64
        E 238 90 24 00
        E 2 90 1a 00
        E 240 90 1a 64
        E 238 90 24 64
        E 2 90 1a 00
        E 238 90 24 00
        E 0 90 1a 64
        E 0 90 24 64
        E 0 90 1a 64
        E 240 90 1a 00
        E 0 90 24 00
        E 0 90 1a 00
        E 240 90 1c 64
        E 240 90 1c 00
        E 240 90 1a 64
        E 240 90 1a 00
        E 240 90 26 64
        E 2 90 1c 64
        E 238 90 26 00
        E 2 90 1c 00
        E 240 90 1a 64
        E 240 90 1a 00
        E 238 90 24 64
        E 2 90 1c 64
        E 238 90 24 00
        E 0 90 24 64
        E 2 90 1c 00
        E 238 90 24 00
        E 0 90 1a 64
        E 0 90 24 64
        E 0 90 1a 64
        E 240 90 1a 00
        E 0 90 24 00
        E 0 90 1a 00
        E 240 90 1c 64
        E 240 90 1c 00
        E 240 90 1a 64
        E 240 90 1a 00
        E 240 90 26 64
        E 2 90 1c 64
        E 238 90 26 00
        E 2 90 1c 00
        E 238 90 24 64
        E 2 90 1a 64
        E 238 90 24 00
        E 2 90 1a 00
        E 240 90 1c 64
        E 238 90 24 64
        E 2 90 1c 00
        E 238 90 24 00
        E 0 90 1a 64
        E 0 90 24 64
        E 0 90 1a 64
        E 240 90 1a 00
        E 0 90 24 00
        E 0 90 1a 00
        E 240 90 1c 64
        E 240 90 1c 00
        E 240 90 1a 64
        E 240 90 1a 00
        E 240 90 26 64
        E 2 90 1c 64
        E 238 90 26 00
        E 2 90 1c 00
        E 240 90 1a 64
        E 240 90 1a 00
        E 238 90 24 64
        E 2 90 1c 64
        E 238 90 24 00
        E 0 90 24 64
        E 2 90 1c 00
        E 238 90 24 00
        E 0 90 1a 64
        E 0 90 24 64
        E 0 90 1a 64
        E 240 90 1a 00
        E 0 90 24 00
        E 0 90 1a 00
        E 240 90 1c 64
        E 240 90 1c 00
        E 240 90 1a 64
        E 240 90 1a 00
        E 240 90 26 64
        E 2 90 1c 64
        E 238 90 26 00
        E 2 90 1c 00
        E 238 90 24 64
        E 2 90 1a 64
        E 238 90 24 00
        E 2 90 1a 00
        E 240 90 1c 64
        E 238 90 24 64
        E 2 90 1c 00
        E 238 90 24 00
        E 0 90 1a 64
        E 0 90 24 64
        E 240 90 1a 00
        E 0 90 24 00
        E 1680 90 26 7f
        E 9 90 2a 7f
        E 51 90 26 00
        E 9 90 2a 00
        E 171 90 2a 2f
        E 0 90 24 7f
        E 60 90 2a 00
        E 0 90 24 00
        E 180 90 26 7f
        E 2 90 2a 7f
        E 58 90 26 00
        E 2 90 2a 00
        E 178 90 2a 2d
        E 60 90 2a 00
        E 180 90 26 7f
        E 2 90 2a 7f
        E 58 90 26 00
        E 2 90 2a 00
        E 178 90 2a 2d
        E 60 90 2a 00
        E 180 90 26 7f
        E 2 90 2a 7f
        E 58 90 26 00
        E 2 90 2a 00
        E 178 90 2a 30
        E 0 90 24 7f
        E 60 90 2a 00
        E 0 90 24 00
        E 180 90 26 7f
        E 9 90 2a 7f
        E 51 90 26 00
        E 9 90 2a 00
        E 171 90 2a 2f
        E 0 90 24 7f
        E 60 90 2a 00
        E 0 90 24 00
        E 180 90 26 7f
        E 2 90 2a 7f
        E 58 90 26 00
        E 2 90 2a 00
        E 178 90 2a 2d
        E 60 90 2a 00
        E 180 90 26 7f
        E 2 90 2a 7f
        E 58 90 26 00
        E 2 90 2a 00
        E 178 90 2a 2d
        E 60 90 2a 00
        E 180 90 26 7f
        E 2 90 2a 7f
        E 58 90 26 00
        E 2 90 2a 00
        E 178 90 2a 30
        E 0 90 24 7f
        E 60 90 2a 00
        E 0 90 24 00
        E 60 90 24 7f
        E 60 90 24 00
        E 60 90 26 7f
        E 9 90 2a 7f
        E 51 90 26 00
        E 9 90 2a 00
        E 171 90 2a 2f
        E 0 90 24 7f
        E 60 90 2a 00
        E 0 90 24 00
        E 180 90 26 7f
        E 2 90 2a 7f
        E 58 90 26 00
        E 2 90 2a 00
        E 178 90 2a 2d
        E 60 90 2a 00
        E 180 90 26 7f
        E 2 90 2a 7f
        E 58 90 26 00
        E 2 90 2a 00
        E 178 90 2a 2d
        E 60 90 2a 00
        E 180 90 26 7f
        E 2 90 2a 7f
        E 58 90 26 00
        E 2 90 2a 00
        E 178 90 2a 30
        E 0 90 24 7f
        E 60 90 2a 00
        E 0 90 24 00
        E 180 90 26 7f
        E 9 90 2a 7f
        E 51 90 26 00
        E 9 90 2a 00
        E 171 90 2a 2f
        E 0 90 24 7f
        E 60 90 2a 00
        E 0 90 24 00
        E 180 90 26 7f
        E 2 90 2a 7f
        E 58 90 26 00
        E 2 90 2a 00
        E 178 90 2a 2d
        E 60 90 2a 00
        E 180 90 26 7f
        E 2 90 2a 7f
        E 58 90 26 00
        E 2 90 2a 00
        E 178 90 2a 2d
        E 60 90 2a 00
        E 180 90 26 7f
        E 2 90 2a 7f
        E 58 90 26 00
        E 2 90 2a 00
        E 178 90 2a 30
        E 0 90 24 7f
        E 60 90 2a 00
        E 0 90 24 00
        E 60 90 24 7f
        E 60 90 24 00
        E 60 90 26 7f
        E 9 90 2a 7f
        E 51 90 26 00
        E 9 90 2a 00
        E 171 90 2a 2f
        E 0 90 24 7f
        E 60 90 2a 00
        E 0 90 24 00
        E 180 90 26 7f
        E 2 90 2a 7f
        E 58 90 26 00
        E 2 90 2a 00
        E 178 90 2a 2d
        E 60 90 2a 00
        E 180 90 26 7f
        E 2 90 2a 7f
        E 58 90 26 00
        E 2 90 2a 00
        E 178 90 2a 2d
        E 60 90 2a 00
        E 180 90 26 7f
        E 2 90 2a 7f
        E 58 90 26 00
        E 2 90 2a 00
        E 178 90 2a 30
        E 0 90 24 7f
        E 60 90 2a 00
        E 0 90 24 00
        E 180 90 26 7f
        E 9 90 2a 7f
        E 51 90 26 00
        E 9 90 2a 00
        E 171 90 2a 2f
        E 0 90 24 7f
        E 60 90 2a 00
        E 0 90 24 00
        E 180 90 26 7f
        E 2 90 2a 7f
        E 58 90 26 00
        E 2 90 2a 00
        E 178 90 2a 2d
        E 60 90 2a 00
        E 180 90 26 7f
        E 2 90 2a 7f
        E 58 90 26 00
        E 2 90 2a 00
        E 178 90 2a 2d
        E 60 90 2a 00
        E 180 90 26 7f
        E 2 90 2a 7f
        E 58 90 26 00
        E 2 90 2a 00
        E 178 90 2a 30
        E 0 90 24 7f
        E 60 90 2a 00
        E 0 90 24 00
        E 60 90 24 7f
        E 60 90 24 00
        E 60 90 26 7f
        E 9 90 2a 7f
        E 51 90 26 00
        E 9 90 2a 00
        E 171 90 2a 2f
        E 0 90 24 7f
        E 60 90 2a 00
        E 0 90 24 00
        E 180 90 26 7f
        E 2 90 2a 7f
        E 58 90 26 00
        E 2 90 2a 00
        E 178 90 2a 2d
        E 60 90 2a 00
        E 180 90 26 7f
        E 2 90 2a 7f
        E 58 90 26 00
        E 2 90 2a 00
        E 178 90 2a 2d
        E 60 90 2a 00
        E 180 90 26 7f
        E 2 90 2a 7f
        E 58 90 26 00
        E 2 90 2a 00
        E 178 90 2a 30
        E 0 90 24 7f
        E 60 90 2a 00
        E 0 90 24 00
        E 180 90 26 7f
        E 9 90 2a 7f
        E 51 90 26 00
        E 9 90 2a 00
        E 171 90 2a 2f
        E 0 90 24 7f
        E 60 90 2a 00
        E 0 90 24 00
        E 180 90 26 7f
        E 2 90 2a 7f
        E 58 90 26 00
        E 2 90 2a 00
        E 178 90 2a 2d
        E 60 90 2a 00
        E 180 90 26 7f
        E 2 90 2a 7f
        E 58 90 26 00
        E 2 90 2a 00
        E 178 90 2a 2d
        E 60 90 2a 00
        E 180 90 26 7f
        E 2 90 2a 7f
        E 58 90 26 00
        E 2 90 2a 00
        E 178 90 2a 30
        E 0 90 24 7f
        E 60 90 2a 00
        E 0 90 24 00
        E 60 90 24 7f
        E 60 90 24 00
        E 60 90 24 7f
        E 1 90 1b 7f
        E 2 90 2c 7f
        E 117 90 24 00
        E 82 90 1b 00
        E 56 90 2c 00
        E 223 90 1b 1a
        E 2 90 2c 71
        E 86 90 1b 00
        E 195 90 2c 00
        E 191 90 2c 7f
        E 5 90 26 7f
        E 3 90 1b 7f
        E 117 90 26 00
        E 65 90 1b 00
        E 101 90 2c 00
        E 187 90 2c 7f
        E 7 90 1b 15
        E 89 90 1b 00
        E 155 90 2c 00
        E 236 90 24 7f
        E 1 90 1b 7f
        E 2 90 2c 7f
        E 117 90 24 00
        E 82 90 1b 00
        E 56 90 2c 00
        E 223 90 1b 1a
        E 2 90 2c 71
        E 86 90 1b 00
        E 195 90 2c 00
        E 191 90 2c 7f
        E 5 90 26 7f
        E 3 90 1b 7f
        E 117 90 26 00
        E 65 90 1b 00
        E 101 90 2c 00
        E 187 90 2c 7f
        E 7 90 1b 15
        E 89 90 1b 00
        E 155 90 2c 00
        E 236 90 24 7f
        E 1 90 1b 7f
        E 2 90 2c 7f
        E 117 90 24 00
        E 82 90 1b 00
        E 56 90 2c 00
        E 223 90 1b 1a
        E 2 90 2c 71
        E 86 90 1b 00
        E 195 90 2c 00
        E 191 90 2c 7f
        E 5 90 26 7f
        E 3 90 1b 7f
        E 117 90 26 00
        E 65 90 1b 00
        E 101 90 2c 00
        E 187 90 2c 7f
        E 7 90 1b 15
        E 89 90 1b 00
        E 155 90 2c 00
        E 236 90 24 7f
        E 1 90 1b 7f
        E 2 90 2c 7f
        E 117 90 24 00
        E 82 90 1b 00
        E 56 90 2c 00
        E 223 90 1b 1a
        E 2 90 2c 71
        E 86 90 1b 00
        E 195 90 2c 00
        E 191 90 2c 7f
        E 5 90 26 7f
        E 3 90 1b 7f
        E 117 90 26 00
        E 65 90 1b 00
        E 101 90 2c 00
        E 187 90 2c 7f
        E 7 90 1b 15
        E 89 90 1b 00
        E 155 90 2c 00
        E 236 90 24 7f
        E 1 90 1b 7f
        E 2 90 2c 7f
        E 117 90 24 00
        E 82 90 1b 00
        E 56 90 2c 00
        E 223 90 1b 1a
        E 2 90 2c 71
        E 86 90 1b 00
        E 195 90 2c 00
        E 191 90 2c 7f
        E 5 90 26 7f
        E 3 90 1b 7f
        E 117 90 26 00
        E 65 90 1b 00
        E 101 90 2c 00
        E 187 90 2c 7f
        E 7 90 1b 15
        E 89 90 1b 00
        E 155 90 2c 00
        E 236 90 24 7f
        E 1 90 1b 7f
        E 2 90 2c 7f
        E 117 90 24 00
        E 82 90 1b 00
        E 56 90 2c 00
        E 223 90 1b 1a
        E 2 90 2c 71
        E 86 90 1b 00
        E 195 90 2c 00
        E 191 90 2c 7f
        E 5 90 26 7f
        E 3 90 1b 7f
        E 117 90 26 00
        E 65 90 1b 00
        E 101 90 2c 00
        E 187 90 2c 7f
        E 7 90 1b 15
        E 89 90 1b 00
        E 155 90 2c 00
        E 236 90 24 7f
        E 1 90 1b 7f
        E 2 90 2c 7f
        E 117 90 24 00
        E 82 90 1b 00
        E 56 90 2c 00
        E 223 90 1b 1a
        E 2 90 2c 71
        E 86 90 1b 00
        E 195 90 2c 00
        E 191 90 2c 7f
        E 5 90 26 7f
        E 3 90 1b 7f
        E 117 90 26 00
        E 65 90 1b 00
        E 101 90 2c 00
        E 187 90 2c 7f
        E 7 90 1b 15
        E 89 90 1b 00
        E 155 90 2c 00
        E 236 90 24 7f
        E 1 90 1b 7f
        E 2 90 2c 7f
        E 117 90 24 00
        E 82 90 1b 00
        E 56 90 2c 00
        E 223 90 1b 1a
        E 2 90 2c 71
        E 86 90 1b 00
        E 195 90 2c 00
        E 191 90 2c 7f
        E 5 90 26 7f
        E 3 90 1b 7f
        E 117 90 26 00
        E 65 90 1b 00
        E 101 90 2c 00
        E 187 90 2c 7f
        E 7 90 1b 15
        E 89 90 1b 00
        E 155 90 2c 00
        E 236 90 24 64
        E 0 90 1a 64
        E 240 90 24 00
        E 0 90 1a 00
        E 240 90 1a 64
        E 240 90 1a 00
        E 240 90 1a 64
        E 240 90 1a 00
        E 240 90 26 64
        E 2 90 1a 64
        E 238 90 26 00
        E 2 90 1a 00
        E 240 90 1a 64
        E 240 90 1a 00
        E 238 90 24 64
        E 2 90 1a 64
        E 238 90 24 00
        E 0 90 24 64
        E 2 90 1a 00
        E 238 90 24 00
        E 0 90 1a 64
        E 0 90 24 64
        E 0 90 1a 64
        E 240 90 1a 00
        E 0 90 24 00
        E 0 90 1a 00
        E 240 90 1a 64
        E 240 90 1a 00
        E 240 90 1a 64
        E 240 90 1a 00
        E 240 90 26 64
        E 2 90 1a 64
        E 238 90 26 00
        E 2 90 1a 00
        E 238 90 24 64
        E 2 90 1a 64
        E 238 90 24 00
        E 2 90 1a 00
        E 240 90 1a 64
        E 238 90 24 64
        E 2 90 1a 00
        E 238 90 24 00
        E 0 90 1a 64
        E 0 90 24 64
        E 0 90 1a 64
        E 240 90 1a 00
        E 0 90 24 00
        E 0 90 1a 00
        E 240 90 1a 64
        E 240 90 1a 00
        E 240 90 1a 64
        E 240 90 1a 00
        E 240 90 26 64
        E 2 90 1a 64
        E 238 90 26 00
        E 2 90 1a 00
        E 240 90 1a 64
        E 240 90 1a 00
        E 238 90 24 64
        E 2 90 1a 64
        E 238 90 24 00
        E 0 90 24 64
        E 2 90 1a 00
        E 238 90 24 00
        E 0 90 1a 64
        E 0 90 24 64
        E 0 90 1a 64
        E 240 90 1a 00
        E 0 90 24 00
        E 0 90 1a 00
        E 240 90 1a 64
        E 240 90 1a 00
        E 240 90 1a 64
        E 240 90 1a 00
        E 240 90 26 64
        E 2 90 1a 64
        E 238 90 26 00
        E 2 90 1a 00
        E 238 90 24 64
        E 2 90 1a 64
        E 238 90 24 00
        E 2 90 1a 00
        E 240 90 1a 64
        E 238 90 24 64
        E 2 90 1a 00
        E 238 90 24 00
        E 0 90 1a 64
        E 0 90 24 64
        E 0 90 1a 64
        E 240 90 1a 00
        E 0 90 24 00
        E 0 90 1a 00
        E 240 90 1c 64
        E 240 90 1c 00
        E 240 90 1a 64
        E 240 90 1a 00
        E 240 90 26 64
        E 2 90 1c 64
        E 238 90 26 00
        E 2 90 1c 00
        E 240 90 1a 64
        E 240 90 1a 00
        E 238 90 24 64
        E 2 90 1c 64
        E 238 90 24 00
        E 0 90 24 64
        E 2 90 1c 00
        E 238 90 24 00
        E 0 90 1a 64
        E 0 90 24 64
        E 0 90 1a 64
        E 240 90 1a 00
        E 0 90 24 00
        E 0 90 1a 00
        E 240 90 1c 64
        E 240 90 1c 00
        E 240 90 1a 64
        E 240 90 1a 00
        E 240 90 26 64
        E 2 90 1c 64
        E 238 90 26 00
        E 2 90 1c 00
        E 238 90 24 64
        E 2 90 1a 64
        E 238 90 24 00
        E 2 90 1a 00
        E 240 90 1c 64
        E 238 90 24 64
        E 2 90 1c 00
        E 238 90 24 00
        E 0 90 1a 64
        E 0 90 24 64
        E 0 90 1a 64
        E 240 90 1a 00
        E 0 90 24 00
        E 0 90 1a 00
        E 240 90 1c 64
        E 240 90 1c 00
        E 240 90 1a 64
        E 240 90 1a 00
        E 240 90 26 64
        E 2 90 1c 64
        E 238 90 26 00
        E 2 90 1c 00
        E 240 90 1a 64
        E 240 90 1a 00
        E 238 90 24 64
        E 2 90 1c 64
        E 238 90 24 00
        E 0 90 24 64
        E 2 90 1c 00
        E 238 90 24 00
        E 0 90 1a 64
        E 0 90 24 64
        E 0 90 1a 64
        E 240 90 1a 00
        E 0 90 24 00
        E 0 90 1a 00
        E 240 90 1c 64
        E 240 90 1c 00
        E 240 90 1a 64
        E 240 90 1a 00
        E 240 90 26 64
        E 2 90 1c 64
        E 238 90 26 00
        E 2 90 1c 00
        E 238 90 24 64
        E 2 90 1a 64
        E 238 90 24 00
        E 2 90 1a 00
        E 240 90 1c 64
        E 238 90 24 64
        E 2 90 1c 00
        E 238 90 24 00
        E 0 90 1a 64
        E 0 90 24 64
        E 0 90 1a 64
        E 240 90 1a 00
        E 0 90 24 00
        E 0 90 1a 00
        E 240 90 1a 64
        E 240 90 1a 00
        E 240 90 1a 64
        E 240 90 1a 00
        E 240 90 26 64
        E 2 90 1a 64
        E 238 90 26 00
        E 2 90 1a 00
        E 240 90 1a 64
        E 240 90 1a 00
        E 238 90 24 64
        E 2 90 1a 64
        E 238 90 24 00
        E 0 90 24 64
        E 2 90 1a 00
        E 238 90 24 00
        E 0 90 1a 64
        E 0 90 24 64
        E 0 90 1a 64
        E 240 90 1a 00
        E 0 90 24 00
        E 0 90 1a 00
        E 240 90 1a 64
        E 240 90 1a 00
        E 240 90 1a 64
        E 240 90 1a 00
        E 240 90 26 64
        E 2 90 1a 64
        E 238 90 26 00
        E 2 90 1a 00
        E 238 90 24 64
        E 2 90 1a 64
        E 238 90 24 00
        E 2 90 1a 00
        E 240 90 1a 64
        E 238 90 24 64
        E 2 90 1a 00
        E 238 90 24 00
        E 0 90 1a 64
        E 0 90 24 64
        E 0 90 1a 64
        E 240 90 1a 00
        E 0 90 24 00
        E 0 90 1a 00
        E 240 90 1a 64
        E 240 90 1a 00
        E 240 90 1a 64
        E 240 90 1a 00
        E 240 90 26 64
        E 2 90 1a 64
        E 238 90 26 00
        E 2 90 1a 00
        E 240 90 1a 64
        E 240 90 1a 00
        E 238 90 24 64
        E 2 90 1a 64
        E 238 90 24 00
        E 0 90 24 64
        E 2 90 1a 00
        E 238 90 24 00
        E 0 90 1a 64
        E 0 90 24 64
        E 0 90 1a 64
        E 240 90 1a 00
        E 0 90 24 00
        E 0 90 1a 00
        E 240 90 1a 64
        E 240 90 1a 00
        E 240 90 1a 64
        E 240 90 1a 00
        E 240 90 26 64
        E 2 90 1a 64
        E 238 90 26 00
        E 2 90 1a 00
        E 238 90 24 64
        E 2 90 1a 64
        E 238 90 24 00
        E 2 90 1a 00
        E 240 90 1a 64
        E 238 90 24 64
        E 2 90 1a 00
        E 238 90 24 00
        E 0 90 1a 64
        E 0 90 24 64
        E 0 90 1a 64
        E 240 90 1a 00
        E 0 90 24 00
        E 0 90 1a 00
        E 240 90 1c 64
        E 240 90 1c 00
        E 240 90 1a 64
        E 240 90 1a 00
        E 240 90 26 64
        E 2 90 1c 64
        E 238 90 26 00
        E 2 90 1c 00
        E 240 90 1a 64
        E 240 90 1a 00
        E 238 90 24 64
        E 2 90 1c 64
        E 238 90 24 00
        E 0 90 24 64
        E 2 90 1c 00
        E 238 90 24 00
        E 0 90 1a 64
        E 0 90 24 64
        E 0 90 1a 64
        E 240 90 1a 00
        E 0 90 24 00
        E 0 90 1a 00
        E 240 90 1c 64
        E 240 90 1c 00
        E 240 90 1a 64
        E 240 90 1a 00
        E 240 90 26 64
        E 2 90 1c 64
        E 238 90 26 00
        E 2 90 1c 00
        E 238 90 24 64
        E 2 90 1a 64
        E 238 90 24 00
        E 2 90 1a 00
        E 240 90 1c 64
        E 238 90 24 64
        E 2 90 1c 00
        E 238 90 24 00
        E 0 90 1a 64
        E 0 90 24 64
        E 0 90 1a 64
        E 240 90 1a 00
        E 0 90 24 00
        E 0 90 1a 00
        E 240 90 1c 64
        E 240 90 1c 00
        E 240 90 1a 64
        E 240 90 1a 00
        E 240 90 26 64
        E 2 90 1c 64
        E 238 90 26 00
        E 2 90 1c 00
        E 240 90 1a 64
        E 240 90 1a 00
        E 238 90 24 64
        E 2 90 1c 64
        E 238 90 24 00
        E 0 90 24 64
        E 2 90 1c 00
        E 238 90 24 00
        E 0 90 1a 64
        E 0 90 24 64
        E 0 90 1a 64
        E 240 90 1a 00
        E 0 90 24 00
        E 0 90 1a 00
        E 240 90 1c 64
        E 240 90 1c 00
        E 240 90 1a 64
        E 240 90 1a 00
        E 240 90 26 64
        E 2 90 1c 64
        E 238 90 26 00
        E 2 90 1c 00
        E 238 90 24 64
        E 2 90 1a 64
        E 238 90 24 00
        E 2 90 1a 00
        E 240 90 1c 64
        E 238 90 24 64
        E 2 90 1c 00
        E 238 90 24 00
        E 0 90 1a 64
        E 0 90 24 64
        E 240 90 1a 00
        E 0 90 24 00
        E 2640 90 24 7f
        E 2 90 55 7f
        E 4 90 2c 7f
        E 234 90 24 00
        E 164 90 55 00
        E 112 90 2c 00
        E 446 90 55 19
        E 4 90 2c 71
        E 172 90 55 00
        E 390 90 2c 00
        E 382 90 2c 7f
        E 16 90 55 7f
        E 364 90 55 00
        E 202 90 2c 00
        E 374 90 2c 7f
        E 14 90 55 15
        E 178 90 55 00
        E 310 90 2c 00
        E 472 90 26 7f
        E 2 90 55 7f
        E 4 90 2c 7f
        E 234 90 26 00
        E 164 90 55 00
        E 112 90 2c 00
        E 446 90 55 19
        E 4 90 2c 71
        E 172 90 55 00
        E 390 90 2c 00
        E 382 90 2c 7f
        E 16 90 55 7f
        E 364 90 55 00
        E 202 90 2c 00
        E 374 90 2c 7f
        E 14 90 55 15
        E 178 90 55 00
        E 310 90 2c 00
        E 472 90 24 7f
        E 2 90 55 7f
        E 4 90 2c 7f
        E 234 90 24 00
        E 164 90 55 00
        E 112 90 2c 00
        E 446 90 55 19
        E 4 90 2c 71
        E 172 90 55 00
        E 390 90 2c 00
        E 382 90 2c 7f
        E 16 90 55 7f
        E 364 90 55 00
        E 202 90 2c 00
        E 374 90 2c 7f
        E 14 90 55 15
        E 178 90 55 00
        E 310 90 2c 00
        E 472 90 26 7f
        E 2 90 55 7f
        E 4 90 2c 7f
        E 234 90 26 00
        E 164 90 55 00
        E 112 90 2c 00
        E 446 90 55 19
        E 4 90 2c 71
        E 172 90 55 00
        E 390 90 2c 00
        E 382 90 2c 7f
        E 16 90 55 7f
        E 364 90 55 00
        E 202 90 2c 00
        E 374 90 2c 7f
        E 14 90 55 15
        E 178 90 55 00
        E 310 90 2c 00
        E 472 90 24 7f
        E 2 90 55 7f
        E 4 90 2c 7f
        E 234 90 24 00
        E 164 90 55 00
        E 112 90 2c 00
        E 446 90 55 19
        E 4 90 2c 71
        E 172 90 55 00
        E 390 90 2c 00
        E 382 90 2c 7f
        E 16 90 55 7f
        E 364 90 55 00
        E 202 90 2c 00
        E 374 90 2c 7f
        E 14 90 55 15
        E 178 90 55 00
        E 310 90 2c 00
        E 472 90 26 7f
        E 2 90 55 7f
        E 4 90 2c 7f
        E 234 90 26 00
        E 164 90 55 00
        E 112 90 2c 00
        E 446 90 55 19
        E 4 90 2c 71
        E 172 90 55 00
        E 390 90 2c 00
        E 382 90 2c 7f
        E 16 90 55 7f
        E 364 90 55 00
        E 202 90 2c 00
        E 374 90 2c 7f
        E 14 90 55 15
        E 178 90 55 00
        E 310 90 2c 00
        E 472 90 24 7f
        E 2 90 55 7f
        E 4 90 2c 7f
        E 234 90 24 00
        E 164 90 55 00
        E 112 90 2c 00
        E 446 90 55 19
        E 4 90 2c 71
        E 172 90 55 00
        E 390 90 2c 00
        E 382 90 2c 7f
        E 16 90 55 7f
        E 364 90 55 00
        E 202 90 2c 00
        E 374 90 2c 7f
        E 14 90 55 15
        E 178 90 55 00
        E 310 90 2c 00
        E 472 90 18 19
        E 29 90 18 00
        E 216 90 18 6b
        E 41 90 18 00
        E 194 90 18 19
        E 0 90 24 7f
        E 120 90 18 00
        E 0 90 24 00
        E 0 90 24 7f
        E 120 90 24 00
        E 0 90 18 6b
        E 120 90 18 00
        E 120 90 18 19
        E 2 90 24 7f
        E 27 90 18 00
        E 93 90 24 00
        E 0 90 24 7f
        E 120 90 24 00
        E 3 90 18 6b
        E 41 90 18 00
        E 194 90 18 15
        E 35 90 18 00
        E 205 90 24 64
        E 7 90 18 7f
        E 43 90 18 00
        E 70 90 24 00
        E 0 90 24 64
        E 120 90 24 00
        E 0 90 24 64
        E 3 90 18 19
        E 29 90 18 00
        E 208 90 24 00
        E 0 90 24 64
        E 8 90 18 6b
        E 41 90 18 00
        E 71 90 24 00
        E 2 90 24 64
        E 118 90 24 64
        E 2 90 24 00
        E 1 90 18 19
        E 117 90 24 00
        E 0 90 24 64
        E 3 90 18 00
        E 117 90 24 00
        E 0 90 24 64
        E 3 90 18 6b
        E 117 90 24 00
        E 0 90 24 64
        E 3 90 18 00
        E 117 90 24 00
        E 0 90 24 64
        E 3 90 18 19
        E 29 90 18 00
        E 88 90 24 00
        E 120 90 24 64
        E 8 90 18 6b
        E 41 90 18 00
        E 71 90 24 00
        E 120 90 24 64
        E 3 90 18 15
        E 35 90 18 00
        E 82 90 24 00
        E 120 90 24 64
        E 10 90 18 7f
        E 43 90 18 00
        E 67 90 24 00
        E 120 90 18 19
        E 29 90 18 00
        E 216 90 18 6b
        E 41 90 18 00
        E 194 90 18 19
        E 0 90 24 7f
        E 120 90 18 00
        E 0 90 24 00
        E 0 90 24 7f
        E 120 90 24 00
        E 0 90 18 6b
        E 120 90 18 00
        E 120 90 18 19
        E 2 90 24 7f
        E 27 90 18 00
        E 93 90 24 00
        E 0 90 24 7f
        E 120 90 24 00
        E 3 90 18 6b
        E 41 90 18 00
        E 194 90 18 15
        E 35 90 18 00
        E 205 90 24 64
        E 7 90 18 7f
        E 43 90 18 00
        E 70 90 24 00
        E 0 90 24 64
        E 120 90 24 00
        E 0 90 24 64
        E 3 90 18 19
        E 29 90 18 00
        E 208 90 24 00
        E 0 90 24 64
        E 8 90 18 6b
        E 41 90 18 00
        E 71 90 24 00
        E 2 90 24 64
        E 118 90 24 64
        E 2 90 24 00
        E 1 90 18 19
        E 117 90 24 00
        E 0 90 24 64
        E 3 90 18 00
        E 117 90 24 00
        E 0 90 24 64
        E 3 90 18 6b
        E 117 90 24 00
        E 0 90 24 64
        E 3 90 18 00
        E 117 90 24 00
        E 0 90 24 64
        E 3 90 18 19
        E 29 90 18 00
        E 88 90 24 00
        E 120 90 24 64
        E 8 90 18 6b
        E 41 90 18 00
        E 71 90 24 00
        E 120 90 24 64
        E 3 90 18 15
        E 35 90 18 00
        E 82 90 24 00
        E 120 90 24 64
        E 10 90 18 7f
        E 43 90 18 00
        E 67 90 24 00
        E 120 90 1d 64
        E 240 90 1d 00
        E 240 90 24 7f
        E 4 90 1d 64
        E 116 90 24 00
        E 0 90 24 7f
        E 120 90 24 00
        E 4 90 1d 00
        E 237 90 1d 64
        E 1 90 24 7f
        E 120 90 24 00
        E 0 90 24 7f
        E 119 90 1d 00
        E 1 90 24 00
        E 242 90 1d 64
        E 240 90 1d 00
        E 237 90 1d 64
        E 240 90 1d 00
        E 244 90 1d 64
        E 240 90 1d 00
        E 237 90 1d 64
        E 240 90 1d 00
        E 244 90 1d 64
        E 240 90 1d 00
        E 234 90 1d 64
        E 240 90 1d 00
        E 240 90 24 7f
        E 4 90 1d 64
        E 116 90 24 00
        E 0 90 24 7f
        E 120 90 24 00
        E 4 90 1d 00
        E 237 90 1d 64
        E 1 90 24 7f
        E 120 90 24 00
        E 0 90 24 7f
        E 119 90 1d 00
        E 1 90 24 00
        E 238 90 24 7f
        E 4 90 1d 64
        E 116 90 24 00
        E 0 90 24 7f
        E 120 90 24 00
        E 4 90 1d 00
        E 237 90 1d 64
        E 1 90 24 7f
        E 120 90 24 00
        E 0 90 24 7f
        E 119 90 1d 00
        E 1 90 24 00
        E 1678 90 1d 64
        E 0 90 26 64
        E 0 90 23 64
        E 240 90 1d 00
        E 0 90 26 00
        E 0 90 23 00
        E 0 90 26 64
        E 240 90 26 00
        E 0 90 26 64
        E 0 90 23 64
        E 4 90 1d 64
        E 236 90 26 00
        E 0 90 23 00
        E 0 90 26 64
        E 4 90 1d 00
        E 236 90 26 00
        E 0 90 26 64
        E 0 90 23 64
        E 1 90 1d 64
        E 239 90 26 00
        E 0 90 23 00
        E 0 90 26 64
        E 1 90 1d 00
        E 239 90 26 00
        E 0 90 26 64
        E 0 90 23 64
        E 4 90 1d 64
        E 236 90 26 00
        E 0 90 23 00
        E 0 90 26 64
        E 4 90 1d 00
        E 236 90 26 00
        E 0 90 26 64
        E 0 90 23 64
        E 1 90 1d 64
        E 239 90 26 00
        E 0 90 23 00
        E 0 90 26 64
        E 1 90 1d 00
        E 239 90 26 00
        E 0 90 26 64
        E 0 90 23 64
        E 5 90 1d 64
        E 235 90 26 00
        E 0 90 23 00
        E 0 90 26 64
        E 5 90 1d 00
        E 235 90 26 00
        E 0 90 26 64
        E 0 90 23 64
        E 2 90 1d 64
        E 238 90 26 00
        E 0 90 23 00
        E 0 90 26 64
        E 2 90 1d 00
        E 238 90 26 00
        E 0 90 26 64
        E 0 90 23 64
        E 6 90 1d 64
        E 234 90 26 00
        E 0 90 23 00
        E 0 90 26 64
        E 6 90 1d 00
        E 234 90 26 00
        E 0 90 1d 64
        E 0 90 26 64
        E 0 90 23 64
        E 240 90 1d 00
        E 0 90 26 00
        E 0 90 23 00
        E 0 90 26 64
        E 240 90 26 00
        E 0 90 26 64
        E 0 90 23 64
        E 4 90 1d 64
        E 236 90 26 00
        E 0 90 23 00
        E 0 90 26 64
        E 4 90 1d 00
        E 236 90 26 00
        E 0 90 26 64
        E 0 90 23 64
        E 1 90 1d 64
        E 239 90 26 00
        E 0 90 23 00
        E 0 90 26 64
        E 1 90 1d 00
        E 239 90 26 00
        E 0 90 26 64
        E 0 90 23 64
        E 4 90 1d 64
        E 236 90 26 00
        E 0 90 23 00
        E 0 90 26 64
        E 4 90 1d 00
        E 236 90 26 00
        E 0 90 26 64
        E 0 90 23 64
        E 1 90 1d 64
        E 239 90 26 00
        E 0 90 23 00
        E 0 90 26 64
        E 1 90 1d 00
        E 239 90 26 00
        E 0 90 26 64
        E 0 90 23 64
        E 5 90 1d 64
        E 235 90 26 00
        E 0 90 23 00
        E 0 90 26 64
        E 5 90 1d 00
        E 235 90 26 00
        E 0 90 26 64
        E 0 90 23 64
        E 2 90 1d 64
        E 238 90 26 00
        E 0 90 23 00
        E 0 90 26 64
        E 2 90 1d 00
        E 238 90 26 00
        E 0 90 26 64
        E 0 90 23 64
        E 6 90 1d 64
        E 234 90 26 00
        E 0 90 23 00
        E 0 90 26 64
        E 6 90 1d 00
        E 234 90 26 00
        E 0 90 24 7f
        E 0 90 1d 64
        E 30 90 24 00
        E 89 90 1d 64
        E 1 90 1d 00
        E 0 90 24 72
        E 30 90 24 00
        E 89 90 1d 00
        E 1 90 24 72
        E 30 90 24 00
        E 90 90 24 72
        E 30 90 24 00
        E 90 90 24 72
        E 2 90 1d 64
        E 28 90 24 00
        E 90 90 24 72
        E 1 90 1d 64
        E 1 90 1d 00
        E 28 90 24 00
        E 90 90 24 72
        E 1 90 1d 00
        E 29 90 24 00
        E 90 90 24 72
        E 30 90 24 00
        E 90 90 1d 64
        E 0 90 24 7f
        E 30 90 24 00
        E 89 90 1d 64
        E 1 90 1d 00
        E 0 90 24 72
        E 30 90 24 00
        E 89 90 1d 00
        E 1 90 24 72
        E 30 90 24 00
        E 90 90 24 72
        E 30 90 24 00
        E 90 90 24 72
        E 2 90 1d 64
        E 28 90 24 00
        E 90 90 24 72
        E 1 90 1d 64
        E 1 90 1d 00
        E 28 90 24 00
        E 90 90 24 72
        E 1 90 1d 00
        E 29 90 24 00
        E 90 90 24 72
        E 30 90 24 00
        E 90 90 24 7f
        E 0 90 1d 64
        E 30 90 24 00
        E 89 90 1d 64
        E 1 90 24 72
        E 0 90 1d 00
        E 30 90 24 00
        E 89 90 1d 00
        E 1 90 24 72
        E 30 90 24 00
        E 90 90 24 72
        E 30 90 24 00
        E 90 90 24 72
        E 2 90 1d 64
        E 28 90 24 00
        E 90 90 24 72
        E 1 90 1d 64
        E 1 90 1d 00
        E 28 90 24 00
        E 90 90 24 72
        E 1 90 1d 00
        E 29 90 24 00
        E 90 90 24 72
        E 30 90 24 00
        E 90 90 24 7f
        E 1 90 1d 64
        E 29 90 24 00
        E 90 90 1d 64
        E 0 90 24 72
        E 1 90 1d 00
        E 29 90 24 00
        E 90 90 1d 00
        E 0 90 24 72
        E 30 90 24 00
        E 90 90 24 72
        E 30 90 24 00
        E 90 90 24 72
        E 3 90 1d 64
        E 27 90 24 00
        E 90 90 24 72
        E 2 90 1d 64
        E 1 90 1d 00
        E 27 90 24 00
        E 90 90 24 72
        E 2 90 1d 00
        E 28 90 24 00
        E 90 90 24 72
        E 30 90 24 00
        E 90 90 24 7f
        E 1 90 1d 64
        E 29 90 24 00
        E 90 90 24 72
        E 0 90 1d 64
        E 1 90 1d 00
        E 29 90 24 00
        E 90 90 24 72
        E 0 90 1d 00
        E 30 90 24 00
        E 90 90 24 72
        E 30 90 24 00
        E 90 90 24 72
        E 3 90 1d 64
        E 27 90 24 00
        E 90 90 24 72
        E 2 90 1d 64
        E 1 90 1d 00
        E 27 90 24 00
        E 90 90 24 72
        E 2 90 1d 00
        E 28 90 24 00
        E 90 90 24 72
        E 30 90 24 00
        E 90 90 1d 64
        E 0 90 24 7f
        E 30 90 24 00
        E 89 90 1d 64
        E 1 90 1d 00
        E 0 90 24 72
        E 30 90 24 00
        E 89 90 1d 00
        E 1 90 24 72
        E 30 90 24 00
        E 90 90 24 72
        E 30 90 24 00
        E 90 90 24 72
        E 1 90 1d 64
        E 29 90 24 00
        E 90 90 24 72
        E 0 90 1d 64
        E 1 90 1d 00
        E 29 90 24 00
        E 90 90 24 72
        E 0 90 1d 00
        E 30 90 24 00
        E 90 90 24 72
        E 30 90 24 00
        E 90 90 24 7f
        E 0 90 1d 64
        E 30 90 24 00
        E 89 90 1d 64
        E 1 90 1d 00
        E 0 90 24 72
        E 30 90 24 00
        E 89 90 1d 00
        E 1 90 24 72
        E 30 90 24 00
        E 90 90 24 72
        E 30 90 24 00
        E 90 90 24 72
        E 2 90 1d 64
        E 28 90 24 00
        E 90 90 24 72
        E 1 90 1d 64
        E 1 90 1d 00
        E 28 90 24 00
        E 90 90 24 72
        E 1 90 1d 00
        E 29 90 24 00
        E 90 90 24 72
        E 30 90 24 00
        E 90 90 24 7f
        E 0 90 1d 64
        E 30 90 24 00
        E 89 90 1d 64
        E 1 90 1d 00
        E 0 90 24 72
        E 30 90 24 00
        E 89 90 1d 00
        E 1 90 24 72
        E 30 90 24 00
        E 90 90 24 72
        E 30 90 24 00
        E 90 90 24 72
        E 2 90 1d 64
        E 28 90 24 00
        E 90 90 24 72
        E 1 90 1d 64
        E 1 90 1d 00
        E 28 90 24 00
        E 90 90 24 72
        E 1 90 1d 00
        E 29 90 24 00
        E 90 90 24 72
        E 30 90 24 00
        E 2970 90 24 64
        E 0 90 1c 64
        E 240 90 24 00
        E 0 90 1c 00
        E 240 90 1c 64
        E 240 90 1c 00
        E 240 90 1c 64
        E 240 90 1c 00
        E 240 90 26 64
        E 2 90 1c 64
        E 238 90 26 00
        E 2 90 1c 00
        E 240 90 1c 64
        E 240 90 1c 00
        E 238 90 24 64
        E 2 90 1c 64
        E 238 90 24 00
        E 0 90 24 64
        E 2 90 1c 00
        E 238 90 24 00
        E 0 90 1a 64
        E 0 90 24 64
        E 0 90 1a 64
        E 240 90 1a 00
        E 0 90 24 00
        E 0 90 1a 00
        E 240 90 1a 64
        E 240 90 1a 00
        E 240 90 1a 64
        E 240 90 1a 00
        E 240 90 26 64
        E 2 90 1a 64
        E 238 90 26 00
        E 2 90 1a 00
        E 238 90 24 64
        E 2 90 1a 64
        E 238 90 24 00
        E 2 90 1a 00
        E 240 90 1a 64
        E 238 90 24 64
        E 2 90 1a 00
        E 238 90 24 00
        E 0 90 1a 64
        E 0 90 24 64
        E 0 90 1c 64
        E 240 90 1a 00
        E 0 90 24 00
        E 0 90 1c 00
        E 240 90 1c 64
        E 240 90 1c 00
        E 240 90 1c 64
        E 240 90 1c 00
        E 240 90 26 64
        E 2 90 1c 64
        E 238 90 26 00
        E 2 90 1c 00
        E 240 90 1c 64
        E 240 90 1c 00
        E 238 90 24 64
        E 2 90 1c 64
        E 238 90 24 00
        E 0 90 24 64
        E 2 90 1c 00
        E 238 90 24 00
        E 0 90 1a 64
        E 0 90 24 64
        E 0 90 1a 64
        E 240 90 1a 00
        E 0 90 24 00
        E 0 90 1a 00
        E 240 90 1a 64
        E 240 90 1a 00
        E 240 90 1a 64
        E 240 90 1a 00
        E 240 90 26 64
        E 2 90 1a 64
        E 238 90 26 00
        E 2 90 1a 00
        E 238 90 24 64
        E 2 90 1a 64
        E 238 90 24 00
        E 2 90 1a 00
        E 240 90 1a 64
        E 238 90 24 64
        E 2 90 1a 00
        E 238 90 24 00
        E 0 90 1a 64
        E 0 90 24 64
        E 0 90 1c 64
        E 240 90 1a 00
        E 0 90 24 00
        E 0 90 1c 00
        E 240 90 1c 64
        E 240 90 1c 00
        E 240 90 1c 64
        E 240 90 1c 00
        E 240 90 26 64
        E 2 90 1c 64
        E 238 90 26 00
        E 2 90 1c 00
        E 240 90 1c 64
        E 240 90 1c 00
        E 238 90 24 64
        E 2 90 1c 64
        E 238 90 24 00
        E 0 90 24 64
        E 2 90 1c 00
        E 238 90 24 00
        E 0 90 1a 64
        E 0 90 24 64
        E 0 90 1a 64
        E 240 90 1a 00
        E 0 90 24 00
        E 0 90 1a 00
        E 240 90 1a 64
        E 240 90 1a 00
        E 240 90 1a 64
        E 240 90 1a 00
        E 240 90 26 64
        E 2 90 1a 64
        E 238 90 26 00
        E 2 90 1a 00
        E 238 90 24 64
        E 2 90 1a 64
        E 238 90 24 00
        E 2 90 1a 00
        E 240 90 1a 64
        E 238 90 24 64
        E 2 90 1a 00
        E 238 90 24 00
        E 0 90 1a 64
        E 0 90 24 64
        E 0 90 1c 64
        E 240 90 1a 00
        E 0 90 24 00
        E 0 90 1c 00
        E 240 90 1c 64
        E 240 90 1c 00
        E 240 90 1c 64
        E 240 90 1c 00
        E 240 90 26 64
        E 2 90 1c 64
        E 238 90 26 00
        E 2 90 1c 00
        E 240 90 1c 64
        E 240 90 1c 00
        E 238 90 24 64
        E 2 90 1c 64
        E 238 90 24 00
        E 0 90 24 64
        E 2 90 1c 00
        E 238 90 24 00
        E 0 90 1a 64
        E 0 90 24 64
        E 0 90 1a 64
        E 240 90 1a 00
        E 0 90 24 00
        E 0 90 1a 00
        E 240 90 1a 64
        E 240 90 1a 00
        E 240 90 1a 64
        E 240 90 1a 00
        E 240 90 26 64
        E 2 90 1a 64
        E 238 90 26 00
        E 2 90 1a 00
        E 238 90 24 64
        E 2 90 1a 64
        E 238 90 24 00
        E 2 90 1a 00
        E 240 90 1a 64
        E 238 90 24 64
        E 2 90 1a 00
        E 238 90 24 00
        E 0 90 1a 64
        E 0 90 24 64
        E 0 90 1c 64
        E 240 90 1a 00
        E 0 90 24 00
        E 0 90 1c 00
        E 240 90 1c 64
        E 240 90 1c 00
        E 240 90 1c 64
        E 240 90 1c 00
        E 240 90 26 64
        E 2 90 1c 64
        E 238 90 26 00
        E 2 90 1c 00
        E 240 90 1c 64
        E 240 90 1c 00
        E 238 90 24 64
        E 2 90 1c 64
        E 238 90 24 00
        E 0 90 24 64
        E 2 90 1c 00
        E 238 90 24 00
        E 0 90 1a 64
        E 0 90 24 64
        E 0 90 1a 64
        E 240 90 1a 00
        E 0 90 24 00
        E 0 90 1a 00
        E 240 90 1a 64
        E 240 90 1a 00
        E 240 90 1a 64
        E 240 90 1a 00
        E 240 90 26 64
        E 2 90 1a 64
        E 238 90 26 00
        E 2 90 1a 00
        E 238 90 24 64
        E 2 90 1a 64
        E 238 90 24 00
        E 2 90 1a 00
        E 240 90 1a 64
        E 238 90 24 64
        E 2 90 1a 00
        E 238 90 24 00
        E 0 90 1a 64
        E 0 90 24 64
        E 0 90 1c 64
        E 240 90 1a 00
        E 0 90 24 00
        E 0 90 1c 00
        E 240 90 1c 64
        E 240 90 1c 00
        E 240 90 1c 64
        E 240 90 1c 00
        E 240 90 26 64
        E 2 90 1c 64
        E 238 90 26 00
        E 2 90 1c 00
        E 240 90 1c 64
        E 240 90 1c 00
        E 238 90 24 64
        E 2 90 1c 64
        E 238 90 24 00
        E 0 90 24 64
        E 2 90 1c 00
        E 238 90 24 00
        E 0 90 1a 64
        E 0 90 24 64
        E 0 90 1a 64
        E 240 90 1a 00
        E 0 90 24 00
        E 0 90 1a 00
        E 240 90 1a 64
        E 240 90 1a 00
        E 240 90 1a 64
        E 240 90 1a 00
        E 240 90 26 64
        E 2 90 1a 64
        E 238 90 26 00
        E 2 90 1a 00
        E 238 90 24 64
        E 2 90 1a 64
        E 238 90 24 00
        E 2 90 1a 00
        E 240 90 1a 64
        E 238 90 24 64
        E 2 90 1a 00
        E 238 90 24 00
        E 0 90 1a 64
        E 0 90 24 64
        E 0 90 1c 64
        E 240 90 1a 00
        E 0 90 24 00
        E 0 90 1c 00
        E 240 90 1c 64
        E 240 90 1c 00
        E 240 90 1c 64
        E 240 90 1c 00
        E 240 90 26 64
        E 2 90 1c 64
        E 238 90 26 00
        E 2 90 1c 00
        E 240 90 1c 64
        E 240 90 1c 00
        E 238 90 24 64
        E 2 90 1c 64
        E 238 90 24 00
        E 0 90 24 64
        E 2 90 1c 00
        E 238 90 24 00
        E 0 90 1a 64
        E 0 90 24 64
        E 0 90 1a 64
        E 240 90 1a 00
        E 0 90 24 00
        E 0 90 1a 00
        E 240 90 1a 64
        E 240 90 1a 00
        E 240 90 1a 64
        E 240 90 1a 00
        E 240 90 26 64
        E 2 90 1a 64
        E 238 90 26 00
        E 2 90 1a 00
        E 238 90 24 64
        E 2 90 1a 64
        E 238 90 24 00
        E 2 90 1a 00
        E 240 90 1a 64
        E 238 90 24 64
        E 2 90 1a 00
        E 238 90 24 00
        E 0 90 1a 64
        E 0 90 24 64
        E 0 90 1c 64
        E 240 90 1a 00
        E 0 90 24 00
        E 0 90 1c 00
        E 240 90 1c 64
        E 240 90 1c 00
        E 240 90 1c 64
        E 240 90 1c 00
        E 240 90 26 64
        E 2 90 1c 64
        E 238 90 26 00
        E 2 90 1c 00
        E 240 90 1c 64
        E 240 90 1c 00
        E 238 90 24 64
        E 2 90 1c 64
        E 238 90 24 00
        E 0 90 24 64
        E 2 90 1c 00
        E 238 90 24 00
        E 0 90 1a 64
        E 0 90 24 64
        E 0 90 1a 64
        E 240 90 1a 00
        E 0 90 24 00
        E 0 90 1a 00
        E 240 90 1a 64
        E 240 90 1a 00
        E 240 90 1a 64
        E 240 90 1a 00
        E 240 90 26 64
        E 2 90 1a 64
        E 238 90 26 00
        E 2 90 1a 00
        E 238 90 24 64
        E 2 90 1a 64
        E 238 90 24 00
        E 2 90 1a 00
        E 240 90 1a 64
        E 238 90 24 64
        E 2 90 1a 00
        E 238 90 24 00
        E 0 90 1a 64
        E 0 90 24 64
        E 0 90 1c 64
        E 240 90 1a 00
        E 0 90 24 00
        E 0 90 1c 00
        E 240 90 1c 64
        E 240 90 1c 00
        E 240 90 1c 64
        E 240 90 1c 00
        E 240 90 26 64
        E 2 90 1c 64
        E 238 90 26 00
        E 2 90 1c 00
        E 240 90 1c 64
        E 240 90 1c 00
        E 238 90 24 64
        E 2 90 1c 64
        E 238 90 24 00
        E 0 90 24 64
        E 2 90 1c 00
        E 238 90 24 00
        E 0 90 1a 64
        E 0 90 24 64
        E 0 90 1a 64
        E 240 90 1a 00
        E 0 90 24 00
        E 0 90 1a 00
        E 240 90 1a 64
        E 240 90 1a 00
        E 240 90 1a 64
        E 240 90 1a 00
        E 240 90 26 64
        E 2 90 1a 64
        E 238 90 26 00
        E 2 90 1a 00
        E 238 90 24 64
        E 2 90 1a 64
        E 238 90 24 00
        E 2 90 1a 00
        E 240 90 1a 64
        E 238 90 24 64
        E 2 90 1a 00
        E 238 90 24 00
        E 0 90 1a 64
        E 0 90 24 64
        E 0 90 1c 64
        E 240 90 1a 00
        E 0 90 24 00
        E 0 90 1c 00
        E 240 90 1c 64
        E 240 90 1c 00
        E 240 90 1c 64
        E 240 90 1c 00
        E 240 90 26 64
        E 2 90 1c 64
        E 238 90 26 00
        E 2 90 1c 00
        E 240 90 1c 64
        E 240 90 1c 00
        E 238 90 24 64
        E 2 90 1c 64
        E 238 90 24 00
        E 0 90 24 64
        E 2 90 1c 00
        E 238 90 24 00
        E 0 90 1a 64
        E 0 90 24 64
        E 0 90 1a 64
        E 240 90 1a 00
        E 0 90 24 00
        E 0 90 1a 00
        E 240 90 1a 64
        E 240 90 1a 00
        E 240 90 1a 64
        E 240 90 1a 00
        E 240 90 26 64
        E 2 90 1a 64
        E 238 90 26 00
        E 2 90 1a 00
        E 238 90 24 64
        E 2 90 1a 64
        E 238 90 24 00
        E 2 90 1a 00
        E 240 90 1a 64
        E 238 90 24 64
        E 2 90 1a 00
        E 238 90 24 00
        E 0 90 1a 64
        E 0 90 24 64
        E 0 90 1c 64
        E 240 90 1a 00
        E 0 90 24 00
        E 0 90 1c 00
        E 240 90 1c 64
        E 240 90 1c 00
        E 240 90 1c 64
        E 240 90 1c 00
        E 240 90 26 64
        E 2 90 1c 64
        E 238 90 26 00
        E 2 90 1c 00
        E 240 90 1c 64
        E 240 90 1c 00
        E 238 90 24 64
        E 2 90 1c 64
        E 238 90 24 00
        E 0 90 24 64
        E 2 90 1c 00
        E 238 90 24 00
        E 0 90 1a 64
        E 0 90 24 64
        E 0 90 1a 64
        E 240 90 1a 00
        E 0 90 24 00
        E 0 90 1a 00
        E 240 90 1a 64
        E 240 90 1a 00
        E 240 90 1a 64
        E 240 90 1a 00
        E 240 90 26 64
        E 2 90 1a 64
        E 238 90 26 00
        E 2 90 1a 00
        E 238 90 24 64
        E 2 90 1a 64
        E 238 90 24 00
        E 2 90 1a 00
        E 240 90 1a 64
        E 238 90 24 64
        E 2 90 1a 00
        E 238 90 24 00
        E 0 90 1a 64
        E 0 90 24 64
        E 0 90 1c 64
        E 240 90 1a 00
        E 0 90 24 00
        E 0 90 1c 00
        E 240 90 1c 64
        E 240 90 1c 00
        E 240 90 1c 64
        E 240 90 1c 00
        E 240 90 26 64
        E 2 90 1c 64
        E 238 90 26 00
        E 2 90 1c 00
        E 240 90 1c 64
        E 240 90 1c 00
        E 238 90 24 64
        E 2 90 1c 64
        E 238 90 24 00
        E 0 90 24 64
        E 2 90 1c 00
        E 238 90 24 00
        E 0 90 1a 64
        E 0 90 24 64
        E 0 90 1a 64
        E 240 90 1a 00
        E 0 90 24 00
        E 0 90 1a 00
        E 240 90 1a 64
        E 240 90 1a 00
        E 240 90 1a 64
        E 240 90 1a 00
        E 240 90 26 64
        E 2 90 1a 64
        E 238 90 26 00
        E 2 90 1a 00
        E 238 90 24 64
        E 2 90 1a 64
        E 238 90 24 00
        E 2 90 1a 00
        E 240 90 1a 64
        E 238 90 24 64
        E 2 90 1a 00
        E 238 90 24 00
        E 0 90 1a 64
        E 0 90 24 64
        E 0 90 24 7f
        E 0 90 1d 64
        E 30 90 24 00
        E 89 90 1d 64
        E 1 90 1d 00
        E 0 90 24 72
        E 30 90 24 00
        E 89 90 1d 00
        E 1 90 1a 00
        E 0 90 24 00
        E 0 90 24 72
        E 0 90 20 64
        E 0 90 1f 64
        E 0 90 1a 64
        E 30 90 24 00
        E 90 90 24 72
        E 30 90 24 00
        E 90 90 20 00
        E 0 90 1f 00
        E 0 90 1a 00
        E 0 90 24 72
        E 0 90 1a 64
        E 2 90 1d 64
        E 28 90 24 00
        E 90 90 24 72
        E 1 90 1d 64
        E 1 90 1d 00
        E 28 90 24 00
        E 90 90 1a 00
        E 0 90 24 72
        E 0 90 1b 64
        E 0 90 1a 64
        E 1 90 1d 00
        E 29 90 24 00
        E 90 90 24 72
        E 30 90 24 00
        E 90 90 1d 64
        E 0 90 1b 00
        E 0 90 1a 00
        E 0 90 24 7f
        E 0 90 1a 64
        E 30 90 24 00
        E 89 90 1d 64
        E 1 90 1d 00
        E 0 90 24 72
        E 30 90 24 00
        E 89 90 1d 00
        E 1 90 1a 00
        E 0 90 24 72
        E 0 90 19 64
        E 30 90 24 00
        E 90 90 24 72
        E 30 90 24 00
        E 90 90 19 00
        E 0 90 24 72
        E 0 90 1a 64
        E 2 90 1d 64
        E 28 90 24 00
        E 90 90 24 72
        E 1 90 1d 64
        E 1 90 1d 00
        E 28 90 24 00
        E 90 90 1a 00
        E 0 90 24 72
        E 0 90 1a 64
        E 1 90 1d 00
        E 29 90 24 00
        E 90 90 24 72
        E 30 90 24 00
        E 90 90 1a 00
        E 0 90 24 7f
        E 0 90 1a 64
        E 0 90 1d 64
        E 30 90 24 00
        E 89 90 1d 64
        E 1 90 24 72
        E 0 90 1d 00
        E 30 90 24 00
        E 89 90 1d 00
        E 1 90 1a 00
        E 0 90 24 72
        E 0 90 1a 64
        E 30 90 24 00
        E 90 90 24 72
        E 30 90 24 00
        E 90 90 1a 00
        E 0 90 24 72
        E 0 90 1a 64
        E 2 90 1d 64
        E 28 90 24 00
        E 90 90 24 72
        E 1 90 1d 64
        E 1 90 1d 00
        E 28 90 24 00
        E 90 90 1a 00
        E 0 90 24 72
        E 0 90 1a 64
        E 1 90 1d 00
        E 29 90 24 00
        E 90 90 24 72
        E 30 90 24 00
        E 90 90 1a 00
        E 0 90 24 7f
        E 1 90 1d 64
        E 29 90 24 00
        E 90 90 1d 64
        E 0 90 24 72
        E 1 90 1d 00
        E 29 90 24 00
        E 90 90 1d 00
        E 0 90 24 72
        E 0 90 1a 64
        E 30 90 24 00
        E 90 90 24 72
        E 30 90 24 00
        E 90 90 1a 00
        E 0 90 24 72
        E 3 90 1d 64
        E 27 90 24 00
        E 90 90 24 72
        E 2 90 1d 64
        E 1 90 1d 00
        E 27 90 24 00
        E 90 90 24 72
        E 0 90 1a 64
        E 2 90 1d 00
        E 28 90 24 00
        E 90 90 24 72
        E 30 90 24 00
        E 90 90 1a 00
        E 0 90 24 7f
        E 0 90 19 64
        E 1 90 1d 64
        E 29 90 24 00
        E 90 90 24 72
        E 0 90 1d 64
        E 1 90 1d 00
        E 29 90 24 00
        E 90 90 19 00
        E 0 90 24 72
        E 0 90 18 64
        E 0 90 1d 00
        E 30 90 24 00
        E 90 90 24 72
        E 30 90 24 00
        E 90 90 18 00
        E 0 90 24 72
        E 0 90 19 64
        E 3 90 1d 64
        E 27 90 24 00
        E 90 90 24 72
        E 2 90 1d 64
        E 1 90 1d 00
        E 27 90 24 00
        E 90 90 19 00
        E 0 90 24 72
        E 0 90 1a 64
        E 2 90 1d 00
        E 28 90 24 00
        E 90 90 24 72
        E 30 90 24 00
        E 90 90 1d 64
        E 0 90 1a 00
        E 0 90 24 7f
        E 30 90 24 00
        E 89 90 1d 64
        E 1 90 1d 00
        E 0 90 24 72
        E 30 90 24 00
        E 89 90 1d 00
        E 1 90 24 72
        E 30 90 24 00
        E 90 90 24 72
        E 30 90 24 00
        E 90 90 24 72
        E 0 90 18 64
        E 1 90 1d 64
        E 29 90 24 00
        E 90 90 24 72
        E 0 90 1d 64
        E 1 90 1d 00
        E 29 90 24 00
        E 90 90 18 00
        E 0 90 24 72
        E 0 90 1a 64
        E 0 90 1d 00
        E 30 90 24 00
        E 90 90 24 72
        E 30 90 24 00
        E 90 80 1a 00
        E 0 b0 7b 00
        GUID {4F9155F5-348F-194B-A0BC-2FC55D648B06}
        IGNTEMPO 0 120.00000000 4 4
        SRCCOLOR 140
        VELLANE -1 100 0
      >
    >
  >
  <TRACK '{D51C7B35-B46F-5443-AE68-9E9F14C90252}'
    NAME "Drums (real)"
    PEAKCOL 16576
    BEAT -1
    AUTOMODE 0
    VOLPAN 1.00000000000000 0.00000000000000 -1.00000000000000 -1.00000000000000 1.00000000000000
    MUTESOLO 0 0 0
    IPHASE 0
    ISBUS 0 0
    BUSCOMP 0 0
    SHOWINMIX 1 0.666700 0.500000 1 0.500000 -1 -1 -1
    FREEMODE 0
    SEL 0
    REC 0 0 0 0 0 0 0
    VU 2
    TRACKHEIGHT 0 0
    INQ 0 0 0 0.5000000000 100 0 0 100
    NCHAN 2
    FX 1
    TRACKID {D51C7B35-B46F-5443-AE68-9E9F14C90252}
    PERF 0
    MIDIOUT -1
    MAINSEND 1 0
    <ITEM
      POSITION 0.00000000000000
      SNAPOFFS 0.00000000000000
      LENGTH 246.52147392290249
      LOOP 1
      ALLTAKES 0
      SEL 0
      FADEIN 1 0.010000 0.000000 1 0
      FADEOUT 1 0.010000 0.000000 1 0
      MUTE 0
      IGUID {0366417B-7FE3-A04A-B9EA-2E31607C642B}
      IID 1
      NAME "Mantrain drums.wav"
      VOLPAN 1.000000 0.000000 1.000000 -1.000000
      SOFFS 0.00000000000000
      PLAYRATE 1.00000000000000 1 0.00000000000000 -1
      CHANMODE 0
      GUID {46A744F5-5C4E-714C-8C47-BF1B081D817F}
      <SOURCE WAVE
        FILE "/Users/jaarnial/Desktop/Embreach - Space Odyssey 2012/drum bounces/Mantrain drums.wav"
      >
    >
  >
  <TRACK '{9BAE5309-AB29-2449-AC97-ED188C9AF186}'
    NAME "Bass"
    PEAKCOL 16576
    BEAT -1
    AUTOMODE 0
    VOLPAN 1.00000000000000 0.00000000000000 -1.00000000000000 -1.00000000000000 1.00000000000000
    MUTESOLO 0 0 0
    IPHASE 0
    ISBUS 0 0
    BUSCOMP 0 0
    SHOWINMIX 1 0.666700 0.500000 1 0.500000 -1 -1 -1
    FREEMODE 0
    SEL 1
    REC 0 0 1 0 0 0 0
    VU 2
    TRACKHEIGHT 0 0
    INQ 0 0 0 0.5000000000 100 0 0 100
    NCHAN 2
    FX 1
    TRACKID {9BAE5309-AB29-2449-AC97-ED188C9AF186}
    PERF 0
    MIDIOUT -1
    MAINSEND 1 0
    <ITEM
      POSITION 2.54398259658518
      SNAPOFFS 0.00000000000000
      LENGTH 15.62251867682704
      LOOP 1
      ALLTAKES 0
      SEL 0
      FADEIN 1 0.033940 0.000000 1 0
      FADEOUT 1 0.010000 0.004365 1 1
      MUTE 0
      IGUID {8FD26718-3CF0-2640-AC0F-E0C39D09CCD5}
      IID 13571
      NAME "04-DI-120411_1636-01.wav"
      VOLPAN 1.000000 0.000000 1.000000 -1.000000
      SOFFS 2.50476057184078
      PLAYRATE 1.00000000000000 1 0.00000000000000 -1
      CHANMODE 0
      GUID {46B9C78D-1949-4146-9E10-F1FFA99F2429}
      RECPASS 4809
      <SOURCE WAVE
        FILE "../media/04-DI-120411_1636-01.wav"
      >
    >
    <ITEM
      POSITION 18.16213646449614
      SNAPOFFS 0.00000000000000
      LENGTH 0.86743271164781
      LOOP 0
      ALLTAKES 0
      SEL 0
      FADEIN 1 0.010000 0.004365 1 1
      FADEOUT 1 0.024769 0.000000 1 0
      MUTE 0
      IGUID {09A2D88C-6E7F-C24A-A62E-803C8FB6A7B5}
      IID 13516
      NAME "04-DI-120411_1614.wav"
      VOLPAN 1.000000 0.000000 1.000000 -1.000000
      SOFFS 24.32431250000148
      PLAYRATE 1.00000000000000 1 0.00000000000000 -1
      CHANMODE 0
      GUID {BFCA2CAD-971C-6A4E-97C8-CA5CBE677387}
      RECPASS 4729
      <SOURCE WAVE
        FILE "../media/04-DI-120411_1614.wav"
      >
    >
    <ITEM
      POSITION 19.25602741847813
      SNAPOFFS 0.00000000000000
      LENGTH 2.33888903410769
      LOOP 0
      ALLTAKES 0
      SEL 0
      FADEIN 1 0.031846 0.000000 1 0
      FADEOUT 1 0.029015 0.000000 1 0
      MUTE 0
      IGUID {28654237-15A8-004C-9C5D-2863602C5592}
      IID 13516
      NAME "04-DI-120411_1614.wav"
      VOLPAN 1.000000 0.000000 1.000000 -1.000000
      SOFFS 25.41820345398347
      PLAYRATE 1.00000000000000 1 0.00000000000000 -1
      CHANMODE 0
      GUID {E440FCC7-C9A0-924F-A033-A8B9A6158A27}
      RECPASS 4729
      <SOURCE WAVE
        FILE "../media/04-DI-120411_1614.wav"
      >
    >
    <ITEM
      POSITION 21.83375913004765
      SNAPOFFS 0.00000000000000
      LENGTH 2.44447230227851
      LOOP 0
      ALLTAKES 0
      SEL 0
      FADEIN 1 0.015923 0.000000 1 0
      FADEOUT 1 0.045668 0.000000 1 0
      MUTE 0
      IGUID {59CBE242-B52C-B34F-811F-87705FD01D27}
      IID 13516
      NAME "04-DI-120411_1614.wav"
      VOLPAN 1.000000 0.000000 1.000000 -1.000000
      SOFFS 27.99593516555299
      PLAYRATE 1.00000000000000 1 0.00000000000000 -1
      CHANMODE 0
      GUID {3D68C065-5E52-1E43-AB67-F60BAB1C09D2}
      RECPASS 4729
      <SOURCE WAVE
        FILE "../media/04-DI-120411_1614.wav"
      >
    >
    <ITEM
      POSITION 24.43910586496349
      SNAPOFFS 0.00000000000000
      LENGTH 1.66896859961616
      LOOP 0
      ALLTAKES 0
      SEL 0
      FADEIN 1 0.022440 0.000000 1 0
      FADEOUT 1 0.010000 0.088301 1 1
      MUTE 0
      IGUID {2E6FA116-42E5-504E-832F-0D8A722CAB50}
      IID 13518
      NAME "04-DI-120411_1618.wav"
      VOLPAN 1.000000 0.000000 1.000000 -1.000000
      SOFFS 28.65533423371703
      PLAYRATE 1.00000000000000 1 0.00000000000000 -1
      CHANMODE 0
      GUID {96229792-8447-8445-B5E7-79D1D915D8B6}
      RECPASS 4757
      <SOURCE WAVE
        FILE "../media/04-DI-120411_1618.wav"
      >
    >
    <ITEM
      POSITION 26.01977305498440
      SNAPOFFS 0.00000000000000
      LENGTH 0.75740686131360
      LOOP 0
      ALLTAKES 0
      SEL 0
      FADEIN 1 0.010000 0.088301 1 1
      FADEOUT 1 0.023128 0.000000 1 0
      MUTE 0
      IGUID {EC23CDF9-2AF8-7A49-8235-0720001D91BE}
      IID 13518
      NAME "04-DI-120411_1618.wav"
      VOLPAN 1.000000 0.000000 1.000000 -1.000000
      SOFFS 30.21554397201958
      PLAYRATE 1.00000000000000 1 0.00000000000000 -1
      CHANMODE 0
      GUID {846C38E4-1481-EE46-A4C4-6115FFE7D575}
      RECPASS 4757
      <SOURCE WAVE
        FILE "../media/04-DI-120411_1618.wav"
      >
    >
    <ITEM
      POSITION 27.72969446459319
      SNAPOFFS 0.00000000000000
      LENGTH 1.78378199999986
      LOOP 1
      ALLTAKES 0
      SEL 0
      FADEIN 1 0.142706 0.000000 1 0
      FADEOUT 1 0.010000 0.000000 1 0
      MUTE 0
      IGUID {D2DDC505-DE68-6E49-A68B-4C6B6971B626}
      IID 13560
      NAME "04-DI-120411_1629-03.wav"
      VOLPAN 1.000000 0.000000 1.000000 -1.000000
      SOFFS 0.81080904787018
      PLAYRATE 1.00000000000000 1 0.00000000000000 -1
      CHANMODE 0
      GUID {BEAF00CC-4F95-B84C-9073-B3BFD77ABEA3}
      RECPASS 4799
      <SOURCE WAVE
        FILE "../media/04-DI-120411_1629-03.wav"
      >
    >
    <ITEM
      POSITION 31.29629629629617
      SNAPOFFS 0.00000000000000
      LENGTH 0.75810185185185
      LOOP 1
      ALLTAKES 0
      SEL 0
      FADEIN 1 0.052083 0.000000 1 0
      FADEOUT 1 0.052083 0.000000 1 0
      MUTE 0
      IGUID {0FBA407E-D668-A440-B9CB-E26ACB52E90B}
      IID 13577
      NAME "04-DI-120411_1639-05.wav"
      VOLPAN 1.000000 0.000000 1.000000 -1.000000
      SOFFS 1.45849421296029
      PLAYRATE 1.00000000000000 1 0.00000000000000 -1
      CHANMODE 0
      GUID {164B3739-7AC4-7849-B98A-27E57A31815D}
      RECPASS 4815
      <SOURCE WAVE
        FILE "../media/04-DI-120411_1639-05.wav"
      >
    >
    <ITEM
      POSITION 32.97453703703690
      SNAPOFFS 0.00000000000000
      LENGTH 5.33408348336462
      LOOP 1
      ALLTAKES 0
      SEL 0
      FADEIN 1 0.046296 0.000000 1 0
      FADEOUT 1 0.066369 0.000000 1 0
      MUTE 0
      IGUID {F48C23A4-FED5-7D47-AF89-E7C19DE426D7}
      IID 13577
      NAME "04-DI-120411_1639-05.wav"
      VOLPAN 1.000000 0.000000 1.000000 -1.000000
      SOFFS 3.13673495370102
      PLAYRATE 1.00000000000000 1 0.00000000000000 -1
      CHANMODE 0
      GUID {3D7EA723-66C9-2945-91BA-026E3DA8E380}
      RECPASS 4815
      <SOURCE WAVE
        FILE "../media/04-DI-120411_1639-05.wav"
      >
    >
    <ITEM
      POSITION 38.80970704159699
      SNAPOFFS 0.00000000000000
      LENGTH 0.76919369364282
      LOOP 1
      ALLTAKES 0
      SEL 0
      FADEIN 1 0.063051 0.000000 1 0
      FADEOUT 1 0.055726 0.000000 1 0
      MUTE 0
      IGUID {9B378CBB-1680-B342-8A6C-658555E6D847}
      IID 13581
      NAME "04-DI-120411_1641-01.wav"
      VOLPAN 1.000000 0.000000 1.000000 -1.000000
      SOFFS 3.78271745822803
      PLAYRATE 1.00000000000000 1 0.00000000000000 -1
      CHANMODE 0
      GUID {A921C78F-DAB6-764C-9B61-5B94DD3BD619}
      RECPASS 4846
      <SOURCE WAVE
        FILE "../media/04-DI-120411_1641-01.wav"
      >
    >
    <ITEM
      POSITION 39.99107658816501
      SNAPOFFS 0.00000000000000
      LENGTH 5.06235370318029
      LOOP 0
      ALLTAKES 0
      SEL 0
      FADEIN 1 0.049777 0.000000 1 0
      FADEOUT 1 0.045668 0.000000 1 0
      MUTE 0
      IGUID {F7A3DAE9-CA91-C144-AF28-469DECD406E6}
      IID 13516
      NAME "04-DI-120411_1614.wav"
      VOLPAN 1.000000 0.000000 1.000000 -1.000000
      SOFFS 25.37478963315560
      PLAYRATE 1.00000000000000 1 0.00000000000000 -1
      CHANMODE 0
      GUID {53C62238-70E9-6C42-BB50-7C551D50A4DC}
      RECPASS 4729
      <SOURCE WAVE
        FILE "../media/04-DI-120411_1614.wav"
      >
    >
    <ITEM
      POSITION 45.10948109650053
      SNAPOFFS 0.00000000000000
      LENGTH 3.53911136801707
      LOOP 1
      ALLTAKES 0
      SEL 0
      FADEIN 1 0.010000 0.000000 1 0
      FADEOUT 1 0.010000 0.000000 1 0
      MUTE 0
      IGUID {4C9452BE-7CBF-AA47-9132-FFA6F98BC88A}
      IID 13550
      NAME "04-DI-120411_1625-07.wav"
      VOLPAN 1.000000 0.000000 1.000000 -1.000000
      SOFFS 18.19059567985141
      PLAYRATE 1.00000000000000 1 0.00000000000000 -1
      CHANMODE 0
      GUID {61852FB2-E47B-B445-AE9E-148766181F6F}
      RECPASS 4791
      <SOURCE WAVE
        FILE "../media/04-DI-120411_1625-07.wav"
      >
    >
    <ITEM
      POSITION 49.29724046448246
      SNAPOFFS 0.00000000000000
      LENGTH 6.16215599999964
      LOOP 1
      ALLTAKES 0
      SEL 0
      FADEIN 1 0.010000 0.000000 1 0
      FADEOUT 1 0.010000 0.324324 1 1
      MUTE 0
      IGUID {94175EDC-8AFF-2F4D-9993-8DED38398B4B}
      IID 10452
      NAME "03-DI-120330_1445.wav"
      VOLPAN 1.000000 0.000000 1.000000 -1.000000
      SOFFS 4.54053213120517
      PLAYRATE 1.00000000000000 1 0.00000000000000 -1
      CHANMODE 0
      GUID {3EFBBE91-370B-D84A-8E69-74AAA0CF6B2E}
      RECPASS 3745
      <SOURCE WAVE
        FILE "../media/03-DI-120330_1445.wav"
      >
    >
    <ITEM
      POSITION 55.13507246458903
      SNAPOFFS 0.00000000000000
      LENGTH 1.94594399999994
      LOOP 1
      ALLTAKES 0
      SEL 0
      FADEIN 1 0.010000 0.324324 1 1
      FADEOUT 1 0.010000 0.000000 1 0
      MUTE 0
      IGUID {3666E3BA-9DEC-A849-8D63-0753DDA995E4}
      IID 10462
      NAME "03-DI-120330_1447.wav"
      VOLPAN 1.000000 0.000000 1.000000 -1.000000
      SOFFS 2.91891621453806
      PLAYRATE 1.00000000000000 1 0.00000000000000 -1
      CHANMODE 0
      GUID {B8C3A4F0-5993-C843-8ED3-58AAEEF50A34}
      RECPASS 3749
      <SOURCE WAVE
        FILE "../media/03-DI-120330_1447.wav"
      >
    >
    <ITEM
      POSITION 57.08101646450814
      SNAPOFFS 0.00000000000000
      LENGTH 7.94593800000064
      LOOP 1
      ALLTAKES 0
      SEL 0
      FADEIN 1 0.010000 0.000000 1 0
      FADEOUT 1 0.010000 0.000000 1 0
      MUTE 0
      IGUID {62E89151-7ED9-1F4C-8241-D5C5244FF958}
      IID 10452
      NAME "03-DI-120330_1445.wav"
      VOLPAN 1.000000 0.000000 1.000000 -1.000000
      SOFFS 12.32430813120470
      PLAYRATE 1.00000000000000 1 0.00000000000000 -1
      CHANMODE 0
      GUID {3746B92E-3885-9345-911C-096E89AA2338}
      RECPASS 3745
      <SOURCE WAVE
        FILE "../media/03-DI-120330_1445.wav"
      >
    >
    <ITEM
      POSITION 66.13040140469093
      SNAPOFFS 0.00000000000000
      LENGTH 5.34394463299373
      LOOP 0
      ALLTAKES 0
      SEL 0
      FADEIN 1 0.065041 0.000000 1 0
      FADEOUT 1 0.010000 0.156197 1 1
      MUTE 0
      IGUID {A91D0DA8-15EB-9F4E-BE51-3C4E0F96446B}
      IID 13589
      NAME "04-DI-120411_1652.wav"
      VOLPAN 1.000000 0.000000 1.000000 -1.000000
      SOFFS 19.63438585687190
      PLAYRATE 1.00000000000000 1 0.00000000000000 -1
      CHANMODE 0
      GUID {0592F2DC-BE09-FC41-8EB1-40B1D2E8E965}
      RECPASS 4898
      <SOURCE WAVE
        FILE "../media/04-DI-120411_1652.wav"
      >
    >
    <ITEM
      POSITION 71.31814880238380
      SNAPOFFS 0.00000000000000
      LENGTH 0.95503452446781
      LOOP 0
      ALLTAKES 0
      SEL 0
      FADEIN 1 0.010000 0.156197 1 1
      FADEOUT 1 0.093718 0.000000 1 0
      MUTE 0
      IGUID {EF08E9E2-4D8F-964A-BB36-9B651AF44C84}
      IID 13589
      NAME "04-DI-120411_1652.wav"
      VOLPAN 1.000000 0.000000 1.000000 -1.000000
      SOFFS 24.80160447505743
      PLAYRATE 1.00000000000000 1 0.00000000000000 -1
      CHANMODE 0
      GUID {ED88DB5A-6643-6349-A9FA-581ACF0BE617}
      RECPASS 4898
      <SOURCE WAVE
        FILE "../media/04-DI-120411_1652.wav"
      >
    >
    <ITEM
      POSITION 72.32424446451478
      SNAPOFFS 0.00000000000000
      LENGTH 1.62340697119862
      LOOP 0
      ALLTAKES 0
      SEL 0
      FADEIN 1 0.010000 0.000000 1 0
      FADEOUT 1 0.010000 0.140753 1 1
      MUTE 0
      IGUID {7E9DB904-344F-B74D-A99D-97A079728AEB}
      IID 13591
      NAME "04-DI-120411_1657.wav"
      VOLPAN 1.000000 0.000000 1.000000 -1.000000
      SOFFS -1.86089095212856
      PLAYRATE 1.00000000000000 1 0.00000000000000 -1
      CHANMODE 0
      GUID {DD1D8886-DFDC-F645-8432-B9ADE299750C}
      RECPASS 4902
      <SOURCE WAVE
        FILE "../media/04-DI-120411_1657.wav"
      >
      TAKE
      NAME "04-DI-120411_1657.wav"
      TAKEVOLPAN 0.000000 1.000000 -1.000000
      SOFFS 0.73368750000000
      PLAYRATE 1.00000000000000 1 0.00000000000000 -1
      CHANMODE 0
      GUID {A23DC5AC-5363-A04C-B18B-B58A46A68E0C}
      RECPASS 4903
      <SOURCE WAVE
        FILE "../media/04-DI-120411_1657.wav"
      >
      TAKE
      NAME "04-DI-120411_1657.wav"
      TAKEVOLPAN 0.000000 1.000000 -1.000000
      SOFFS 3.32828125000000
      PLAYRATE 1.00000000000000 1 0.00000000000000 -1
      CHANMODE 0
      GUID {60C7249C-E680-614C-BD55-9AE0857F22E0}
      RECPASS 4904
      <SOURCE WAVE
        FILE "../media/04-DI-120411_1657.wav"
      >
      TAKE
      NAME "04-DI-120411_1657.wav"
      TAKEVOLPAN 0.000000 1.000000 -1.000000
      SOFFS 5.92287500000000
      PLAYRATE 1.00000000000000 1 0.00000000000000 -1
      CHANMODE 0
      GUID {07454C4A-29D6-3E4D-A568-5CF5E55CE2FA}
      RECPASS 4905
      <SOURCE WAVE
        FILE "../media/04-DI-120411_1657.wav"
      >
      TAKE
      NAME "04-DI-120411_1657.wav"
      TAKEVOLPAN 0.000000 1.000000 -1.000000
      SOFFS 8.51746875000000
      PLAYRATE 1.00000000000000 1 0.00000000000000 -1
      CHANMODE 0
      GUID {A8BADDEE-8947-B54E-86C8-236DFF62B15E}
      RECPASS 4906
      <SOURCE WAVE
        FILE "../media/04-DI-120411_1657.wav"
      >
      TAKE
      NAME "04-DI-120411_1657.wav"
      TAKEVOLPAN 0.000000 1.000000 -1.000000
      SOFFS 11.11206250000000
      PLAYRATE 1.00000000000000 1 0.00000000000000 -1
      CHANMODE 0
      GUID {3F786D9B-1E95-5244-BE4C-A9F583F71A30}
      RECPASS 4907
      <SOURCE WAVE
        FILE "../media/04-DI-120411_1657.wav"
      >
      TAKE
      NAME "04-DI-120411_1657.wav"
      TAKEVOLPAN 0.000000 1.000000 -1.000000
      SOFFS 13.70665625000000
      PLAYRATE 1.00000000000000 1 0.00000000000000 -1
      CHANMODE 0
      GUID {7E18EE8A-5A31-7045-AF4C-82FFCC197BDF}
      RECPASS 4908
      <SOURCE WAVE
        FILE "../media/04-DI-120411_1657.wav"
      >
      TAKE
      NAME "04-DI-120411_1657.wav"
      TAKEVOLPAN 0.000000 1.000000 -1.000000
      SOFFS 16.30125000000000
      PLAYRATE 1.00000000000000 1 0.00000000000000 -1
      CHANMODE 0
      GUID {5BDDC4FE-BFA7-5A4A-99E2-4DB6051E7966}
      RECPASS 4909
      <SOURCE WAVE
        FILE "../media/04-DI-120411_1657.wav"
      >
      TAKE
      NAME "04-DI-120411_1657.wav"
      TAKEVOLPAN 0.000000 1.000000 -1.000000
      SOFFS 18.89584375000000
      PLAYRATE 1.00000000000000 1 0.00000000000000 -1
      CHANMODE 0
      GUID {A5B0813E-1BF9-0843-997E-AECA258C773B}
      RECPASS 4910
      <SOURCE WAVE
        FILE "../media/04-DI-120411_1657.wav"
      >
      TAKE
      NAME "04-DI-120411_1657.wav"
      TAKEVOLPAN 0.000000 1.000000 -1.000000
      SOFFS 21.49043750000000
      PLAYRATE 1.00000000000000 1 0.00000000000000 -1
      CHANMODE 0
      GUID {162675DA-FEEA-494F-96C9-9CBB10639EDE}
      RECPASS 4911
      <SOURCE WAVE
        FILE "../media/04-DI-120411_1657.wav"
      >
      TAKE
      NAME "04-DI-120411_1657.wav"
      TAKEVOLPAN 0.000000 1.000000 -1.000000
      SOFFS 24.08503125000000
      PLAYRATE 1.00000000000000 1 0.00000000000000 -1
      CHANMODE 0
      GUID {4CA1D135-406B-CA4E-89A2-EF0B7C074423}
      RECPASS 4912
      <SOURCE WAVE
        FILE "../media/04-DI-120411_1657.wav"
      >
      TAKE
      NAME "04-DI-120411_1657.wav"
      TAKEVOLPAN 0.000000 1.000000 -1.000000
      SOFFS 26.67962500000000
      PLAYRATE 1.00000000000000 1 0.00000000000000 -1
      CHANMODE 0
      GUID {5544C896-7B0E-2E44-89D1-02D06552941D}
      RECPASS 4913
      <SOURCE WAVE
        FILE "../media/04-DI-120411_1657.wav"
      >
      TAKE SEL
      NAME "04-DI-120411_1657.wav"
      TAKEVOLPAN 0.000000 1.000000 -1.000000
      SOFFS 29.27421875000000
      PLAYRATE 1.00000000000000 1 0.00000000000000 -1
      CHANMODE 0
      GUID {941B94A4-A7AD-D84E-9FFB-2D88F15484AB}
      RECPASS 4914
      <SOURCE WAVE
        FILE "../media/04-DI-120411_1657.wav"
      >
      TAKE
      NAME "04-DI-120411_1657.wav"
      TAKEVOLPAN 0.000000 1.000000 -1.000000
      SOFFS 31.86881250000000
      PLAYRATE 1.00000000000000 1 0.00000000000000 -1
      CHANMODE 0
      GUID {279BD107-07E2-1D4E-A649-41B669C406FB}
      RECPASS 4915
      <SOURCE WAVE
        FILE "../media/04-DI-120411_1657.wav"
      >
    >
    <ITEM
      POSITION 73.80689830542542
      SNAPOFFS 0.00000000000000
      LENGTH 1.14410342662688
      LOOP 0
      ALLTAKES 0
      SEL 0
      FADEIN 1 0.010000 0.140753 1 1
      FADEOUT 1 0.010000 0.000000 1 0
      MUTE 0
      IGUID {BCCA6E77-AD8B-A543-856A-D3B0100B7659}
      IID 13591
      NAME "04-DI-120411_1657.wav"
      VOLPAN 1.000000 0.000000 1.000000 -1.000000
      SOFFS -0.40535468686835
      PLAYRATE 1.00000000000000 1 0.00000000000000 -1
      CHANMODE 0
      GUID {14EC87B9-FAD5-0640-AC99-AA600A355ECE}
      RECPASS 4902
      <SOURCE WAVE
        FILE "../media/04-DI-120411_1657.wav"
      >
      TAKE
      NAME "04-DI-120411_1657.wav"
      TAKEVOLPAN 0.000000 1.000000 -1.000000
      SOFFS 2.18922376526021
      PLAYRATE 1.00000000000000 1 0.00000000000000 -1
      CHANMODE 0
      GUID {1C2197F4-2F35-8C43-97A6-2607AC20474E}
      RECPASS 4903
      <SOURCE WAVE
        FILE "../media/04-DI-120411_1657.wav"
      >
      TAKE
      NAME "04-DI-120411_1657.wav"
      TAKEVOLPAN 0.000000 1.000000 -1.000000
      SOFFS 4.78381751526021
      PLAYRATE 1.00000000000000 1 0.00000000000000 -1
      CHANMODE 0
      GUID {EE7530DF-EC8B-B34A-BE49-E7922E65C712}
      RECPASS 4904
      <SOURCE WAVE
        FILE "../media/04-DI-120411_1657.wav"
      >
      TAKE
      NAME "04-DI-120411_1657.wav"
      TAKEVOLPAN 0.000000 1.000000 -1.000000
      SOFFS 7.37841126526021
      PLAYRATE 1.00000000000000 1 0.00000000000000 -1
      CHANMODE 0
      GUID {FB07D5C8-FA16-6B4E-A82F-DA9B5C92E469}
      RECPASS 4905
      <SOURCE WAVE
        FILE "../media/04-DI-120411_1657.wav"
      >
      TAKE
      NAME "04-DI-120411_1657.wav"
      TAKEVOLPAN 0.000000 1.000000 -1.000000
      SOFFS 9.97300501526021
      PLAYRATE 1.00000000000000 1 0.00000000000000 -1
      CHANMODE 0
      GUID {8BE630E3-0881-524C-BF39-83CF61F1311A}
      RECPASS 4906
      <SOURCE WAVE
        FILE "../media/04-DI-120411_1657.wav"
      >
      TAKE
      NAME "04-DI-120411_1657.wav"
      TAKEVOLPAN 0.000000 1.000000 -1.000000
      SOFFS 12.56759876526021
      PLAYRATE 1.00000000000000 1 0.00000000000000 -1
      CHANMODE 0
      GUID {130CAADC-FC6E-2B46-821B-53BCD9F68597}
      RECPASS 4907
      <SOURCE WAVE
        FILE "../media/04-DI-120411_1657.wav"
      >
      TAKE
      NAME "04-DI-120411_1657.wav"
      TAKEVOLPAN 0.000000 1.000000 -1.000000
      SOFFS 15.16219251526021
      PLAYRATE 1.00000000000000 1 0.00000000000000 -1
      CHANMODE 0
      GUID {9BD0E2E4-474E-0542-A6B8-630CA85A95CC}
      RECPASS 4908
      <SOURCE WAVE
        FILE "../media/04-DI-120411_1657.wav"
      >
      TAKE
      NAME "04-DI-120411_1657.wav"
      TAKEVOLPAN 0.000000 1.000000 -1.000000
      SOFFS 17.75678626526021
      PLAYRATE 1.00000000000000 1 0.00000000000000 -1
      CHANMODE 0
      GUID {8D38465D-448E-404B-9C8C-CD5318CE0A0D}
      RECPASS 4909
      <SOURCE WAVE
        FILE "../media/04-DI-120411_1657.wav"
      >
      TAKE
      NAME "04-DI-120411_1657.wav"
      TAKEVOLPAN 0.000000 1.000000 -1.000000
      SOFFS 20.35138001526021
      PLAYRATE 1.00000000000000 1 0.00000000000000 -1
      CHANMODE 0
      GUID {F64E0BB3-9C1D-4A4F-AB43-01CCE2429597}
      RECPASS 4910
      <SOURCE WAVE
        FILE "../media/04-DI-120411_1657.wav"
      >
      TAKE
      NAME "04-DI-120411_1657.wav"
      TAKEVOLPAN 0.000000 1.000000 -1.000000
      SOFFS 22.94597376526021
      PLAYRATE 1.00000000000000 1 0.00000000000000 -1
      CHANMODE 0
      GUID {34A887B6-36F0-F74E-A6C0-160F600724F0}
      RECPASS 4911
      <SOURCE WAVE
        FILE "../media/04-DI-120411_1657.wav"
      >
      TAKE
      NAME "04-DI-120411_1657.wav"
      TAKEVOLPAN 0.000000 1.000000 -1.000000
      SOFFS 25.54056751526021
      PLAYRATE 1.00000000000000 1 0.00000000000000 -1
      CHANMODE 0
      GUID {85A25573-8586-B246-8C3F-7E6BF1425C4A}
      RECPASS 4912
      <SOURCE WAVE
        FILE "../media/04-DI-120411_1657.wav"
      >
      TAKE
      NAME "04-DI-120411_1657.wav"
      TAKEVOLPAN 0.000000 1.000000 -1.000000
      SOFFS 28.13516126526021
      PLAYRATE 1.00000000000000 1 0.00000000000000 -1
      CHANMODE 0
      GUID {437E50DB-60D6-3D46-9E9E-8C8D9796589C}
      RECPASS 4913
      <SOURCE WAVE
        FILE "../media/04-DI-120411_1657.wav"
      >
      TAKE SEL
      NAME "04-DI-120411_1657.wav"
      TAKEVOLPAN 0.000000 1.000000 -1.000000
      SOFFS 30.72975501526021
      PLAYRATE 1.00000000000000 1 0.00000000000000 -1
      CHANMODE 0
      GUID {74C63DF5-5EF6-0B4F-B3CB-127880558231}
      RECPASS 4914
      <SOURCE WAVE
        FILE "../media/04-DI-120411_1657.wav"
      >
      TAKE
      NAME "04-DI-120411_1657.wav"
      TAKEVOLPAN 0.000000 1.000000 -1.000000
      SOFFS 33.32434876526021
      PLAYRATE 1.00000000000000 1 0.00000000000000 -1
      CHANMODE 0
      GUID {E9164C97-202A-DE44-87AA-2CCAF2C4CC64}
      RECPASS 4915
      <SOURCE WAVE
        FILE "../media/04-DI-120411_1657.wav"
      >
    >
    <ITEM
      POSITION 74.98629762406927
      SNAPOFFS 0.00000000000000
      LENGTH 1.06767284052012
      LOOP 0
      ALLTAKES 0
      SEL 0
      FADEIN 1 0.053805 0.000000 1 0
      FADEOUT 1 0.246124 0.000000 1 0
      MUTE 0
      IGUID {E39FF207-0140-8F44-9294-5B0218A4B933}
      IID 13591
      NAME "04-DI-120411_1657.wav"
      VOLPAN 1.000000 0.000000 1.000000 -1.000000
      SOFFS 0.80116220735101
      PLAYRATE 1.00000000000000 1 0.00000000000000 -1
      CHANMODE 0
      GUID {EA0BF0DD-E811-C443-B725-BC9AE8269A67}
      RECPASS 4902
      <SOURCE WAVE
        FILE "../media/04-DI-120411_1657.wav"
      >
      TAKE
      NAME "04-DI-120411_1657.wav"
      TAKEVOLPAN 0.000000 1.000000 -1.000000
      SOFFS 3.39574065947957
      PLAYRATE 1.00000000000000 1 0.00000000000000 -1
      CHANMODE 0
      GUID {C37839A7-974C-DC44-B31C-3245154FEE30}
      RECPASS 4903
      <SOURCE WAVE
        FILE "../media/04-DI-120411_1657.wav"
      >
      TAKE
      NAME "04-DI-120411_1657.wav"
      TAKEVOLPAN 0.000000 1.000000 -1.000000
      SOFFS 5.99033440947957
      PLAYRATE 1.00000000000000 1 0.00000000000000 -1
      CHANMODE 0
      GUID {836E4E90-6552-BD4C-B336-3B7370413897}
      RECPASS 4904
      <SOURCE WAVE
        FILE "../media/04-DI-120411_1657.wav"
      >
      TAKE
      NAME "04-DI-120411_1657.wav"
      TAKEVOLPAN 0.000000 1.000000 -1.000000
      SOFFS 8.58492815947957
      PLAYRATE 1.00000000000000 1 0.00000000000000 -1
      CHANMODE 0
      GUID {1F39D18A-8FCA-4F41-BB8B-CA279AF21610}
      RECPASS 4905
      <SOURCE WAVE
        FILE "../media/04-DI-120411_1657.wav"
      >
      TAKE
      NAME "04-DI-120411_1657.wav"
      TAKEVOLPAN 0.000000 1.000000 -1.000000
      SOFFS 11.17952190947957
      PLAYRATE 1.00000000000000 1 0.00000000000000 -1
      CHANMODE 0
      GUID {CC0D4D37-9090-1B40-8A64-DA1B85FB40D4}
      RECPASS 4906
      <SOURCE WAVE
        FILE "../media/04-DI-120411_1657.wav"
      >
      TAKE
      NAME "04-DI-120411_1657.wav"
      TAKEVOLPAN 0.000000 1.000000 -1.000000
      SOFFS 13.77411565947957
      PLAYRATE 1.00000000000000 1 0.00000000000000 -1
      CHANMODE 0
      GUID {0008DE9A-9977-E845-AEB1-70346F4E811D}
      RECPASS 4907
      <SOURCE WAVE
        FILE "../media/04-DI-120411_1657.wav"
      >
      TAKE
      NAME "04-DI-120411_1657.wav"
      TAKEVOLPAN 0.000000 1.000000 -1.000000
      SOFFS 16.36870940947957
      PLAYRATE 1.00000000000000 1 0.00000000000000 -1
      CHANMODE 0
      GUID {A365EBC9-AEB3-F544-848F-45D2EF51AE13}
      RECPASS 4908
      <SOURCE WAVE
        FILE "../media/04-DI-120411_1657.wav"
      >
      TAKE
      NAME "04-DI-120411_1657.wav"
      TAKEVOLPAN 0.000000 1.000000 -1.000000
      SOFFS 18.96330315947957
      PLAYRATE 1.00000000000000 1 0.00000000000000 -1
      CHANMODE 0
      GUID {0218A672-3875-B044-B83E-D3C5E3C03D6D}
      RECPASS 4909
      <SOURCE WAVE
        FILE "../media/04-DI-120411_1657.wav"
      >
      TAKE
      NAME "04-DI-120411_1657.wav"
      TAKEVOLPAN 0.000000 1.000000 -1.000000
      SOFFS 21.55789690947957
      PLAYRATE 1.00000000000000 1 0.00000000000000 -1
      CHANMODE 0
      GUID {7A67099A-9320-5F4D-92CC-120F549A43C7}
      RECPASS 4910
      <SOURCE WAVE
        FILE "../media/04-DI-120411_1657.wav"
      >
      TAKE
      NAME "04-DI-120411_1657.wav"
      TAKEVOLPAN 0.000000 1.000000 -1.000000
      SOFFS 24.15249065947957
      PLAYRATE 1.00000000000000 1 0.00000000000000 -1
      CHANMODE 0
      GUID {671AD538-DAA4-F74F-879C-CDFBA733FEDB}
      RECPASS 4911
      <SOURCE WAVE
        FILE "../media/04-DI-120411_1657.wav"
      >
      TAKE
      NAME "04-DI-120411_1657.wav"
      TAKEVOLPAN 0.000000 1.000000 -1.000000
      SOFFS 26.74708440947957
      PLAYRATE 1.00000000000000 1 0.00000000000000 -1
      CHANMODE 0
      GUID {77339D18-02AD-7941-9E1A-740414602281}
      RECPASS 4912
      <SOURCE WAVE
        FILE "../media/04-DI-120411_1657.wav"
      >
      TAKE
      NAME "04-DI-120411_1657.wav"
      TAKEVOLPAN 0.000000 1.000000 -1.000000
      SOFFS 29.34167815947957
      PLAYRATE 1.00000000000000 1 0.00000000000000 -1
      CHANMODE 0
      GUID {55E237A3-6D9A-5C4C-916D-52F3C8BCFE1D}
      RECPASS 4913
      <SOURCE WAVE
        FILE "../media/04-DI-120411_1657.wav"
      >
      TAKE SEL
      NAME "04-DI-120411_1657.wav"
      TAKEVOLPAN 0.000000 1.000000 -1.000000
      SOFFS 31.93627190947957
      PLAYRATE 1.00000000000000 1 0.00000000000000 -1
      CHANMODE 0
      GUID {6B9D338E-A966-284E-8DF4-F23731AE1013}
      RECPASS 4914
      <SOURCE WAVE
        FILE "../media/04-DI-120411_1657.wav"
      >
      TAKE
      NAME "Empty"
      TAKEVOLPAN 0.000000 1.000000 -1.000000
      SOFFS 34.53086565947957
      PLAYRATE 1.00000000000000 1 0.00000000000000 -1
      CHANMODE 0
      GUID {FA874B86-A209-CB45-A7A1-676B1287726E}
      RECPASS 4915
      <SOURCE EMPTY
      >
    >
    <ITEM
      POSITION 76.45538413971350
      SNAPOFFS 0.00000000000000
      LENGTH 1.01461077860590
      LOOP 0
      ALLTAKES 0
      SEL 0
      FADEIN 1 0.010000 0.000000 1 0
      FADEOUT 1 0.070258 0.000000 1 0
      MUTE 0
      IGUID {666E5A3F-B7C4-FC4F-93C8-9E157A091E88}
      IID 13630
      NAME "04-DI-120411_1706-02.wav"
      VOLPAN 1.000000 0.000000 1.000000 -1.000000
      SOFFS 2.50950059187524
      PLAYRATE 1.00000000000000 1 0.00000000000000 -1
      CHANMODE 0
      GUID {F87E34E6-7258-EA4B-BAF6-ECA0F633DCD1}
      RECPASS 4953
      <SOURCE WAVE
        FILE "../media/04-DI-120411_1706-02.wav"
      >
    >
    <ITEM
      POSITION 77.78485116253540
      SNAPOFFS 0.00000000000000
      LENGTH 0.36093276775982
      LOOP 0
      ALLTAKES 0
      SEL 0
      FADEIN 1 0.010000 0.000000 1 0
      FADEOUT 1 0.010000 0.000000 1 0
      MUTE 0
      IGUID {DC971EAB-E811-454B-84F8-139C92CF54A4}
      IID 13630
      NAME "04-DI-120411_1706-02.wav"
      VOLPAN 1.000000 0.000000 1.000000 -1.000000
      SOFFS 3.83896761469714
      PLAYRATE 1.00000000000000 1 0.00000000000000 -1
      CHANMODE 0
      GUID {320F406E-ABA8-864D-B7D8-2B513C58787E}
      RECPASS 4953
      <SOURCE WAVE
        FILE "../media/04-DI-120411_1706-02.wav"
      >
    >
    <ITEM
      POSITION 78.44557740559446
      SNAPOFFS 0.00000000000000
      LENGTH 1.01550610086892
      LOOP 0
      ALLTAKES 0
      SEL 0
      FADEIN 1 0.010000 0.000000 1 0
      FADEOUT 1 0.022519 0.000000 1 0
      MUTE 0
      IGUID {10839B0C-8A7D-3D4C-961D-3C769FE45417}
      IID 13630
      NAME "04-DI-120411_1706-02.wav"
      VOLPAN 1.000000 0.000000 1.000000 -1.000000
      SOFFS 4.49969385775620
      PLAYRATE 1.00000000000000 1 0.00000000000000 -1
      CHANMODE 0
      GUID {0487E236-2B24-1A46-B0FE-033D4FB2BAE5}
      RECPASS 4953
      <SOURCE WAVE
        FILE "../media/04-DI-120411_1706-02.wav"
      >
    >
    <ITEM
      POSITION 79.72876903147204
      SNAPOFFS 0.00000000000000
      LENGTH 0.44971108187465
      LOOP 0
      ALLTAKES 0
      SEL 0
      FADEIN 1 0.032582 0.000000 1 0
      FADEOUT 1 0.053491 0.000000 1 0
      MUTE 0
      IGUID {C7782FE1-4C28-9D44-A916-F9B821CF4A6D}
      IID 13630
      NAME "04-DI-120411_1706-02.wav"
      VOLPAN 1.000000 0.000000 1.000000 -1.000000
      SOFFS 7.72883142957657
      PLAYRATE 1.00000000000000 1 0.00000000000000 -1
      CHANMODE 0
      GUID {3F0770A2-E9B9-F240-8D4C-B7749B18D848}
      RECPASS 4953
      <SOURCE WAVE
        FILE "../media/04-DI-120411_1706-02.wav"
      >
    >
    <ITEM
      POSITION 80.40688793520891
      SNAPOFFS 0.00000000000000
      LENGTH 1.00454265072639
      LOOP 0
      ALLTAKES 0
      SEL 0
      FADEIN 1 0.010000 0.000000 1 0
      FADEOUT 1 0.010000 0.000000 1 0
      MUTE 0
      IGUID {159622A1-1637-8D41-B7A3-DB5C4761FF06}
      IID 13630
      NAME "04-DI-120411_1706-02.wav"
      VOLPAN 1.000000 0.000000 1.000000 -1.000000
      SOFFS 6.46100438737065
      PLAYRATE 1.00000000000000 1 0.00000000000000 -1
      CHANMODE 0
      GUID {4695C9E3-DB57-504E-A714-C4310ABA0973}
      RECPASS 4953
      <SOURCE WAVE
        FILE "../media/04-DI-120411_1706-02.wav"
      >
    >
    <ITEM
      POSITION 81.67555854909789
      SNAPOFFS 0.00000000000000
      LENGTH 0.44886751019160
      LOOP 0
      ALLTAKES 0
      SEL 0
      FADEIN 1 0.065165 0.000000 1 0
      FADEOUT 1 0.053491 0.000000 1 0
      MUTE 0
      IGUID {7CADCCB0-4875-724F-A172-2346BB91B918}
      IID 13630
      NAME "04-DI-120411_1706-02.wav"
      VOLPAN 1.000000 0.000000 1.000000 -1.000000
      SOFFS 7.72967500125962
      PLAYRATE 1.00000000000000 1 0.00000000000000 -1
      CHANMODE 0
      GUID {453F3891-6AE3-804A-869C-BAF84077AFC3}
      RECPASS 4953
      <SOURCE WAVE
        FILE "../media/04-DI-120411_1706-02.wav"
      >
    >
    <ITEM
      POSITION 82.33606297510835
      SNAPOFFS 0.00000000000000
      LENGTH 1.05585889870065
      LOOP 0
      ALLTAKES 0
      SEL 0
      FADEIN 1 0.032560 0.000000 1 0
      FADEOUT 1 0.030234 0.000000 1 0
      MUTE 0
      IGUID {2687C73D-D53D-BC47-82F8-7595062B6952}
      IID 13630
      NAME "04-DI-120411_1706-02.wav"
      VOLPAN 1.000000 0.000000 1.000000 -1.000000
      SOFFS 8.39017942727008
      PLAYRATE 1.00000000000000 1 0.00000000000000 -1
      CHANMODE 0
      GUID {5DCF775F-B674-8745-AF5D-A2FD1C1A6822}
      RECPASS 4953
      <SOURCE WAVE
        FILE "../media/04-DI-120411_1706-02.wav"
      >
    >
    <ITEM
      POSITION 83.64309535631928
      SNAPOFFS 0.00000000000000
      LENGTH 0.39298437737156
      LOOP 0
      ALLTAKES 0
      SEL 0
      FADEIN 1 0.010000 0.000000 1 0
      FADEOUT 1 0.061054 0.000000 1 0
      MUTE 0
      IGUID {93749353-54B5-AC43-B16F-345503BFD6FF}
      IID 13630
      NAME "04-DI-120411_1706-02.wav"
      VOLPAN 1.000000 0.000000 1.000000 -1.000000
      SOFFS 9.69721180848101
      PLAYRATE 1.00000000000000 1 0.00000000000000 -1
      CHANMODE 0
      GUID {91C2A3C7-BDD9-3244-A87C-B8627B7A3D2A}
      RECPASS 4953
      <SOURCE WAVE
        FILE "../media/04-DI-120411_1706-02.wav"
      >
    >
    <ITEM
      POSITION 84.26285068055914
      SNAPOFFS 0.00000000000000
      LENGTH 1.09640837497867
      LOOP 0
      ALLTAKES 0
      SEL 0
      FADEIN 1 0.010000 0.000000 1 0
      FADEOUT 1 0.063254 0.000000 1 0
      MUTE 0
      IGUID {455259F3-267B-2D40-8137-763CABE3DFA0}
      IID 13630
      NAME "04-DI-120411_1706-02.wav"
      VOLPAN 1.000000 0.000000 1.000000 -1.000000
      SOFFS 10.31696713272088
      PLAYRATE 1.00000000000000 1 0.00000000000000 -1
      CHANMODE 0
      GUID {5B76E954-58C3-A142-9AF9-9EA44DDA8D77}
      RECPASS 4953
      <SOURCE WAVE
        FILE "../media/04-DI-120411_1706-02.wav"
      >
    >
    <ITEM
      POSITION 85.54497872631445
      SNAPOFFS 0.00000000000000
      LENGTH 0.72529154395582
      LOOP 0
      ALLTAKES 0
      SEL 0
      FADEIN 1 0.010000 0.000000 1 0
      FADEOUT 1 0.098885 0.000000 1 0
      MUTE 0
      IGUID {A4F5B6AB-E530-1448-8794-81DF8EF84CE9}
      IID 13630
      NAME "04-DI-120411_1706-02.wav"
      VOLPAN 1.000000 0.000000 1.000000 -1.000000
      SOFFS 4.46396004330644
      PLAYRATE 1.00000000000000 1 0.00000000000000 -1
      CHANMODE 0
      GUID {D7463F91-9F51-A042-B7D6-915E578E11AC}
      RECPASS 4953
      <SOURCE WAVE
        FILE "../media/04-DI-120411_1706-02.wav"
      >
    >
    <ITEM
      POSITION 86.27027027027027
      SNAPOFFS 0.00000000000000
      LENGTH 0.64864864864865
      LOOP 0
      ALLTAKES 0
      SEL 0
      FADEIN 1 0.292847 0.000000 1 0
      FADEOUT 1 0.008733 0.000000 1 0
      MUTE 0
      IGUID {5D25FC0C-C607-3649-A142-06F3CE1C5C2B}
      IID 14029
      NAME "03-Bass-120412_1252.wav"
      VOLPAN 1.000000 0.000000 1.000000 -1.000000
      SOFFS 23.88706250000000
      PLAYRATE 1.00000000000000 1 0.00000000000000 -1
      CHANMODE 0
      GUID {6AC05F13-1146-504A-8CD1-D5D9DB7B73D3}
      RECPASS 5225
      <SOURCE WAVE
        FILE "../media/03-Bass-120412_1252.wav"
      >
    >
    <ITEM
      POSITION 86.91891891891892
      SNAPOFFS 0.00000000000000
      LENGTH 14.10799954562826
      LOOP 0
      ALLTAKES 0
      SEL 0
      FADEIN 1 0.000000 0.000000 1 0
      FADEOUT 1 0.010000 0.162162 1 1
      MUTE 0
      IGUID {0998A52B-5F55-8249-BCA0-1E4C546B1945}
      IID 13743
      NAME "04-DI-120411_1747.wav"
      VOLPAN 1.000000 0.000000 1.000000 -1.000000
      SOFFS 35.02708403770387
      PLAYRATE 1.00000000000000 1 0.00000000000000 -1
      CHANMODE 0
      GUID {D9BB6E4E-E2E7-2945-BEAB-68AB6484C353}
      RECPASS 4983
      <SOURCE WAVE
        FILE "../media/04-DI-120411_1747.wav"
      >
    >
    <ITEM
      POSITION 100.86475646449253
      SNAPOFFS 0.00000000000000
      LENGTH 1.62161999999989
      LOOP 0
      ALLTAKES 0
      SEL 0
      FADEIN 1 0.010000 0.162162 1 1
      FADEOUT 1 0.010000 0.000000 1 0
      MUTE 0
      IGUID {DCAD9E05-59F3-4F43-ADE0-D67832B31349}
      IID 13744
      NAME "04-DI-120411_1749.wav"
      VOLPAN 1.000000 0.000000 1.000000 -1.000000
      SOFFS 31.45948024999993
      PLAYRATE 1.00000000000000 1 0.00000000000000 -1
      CHANMODE 0
      GUID {74FCE128-022E-894A-A4E5-DB71BE3502F6}
      RECPASS 5001
      <SOURCE WAVE
        FILE "../media/04-DI-120411_1749.wav"
      >
    >
    <ITEM
      POSITION 102.48637646448333
      SNAPOFFS 0.00000000000000
      LENGTH 0.97297199999991
      LOOP 0
      ALLTAKES 0
      SEL 0
      FADEIN 1 0.010000 0.000000 1 0
      FADEOUT 1 0.010000 0.000000 1 0
      MUTE 0
      IGUID {86FAB044-F806-9B4C-A69C-BF9185B14557}
      IID 13758
      NAME "04-DI-120411_1802.wav"
      VOLPAN 1.000000 0.000000 1.000000 -1.000000
      SOFFS 17.51352083333333
      PLAYRATE 1.00000000000000 1 0.00000000000000 -1
      CHANMODE 0
      GUID {F620EA45-4BD4-A04C-B930-8F77F0379F7B}
      RECPASS 5051
      <SOURCE WAVE
        FILE "../media/04-DI-120411_1802.wav"
      >
    >
    <ITEM
      POSITION 103.45934846450109
      SNAPOFFS 0.00000000000000
      LENGTH 13.13512199994364
      LOOP 0
      ALLTAKES 0
      SEL 0
      FADEIN 1 0.010000 0.000000 1 0
      FADEOUT 1 0.010000 0.162162 1 1
      MUTE 0
      IGUID {DCDFCD21-3AAB-E541-84C8-A8F6ADA6F324}
      IID 13743
      NAME "04-DI-120411_1747.wav"
      VOLPAN 1.000000 0.000000 1.000000 -1.000000
      SOFFS 35.99996158338850
      PLAYRATE 1.00000000000000 1 0.00000000000000 -1
      CHANMODE 0
      GUID {34FE0C43-1F49-AF47-A78D-7CFF4508DDA6}
      RECPASS 4983
      <SOURCE WAVE
        FILE "../media/04-DI-120411_1747.wav"
      >
    >
    <ITEM
      POSITION 116.43230846454389
      SNAPOFFS 0.00000000000000
      LENGTH 1.60190267781893
      LOOP 0
      ALLTAKES 0
      SEL 0
      FADEIN 1 0.010000 0.162162 1 1
      FADEOUT 1 0.000000 0.000000 1 0
      MUTE 0
      IGUID {4979DBD5-BF62-8C4A-BAC9-E2C1F8D6F0A3}
      IID 13744
      NAME "04-DI-120411_1749.wav"
      VOLPAN 1.000000 0.000000 1.000000 -1.000000
      SOFFS 31.45948024999993
      PLAYRATE 1.00000000000000 1 0.00000000000000 -1
      CHANMODE 0
      GUID {A7920B0F-8D3E-F646-9033-9BAE1D4A85A5}
      RECPASS 5001
      <SOURCE WAVE
        FILE "../media/04-DI-120411_1749.wav"
      >
    >
    <ITEM
      POSITION 119.65927054666965
      SNAPOFFS 0.00000000000000
      LENGTH 18.50289161549252
      LOOP 1
      ALLTAKES 0
      SEL 0
      FADEIN 1 0.302305 0.000000 1 0
      FADEOUT 1 0.010000 0.000000 1 0
      MUTE 0
      IGUID {378B748D-0EF1-1341-BF5E-070B9A30B662}
      IID 14017
      NAME "03-Bass-120412_1241.wav"
      VOLPAN 1.000000 0.000000 1.000000 -1.000000
      SOFFS 1.60520804666965
      PLAYRATE 1.00000000000000 1 0.00000000000000 -1
      CHANMODE 0
      GUID {CADFFC4B-5A87-5F4E-84EC-19BC609EEC3F}
      RECPASS 5181
      <SOURCE WAVE
        FILE "../media/03-Bass-120412_1241.wav"
      >
    >
    <ITEM
      POSITION 138.16216216216216
      SNAPOFFS 0.00000000000000
      LENGTH 6.16503663547874
      LOOP 0
      ALLTAKES 0
      SEL 0
      FADEIN 1 0.000000 0.000000 1 0
      FADEOUT 1 0.010000 0.000000 1 0
      MUTE 0
      IGUID {65F16731-D888-094B-8EA1-E50EE7141DD7}
      IID 13800
      NAME "04-DI-120411_1842.wav"
      VOLPAN 1.000000 0.000000 1.000000 -1.000000
      SOFFS 29.38534361431510
      PLAYRATE 1.00000000000000 1 0.00000000000000 -1
      CHANMODE 0
      GUID {082C15CD-5DFF-F44C-850C-C327E2DC16DC}
      RECPASS 5142
      <SOURCE WAVE
        FILE "../media/04-DI-120411_1842.wav"
      >
    >
    <ITEM
      POSITION 145.13498246448580
      SNAPOFFS 0.00000000000000
      LENGTH 1.78378199999986
      LOOP 1
      ALLTAKES 0
      SEL 0
      FADEIN 1 0.010000 0.000000 1 0
      FADEOUT 1 0.010000 0.000000 1 0
      MUTE 0
      IGUID {2D4F6092-A416-9244-BDA2-07DEDA6FA051}
      IID 13804
      NAME "04-DI-120411_1849-01.wav"
      VOLPAN 1.000000 0.000000 1.000000 -1.000000
      SOFFS 0.81080538120477
      PLAYRATE 1.00000000000000 1 0.00000000000000 -1
      CHANMODE 0
      GUID {EFE022C5-C16C-3149-A3C1-8C5441E19955}
      RECPASS 5148
      <SOURCE WAVE
        FILE "../media/04-DI-120411_1849-01.wav"
      >
    >
    <ITEM
      POSITION 148.54038446454797
      SNAPOFFS 0.00000000000000
      LENGTH 0.97297199999991
      LOOP 1
      ALLTAKES 0
      SEL 0
      FADEIN 1 0.189216 0.000000 1 0
      FADEOUT 1 0.115741 0.000000 1 0
      MUTE 0
      IGUID {6E78D921-F4DC-BD4E-B2CF-D00692518B1A}
      IID 13808
      NAME "04-DI-120411_1849-05.wav"
      VOLPAN 1.000000 0.000000 1.000000 -1.000000
      SOFFS 1.29721779787110
      PLAYRATE 1.00000000000000 1 0.00000000000000 -1
      CHANMODE 0
      GUID {4575C019-A080-4440-96B6-04B4E4B5BB9E}
      RECPASS 5152
      <SOURCE WAVE
        FILE "../media/04-DI-120411_1849-05.wav"
      >
    >
    <ITEM
      POSITION 150.81065246451180
      SNAPOFFS 0.00000000000000
      LENGTH 5.18934753548820
      LOOP 1
      ALLTAKES 0
      SEL 0
      FADEIN 1 0.010000 0.000000 1 0
      FADEOUT 1 0.010000 0.000000 1 0
      MUTE 0
      IGUID {321C6A6F-231A-934F-A93E-10325C41C9E2}
      IID 10346
      NAME "03-DI-120330_1421-01.wav"
      VOLPAN 1.000000 0.000000 1.000000 -1.000000
      SOFFS 0.97295454787093
      PLAYRATE 1.00000000000000 1 0.00000000000000 -1
      CHANMODE 0
      GUID {D49D0364-B73C-3B46-B932-9056FE7B3D18}
      RECPASS 3693
      <SOURCE WAVE
        FILE "../media/03-DI-120330_1421-01.wav"
      >
    >
    <ITEM
      POSITION 156.27779777321808
      SNAPOFFS 0.00000000000000
      LENGTH 2.28815153294826
      LOOP 1
      ALLTAKES 0
      SEL 0
      FADEIN 1 0.036009 0.000000 1 0
      FADEOUT 1 0.030878 0.000000 1 0
      MUTE 0
      IGUID {AED4A5EE-9969-1747-B533-9B7D83EE9811}
      IID 14023
      NAME "03-Bass-120412_1244-02.wav"
      VOLPAN 1.000000 0.000000 1.000000 -1.000000
      SOFFS 5.46697710875020
      PLAYRATE 1.00000000000000 1 0.00000000000000 -1
      CHANMODE 0
      GUID {5C820DA0-C4C5-6C4C-9040-50B241C4774B}
      RECPASS 5187
      <SOURCE WAVE
        FILE "../media/03-Bass-120412_1244-02.wav"
      >
    >
    <ITEM
      POSITION 158.59459459455684
      SNAPOFFS 0.00000000000000
      LENGTH 2.22569607337348
      LOOP 1
      ALLTAKES 0
      SEL 0
      FADEIN 1 0.010000 0.000000 1 0
      FADEOUT 1 0.031393 0.000000 1 0
      MUTE 0
      IGUID {9110960C-59E3-7E42-AB40-05C9CE5FE6BB}
      IID 14023
      NAME "03-Bass-120412_1244-02.wav"
      VOLPAN 1.000000 0.000000 1.000000 -1.000000
      SOFFS 5.51350365990993
      PLAYRATE 1.00000000000000 1 0.00000000000000 -1
      CHANMODE 0
      GUID {96816005-6DCE-ED41-BB64-33C58C376A60}
      RECPASS 5187
      <SOURCE WAVE
        FILE "../media/03-Bass-120412_1244-02.wav"
      >
    >
    <ITEM
      POSITION 160.86486486486487
      SNAPOFFS 0.00000000000000
      LENGTH 1.29729729729729
      LOOP 1
      ALLTAKES 0
      SEL 0
      FADEIN 1 0.010000 0.000000 1 0
      FADEOUT 1 0.010000 0.000000 1 0
      MUTE 0
      IGUID {B3FA35EA-0720-D948-9BFF-4EAE89A16A29}
      IID 14023
      NAME "03-Bass-120412_1244-02.wav"
      VOLPAN 1.000000 0.000000 1.000000 -1.000000
      SOFFS 7.13512528154414
      PLAYRATE 1.00000000000000 1 0.00000000000000 -1
      CHANMODE 0
      GUID {E80BDCB2-9FD7-074E-9A8C-A599D03C7F35}
      RECPASS 5187
      <SOURCE WAVE
        FILE "../media/03-Bass-120412_1244-02.wav"
      >
    >
    <ITEM
      POSITION 165.08090846450068
      SNAPOFFS 0.00000000000000
      LENGTH 11.83782599999904
      LOOP 1
      ALLTAKES 0
      SEL 0
      FADEIN 1 0.010000 0.000000 1 0
      FADEOUT 1 0.010000 0.069033 1 1
      MUTE 0
      IGUID {090432F9-1255-354E-8AAE-E8C1266EED4A}
      IID 10368
      NAME "03-DI-120330_1426-03.wav"
      VOLPAN 1.000000 0.000000 1.000000 -1.000000
      SOFFS 2.26996054787173
      PLAYRATE 1.00000000000000 1 0.00000000000000 -1
      CHANMODE 0
      GUID {2F4B1FBE-EAF3-F443-BE0C-6D632DCC883B}
      RECPASS 3703
      <SOURCE WAVE
        FILE "../media/03-DI-120330_1426-03.wav"
      >
    >
    <ITEM
      POSITION 176.84970141912345
      SNAPOFFS 0.00000000000000
      LENGTH 2.14768343312289
      LOOP 1
      ALLTAKES 0
      SEL 0
      FADEIN 1 0.010000 0.069033 1 1
      FADEOUT 1 0.010000 0.132706 1 1
      MUTE 0
      IGUID {630DEC79-0C6A-1C4A-9310-BF10F5F871FE}
      IID 10368
      NAME "03-DI-120330_1426-03.wav"
      VOLPAN 1.000000 0.000000 1.000000 -1.000000
      SOFFS 13.99821086250733
      PLAYRATE 1.00000000000000 1 0.00000000000000 -1
      CHANMODE 0
      GUID {33B2E007-FBA7-2441-BA98-DC9DD37E55D5}
      RECPASS 3703
      <SOURCE WAVE
        FILE "../media/03-DI-120330_1426-03.wav"
      >
    >
    <ITEM
      POSITION 178.86467846448068
      SNAPOFFS 0.00000000000000
      LENGTH 2.59459199999980
      LOOP 1
      ALLTAKES 0
      SEL 0
      FADEIN 1 0.010000 0.132706 1 1
      FADEOUT 1 0.010000 0.486486 1 1
      MUTE 0
      IGUID {10221A94-220E-364D-B5C3-C5D54C5D45D0}
      IID 10368
      NAME "03-DI-120330_1426-03.wav"
      VOLPAN 1.000000 0.000000 1.000000 -1.000000
      SOFFS 16.05373054787060
      PLAYRATE 1.00000000000000 1 0.00000000000000 -1
      CHANMODE 0
      GUID {02E318C9-7E0C-CB48-A499-218216DB4CE4}
      RECPASS 3703
      <SOURCE WAVE
        FILE "../media/03-DI-120330_1426-03.wav"
      >
    >
    <ITEM
      POSITION 180.97278446448036
      SNAPOFFS 0.00000000000000
      LENGTH 15.56755199999850
      LOOP 0
      ALLTAKES 0
      SEL 0
      FADEIN 1 0.010000 0.486486 1 1
      FADEOUT 1 0.010000 0.000000 1 0
      MUTE 0
      IGUID {541178DD-7280-E346-9A5D-CCF572AFB75A}
      IID 13777
      NAME "04-DI-120411_1814.wav"
      VOLPAN 1.000000 0.000000 1.000000 -1.000000
      SOFFS 35.02696875000000
      PLAYRATE 1.00000000000000 1 0.00000000000000 -1
      CHANMODE 0
      GUID {B6782EF2-A492-1144-B75E-AA9906DB6300}
      RECPASS 5092
      <SOURCE WAVE
        FILE "../media/04-DI-120411_1814.wav"
      >
    >
    <ITEM
      POSITION 196.54033646453172
      SNAPOFFS 0.00000000000000
      LENGTH 13.62160799999890
      LOOP 0
      ALLTAKES 0
      SEL 0
      FADEIN 1 0.010000 0.000000 1 0
      FADEOUT 1 0.010000 0.162162 1 1
      MUTE 0
      IGUID {AC6BB3D3-A1A0-BF40-A964-609F41F6CC49}
      IID 13780
      NAME "04-DI-120411_1818-01.wav"
      VOLPAN 1.000000 0.000000 1.000000 -1.000000
      SOFFS 19.45942708333333
      PLAYRATE 1.00000000000000 1 0.00000000000000 -1
      CHANMODE 0
      GUID {33072447-07A2-2540-B50E-CD31448D131A}
      RECPASS 5103
      <SOURCE WAVE
        FILE "../media/04-DI-120411_1818-01.wav"
      >
    >
    <ITEM
      POSITION 209.99978246458340
      SNAPOFFS 0.00000000000000
      LENGTH 16.21619999999871
      LOOP 0
      ALLTAKES 0
      SEL 0
      FADEIN 1 0.010000 0.162162 1 1
      FADEOUT 1 0.010000 0.162162 1 1
      MUTE 0
      IGUID {0B84BD86-285E-2E44-B3C8-D8CF8150F61F}
      IID 13743
      NAME "04-DI-120411_1747.wav"
      VOLPAN 1.000000 0.000000 1.000000 -1.000000
      SOFFS 32.91888358328625
      PLAYRATE 1.00000000000000 1 0.00000000000000 -1
      CHANMODE 0
      GUID {FEE303F9-27DD-D84C-A458-F40012DA00ED}
      RECPASS 4983
      <SOURCE WAVE
        FILE "../media/04-DI-120411_1747.wav"
      >
    >
    <ITEM
      POSITION 226.05382046452723
      SNAPOFFS 0.00000000000000
      LENGTH 14.91915250844573
      LOOP 1
      ALLTAKES 0
      SEL 0
      FADEIN 1 0.000000 0.162162 1 1
      FADEOUT 1 0.010000 0.000000 1 0
      MUTE 0
      IGUID {07FFBD8A-B6B0-1042-8A1A-3A9AF6E64991}
      IID 10430
      NAME "03-DI-120330_1436.wav"
      VOLPAN 1.000000 0.000000 1.000000 -1.000000
      SOFFS 2.27024763120130
      PLAYRATE 1.00000000000000 1 0.00000000000000 -1
      CHANMODE 0
      GUID {4FF0630D-FAD7-A344-943A-14D974CFE43A}
      RECPASS 3735
      <SOURCE WAVE
        FILE "../media/03-DI-120330_1436.wav"
      >
    >
    <ITEM
      POSITION 262.05405405405406
      SNAPOFFS 0.00000000000000
      LENGTH 5.81527811879619
      LOOP 1
      ALLTAKES 0
      SEL 0
      FADEIN 1 0.010000 0.000000 1 0
      FADEOUT 1 0.010000 0.000000 1 0
      MUTE 0
      IGUID {63B4D08C-63CD-C147-8624-5CE782729827}
      IID 10330
      NAME "03-DI-120330_1419-03.wav"
      VOLPAN 1.000000 0.000000 1.000000 -1.000000
      SOFFS 6.16214896453721
      PLAYRATE 1.00000000000000 1 0.00000000000000 -1
      CHANMODE 0
      TAKECOLOR 33488896
      GUID {68F88E2C-D769-4D4B-9AD6-E11180C6D650}
      RECPASS 3687
      <SOURCE WAVE
        FILE "../media/03-DI-120330_1419-03.wav"
      >
    >
  >
  <TRACK '{06CF230D-68E9-6146-B11E-465D2C10DA58}'
    NAME "Rhythm guitars"
    PEAKCOL 16576
    BEAT -1
    AUTOMODE 0
    VOLPAN 0.31104826827022 0.00000000000000 -1.00000000000000 -1.00000000000000 1.00000000000000
    MUTESOLO 0 0 0
    IPHASE 0
    ISBUS 1 1
    BUSCOMP 0 0
    SHOWINMIX 1 0.666700 0.500000 1 0.500000 -1 -1 -1
    FREEMODE 0
    SEL 0
    REC 0 0 0 0 0 0 0
    VU 2
    TRACKHEIGHT 0 0
    INQ 0 0 0 0.5000000000 100 0 0 100
    NCHAN 2
    FX 1
    TRACKID {06CF230D-68E9-6146-B11E-465D2C10DA58}
    PERF 0
    MIDIOUT -1
    MAINSEND 1 0
    <FXCHAIN
      WNDRECT 847 359 836 445
      SHOW 0
      LASTSEL 0
      DOCKED 0
      BYPASS 0 0
      <VST "VST: ReaEQ (Cockos)" "reaeq.vst.dylib" 0 ""
        cWVlcu5e7f4CAAAAAQAAAAAAAAACAAAAAAAAAAIAAAABAAAAAAAAAA==
        AgAAAAAAAACgAAAAAQAAAAAAEAAhAAAABAAAAAQAAAABAAAAAAAAAA==
        AEBVQAAAAAAAAPA/AAAAAAAAAEABCAAAAAEAAAAAAAAAAMByQAAAAA==
        AAAA8D8AAAAAAAAAQAEIAAAAAQAAAAAAAAAAQI9AAAAAAAAA8D8AAA==
        AAAAAABAAQMAAAABAAAAAAAAAAA4yEAAAAAAAADwP0GJQWDl0Po/AQ==
        AQAAAAEAAAAAAAAAAADwPwAAAAAAAA==
      >
      FLOATPOS 0 0 0 0
      FXID {7CEC90DA-5F78-8048-B1C1-E998C73490F4}
      WAK 0
    >
  >
  <TRACK '{2C7FBB7F-7E56-454D-BC30-4BAA48F37AAF}'
    NAME "L (Ibanez+Engl)"
    PEAKCOL 16576
    BEAT -1
    AUTOMODE 0
    VOLPAN 1.00000000000000 -1.00000000000000 -1.00000000000000 -1.00000000000000 1.00000000000000
    MUTESOLO 0 0 0
    IPHASE 0
    ISBUS 0 0
    BUSCOMP 0 0
    SHOWINMIX 1 0.666700 0.500000 1 0.500000 -1 -1 -1
    FREEMODE 0
    SEL 0
    REC 0 1 1 0 0 0 0
    VU 2
    TRACKHEIGHT 0 0
    INQ 0 0 0 0.5000000000 100 0 0 100
    NCHAN 2
    FX 1
    TRACKID {2C7FBB7F-7E56-454D-BC30-4BAA48F37AAF}
    PERF 0
    MIDIOUT -1
    MAINSEND 1 0
    <FXCHAIN
      WNDRECT 265 174 1262 730
      SHOW 0
      LASTSEL 0
      DOCKED 0
      BYPASS 0 0
      <VST "VST: Guitar Rig 5 (Native Instruments GmbH)" "Guitar Rig 5.vst" 0 ""
        NUdpTu5e7f4EAAAAAQAAAAAAAAACAAAAAAAAAAQAAAAAAAAACAAAAA==
        AAAAAAIAAAABAAAAAAAAAAIAAAAAAAAASy4AAAEAAAD//xAALWluLQ==
        AgAAACNOSSNDUyNEb2N1bWVudCMjTkkjU291bmRTaGVsbCNTb3VuZA==
        IwAAAAAAAAAAAAAARQEAAGF0YWQCAAAAZG5zc2JpbHoWAAAAEAAAAA==
        eNpjYmBg0PX00zV1z/QDMhkAEaUCJ2F0YWQCAAAAb2ZuaWJpbHqvAA==
        AAA7AQAAeNpdj8EOgjAMQO98xbK7DhMOHsY4qXeiHzChI4tjJVshfg==
        vphFQI7v5bVNZfXuHZsgRIu+5Kdjzhn4Blvru5I/7tfDmbNI2rfaoQ==
        h5J75KxSmYw4+jkyuA4Xec5VljEmh4ADBLIQRRIN9sM87imqGbdC3Q==
        Rks6sNp2rJBi9fuuBuPgRRh20QZjOqaJgn2OBL9ji0g8m0m7EdTFGA==
        aEiKRKkVf/EGv8ulWN5W2QebsGVCYXRhZAIAAAB0c3JwYmlsetQsAA==
        AF6UAAB42u1925aiWNZu79t+ihh564hWERFyZPU/FgcVAQEP4eGmBw==
        KiIeQEFAfY79wPubcTTyUJmR1V0Zf+/Km6oVa6255przm0dQb0xr/A==
        f/72t7/1/u/f/vbpf0677U3uJ2kYR799qP6j8uHGj+bxIoyC3z4MBw==
        zVvxw0169KKFt40j/7cPUfzh5n/++fdPQXIbRukxyXZ+dLydr7Jocw==
        M8vC7eI2ynYzP/ntA8c3hA8383i3x0as2XvzzW24wCFSo8JLgihyHw==
        bpaJt/OLOHmYweE7bx0nt88M1fGXcJ7EL3/h6C/R9Rrs2id+6n/jiA==
        Y7gD34NVdsP2yU2Vu6k2Plb4j5XKDVepch/++fe/39x8SuMsWtwuvA==
        ozfzUv8m2MYzb3u7849JHMW7+zNWIQ653cUL/4HRcBHi3l4U+VscKA==
        fCg/UIJgErBx4+33t8fz/mHxi4Bx3g3+fVqGp9tn2aQ3ENptePR3KQ==
        ltQe13y+6oZuJkqVCghGHl2qZzwvxWJauPWP/sufHv/47d03WUZ/Hg==
        LUx5z5jUU0fqlrFjLm/EU/Dbbx+uSV0Tuw2y8PUcZvPQL670jdvstw==
        3tG/nXnR5rcPH7429cAIISxO/MUtUXiUMA+hfTZKw9kW/7/0tqlP0g==
        fnV4+Xd4u+LbyxZhfHMFpi9usfcIkkesgCF4OBF7jvHOOz5hjVT1sg==
        iFRKBnIM568WVr+gfE37Xhkhe9KEHpGJzX02P4a5j7t62+weOF/SAA==
        FULoFQc3ib+LIcudd7pn5mkY3rNb/gob5efNX9z+ZSr9toDvhfgKZQ==
        L5NXeCx/CchPz4aaHJ85+1R+BfPfAb9wjd4wuDHiCAa6faMRfIvKow==
        MRytsFgLg37PEIpTyZU6e0NU3b+M4YeMofINYyi/RzTVvg6EG+6tgA==
        +jahR0yNa9toXQoO7srw7tZ1p6nPksFfDvYvB/vOTEL8FpJrb000vg==
        TejRJDhzMNqku1lPUNRGwwr5zSEvs79M4i+TeF8mwV0Bmd1rUo/eaA==
        DF8l8WgGG+ky5LiBNBiMdtrdUBSCOOn82myj+soMqn9lG/8WHFWv/A==
        IerDN0Lo892P6Cnn0yLSG+Weu4vTzmATJkYY/pVXfAU91S/R0/hZJw==
        euVD99nxpuWF0Yv//Ef9T/egXzDYemKwBV3d2FHZXi6fOaz+ev4Grw==
        +BusYFireLu4EuI7YNK6e+LS8lL64128zXZXkfIfolCvCeKv59R8Yg==
        1Ax3If3xM41X3gGLyjOP/vJ4ozz0zd4TJnvKVbq6+pLFvxKjz8vn6w==
        XuLA2/uqP9/cVN9aO3+DymOAG/YU8XA+LV3B9iuTWcc4HCqd/6Iq4Q==
        iBsvcOOql33B9dMcQewL5LwlNP5McJS+Ghy/YQSvLWn7bOpxvP+O/Q==
        /Bss6Dtm/gV7R/8ZblB2/OKDKu+HxeSZxcSL0n2c+u9Qjtkzk1n0Dg==
        +dvnT/x9Gbh5Qai+Fz6TZz57/jxOFp/nGe+G0dC56h34yfHGidOQ/A==
        wvvT/Ta99kE3/SNC3Dvk0n/FpRYtfrnSv51zfCfroOlvBLM/KyHhrw==
        Mwm4pOSNqciX+x+TkJrZso1Lc9qr9BeXuXK4tI+j9q9NQrhXSQj3jg==
        q2zhhxOJz6yjGT8poxknm/dUzAyeHeEAYrtxwuN89cyfIP16BtNjMg==
        j45PTPaPSTzzywq9aPCexLjYvzXL+VPZS5YvcXnpJ340f2GP598Bgw==
        qfWs4XBLTsyCM/jfV69SpUPe9ubp1ZryL2nPXjfprcf3fvy3dmm/Tg==
        5DGM8IJxYbWx0ZvudM4weevC5Yf/olb/09tSXnYz39KbWMtwe989mw==
        h9ExTlc3bfWjGc4SLzl/ZPv9NpzfB4Obfrbfx8nxY9ejJ1E3+vNrZQ==
        6cdWFiJ1u6EHiPWPShwd8dePz4L9uI0LnJT7/yg8JNFzUNzczsLjzg==
        Szf3t3n4y3+cjVV4xcUu2x7D/fZBnA+S58s8hE82Ovdf+LulJke0oA==
        V+UwjcMf/u/PLvTrP1/oO8VznfpDPeZfkGL3o2cfeY7m74+/wW7/jQ==
        boRYfy88Ws+FvpUd32Fderf9ZqFf/99YRr340T8cCF8ReKJ7e7Xg0Q==
        RT74a7im22ff+cqPXTmvxxU8J/GS0OCk+g94sT8C+j+kqm8o6UXGtw==
        XxUWtn355zd0xq/fMGS7PYu87Tl9cz36TTKP+YRrdU4rPhv1u8ZoHg==
        s+7lTlxM/3pR8b/v1YF6/QoIzj2ppybh2xD1O4QeMeUJtfBsWVVXOQ==
        7OVZ0U20gTr+tZiqvMJU5R23Ouo/2+pw7t4Ywf7UOlN95k5Nzj/WnQ==
        /lP5Gz3zN7rC8/vhzxo/50/h6T0x5oyvfMENvVd0Aw7DKPj/5KH3Kw==
        Avckb+PsePuNFX/Mav8TacwftdQ/hacfRf+fwszPIP5PYeyNPuw/kw==
        FH/HBP5gVtyofO1Nj7d+1uJbVB7zF0lXq5PKrDsYHmYZd9rXrOyw+Q==
        L3xfhHtv74sIP99G+t/yoP6dv9cS9q9bXTeD+ObhvcW/ns7/1zyd/w==
        X/PuyL/lNQLu17xGIF2/kfj46m9z/MYw9Q0ij1EqO1vydsjMnq2M7A==
        fcpvrGrSLv7q3PxQpPnpzz699XHF+3xW+jI7j6OjF9KT0/nDI6nbew==
        nYXb8Hh+7nm9fMfA1zJBaDvb3ktwMbsJI9B6+VoF/okA/jynJekzUQ==
        CD2B3SRxkb7+egPuixNWcXq8UhSO+Vyf4n/8ge9nf3wU+Kcojm6/Ng==
        8eVj3ap4/WlGf7n1NzCgJ2ueFMv5tmJv3Myfjg5hrRlFUvg65/y2JQ==
        f8eKm94cJ51/x5j1rj74vkFfP9o9Jtkre/6mLYPrKEdAIcUlPpQ8uw==
        efzCi8pvH4byKXfWbqt24bO54pZrwclxhN7YW5fFc3teXm/vBIcX3A==
        +UAUJs1NOdXizCnJeV1tBNnaLVntQzX3TtzeFIZ11yjX7E2Ul4zcSQ==
        JC3WjHJoV4q8emiqpqips3PJNgMpD9im3jgFoTWXUrvedA79OFgLbg==
        lY9LYaeKvetJe91gAe9KzAy9rKLEzUaVbVc7iSmHImeqzgZ7ltq6WA==
        2E3RmbL6ecDx5YCVXC3tOKHaltSa20pcadKttpyJyinrE+v5B1Fv7g==
        K/lEXccJ53aFUAq6mZb3lT2bcezU08VA7bSdJVsf1GpROgaS1R5kzg==
        jA34dYVJyVDS7d7J8VWXDTi2HbtYPw8dXXGtdcHWq4rImDK2dYWPZg==
        BStfSlLaFbZ5ny2lpBJMlVFpYnfMfMfEaaPOC2OjdFDreX6Qx+OGEA==
        DDejUonNV/lW9upmJehyZ4nJ/U62kZfDSzUYiUwSmzPemYR7ed0oNg==
        BStVtPHMmSncfs2xcVOUYnmjOC6TVuCnVqQiM0ZHu1CN5iVlkn5uBA==
        nZKV20qllVRdTveluKPa+UwtlAYfrJSsxIw7lmdM6c941gc/nMLX8g==
        1WrbbvCstDxIc8Xf5C6z5KTCwgsvTphWdYbMXaxrQTeaSK7abTtDxQ==
        EHF+uS42Ak1t55rSmcwqbgF5V5ozN1+ybd2suoYdSoWZrPMpW9RMLg==
        KC1aUqGX1dxXrdSsuOcp3X9kQl/eolEJgq0vuR33mLtKKDYuTON9EQ==
        86OsYMv0kjGpxYtBy1QcXV7KKhcUq1gKzPgO8jhW1YLZM7fBmMDllg==
        Eo9m1aB02EmTVtvPB+zAGg2+d1JKosFGeSafm0mj4N1SqWhpah6qUg==
        3eSKlqhA/oKfLxU3aFSYc1eSYpsv53N51IG++OAAfEZ74HN3MgvWEA==
        PNHVBD1nytBpAB/7c4NZJ8kuZHG4vrDWAfhptZljMe24PjOBn+M+Yg==
        02FKZZccWNBXgG+vm+uyeWpcgnqgSLwy9/OhPOk2uOBOCyXdmbr5UA==
        5e6A3+0dB7yvDvlEWfoNjOORtFFCMx/J/DqpMmlSkibNzMl7zFub1Q==
        gos9qcIMJffYMcD9mrEh6VrWyufqOUyqQRrjfh3uLp/KVjSruYowkg==
        GGvtc0++2+O8fT2UJoan5Z5ijKC/8dmQCsWxcl1VFeA/6Q3FQHEGjg==
        prT0AfQxDMBv3XdGrDOF/cyqscTam5IzUjJtXWULE/fXLiXg9VBLjg==
        bHIIRV3Z6LhPt9uoBbUd8MFKar5QapsZPBXwMVRKm3yszPeNajAXPA==
        iTWzIB8pne2s6voTT5qonSifyLaN+dw9S0UrknPG6jPo47DkGqylXw==
        gB93to6Z1rKgHy+Afqy9mrJSS8NYPWRM7mWzlDlDQXTtLMwtVuaSgg==
        NQvIQ5540MfInEH/AwH66XRzV91AH0Gd8OocB8BrMDBhv1of8mViPg==
        YZcu5GUrZ4lvDbe5z6o61ruKgvXxKveVQ2dWY10lk2I9PkPeZxv+ow==
        pSm4f53BPs6QB/NC2K8zd0CvJ5hn1hbOsPdukDPZ4pOUHfWSwPTeEA==
        8mT5IGVZF/hX+5xdsGCC+1WUocCsopsVarrG+oPZbzDZO2WFPF+ZKQ==
        m3QVgWmDOzuQ5wc1Y3MWiKzJpw5jjS7se9hnIjMvd5CXXrvEbD3xGg==
        TCn2wGttlZyZPzPEwlH7GOd8cmKdriAGxrKdW2p/D35XtUyE/ivQxw==
        oIzz/ZkA+yzF4GdypPMXGBsi8M9sE/SOmicyZ+vmuqINYF/+hcP+YQ==
        BLxVFeijJNL+ngD+3Z0ZM8WKcf++Df4WIvhHGBGZPp05GuOCS4EQ4g==
        iq4RLh1NzuLLmcX1CvDa7zpMdabwF/yKx32VOfaz8mzDxBnXCBx2Bg==
        P7Ul+NnWIW+tlOE+0xRjycB9WucF7L8aYnzhwJ8uN8HfWMd9Ny48eA==
        Z33G/UqlRsqq4DhQ+R3W17vAY0vFuJUK8BecgbG9ovUDWq8dsb5B8g==
        NfYz4DWdQl7FXoG8DQ7zrQvm3SPGmlLB/DmA/Hw7E5jKCujPGEH/PQ==
        izUCABr6s1u4r6UEYtDeHBG/YnMAfYYYN+ce5iOGcZKkDdbpjYEXfg==
        PYhZxWrVmcIWWSAXFuyltQtwXlKyeRYOsb7WAR46XOFY6rIYnNgi1Q==
        EQ+9igOntoN/iyL4O53lkG+HQzw6bkXg8by1IQRFjVlhEB57M8i7Vg==
        HWTsEkJfxukM/5FElwuzLfKP68xpKYqi1ph0Qjy2NgtnKOdtxMe1nA==
        SnzTGjgjdSBf4E/KFvRRHoAfLR0AP1NNDLQe3dftgV85RLyW3ZWjqw==
        ThvzjZMoBh1rC/97JHmULhOMJ2XwH9P66maC9SfV0dnBxn2WSgG8VA==
        ZhjvFeBlVSoazEl6dqHUT7hfrwt/0mnXbF69a1E8xv6Adco4rxUBfw==
        HZGJbnfpAX+CgHiwKBViYeYrx5LjC87jTOQ3hj2EPiQP++0z8KjVag==
        0IebgH4cz2GvCoO8tluSpwh5drU78OPeqZBXjPW2ccb92xXoO7J5MQ==
        bg9lpy+fFZVjXVZIhcEsx2eugvwhCoaSa8XMmcurEvQnOtCfM0hBbw==
        Vkf+5C8QX9vJ2LGUbgX3r6Wi6DbHNvSpXnB/0YrFouN0IK/1eYDzRQ==
        6E+bmbhv9YzzNbEiulbi4n4VjuTrQ59OJICeIF8qrCNrEt/RJs5IVg==
        2ogP4YmXYoufOUNVb4JfodhIrNvmoZ8JBzyIJg/7zTa432BN9MbQTw==
        Z+tDXnd3hLcm+GVyFfZeCzF/qs/hf/prnDc7kPwN6LsrAA/q3R78lQ==
        pxWxULk+5kuUPzUj8K92E+QTi4kKf3W3AZ6kCeSR0bgYQz7NcxvrBw==
        W+xXPNzHsC8YX3LII7CQT+pOE+trJ+j3bj4UXUXVwF/thPnyfCK6zg==
        2sL6fRX4a2ewH8tMHE1VSuqJXQJLipXAQv4qNNUqW8oVSe8WG8eXDw==
        BvKtqF+RYqZn0KdqAP/dcIh4IEJerKaplYAxS3K7RI/lVdz/MnfFog==
        eRCBt5z426UYtxOyj3Md8vKXhcibFd1xVUeD/OerQGKOPnP66ql1qQ==
        BAs5AL2453jqWFErjHOA/84sgr6HVfDLxCHiQYn0aR+h/2EC+rZfgQ==
        /R6PwGNvpgEP5z3m3QjreT6FPXZPkH+vD3kKZ8w3NQY8WRfgeTSDfw==
        cUrIB5RaHf67c4I9d6wSyW8O/jcdTSwUYw/6do79VhrDf5V70JdSIQ==
        e7KANz3HZVjnCPmeD9BHS7Bh//IC+50m/EG7wuG8Ldwsi2TgwdaQzw==
        M96EPMILxsYC9qfm3uXEBhMd+us7dH6E+zSFDfDfB77keoHz6+JGDA==
        LNPF/kYV89oR/q5bdrHfPWN/W4T9G2UGflrE79aEv7XPHOSxO2JeaQ==
        QB6WCpGrgxPGukj8rO+w/0x490sa/EWyw/3UBuifcvJn7Rryx3oZ9A==
        Lrko8m2Y1EQ2ysBjt5xC320O/F1EyAOOWHTb4xPxK2L+6CA/aw6wXw==
        rUqwh1k+h/2aVdyvTvm7W4J/1KMd7C2pQT7lBc43EwX75wn4aUwpXw==
        WwjgR3Qhz5BB/93DhPLbHPlAaBwEZsoh4rEQIT4NZgb8YemAeDVYIw==
        PkUq4nVLCbNAiVX4f2lF/rLH0f4Y+UlrNkG8KzXg77QjxssD5vVDFw==
        eLCn65SJ4QbxZzCyA6WY4jxP1QTWDHeId7oJ/Mgd4MdYLhCfFBX3aQ==
        hBR/rAL6GZi4f1shvKUG7lvwWM814L+1Qwr6jRTj+ZzH/nLV5mVJAw==
        Hqw+8gNDhn9T6pQfjMbwD10O8UBZk78o8xOxaCkt0Nuv4D9LOvyDsQ==
        h79XJB/2t6zB/zhTAfbdD2AfR8r3VZv8p7aF/tR9inphF0Cfuxj6nw==
        esBb57wAPg5byH+kIz60DYrfKEGRv+5gf3p1A7z0x7jPpUn5yh7xTA==
        DqbgRxoBT46EeMuGc+zXW8BTS07IXqdYv2hZ5B+XWK+PKB42YV/Oog==
        C/n0+phXh8AzW6AekccO+DufgQeTTTGWKT9IU8jL9pD/KZmL/KJqBg==
        yBcVGfmymCXIv5QD8pN9lBXKOoT+eQ/5idyvYexUoH/Lhv4t1kZ+dA==
        biE/Evs+8B6gvmd3FvI7PbTFQBYN5LM55TclHvuROmfwbDLwojDgQw==
        Y6in2MGBvhIWI/4FHvKJOG/EbNTOgK+Zk/HyXG2cGT9oQX9dA/lo+Q==
        DvXJdKsA34GIfC5sI3+8LEfQt58Dr6MJ+BPsM/JHtqHzUnXCCj3lkQ==
        lG8yV9FnyC9LVgvzFxH5kK1S/hWUqF5Is0AtFri/2J3UWYd1kH8XPg==
        +NsegCfmOBjrNeB5fgR+1XIbePf3mM/aiOftgPJpNhtQPlTimcx80A==
        d3ugV1JDgdkM91eKTbJhTNF4piu67bJAW29QlCNfd9Yc5pUF6pWJ2A==
        agSq1kQ+KRiQZ03bQZ53O9x37c/gf2oC8udOBfIIx5D/7nKAPNwB1g==
        b6u4vxiTvV7o/MAB/ZVZCEwJFOjbKiH/a5op7G3VsiGf9iVgI7WP/A==
        7VzH+TYsiOVrylfrPvJRg+oJoYP6l+1EyDfmzYy5yBBYU7xD/pt2oA==
        D39A+e5KAz+DIfLnRpXy6a0Pfnoj8F+v0FhrAA+JAf6VFep/i9cwfw==
        EO7rlRbwOO6A/on439tU322AL7nbAn2uj/3mpgy8de9w32IUAu/VGg==
        8BYGGNsx8GH5jOaXVK+Pkd93F6hP1PEU+88a6hdTL6jeUMFPx9o1mA==
        Od3AnzEPeFgZkE+Tp/pqNII+FQ3+p8uT/vku9DnR4Q9Zz4Q8ein0Ew==
        By3kx/MU9Uz5np92CHuzTejH2SYXdplywCuHelMe7WcX1vao32Efcg==
        TWapeWLrBPpqtXXUoxyH/XEJ+80aj3okZ41KsKd+hBy7qOcbWqPCzA==
        lYf8ThvlE3XZnFWDrGdLk7bmon70VLPCKsyT4u6GoZ71JMh35e/g7w==
        VR/31ao4bzbPEC8vCuQhZOCHa7QQj8J9rqHSwrhWhzzVvgt+lqGJ+A==
        ECuQZxX4YqIH/obbM+Jhpw95rwewt7GGekc53oH+dAx5blp96GcLeQ==
        INVsnJg3Qf2oZ7B/pm8aF6ZOoT+lFd7Xj5jfehnqSy7FeeOE6Hs7sQ==
        kA9b4OESwd7HU+DdGFH96azBv6R7GJfAv6wucf4qgr/pNAvqz3i4bw==
        k4O/UasLrF/dQf9RFf7B3OsYb12qV9eQr6qdME4Jf+KpRPgdQh62jA==
        9ZMl8NBMEuDPIzw6GfyBvgbe1aMMPLOTAbyKAe67sxp0/wPs8RiCnw==
        1Ad9NhlBf7sOxq0Q9Ksx+Ol0quDvPMZ9xArO7xYXzHd17PdO2G8UMw==
        yKtL9l2sBfLX4J+lS9TbownsWxE87K/HxK/RRz3hrYGnZoTxrgP9GQ==
        Oxn3mYyp/hxAP/KG9o9l0NMym+KnAX99yFFvKjPcx55hrPI1jAdl+A==
        S3MCsMlTBfyvXeCTIblkyloAvsuij/uPVtjPFvAHHRX+AK4K+NfO8A==
        ZxUT/lUewF8qJRP0Gjr8jcPVMS+X4B/WMuxP5SXIVyX/ZNZ2sNdSGw==
        9JU18JDXgQ+51Ic9LNa4r85DPnKJ7NebQd77KvQjd8fAz3KE+1Z2Pg==
        1mcy1uub+3odeHMELtfU8onGRxv1yWCea+zE47zgCPtzoiHmByfIXw==
        MH3E51GEcbqFvPZ6hvVn3J/VAtCXeOiL+m2aetlCfuq+BPx6EeRtJA==
        sxNCkSK68g7+QzFpfDRC0bXtFebrO/gXSBH52KgF/js+8NkaQR/WdA==
        hftmZB/ulgMep8ALyzzMLzjcT+vlkM/Jw7x5B307RxfzhYv7xBf4Fw==
        RVxSPFXAr1JCPJQN8r/aCvpQZOjDkkuIZxMJ+dNdhPrR8arwV2Oqzw==
        dXgRpq4rGF8ExPfWgvIv7gz/r60xZk3E3268RrxCfgX/K8PftWLk6w==
        8mGB/f095Qcc8jc1rWK9ZLvIB2pYzyoXxL+wQ/V/B/FELhzEk3EX8Q==
        VN5z0P+G+j+FFJI9bYG3BQd8DKk/JNtjjDcj4MsI4N8Vyh8ZbwBPsQ==
        bdcRr7eIv/M9xl0Z+Ye+IjyVjlifORTPxAnkYXchH24De2muAsjvTA==
        /injyL6bkLfcJn88q1B8iiFfxab8xCvgD5qDAfDcTyC/zZ7yi5IHfg==
        igPGpgV+ujMe83utQfkSxSdG8dW2sf+8NmDP+g70oibO7xeId93xDg==
        +0cF+GtOQa85xZj5Ldy/YiCet5VR5jK3PNgwXxcFmEIX8ZYvIZ5YAQ==
        8h1d70GePvX3xRXV/+xI8kfZzk4b5BN2r4l51oW8JysdY1WnfouD/A==
        iTkHZMZyQfl3BfmSxCgf05Gfy7wDec81xGu1PsJYHOF+3Sb4M/fUbw==
        R22H+24pH5u61G8aUDzT4A/asUT5vgP+2xrsXztBPspkhvlNBP/o9A==
        gD8lXWKeteFPnLNC9cAK9LoT6NsMW9jPrbDeo3F7R/T3O8zfGTivaw==
        LDF/2GH/TCf97mPMtzqY1zse4muAfEThYKJs29ap378E/twM8mhTvg==
        2krGwK/OAa+r+/7MEvhj0QHyq3Q0jDsXqi/6JK8QeDUCE/LU4KaQbw==
        AO9tXcS4NMN6fgr7YBnwjEyX5O1hf/ds4Dylf99vG0J/qgr7Orcgvw==
        GQ95KpFMeKmD33oZ/Gttig8TAfOWiPluCf5S9ai/d5bpvsqc8skW8g==
        C9706qyltoGHiTqLGafCf7ZWe+BfC6G/jWHAfhTK/wLKv+uGR/MV5A==
        b0xEvljoLs+cYA79uxvgp2ZtkK+oe+CpUof9Z9QvNcMU85MD7LHUdQ==
        kc/zfZKHC3l1I536x8hfgQKqzxrAVzcCvtTtBffVFpCHqbqYr1Yx3w==
        W6TUD1thXKP6SlhA/opDeE0KjDcN8ic+9MPmK6zfbSBv+VKy6T7A5w==
        xJrXkeReMqYWDeJfw30c+YT76BPI48Ay6Ju5GVMKGfwG+gT8rjXUfw==
        faSULF/hPMafoK9WF/y5IfRnxTrOiy+4v9tBvchWPaxH2o76UcN+JQ==
        NHC+e8Y4YVRf6tiv2nfgdxWl5D+7lK/vQD+Y8oRfH/JJd6Af6Bg3Tw==
        hA/xDvJKVcJXMcP+CeExkiEfg42w3tUx9pUK6E0EjOdUv4jqfT2zwA==
        mAngr6zrqC/Uqc1Udwx9zmyP6hHgQ0aWCLyoyHedAvmkwu+gf9ZmHA==
        6oEY+ks7pI82zmuex/Q8I6F6ebah+rmO+wspyZvqabab0PPBNeb5CQ==
        9Klx5C9KIfgZ10lfGUf2UgG9OxvzrTLFg6iEcSUHPaOBsdJ8iA/w/w==
        ekT2ZCQYNztkbyPgh+03dP8OycPwqL8bg/7Zo/hgXAgvR6y/eJCf0g==
        WlP8IfleOlT/98l+M+J3mWLczCFvOaDznaKg/H+OenxkoF7tq0PkTw==
        Wg31tE7PY6Mz9bN1zMtnjfr57hDxsMYT/TronSTguXVpkn0jRDHPAg==
        /uz7+kyqQR5SifTjCDavQgWorwsN9XxSpvtImG/YuK9qzkheFew30g==
        De1X6flVTvzPyP/sYtCPYvBbNuAfTA9jZZ1inJpYr6xljMtn0GNH0A==
        s/Id1svimuSL+7bWiMfKkMYDh/gdkLyZhP3zHPJULgXZo4jz7spD2A==
        oyrZvIziAPlk4NLzEc3R1YWM+j8NNuB/Q/0rv4n5zSkVmV1Q/X/XgQ==
        fOoK5llQYBx3MR6r2G+5maMrK5rXewHktzEhz6SM84c+6afWe5Kf3w==
        AH+mEIG/TgR+Zx3wo3sW5uMVxjL1q1WF1jfJf9jUb7FqA5JXHfPLJQ==
        4aMB/chHut+9fLu1PuGT+j+9PcWvOuEBZTfqfTtAPdzfAO9sAXsNNQ==
        xMeOPIE9ayv4g7IJ+1EH9PzDba8pniFeaqsa+FtS/pLUwV/HJn81WQ==
        kv1piJ96EFC+ImJ/bMIfyuEU8WS4uVC+asE/rss4z7DBzywC/+aI1g==
        V+/xsyD7b9dtnlXoeYDI6HlC3KN+i4rxkfDTTA4Uj8k/1i3c1w5h/w==
        aofi0yTVKT6Qf5BEeD3HhX7aIvDLjib2r9f0/OqoYzy5A763I9Dr9g==
        YuBf8qBPrQX9GIsQ8+oYeA3vqP84hb6Ulgv978g+tAmt37foeQiDvg==
        1TH8m5JfIJ/sQPkf+QN5RPLRJ7hfM4S+VJGeLyzIH6gl+CdVIH+XkQ==
        Ppx+G/tLC4yFbUzP3zTMlyjf8JR7ed77zy71PzbwR87JJv/jYf0sBg==
        /tlhQ/jJLyQ/6MMph6Cn1jF2fNgjigas758xNkyyhx3Ol+/jxWYLeQ==
        ax3YDztTv88IKZ4wrFeHlA917/OhSY71HsUvWSP9dCh+CRSfRZXmeQ==
        ymfDNuhZDvTbCheEp86A4q1YZyqSv0Bxl9C/3wW+rIDep1ConxMbJA==
        n9kS/mEpXwo27cEf6QU9H2X2oED+o0M/TeoH3j8/Ei4p6rMA83LQgg==
        Ppsu7MucrSj/peezYh3yc/aE/+EA/LaIP9axCC8z8NdEFczMEslDOw==
        UHwxyR+34W9kgfwHqnCyF/InffKngwPR4yBPuU72yNepH2qT/IdLlQ==
        8jX4N/U+f0zDe7zv6shXysg3+h7yj0hAPtesod5D6oJ4M7RRLzjRAg==
        +Ylyov7OAfWh3UF+rsx5xJ9C1pGfUPyW+x7px6D4UwMe2KIGeTWXpA==
        /wv1R3pk36GN860x6X9C/tbsIr42L1PMN6sYBynuL69bFB+zNcWrgg==
        +oek311A+ZlGz+fXR9JPB/a/Y4iPzbUJ/oc69ZcpP22v6Hl2l56HKg==
        lG825fvnqRPkl5ct9Yt6yMeUjOpP/74euiB/UjcF4u2w04c/WXWo/w==
        FTc2LO6kwIPSJv/SwHl3IeG1R/I8L8BPnwf/3QPx16B+3i7RiV/KBw==
        rBP4144YNweUL4gC6dOm+5Xhv2VDoHh4JH2XoW9llTzF47ZO8uIz6g==
        H2nAI1vd36+AvNsB+FddB/fzFfBfsX3cX9lQfmQjP4pbJdRDKm8Djw==
        CeqHoqvVWUcJbBf+5zJnvK3UwZ9M9E6gN3ME5KsB6DG9Se8PyH3Kfw==
        qZ82r2F+qEO+lhoiH4tnlC+Rvdh6Bv53I/BbJ38oe8h/FY/8h6GTvw==
        7+TUD+thvFsBf0yFfSG8Yb9oV+h5so382G2C352KesdWJOS3xWG9YQ==
        pgH/bcUuxf8B5SsTwpM3BP0iAj3rHs9nsv8J+eO6iXyuJddAT5OQHw==
        r1rALxtR/ehdqH6wkW8blwrucxaBB9fG/diY6snRBePtHPrvXlTcPw==
        OQEfUppR/3OC9Rb1c4bOiPyzALyIEsZxhvWtRh/7jQzjdR31irGi5w==
        HRr1P8Mm8vGOqkLecYr7Vqle6zLyt2Ef+m41gR9rBX2rMeWn6xU9zw==
        XVO8KlLoW2siP7flue0qTDQ3jOnId20V+oI+cL8B5YPGOqZ6V8DYIw==
        /bP7fm1RwbhpcciHVXper7AG5Zstqtc0qq+mGB8m1L/xxvT+1IH6pw==
        Ddiz6qP+VgSqbzWB+jEh6i+5v6T9W+pv7xWqtwzIpypjvs2onnHp/A==
        RneE+yrkP+aInWzYNqhfPaF6xIf9uBbjmayGkMfkjvJbA/hxBkvYbw==
        oFA+J5N/4+eU3zSBJ/W+vqX4rWo51itt6FdRRpCHm0MelbaN8Rn2yg==
        NnWy1wD60Ceoz1lG+DUD1JvtwR31y33w4yrAO8kf553gzxcy8NqeDg==
        CE8U/7sT8pcjlfKtEfAkB+QfWYnWj6hftaL3S3a4r3yker+chuR/7g==
        IK9zhfoRFvmbw5bqU+p3pyq97zUYgb+ghPpF7DLgXZ6hvtDp/sNuXA==
        Z6bCgNfKhvr79PzA6FB+f9qRf00hX2W2Jv9aNjOWB6EYWG4vh/1RPw==
        4nI6U/9vnjN2as3OrNPri4CGk6OIUpIzhD2i/iT141b0vknmED4HhA==
        32EZ435ggN6G+lca9fvgGUTWwblMzaQG9S/pfkvoX91Rv1rgOdjfHg==
        YyWWId+NblD9NYA/YD3cZ0rvb6j9OvUnYsSTTYthXu2Tv/EbAZuQfw==
        bq9qwId1gD4ck/B8pucrkx7wA1/AMVWm+nRSAT2DwR/abEv1kkH+dQ==
        BX/fDnnYR9BTNyw0djgvxn3UDj1PbCXQv1kbgb8a1dOtZYvsGfJT5w==
        J+rH7g9kb9SvSVWMAwN41VgV+HAF4MmWCb/9HvixZeo/aWT/hk79yw==
        PcbJzKd8FfhXLifc35sb9L5ShfpRpC83gnzMjk7x0SD6oU14pPdzdg==
        Y4xtnvxPKaP91M/SqP8DV5rrCm9C/m0V+rWZBP11nMaZVQZn5N9WNQ==
        1+XAmKFIljHfqjQx71D/wLVw37Z3AD1jA/0kbYzVE/AvFw7GrTX1Xw==
        JhLOj/sYt7fQJ1Jzqhd9qh9jWs/ZtH6D8YX4s04l0u8U61cUH50T3Q==
        1+tSfyok/1hQP6hQKV6uKP5MfOpnmJhX1Yz6MU163kP9obRF75PtcQ==
        viLT8z9jSv1gjvob3YTkYVI/SbUwrtawf0v+WSkX2H9H/jnJCG95Qg==
        /pb8b0H9aDag959keh44n+P8zvkCfow99nen8GedjPxTPMZ4SvdnwQ==
        hPRTJn9knYG/84TscQi8hXKJ4gX8KRtGiG+ck1F9neO8gPpdC3reKA==
        ez0a0/Prrgd/0sro+XU1xv22HchD86g/zii/mEdYr3foeRdujjHZfw==
        K6b+jjjE/LkNfro++aeA7i+mNvU7FvT+IfW7wZEYtCewb6XSNCkIGQ==
        wEelS+8rygnyS4ej+En4kan/frTgL1SKV3KSYRzPIG9tRM8vFfLnPQ==
        6peZ4RTjbAt5dPaU7wgUz+Ml9dt3kFer5xA+CC/iGnhWg4z2kz59hQ==
        8OwSPa2L+6Qbm/LTLvgdDTBWNeDJCcoYFzbZw/1+fgP+Qo36dw71pw==
        VJvsfQ15T5ghfLhZPrwLf/+JA/pOr6cP11x9r9cw9ZP049rzkij0tg==
        H9W4iLaxt0g/tuJF+i/Fm/2r+g/+oyR87Fv1xseufTvof6w3/lX9Vw==
        GM1X/5p7+3/Rhwr+VXv4Kq8weTjiayvuPwjx+DZ8+vQ5ldSjDylgyA==
        cRx9gfb9MPGOoCE9fJnL1z8p8aMfmHn7h2W46g99LvMPfFLmz/l4dA==
        5erj0b+amX715XsXL9efVq3d//tFTHEvX/f5+x+n/FPYadee2GmHtw==
        WpS/g+9G4J+/G8HfH1e/nqFe/eUTRWTv/q/WWVP46nfl/SJu1MbVdw==
        WfxyZsQX8My9K3b+IQg8/4tM3pGuvsxi4W+9Xy4ms1p5+cz0+zB7pw==
        +uytHS/69fxYVe6r36b4izTWq9Y+80I/8q3+fxKY+Ndgumkm/uFKgw==
        DUEUuF8U3qr11/Htc954rlrnf1V68uzHR+HidaSTxPovkliz+uzPHQ==
        39t8Lq9fZI2tqviKq+/+lNufwpVblV5x5f7pLH394+nf/Gj6F5/Z/g==
        VP76h6s/lYPkNvHmm3/+nUaJ722P4c6fP/w47GL2Uvg85fafHudQRw==
        Lbyjd39X/GkZBk+fTn+cxZaXOHy162YbzzcPn1x//NX7G8dfeNurWg==
        6X6WeIEHxNXuf7JT5Kly2sYPQ8wfY/oY6SsR/v4pRjjfUAH6nYMqjQ==
        2tVB1Z84qF/QDxDcVH//oGqFl64O4l4Oqr7xIO47B9Uq9auDaj9/UA==
        7TsH1YVrHfE/fxD/nYNEcl7PB9V/8KDqlwfVXx1U/QIM14ITro+5/g==
        2oNnX/Fija++0RP/QeL10B94+Cpf73T7XDLfwBHcPkf2xy/dh6TvyQ==
        Pn9ByON3K2TJlkZHL6CvBIM9P4ySwH+xi4fR08anYbabkU3eXkuo/A==
        IqI3SU34jtTEaxg0flZsXf90fKPYuHcotsdfrvk9gdVr13AW3yywxw==
        I94kqsprUb36xYoflNrD7/O8Ehz9BMZnovt3AE78ffk1pGuXLb1Zfg==
        V78M8UdkOPD2Pyy7x1+meCW8wf6PC+/amWonXDbytg/x9XvxiKtx1w==
        8aj6MyH2sxO/E5i4unjtX6tvjrVdv7hRHmZ//6TrL0d/Oe9rIfdayg==
        n+U3jws8KuzByw9kOw/K/CLPIQ6uUpgvfmblW9tfEpgHCtU3U3jJTA==
        HihwrylUf5gC90Sh9rMUak8U+J+lwD9RqP8shfoTBeFzCq+/c4dI3A==
        Q+uVe3gM1F8a6MNpP8iD8MRD46d54H6Oh8eo8XC6+LMyFJ8oSG+m8A==
        pX96xPXbTeNLx/NI6o028sqjPJL4lpF8Kj+6gsfhf+y7uz49VIxfKQ==
        yvgPX35D1u2D29uG6dGPqPykQz772+vnWJ9e2Loln/dCv/H6adejqA==
        Xo56yQJePOHtdSLzg+H0DTnEI8av+f133eQxJn/tKtLPXeX3I/rvXA==
        5bqy/0x3z0vSyNunq/h43RB4/tu91p9H3/xSuE/lz6h8Kn8Gtsc//w==
        yNfGPRN9XHf/PPQl63rZ/SwMThS/+2Nc5Z8gK3Df/anInyFLaeZ3vg==
        1vgnyNbE2ne/h/InyFa++3V4PyOCeuOJbDmfFpHeKPfcXZx2BpswMQ==
        wjD4SbIN4bs/MP5T3Arf/R2NZ2f+BcIf+mNftMQeOmU40yODLT8McQ==
        xmOyeLOMk93Oi7yAOHj+rk5a5M3ph8xu72sC77i6eRw/VgxxskAIew==
        qTdf1w6PJK7XhlGAgAI/de8+yv+87+WFz7+SdjtfZdHmn3//fxB0Ig==
        kWF0YWQCAAAARE5TU2JpbHoWAAAAEAAAAHjaY2JgYND19NM1dc/0Aw==
        MhkAEaUCJwAA
      >
      FLOATPOS 319 147 1023 702
      FXID {91F38C47-F90D-9549-A9A1-691AE1BBE70F}
      WAK 0
    >
    <ITEM
      POSITION 2.42551781543581
      SNAPOFFS 0.00000000000000
      LENGTH 15.73662877915752
      LOOP 1
      ALLTAKES 0
      SEL 0
      FADEIN 1 0.010000 0.000000 1 0
      FADEOUT 1 0.010000 0.096909 1 1
      MUTE 0
      IGUID {59B0F12F-D548-3740-9ADC-324A1EE7907B}
      IID 1596
      NAME "03-L (Ibanez+Engl)-120323_2109.wav"
      VOLPAN 1.000000 0.000000 1.000000 -1.000000
      SOFFS 0.55351810204672
      PLAYRATE 1.00000000000000 1 0.00000000000000 -1
      CHANMODE 0
      GUID {9479018F-89A9-5C4C-8F8C-D7B83A1749C6}
      RECPASS 421
      <SOURCE WAVE
        FILE "../media/03-L (Ibanez+Engl)-120323_2109.wav"
      >
    >
    <ITEM
      POSITION 18.06523773194341
      SNAPOFFS 0.00000000000000
      LENGTH 0.96391897388878
      LOOP 1
      ALLTAKES 0
      SEL 0
      FADEIN 1 0.010000 0.096909 1 1
      FADEOUT 1 0.052577 0.000000 1 0
      MUTE 0
      IGUID {DABF094C-79CE-8842-BCE9-F7EEC69F11FF}
      IID 1614
      NAME "03-L (Ibanez+Engl)-120323_2117-01.wav"
      VOLPAN 1.000000 0.000000 1.000000 -1.000000
      SOFFS 0.23896836420863
      PLAYRATE 1.00000000000000 1 0.00000000000000 -1
      CHANMODE 0
      GUID {12AEFE41-CC83-8047-A3D9-D5593F50FF48}
      RECPASS 425
      <SOURCE WAVE
        FILE "../media/03-L (Ibanez+Engl)-120323_2117-01.wav"
      >
    >
    <ITEM
      POSITION 19.25407113301618
      SNAPOFFS 0.00000000000000
      LENGTH 1.81605233860887
      LOOP 1
      ALLTAKES 0
      SEL 0
      FADEIN 1 0.046735 0.000000 1 0
      FADEOUT 1 0.010000 0.063472 1 1
      MUTE 0
      IGUID {9B832BCE-0E06-044E-86CE-4C38B7079FBB}
      IID 1614
      NAME "03-L (Ibanez+Engl)-120323_2117-01.wav"
      VOLPAN 1.000000 0.000000 1.000000 -1.000000
      SOFFS 1.45754141139116
      PLAYRATE 1.00000000000000 1 0.00000000000000 -1
      CHANMODE 0
      GUID {BD9F886F-6DA4-2B42-9861-0BF26E1E60C3}
      RECPASS 425
      <SOURCE WAVE
        FILE "../media/03-L (Ibanez+Engl)-120323_2117-01.wav"
      >
    >
    <ITEM
      POSITION 21.00665108560635
      SNAPOFFS 0.00000000000000
      LENGTH 0.58419331750838
      LOOP 1
      ALLTAKES 0
      SEL 0
      FADEIN 1 0.010000 0.063472 1 1
      FADEOUT 1 0.049656 0.000000 1 0
      MUTE 0
      IGUID {15E79E9C-3200-3049-A3AE-211B9E123222}
      IID 1605
      NAME "03-L (Ibanez+Engl)-120323_2115.wav"
      VOLPAN 1.000000 0.000000 1.000000 -1.000000
      SOFFS 3.23026071896129
      PLAYRATE 1.00000000000000 1 0.00000000000000 -1
      CHANMODE 0
      GUID {0C9A6AC6-8FD9-1C4C-8D28-E8265B38FF19}
      RECPASS 423
      <SOURCE WAVE
        FILE "../media/03-L (Ibanez+Engl)-120323_2115.wav"
      >
    >
    <ITEM
      POSITION 21.83806045077792
      SNAPOFFS 0.00000000000000
      LENGTH 2.43585317670306
      LOOP 1
      ALLTAKES 0
      SEL 0
      FADEIN 1 0.010000 0.000000 1 0
      FADEOUT 1 0.046445 0.000000 1 0
      MUTE 0
      IGUID {84331234-069D-F04B-BFFF-E1C20FCA3506}
      IID 1683
      NAME "03-L (Ibanez+Engl)-120323_2125.wav"
      VOLPAN 1.000000 0.000000 1.000000 -1.000000
      SOFFS 0.16865467974924
      PLAYRATE 1.00000000000000 1 0.00000000000000 -1
      CHANMODE 0
      TAKECOLOR 33488896
      GUID {E3492738-D6E3-C44F-BAA6-39F0125D2921}
      RECPASS 438
      <SOURCE WAVE
        FILE "../media/03-L (Ibanez+Engl)-120323_2125.wav"
      >
    >
    <ITEM
      POSITION 24.32378999287313
      SNAPOFFS 0.00000000000000
      LENGTH 2.46418541500009
      LOOP 1
      ALLTAKES 0
      SEL 0
      FADEIN 1 0.010000 0.000000 1 0
      FADEOUT 1 0.096520 0.000000 1 0
      MUTE 0
      IGUID {2F8CD7B0-DC30-1348-A47D-B650AAA7623A}
      IID 1852
      NAME "03-L (Ibanez+Engl)-120323_2217.wav"
      VOLPAN 1.000000 0.000000 1.000000 -1.000000
      SOFFS 3.86479063120225
      PLAYRATE 1.00000000000000 1 0.00000000000000 -1
      CHANMODE 0
      GUID {3EDA8826-EDE0-554A-9CEE-9EB41FE52639}
      RECPASS 507
      <SOURCE WAVE
        FILE "../media/03-L (Ibanez+Engl)-120323_2217.wav"
      >
    >
    <ITEM
      POSITION 27.82198528902656
      SNAPOFFS 0.00000000000000
      LENGTH 1.69150130558194
      LOOP 0
      ALLTAKES 0
      SEL 0
      FADEIN 1 0.133621 0.000000 1 0
      FADEOUT 1 0.223670 0.000000 1 0
      MUTE 0
      IGUID {BE900B8A-45D3-134F-9BEC-E0CA8C927FFE}
      IID 3807
      NAME "03-L (Ibanez+Engl)-120325_2008.wav"
      VOLPAN 1.000000 0.000000 1.000000 -1.000000
      SOFFS 19.06522719441791
      PLAYRATE 1.00000000000000 1 0.00000000000000 -1
      CHANMODE 0
      GUID {B109E584-E9B8-C34D-A0B8-A16C56DB3798}
      RECPASS 1277
      <SOURCE WAVE
        FILE "../media/03-L (Ibanez+Engl)-120325_2008.wav"
      >
    >
    <ITEM
      POSITION 31.27935433694212
      SNAPOFFS 0.00000000000000
      LENGTH 0.37637566480453
      LOOP 1
      ALLTAKES 0
      SEL 0
      FADEIN 1 0.010000 0.000000 1 0
      FADEOUT 1 0.010000 0.011163 1 1
      MUTE 0
      IGUID {A66585B3-6246-C84B-B9A3-1F04076F9AB2}
      IID 1727
      NAME "03-L (Ibanez+Engl)-120323_2136-01.wav"
      VOLPAN 1.000000 0.000000 1.000000 -1.000000
      SOFFS 3.98892754024871
      PLAYRATE 1.00000000000000 1 0.00000000000000 -1
      CHANMODE 0
      GUID {A2A3815C-3DAE-DB47-91DD-E6DD337FFCF8}
      RECPASS 455
      <SOURCE WAVE
        FILE "../media/03-L (Ibanez+Engl)-120323_2136-01.wav"
      >
    >
    <ITEM
      POSITION 31.64456673587257
      SNAPOFFS 0.00000000000000
      LENGTH 0.39908675554420
      LOOP 1
      ALLTAKES 0
      SEL 0
      FADEIN 1 0.010000 0.011163 1 1
      FADEOUT 1 0.102721 0.000000 1 0
      MUTE 0
      IGUID {E7D0FA19-655A-184A-9FF9-294E7CE8E69C}
      IID 1727
      NAME "03-L (Ibanez+Engl)-120323_2136-01.wav"
      VOLPAN 1.000000 0.000000 1.000000 -1.000000
      SOFFS 4.36530320505324
      PLAYRATE 1.00000000000000 1 0.00000000000000 -1
      CHANMODE 0
      GUID {94425879-E212-DF46-AA66-D3D046570D04}
      RECPASS 455
      <SOURCE WAVE
        FILE "../media/03-L (Ibanez+Engl)-120323_2136-01.wav"
      >
    >
    <ITEM
      POSITION 32.92487362252133
      SNAPOFFS 0.00000000000000
      LENGTH 5.34845021587864
      LOOP 1
      ALLTAKES 0
      SEL 0
      FADEIN 1 0.010000 0.000000 1 0
      FADEOUT 1 0.010000 0.000000 1 0
      MUTE 0
      IGUID {DAB91D50-9F13-2D4C-A3C1-2C9FFF5A6D71}
      IID 1803
      NAME "03-L (Ibanez+Engl)-120323_2205.wav"
      VOLPAN 1.000000 0.000000 1.000000 -1.000000
      SOFFS 0.32799890915874
      PLAYRATE 1.00000000000000 1 0.00000000000000 -1
      CHANMODE 0
      GUID {CBB733C4-D8A4-104D-B4F5-3804FD0D8097}
      RECPASS 487
      <SOURCE WAVE
        FILE "../media/03-L (Ibanez+Engl)-120323_2205.wav"
      >
    >
    <ITEM
      POSITION 38.80637880872520
      SNAPOFFS 0.00000000000000
      LENGTH 0.77253205654824
      LOOP 1
      ALLTAKES 0
      SEL 0
      FADEIN 1 0.050043 0.000000 1 0
      FADEOUT 1 0.087220 0.000000 1 0
      MUTE 0
      IGUID {D9542DEA-6076-5E4E-B8AD-5E56E7A5B40C}
      IID 1852
      NAME "03-L (Ibanez+Engl)-120323_2217.wav"
      VOLPAN 1.000000 0.000000 1.000000 -1.000000
      SOFFS 0.19391492917396
      PLAYRATE 1.00000000000000 1 0.00000000000000 -1
      CHANMODE 0
      GUID {734C9768-35AD-E146-8179-437444D0ECFB}
      RECPASS 507
      <SOURCE WAVE
        FILE "../media/03-L (Ibanez+Engl)-120323_2217.wav"
      >
    >
    <ITEM
      POSITION 39.98882024890328
      SNAPOFFS 0.00000000000000
      LENGTH 0.87514589209184
      LOOP 1
      ALLTAKES 0
      SEL 0
      FADEIN 1 0.010000 0.000000 1 0
      FADEOUT 1 0.000000 0.003479 1 1
      MUTE 0
      IGUID {191B9087-A05D-F74C-B107-733EBD1CFADB}
      IID 1852
      NAME "03-L (Ibanez+Engl)-120323_2217.wav"
      VOLPAN 1.000000 0.000000 1.000000 -1.000000
      SOFFS 1.36716428557827
      PLAYRATE 1.00000000000000 1 0.00000000000000 -1
      CHANMODE 0
      GUID {3C8F752D-CBF4-FD4D-908C-E295066498C0}
      RECPASS 507
      <SOURCE WAVE
        FILE "../media/03-L (Ibanez+Engl)-120323_2217.wav"
      >
    >
    <ITEM
      POSITION 40.86048731479379
      SNAPOFFS 0.00000000000000
      LENGTH 0.47126862870243
      LOOP 1
      ALLTAKES 0
      SEL 0
      FADEIN 1 0.000000 0.003479 1 1
      FADEOUT 1 0.010000 0.013769 1 1
      MUTE 0
      IGUID {C2100B5E-3B4C-AA44-B70C-5DBF7EEC5EFF}
      IID 1852
      NAME "03-L (Ibanez+Engl)-120323_2217.wav"
      VOLPAN 1.000000 0.000000 1.000000 -1.000000
      SOFFS 2.26487700673897
      PLAYRATE 1.00000000000000 1 0.00000000000000 -1
      CHANMODE 0
      GUID {CEDC6139-6B26-6043-8726-35159FEF7C37}
      RECPASS 507
      <SOURCE WAVE
        FILE "../media/03-L (Ibanez+Engl)-120323_2217.wav"
      >
    >
    <ITEM
      POSITION 41.31798689443669
      SNAPOFFS 0.00000000000000
      LENGTH 1.06301245350528
      LOOP 1
      ALLTAKES 0
      SEL 0
      FADEIN 1 0.010000 0.013769 1 1
      FADEOUT 1 0.067299 0.000000 1 0
      MUTE 0
      IGUID {77962EE8-75E9-274B-8363-93B2FAE89DFD}
      IID 1852
      NAME "03-L (Ibanez+Engl)-120323_2217.wav"
      VOLPAN 1.000000 0.000000 1.000000 -1.000000
      SOFFS 2.69633093104824
      PLAYRATE 1.00000000000000 1 0.00000000000000 -1
      CHANMODE 0
      GUID {49CCF8BC-623E-0945-B08E-9F6FE366AA11}
      RECPASS 507
      <SOURCE WAVE
        FILE "../media/03-L (Ibanez+Engl)-120323_2217.wav"
      >
    >
    <ITEM
      POSITION 42.59972132594841
      SNAPOFFS 0.00000000000000
      LENGTH 2.44752838737134
      LOOP 1
      ALLTAKES 0
      SEL 0
      FADEIN 1 0.010000 0.000000 1 0
      FADEOUT 1 0.083649 0.000000 1 0
      MUTE 0
      IGUID {0E9D7ECA-794D-F248-B56D-385B5587190F}
      IID 1852
      NAME "03-L (Ibanez+Engl)-120323_2217.wav"
      VOLPAN 1.000000 0.000000 1.000000 -1.000000
      SOFFS 3.97806536262862
      PLAYRATE 1.00000000000000 1 0.00000000000000 -1
      CHANMODE 0
      GUID {4AC3BD03-CD3D-124A-8504-22DB29EE8B2F}
      RECPASS 507
      <SOURCE WAVE
        FILE "../media/03-L (Ibanez+Engl)-120323_2217.wav"
      >
    >
    <ITEM
      POSITION 45.16970456837727
      SNAPOFFS 0.00000000000000
      LENGTH 1.79983108843544
      LOOP 1
      ALLTAKES 0
      SEL 0
      FADEIN 1 0.010000 0.000000 1 0
      FADEOUT 1 0.010000 0.000000 1 0
      MUTE 0
      IGUID {BA14C3F3-4A9B-2745-8D69-928AAF0E2688}
      IID 1829
      NAME "03-L (Ibanez+Engl)-120323_2213.wav"
      VOLPAN 1.000000 0.000000 1.000000 -1.000000
      SOFFS 6.43719083614849
      PLAYRATE 1.00000000000000 1 0.00000000000000 -1
      CHANMODE 0
      GUID {64E8C027-C160-D44F-93AC-9387414B5EBB}
      RECPASS 500
      <SOURCE WAVE
        FILE "../media/03-L (Ibanez+Engl)-120323_2213.wav"
      >
    >
    <ITEM
      POSITION 46.98408413798599
      SNAPOFFS 0.00000000000000
      LENGTH 0.24320685310602
      LOOP 1
      ALLTAKES 0
      SEL 0
      FADEIN 1 0.010000 0.000000 1 0
      FADEOUT 1 0.010000 0.000000 1 0
      MUTE 1
      IGUID {F3285A53-9F1F-3E4F-9B27-5CD23796F124}
      IID 1829
      NAME "03-L (Ibanez+Engl)-120323_2213.wav"
      VOLPAN 1.000000 0.000000 1.000000 -1.000000
      SOFFS 8.23702192458393
      PLAYRATE 1.00000000000000 1 0.00000000000000 -1
      CHANMODE 0
      GUID {1B07703B-5921-044B-B571-21790F65BFA3}
      RECPASS 500
      <SOURCE WAVE
        FILE "../media/03-L (Ibanez+Engl)-120323_2213.wav"
      >
    >
    <ITEM
      POSITION 47.22729099103300
      SNAPOFFS 0.00000000000000
      LENGTH 0.39462344689468
      LOOP 1
      ALLTAKES 0
      SEL 0
      FADEIN 1 0.010000 0.000000 1 0
      FADEOUT 1 0.050474 0.000000 1 0
      MUTE 0
      IGUID {58E793B2-A7A5-E443-861B-E184FF055349}
      IID 1829
      NAME "03-L (Ibanez+Engl)-120323_2213.wav"
      VOLPAN 1.000000 0.000000 1.000000 -1.000000
      SOFFS 8.48022877768994
      PLAYRATE 1.00000000000000 1 0.00000000000000 -1
      CHANMODE 0
      GUID {F6A9356A-9FA5-2348-962B-700D9DE8AC5F}
      RECPASS 500
      <SOURCE WAVE
        FILE "../media/03-L (Ibanez+Engl)-120323_2213.wav"
      >
    >
    <ITEM
      POSITION 47.79436830528131
      SNAPOFFS 0.00000000000000
      LENGTH 0.36266721148729
      LOOP 1
      ALLTAKES 0
      SEL 0
      FADEIN 1 0.010000 0.000000 1 0
      FADEOUT 1 0.010000 0.000000 1 0
      MUTE 0
      IGUID {28D0CAE4-FB2B-2B42-A6C9-D70D949CCBC4}
      IID 1829
      NAME "03-L (Ibanez+Engl)-120323_2213.wav"
      VOLPAN 1.000000 0.000000 1.000000 -1.000000
      SOFFS 9.04730609191301
      PLAYRATE 1.00000000000000 1 0.00000000000000 -1
      CHANMODE 0
      GUID {87470031-6329-D74C-9016-85C927DA1242}
      RECPASS 500
      <SOURCE WAVE
        FILE "../media/03-L (Ibanez+Engl)-120323_2213.wav"
      >
    >
    <ITEM
      POSITION 48.15703551672915
      SNAPOFFS 0.00000000000000
      LENGTH 0.69562044659972
      LOOP 1
      ALLTAKES 0
      SEL 0
      FADEIN 1 0.010000 0.000000 1 0
      FADEOUT 1 0.010000 0.000000 1 0
      MUTE 1
      IGUID {117B8F08-2FE8-7048-9A90-4A144631D578}
      IID 1829
      NAME "03-L (Ibanez+Engl)-120323_2213.wav"
      VOLPAN 1.000000 0.000000 1.000000 -1.000000
      SOFFS 9.40997330340030
      PLAYRATE 1.00000000000000 1 0.00000000000000 -1
      CHANMODE 0
      GUID {E46852D1-805D-074A-918F-4B7B208C2DBB}
      RECPASS 500
      <SOURCE WAVE
        FILE "../media/03-L (Ibanez+Engl)-120323_2213.wav"
      >
    >
    <ITEM
      POSITION 49.29725059451586
      SNAPOFFS 0.00000000000000
      LENGTH 15.56755200000009
      LOOP 1
      ALLTAKES 0
      SEL 0
      FADEIN 1 0.010000 0.000000 1 0
      FADEOUT 1 0.010000 0.000000 1 0
      MUTE 0
      IGUID {6CF809A6-18BE-554A-A675-D17C342C29A9}
      IID 1539
      NAME "03-L (Ibanez+Engl)-120323_2037.wav"
      VOLPAN 1.000000 0.000000 1.000000 -1.000000
      SOFFS 1.35264671453865
      PLAYRATE 1.00000000000000 1 0.00000000000000 -1
      CHANMODE 0
      GUID {D9188452-FF39-EF46-A6FD-26F905017244}
      RECPASS 399
      <SOURCE WAVE
        FILE "../media/03-L (Ibanez+Engl)-120323_2037.wav"
      >
    >
    <ITEM
      POSITION 66.13092820198791
      SNAPOFFS 0.00000000000000
      LENGTH 0.93428851501585
      LOOP 0
      ALLTAKES 0
      SEL 0
      FADEIN 1 0.010000 0.000000 1 0
      FADEOUT 1 0.086421 0.000000 1 0
      MUTE 0
      IGUID {7AB47038-3D6E-B34E-B3E7-3F18D09283F1}
      IID 2522
      NAME "03-L (Ibanez+Engl)-120324_1401.wav"
      VOLPAN 1.000000 0.000000 1.000000 -1.000000
      SOFFS 0.68208846453854
      PLAYRATE 1.00000000000000 1 0.00000000000000 -1
      CHANMODE 0
      GUID {AEAF89EB-9C78-1B40-AD0E-5C4D21F74BB1}
      RECPASS 615
      <SOURCE WAVE
        FILE "../media/03-L (Ibanez+Engl)-120324_1401.wav"
      >
    >
    <ITEM
      POSITION 67.16405080309188
      SNAPOFFS 0.00000000000000
      LENGTH 5.09411935028879
      LOOP 0
      ALLTAKES 0
      SEL 0
      FADEIN 1 0.010000 0.000000 1 0
      FADEOUT 1 0.010000 0.000000 1 0
      MUTE 0
      IGUID {859A907E-FEDB-244B-8F29-5BD634A3FFEC}
      IID 2522
      NAME "03-L (Ibanez+Engl)-120324_1401.wav"
      VOLPAN 1.000000 0.000000 1.000000 -1.000000
      SOFFS 1.70279788154881
      PLAYRATE 1.00000000000000 1 0.00000000000000 -1
      CHANMODE 0
      GUID {9D7BA2DF-C0A9-5842-AACB-8C3412C03CFF}
      RECPASS 615
      <SOURCE WAVE
        FILE "../media/03-L (Ibanez+Engl)-120324_1401.wav"
      >
    >
    <ITEM
      POSITION 72.28079671684237
      SNAPOFFS 0.00000000000000
      LENGTH 3.93534587771319
      LOOP 0
      ALLTAKES 0
      SEL 0
      FADEIN 1 0.010000 0.000000 1 0
      FADEOUT 1 0.010000 0.000000 1 0
      MUTE 0
      IGUID {0F6E207E-3D59-D34F-9919-E4668E8A76A6}
      IID 2522
      NAME "03-L (Ibanez+Engl)-120324_1401.wav"
      VOLPAN 1.000000 0.000000 1.000000 -1.000000
      SOFFS 6.79691723183760
      PLAYRATE 1.00000000000000 1 0.00000000000000 -1
      CHANMODE 0
      GUID {04D4BE7D-FC42-7C4D-9918-D6D2B9CE9B79}
      RECPASS 615
      <SOURCE WAVE
        FILE "../media/03-L (Ibanez+Engl)-120324_1401.wav"
      >
    >
    <ITEM
      POSITION 76.54046659454754
      SNAPOFFS 0.00000000000000
      LENGTH 7.45945199999937
      LOOP 0
      ALLTAKES 0
      SEL 0
      FADEIN 1 0.010000 0.000000 1 0
      FADEOUT 1 0.010000 0.000000 1 0
      MUTE 0
      IGUID {D94658AC-89EE-0E40-A522-015598336EBB}
      IID 3775
      NAME "03-L (Ibanez+Engl)-120325_1944.wav"
      VOLPAN 1.000000 0.000000 1.000000 -1.000000
      SOFFS 35.67563758333331
      PLAYRATE 1.00000000000000 1 0.00000000000000 -1
      CHANMODE 0
      GUID {75656F62-32FD-6442-833A-F1BBE0DE0EBE}
      RECPASS 1213
      <SOURCE WAVE
        FILE "../media/03-L (Ibanez+Engl)-120325_1944.wav"
      >
    >
    <ITEM
      POSITION 83.99991859452849
      SNAPOFFS 0.00000000000000
      LENGTH 1.94594399999983
      LOOP 0
      ALLTAKES 0
      SEL 0
      FADEIN 1 0.010000 0.000000 1 0
      FADEOUT 1 0.010000 0.331967 1 1
      MUTE 0
      IGUID {53CF8072-A275-EC40-82C8-1B69CD1598B6}
      IID 3801
      NAME "03-L (Ibanez+Engl)-120325_1953-01.wav"
      VOLPAN 1.000000 0.000000 1.000000 -1.000000
      SOFFS 4.86484699999991
      PLAYRATE 1.00000000000000 1 0.00000000000000 -1
      CHANMODE 0
      TAKECOLOR 33488896
      GUID {43FDCA8A-18D0-7343-B9DF-B8492C2072EB}
      RECPASS 1255
      <SOURCE WAVE
        FILE "../media/03-L (Ibanez+Engl)-120325_1953-01.wav"
      >
    >
    <ITEM
      POSITION 85.61389562887190
      SNAPOFFS 0.00000000000000
      LENGTH 3.25088296568015
      LOOP 1
      ALLTAKES 0
      SEL 0
      FADEIN 1 0.010000 0.331967 1 1
      FADEOUT 1 0.010000 0.063723 1 1
      MUTE 0
      IGUID {D9CAC0B2-9F2C-3847-88C6-1C894BCCD192}
      IID 2705
      NAME "03-L (Ibanez+Engl)-120324_1445-01.wav"
      VOLPAN 1.000000 0.000000 1.000000 -1.000000
      SOFFS 0.46183341552501
      PLAYRATE 1.00000000000000 1 0.00000000000000 -1
      CHANMODE 0
      GUID {1717EA77-675E-864B-8055-1CD746CE4AB0}
      RECPASS 696
      <SOURCE WAVE
        FILE "../media/03-L (Ibanez+Engl)-120324_1445-01.wav"
      >
    >
    <ITEM
      POSITION 88.80105520392819
      SNAPOFFS 0.00000000000000
      LENGTH 29.19072714068500
      LOOP 1
      ALLTAKES 0
      SEL 0
      FADEIN 1 0.066780 0.063723 1 1
      FADEOUT 1 0.010000 0.000000 1 0
      MUTE 0
      IGUID {C83F8C55-05DD-024F-BA81-E6FFAFC1D35B}
      IID 1545
      NAME "03-L (Ibanez+Engl)-120323_2041.wav"
      VOLPAN 1.000000 0.000000 1.000000 -1.000000
      SOFFS 2.37897215718442
      PLAYRATE 1.00000000000000 1 0.00000000000000 -1
      CHANMODE 0
      GUID {4C2921AF-A4A2-BD40-AE45-8EA0DC50891B}
      RECPASS 400
      <SOURCE WAVE
        FILE "../media/03-L (Ibanez+Engl)-120323_2041.wav"
      >
    >
    <ITEM
      POSITION 119.65927054666965
      SNAPOFFS 0.00000000000000
      LENGTH 18.50275604787191
      LOOP 1
      ALLTAKES 0
      SEL 0
      FADEIN 1 0.247836 0.000000 1 0
      FADEOUT 1 0.010000 0.090337 1 1
      MUTE 0
      IGUID {2717D791-4465-454C-BCDA-05743BD5F052}
      IID 3189
      NAME "03-L (Ibanez+Engl)-120324_2120-01.wav"
      VOLPAN 1.000000 0.000000 1.000000 -1.000000
      SOFFS 0.00000000000000
      PLAYRATE 1.00000000000000 1 0.00000000000000 -1
      CHANMODE 0
      GUID {2880371A-DF45-404D-A1A4-257EAD829C8C}
      RECPASS 1033
      <SOURCE WAVE
        FILE "../media/03-L (Ibanez+Engl)-120324_2120-01.wav"
      >
    >
    <ITEM
      POSITION 138.07168949783363
      SNAPOFFS 0.00000000000000
      LENGTH 1.00852770474683
      LOOP 0
      ALLTAKES 0
      SEL 0
      FADEIN 1 0.000000 0.090337 1 1
      FADEOUT 1 0.116926 0.000000 1 0
      MUTE 0
      IGUID {7EB3F5FA-43CB-804B-BC8F-C913F623889A}
      IID 3051
      NAME "03-L (Ibanez+Engl)-120324_2006.wav"
      VOLPAN 1.000000 0.000000 1.000000 -1.000000
      SOFFS 66.03514086436087
      PLAYRATE 1.00000000000000 1 0.00000000000000 -1
      CHANMODE 0
      GUID {65A747CF-F35A-BD44-A916-733C4FB78582}
      RECPASS 974
      <SOURCE WAVE
        FILE "../media/03-L (Ibanez+Engl)-120324_2006.wav"
      >
    >
    <ITEM
      POSITION 139.13499859456488
      SNAPOFFS 0.00000000000000
      LENGTH 5.19221033312726
      LOOP 0
      ALLTAKES 0
      SEL 0
      FADEIN 1 0.147996 0.000000 1 0
      FADEOUT 1 0.085254 0.000000 1 0
      MUTE 0
      IGUID {48A0051B-BD98-794F-AE9C-5375697E0F38}
      IID 3051
      NAME "03-L (Ibanez+Engl)-120324_2006.wav"
      VOLPAN 1.000000 0.000000 1.000000 -1.000000
      SOFFS 67.13507441666786
      PLAYRATE 1.00000000000000 1 0.00000000000000 -1
      CHANMODE 0
      GUID {CA073F59-6AB5-D34A-9A44-703636276A26}
      RECPASS 974
      <SOURCE WAVE
        FILE "../media/03-L (Ibanez+Engl)-120324_2006.wav"
      >
    >
    <ITEM
      POSITION 145.16601866848350
      SNAPOFFS 0.00000000000000
      LENGTH 1.01779955386405
      LOOP 1
      ALLTAKES 0
      SEL 0
      FADEIN 1 0.010000 0.000000 1 0
      FADEOUT 1 0.010000 0.019023 1 1
      MUTE 0
      IGUID {CB1D3B56-BF08-C446-8D71-9F9C48CE22D8}
      IID 3131
      NAME "03-L (Ibanez+Engl)-120324_2052.wav"
      VOLPAN 1.000000 0.000000 1.000000 -1.000000
      SOFFS 0.30014395513115
      PLAYRATE 1.00000000000000 1 0.00000000000000 -1
      CHANMODE 0
      GUID {81799460-83A8-5247-A8CB-2227FEA62797}
      RECPASS 1013
      <SOURCE WAVE
        FILE "../media/03-L (Ibanez+Engl)-120324_2052.wav"
      >
    >
    <ITEM
      POSITION 146.16479547709741
      SNAPOFFS 0.00000000000000
      LENGTH 0.36037559676015
      LOOP 1
      ALLTAKES 0
      SEL 0
      FADEIN 1 0.010000 0.019023 1 1
      FADEOUT 1 0.010000 0.017858 1 1
      MUTE 0
      IGUID {84997FF3-FC70-5B4B-BECE-BC71145D5868}
      IID 3131
      NAME "03-L (Ibanez+Engl)-120324_2052.wav"
      VOLPAN 1.000000 0.000000 1.000000 -1.000000
      SOFFS 1.31794350899520
      PLAYRATE 1.00000000000000 1 0.00000000000000 -1
      CHANMODE 0
      GUID {5BB4FF5F-E4CF-F349-BC9F-52B502996336}
      RECPASS 1013
      <SOURCE WAVE
        FILE "../media/03-L (Ibanez+Engl)-120324_2052.wav"
      >
    >
    <ITEM
      POSITION 146.50731350473643
      SNAPOFFS 0.00000000000000
      LENGTH 0.31501607473660
      LOOP 1
      ALLTAKES 0
      SEL 0
      FADEIN 1 0.023548 0.017858 1 1
      FADEOUT 1 0.161409 0.000000 1 0
      MUTE 0
      IGUID {CDD002E4-94C3-044C-A03F-AD6D2CE7E560}
      IID 3131
      NAME "03-L (Ibanez+Engl)-120324_2052.wav"
      VOLPAN 1.000000 0.000000 1.000000 -1.000000
      SOFFS 1.67922749749743
      PLAYRATE 1.00000000000000 1 0.00000000000000 -1
      CHANMODE 0
      GUID {7026C4A1-779C-8C44-947B-38F9987660DA}
      RECPASS 1013
      <SOURCE WAVE
        FILE "../media/03-L (Ibanez+Engl)-120324_2052.wav"
      >
    >
    <ITEM
      POSITION 148.71074436259505
      SNAPOFFS 0.00000000000000
      LENGTH 0.68329030848463
      LOOP 1
      ALLTAKES 0
      SEL 0
      FADEIN 1 0.010000 0.000000 1 0
      FADEOUT 1 0.062367 0.000000 1 0
      MUTE 0
      IGUID {D55492C1-9B6D-5C49-A1BB-6CC882F02229}
      IID 3073
      NAME "03-L (Ibanez+Engl)-120324_2042-01.wav"
      VOLPAN 1.000000 0.000000 1.000000 -1.000000
      SOFFS 0.62627589920635
      PLAYRATE 1.00000000000000 1 0.00000000000000 -1
      CHANMODE 0
      GUID {6E857341-E253-A447-A57B-69239F36B0CB}
      RECPASS 984
      <SOURCE WAVE
        FILE "../media/03-L (Ibanez+Engl)-120324_2042-01.wav"
      >
    >
    <ITEM
      POSITION 150.81066259454519
      SNAPOFFS 0.00000000000000
      LENGTH 4.86772417620602
      LOOP 1
      ALLTAKES 0
      SEL 0
      FADEIN 1 0.010000 0.000000 1 0
      FADEOUT 1 0.010000 0.000000 1 0
      MUTE 0
      IGUID {E2D904BD-F8E3-A944-8E15-10B34B26B5C7}
      IID 3151
      NAME "03-L (Ibanez+Engl)-120324_2100-02.wav"
      VOLPAN 1.000000 0.000000 1.000000 -1.000000
      SOFFS 0.44627746453762
      PLAYRATE 1.00000000000000 1 0.00000000000000 -1
      CHANMODE 0
      GUID {A0E39FAB-ED3A-1946-8CD8-8126F5D3A0A2}
      RECPASS 1018
      <SOURCE WAVE
        FILE "../media/03-L (Ibanez+Engl)-120324_2100-02.wav"
      >
    >
    <ITEM
      POSITION 156.25436066432439
      SNAPOFFS 0.00000000000000
      LENGTH 5.60876404904320
      LOOP 1
      ALLTAKES 0
      SEL 0
      FADEIN 1 0.010000 0.000000 1 0
      FADEOUT 1 0.010000 0.000000 1 0
      MUTE 0
      IGUID {26A4E205-1E0E-844C-98A4-E2226E528431}
      IID 3035
      NAME "03-L (Ibanez+Engl)-120324_1955-02.wav"
      VOLPAN 1.000000 0.000000 1.000000 -1.000000
      SOFFS 0.51816303429019
      PLAYRATE 1.00000000000000 1 0.00000000000000 -1
      CHANMODE 0
      TAKECOLOR 33488896
      GUID {1501EA04-C6BA-B64E-B266-D1522D5003B5}
      RECPASS 944
      <SOURCE WAVE
        FILE "../media/03-L (Ibanez+Engl)-120324_1955-02.wav"
      >
    >
    <ITEM
      POSITION 165.26127400287942
      SNAPOFFS 0.00000000000000
      LENGTH 7.91459095594973
      LOOP 1
      ALLTAKES 0
      SEL 0
      FADEIN 1 0.000000 0.000000 1 0
      FADEOUT 1 0.010000 0.009129 1 1
      MUTE 0
      IGUID {71B74D01-DC98-1C44-981F-5E6D48A4E110}
      IID 1592
      NAME "03-L (Ibanez+Engl)-120323_2105.wav"
      VOLPAN 1.000000 0.000000 1.000000 -1.000000
      SOFFS 0.33603470621620
      PLAYRATE 1.00000000000000 1 0.00000000000000 -1
      CHANMODE 0
      GUID {7E796D1F-6814-1749-85C4-1F3F47A7E30F}
      RECPASS 419
      <SOURCE WAVE
        FILE "../media/03-L (Ibanez+Engl)-120323_2105.wav"
      >
    >
    <ITEM
      POSITION 173.16673624961686
      SNAPOFFS 0.00000000000000
      LENGTH 50.61682634499675
      LOOP 1
      ALLTAKES 0
      SEL 0
      FADEIN 1 0.010000 0.009129 1 1
      FADEOUT 1 0.000000 0.000000 1 0
      MUTE 0
      IGUID {B075B245-A6A8-FC47-B1E5-63754347529C}
      IID 1566
      NAME "03-L (Ibanez+Engl)-120323_2055-01.wav"
      VOLPAN 1.000000 0.000000 1.000000 -1.000000
      SOFFS 8.37338236954088
      PLAYRATE 1.00000000000000 1 0.00000000000000 -1
      CHANMODE 0
      GUID {54C4777A-2F69-EC43-A7F6-2DCD776CA4D9}
      RECPASS 408
      <SOURCE WAVE
        FILE "../media/03-L (Ibanez+Engl)-120323_2055-01.wav"
      >
    >
  >
  <TRACK '{A7D77A3E-679F-5E44-BAF2-9BE3F117E6EB}'
    NAME "L (Ibanez+DI)"
    PEAKCOL 16576
    BEAT -1
    AUTOMODE 0
    VOLPAN 0.97259984631529 0.00000000000000 -1.00000000000000 -1.00000000000000 1.00000000000000
    MUTESOLO 1 0 0
    IPHASE 0
    ISBUS 0 0
    BUSCOMP 0 0
    SHOWINMIX 1 0.666700 0.500000 1 0.500000 -1 -1 -1
    FREEMODE 0
    SEL 0
    REC 0 0 1 0 0 0 0
    VU 2
    TRACKHEIGHT 0 0
    INQ 0 0 0 0.5000000000 100 0 0 100
    NCHAN 2
    FX 1
    TRACKID {A7D77A3E-679F-5E44-BAF2-9BE3F117E6EB}
    PERF 0
    MIDIOUT -1
    MAINSEND 1 0
    <FXCHAIN
      SHOW 0
      LASTSEL 0
      DOCKED 0
    >
    <ITEM
      POSITION 2.42551781543581
      SNAPOFFS 0.00000000000000
      LENGTH 15.73662877908987
      LOOP 1
      ALLTAKES 0
      SEL 0
      FADEIN 1 0.010000 0.000000 1 0
      FADEOUT 1 0.010000 0.096909 1 1
      MUTE 0
      IGUID {3ACC72C0-5F26-2142-9576-15B7C81EC3E3}
      IID 1597
      NAME "04-L (Ibanez+DI)-120323_2109.wav"
      VOLPAN 1.000000 0.000000 1.000000 -1.000000
      SOFFS 0.55351810211437
      PLAYRATE 1.00000000000000 1 0.00000000000000 -1
      CHANMODE 0
      GUID {FFAE6B44-49A6-194C-9AA4-D8A4128768E3}
      RECPASS 421
      <SOURCE WAVE
        FILE "../media/04-L (Ibanez+DI)-120323_2109.wav"
      >
    >
    <ITEM
      POSITION 18.06523773194341
      SNAPOFFS 0.00000000000000
      LENGTH 0.96391897388878
      LOOP 1
      ALLTAKES 0
      SEL 0
      FADEIN 1 0.010000 0.096909 1 1
      FADEOUT 1 0.052577 0.000000 1 0
      MUTE 0
      IGUID {684E7C37-45A0-F942-9FBB-1B6E5941A1FF}
      IID 1616
      NAME "04-L (Ibanez+DI)-120323_2117-01.wav"
      VOLPAN 1.000000 0.000000 1.000000 -1.000000
      SOFFS 0.23896836420863
      PLAYRATE 1.00000000000000 1 0.00000000000000 -1
      CHANMODE 0
      GUID {01956CD9-AB62-334D-88AE-859BA9095B58}
      RECPASS 425
      <SOURCE WAVE
        FILE "../media/04-L (Ibanez+DI)-120323_2117-01.wav"
      >
    >
    <ITEM
      POSITION 19.25407113301618
      SNAPOFFS 0.00000000000000
      LENGTH 1.81605233860887
      LOOP 1
      ALLTAKES 0
      SEL 0
      FADEIN 1 0.046735 0.000000 1 0
      FADEOUT 1 0.010000 0.063472 1 1
      MUTE 0
      IGUID {87F598F5-A8F2-0546-A637-53207CE59857}
      IID 1616
      NAME "04-L (Ibanez+DI)-120323_2117-01.wav"
      VOLPAN 1.000000 0.000000 1.000000 -1.000000
      SOFFS 1.45754141139116
      PLAYRATE 1.00000000000000 1 0.00000000000000 -1
      CHANMODE 0
      GUID {76C53161-CE17-8C49-9D5B-ED3F91624363}
      RECPASS 425
      <SOURCE WAVE
        FILE "../media/04-L (Ibanez+DI)-120323_2117-01.wav"
      >
    >
    <ITEM
      POSITION 21.00665108560635
      SNAPOFFS 0.00000000000000
      LENGTH 0.58419331750838
      LOOP 1
      ALLTAKES 0
      SEL 0
      FADEIN 1 0.010000 0.063472 1 1
      FADEOUT 1 0.049656 0.000000 1 0
      MUTE 0
      IGUID {CAA347E0-CB43-D346-BCFA-88AD0C8116FC}
      IID 1606
      NAME "04-L (Ibanez+DI)-120323_2115.wav"
      VOLPAN 1.000000 0.000000 1.000000 -1.000000
      SOFFS 3.23026071896129
      PLAYRATE 1.00000000000000 1 0.00000000000000 -1
      CHANMODE 0
      GUID {39E1C322-089E-6B40-9199-AE257C1DE4BE}
      RECPASS 423
      <SOURCE WAVE
        FILE "../media/04-L (Ibanez+DI)-120323_2115.wav"
      >
    >
    <ITEM
      POSITION 21.83806045077792
      SNAPOFFS 0.00000000000000
      LENGTH 2.43585317670306
      LOOP 1
      ALLTAKES 0
      SEL 0
      FADEIN 1 0.010000 0.000000 1 0
      FADEOUT 1 0.046445 0.000000 1 0
      MUTE 0
      IGUID {08C26E95-D3FF-A143-9464-D1A5B44F0CF5}
      IID 1686
      NAME "04-L (Ibanez+DI)-120323_2125.wav"
      VOLPAN 1.000000 0.000000 1.000000 -1.000000
      SOFFS 0.16865467974924
      PLAYRATE 1.00000000000000 1 0.00000000000000 -1
      CHANMODE 0
      TAKECOLOR 33488896
      GUID {811FBAF0-B3E7-284E-97BF-53181F34BD71}
      RECPASS 438
      <SOURCE WAVE
        FILE "../media/04-L (Ibanez+DI)-120323_2125.wav"
      >
    >
    <ITEM
      POSITION 24.32378999287313
      SNAPOFFS 0.00000000000000
      LENGTH 2.46418541500009
      LOOP 1
      ALLTAKES 0
      SEL 0
      FADEIN 1 0.010000 0.000000 1 0
      FADEOUT 1 0.096520 0.000000 1 0
      MUTE 0
      IGUID {2C4CCA5D-1D18-C141-9402-7612830B5FCC}
      IID 1854
      NAME "04-L (Ibanez+DI)-120323_2217.wav"
      VOLPAN 1.000000 0.000000 1.000000 -1.000000
      SOFFS 3.86479063120225
      PLAYRATE 1.00000000000000 1 0.00000000000000 -1
      CHANMODE 0
      GUID {B745C481-FED9-F84C-8E0A-330F5FBB88E1}
      RECPASS 507
      <SOURCE WAVE
        FILE "../media/04-L (Ibanez+DI)-120323_2217.wav"
      >
    >
    <ITEM
      POSITION 27.82198528902656
      SNAPOFFS 0.00000000000000
      LENGTH 1.69150130558194
      LOOP 0
      ALLTAKES 0
      SEL 0
      FADEIN 1 0.133621 0.000000 1 0
      FADEOUT 1 0.223670 0.000000 1 0
      MUTE 0
      IGUID {28D0AF8D-464A-A14C-93B5-7C3780EC4DBA}
      IID 3808
      NAME "04-L (Ibanez+DI)-120325_2008.wav"
      VOLPAN 1.000000 0.000000 1.000000 -1.000000
      SOFFS 19.06522719441791
      PLAYRATE 1.00000000000000 1 0.00000000000000 -1
      CHANMODE 0
      GUID {6E5EF144-C996-A54D-A166-75CE14795D86}
      RECPASS 1277
      <SOURCE WAVE
        FILE "../media/04-L (Ibanez+DI)-120325_2008.wav"
      >
    >
    <ITEM
      POSITION 31.27935433694212
      SNAPOFFS 0.00000000000000
      LENGTH 0.37637566480453
      LOOP 1
      ALLTAKES 0
      SEL 0
      FADEIN 1 0.010000 0.000000 1 0
      FADEOUT 1 0.010000 0.011163 1 1
      MUTE 0
      IGUID {4892384D-A89D-E34D-B01C-306EAB583C84}
      IID 1728
      NAME "04-L (Ibanez+DI)-120323_2136-01.wav"
      VOLPAN 1.000000 0.000000 1.000000 -1.000000
      SOFFS 3.98892754024871
      PLAYRATE 1.00000000000000 1 0.00000000000000 -1
      CHANMODE 0
      GUID {13BE76FD-AC73-644D-9110-212641A807F8}
      RECPASS 455
      <SOURCE WAVE
        FILE "../media/04-L (Ibanez+DI)-120323_2136-01.wav"
      >
    >
    <ITEM
      POSITION 31.64456673587257
      SNAPOFFS 0.00000000000000
      LENGTH 0.39908675554420
      LOOP 1
      ALLTAKES 0
      SEL 0
      FADEIN 1 0.010000 0.011163 1 1
      FADEOUT 1 0.102721 0.000000 1 0
      MUTE 0
      IGUID {632E188F-31AC-E84D-9EB6-A6CE92B198E5}
      IID 1728
      NAME "04-L (Ibanez+DI)-120323_2136-01.wav"
      VOLPAN 1.000000 0.000000 1.000000 -1.000000
      SOFFS 4.36530320505324
      PLAYRATE 1.00000000000000 1 0.00000000000000 -1
      CHANMODE 0
      GUID {F54FEEAC-A717-2944-8F52-316C41F5EE01}
      RECPASS 455
      <SOURCE WAVE
        FILE "../media/04-L (Ibanez+DI)-120323_2136-01.wav"
      >
    >
    <ITEM
      POSITION 32.92487362252133
      SNAPOFFS 0.00000000000000
      LENGTH 5.34536097204386
      LOOP 1
      ALLTAKES 0
      SEL 0
      FADEIN 1 0.010000 0.000000 1 0
      FADEOUT 1 0.010000 0.000000 1 0
      MUTE 0
      IGUID {F5CBCCAB-1C5D-AC43-834F-330F08B35D8B}
      IID 1804
      NAME "04-L (Ibanez+DI)-120323_2205.wav"
      VOLPAN 1.000000 0.000000 1.000000 -1.000000
      SOFFS 0.32799890915874
      PLAYRATE 1.00000000000000 1 0.00000000000000 -1
      CHANMODE 0
      GUID {30F0AF1A-CA38-1045-B519-8CDDB0F63102}
      RECPASS 487
      <SOURCE WAVE
        FILE "../media/04-L (Ibanez+DI)-120323_2205.wav"
      >
    >
    <ITEM
      POSITION 38.80637880872520
      SNAPOFFS 0.00000000000000
      LENGTH 0.77253205654824
      LOOP 1
      ALLTAKES 0
      SEL 0
      FADEIN 1 0.050043 0.000000 1 0
      FADEOUT 1 0.087220 0.000000 1 0
      MUTE 0
      IGUID {F9319A2D-B478-064A-BA5B-291FBEC0903E}
      IID 1854
      NAME "04-L (Ibanez+DI)-120323_2217.wav"
      VOLPAN 1.000000 0.000000 1.000000 -1.000000
      SOFFS 0.19391492917396
      PLAYRATE 1.00000000000000 1 0.00000000000000 -1
      CHANMODE 0
      GUID {425422F6-39CE-0D44-8058-4A5792CE684C}
      RECPASS 507
      <SOURCE WAVE
        FILE "../media/04-L (Ibanez+DI)-120323_2217.wav"
      >
    >
    <ITEM
      POSITION 39.98882024890328
      SNAPOFFS 0.00000000000000
      LENGTH 0.87514589209184
      LOOP 1
      ALLTAKES 0
      SEL 0
      FADEIN 1 0.010000 0.000000 1 0
      FADEOUT 1 0.000000 0.003479 1 1
      MUTE 0
      IGUID {35025B31-E1F8-D348-ABBB-109A660DA663}
      IID 1854
      NAME "04-L (Ibanez+DI)-120323_2217.wav"
      VOLPAN 1.000000 0.000000 1.000000 -1.000000
      SOFFS 1.36716428557827
      PLAYRATE 1.00000000000000 1 0.00000000000000 -1
      CHANMODE 0
      GUID {0E09300C-EBB4-FA41-89B8-7FB6BAA87EEA}
      RECPASS 507
      <SOURCE WAVE
        FILE "../media/04-L (Ibanez+DI)-120323_2217.wav"
      >
    >
    <ITEM
      POSITION 40.86048731479379
      SNAPOFFS 0.00000000000000
      LENGTH 0.47126862870243
      LOOP 1
      ALLTAKES 0
      SEL 0
      FADEIN 1 0.000000 0.003479 1 1
      FADEOUT 1 0.010000 0.013769 1 1
      MUTE 0
      IGUID {44422ED6-AF6A-1548-B135-A5EDAAFFB8C7}
      IID 1854
      NAME "04-L (Ibanez+DI)-120323_2217.wav"
      VOLPAN 1.000000 0.000000 1.000000 -1.000000
      SOFFS 2.26487700673897
      PLAYRATE 1.00000000000000 1 0.00000000000000 -1
      CHANMODE 0
      GUID {14202033-B981-B94C-B55A-3C066124FE4F}
      RECPASS 507
      <SOURCE WAVE
        FILE "../media/04-L (Ibanez+DI)-120323_2217.wav"
      >
    >
    <ITEM
      POSITION 41.31798689443669
      SNAPOFFS 0.00000000000000
      LENGTH 1.06301245350528
      LOOP 1
      ALLTAKES 0
      SEL 0
      FADEIN 1 0.010000 0.013769 1 1
      FADEOUT 1 0.067299 0.000000 1 0
      MUTE 0
      IGUID {7C84B3FC-51D7-6B4F-9335-E51C97AC209F}
      IID 1854
      NAME "04-L (Ibanez+DI)-120323_2217.wav"
      VOLPAN 1.000000 0.000000 1.000000 -1.000000
      SOFFS 2.69633093104824
      PLAYRATE 1.00000000000000 1 0.00000000000000 -1
      CHANMODE 0
      GUID {F052AB37-C81F-D749-95F6-5B7A72E54F42}
      RECPASS 507
      <SOURCE WAVE
        FILE "../media/04-L (Ibanez+DI)-120323_2217.wav"
      >
    >
    <ITEM
      POSITION 42.59972132594841
      SNAPOFFS 0.00000000000000
      LENGTH 2.44752838737134
      LOOP 1
      ALLTAKES 0
      SEL 0
      FADEIN 1 0.010000 0.000000 1 0
      FADEOUT 1 0.083649 0.000000 1 0
      MUTE 0
      IGUID {582861EB-0853-314E-9212-02A375381F60}
      IID 1854
      NAME "04-L (Ibanez+DI)-120323_2217.wav"
      VOLPAN 1.000000 0.000000 1.000000 -1.000000
      SOFFS 3.97806536262862
      PLAYRATE 1.00000000000000 1 0.00000000000000 -1
      CHANMODE 0
      GUID {3DEF94D2-DB00-8948-B7DA-E7D5DA77AE22}
      RECPASS 507
      <SOURCE WAVE
        FILE "../media/04-L (Ibanez+DI)-120323_2217.wav"
      >
    >
    <ITEM
      POSITION 45.16970456837727
      SNAPOFFS 0.00000000000000
      LENGTH 1.79983108843544
      LOOP 1
      ALLTAKES 0
      SEL 0
      FADEIN 1 0.010000 0.000000 1 0
      FADEOUT 1 0.010000 0.000000 1 0
      MUTE 0
      IGUID {F3ADBC1E-5167-6943-9E49-EBB1498F136B}
      IID 1830
      NAME "04-L (Ibanez+DI)-120323_2213.wav"
      VOLPAN 1.000000 0.000000 1.000000 -1.000000
      SOFFS 6.43719083614849
      PLAYRATE 1.00000000000000 1 0.00000000000000 -1
      CHANMODE 0
      GUID {187AD7EB-F998-DF42-BF49-869D954C5438}
      RECPASS 500
      <SOURCE WAVE
        FILE "../media/04-L (Ibanez+DI)-120323_2213.wav"
      >
    >
    <ITEM
      POSITION 46.98408413798599
      SNAPOFFS 0.00000000000000
      LENGTH 0.24320685310602
      LOOP 1
      ALLTAKES 0
      SEL 0
      FADEIN 1 0.010000 0.000000 1 0
      FADEOUT 1 0.010000 0.000000 1 0
      MUTE 1
      IGUID {C3D287B7-5991-CF4C-93DF-329B9368C890}
      IID 1830
      NAME "04-L (Ibanez+DI)-120323_2213.wav"
      VOLPAN 1.000000 0.000000 1.000000 -1.000000
      SOFFS 8.23702192458393
      PLAYRATE 1.00000000000000 1 0.00000000000000 -1
      CHANMODE 0
      GUID {86A5787F-FA06-BE46-8483-B4CF6E6870AA}
      RECPASS 500
      <SOURCE WAVE
        FILE "../media/04-L (Ibanez+DI)-120323_2213.wav"
      >
    >
    <ITEM
      POSITION 47.22729099103300
      SNAPOFFS 0.00000000000000
      LENGTH 0.39462344689468
      LOOP 1
      ALLTAKES 0
      SEL 0
      FADEIN 1 0.010000 0.000000 1 0
      FADEOUT 1 0.050474 0.000000 1 0
      MUTE 0
      IGUID {18EAEA9F-1B21-3940-809A-89A43019FFEC}
      IID 1830
      NAME "04-L (Ibanez+DI)-120323_2213.wav"
      VOLPAN 1.000000 0.000000 1.000000 -1.000000
      SOFFS 8.48022877768994
      PLAYRATE 1.00000000000000 1 0.00000000000000 -1
      CHANMODE 0
      GUID {11C2BC5D-1CCA-B346-A216-9CD84D29F304}
      RECPASS 500
      <SOURCE WAVE
        FILE "../media/04-L (Ibanez+DI)-120323_2213.wav"
      >
    >
    <ITEM
      POSITION 47.79436830528131
      SNAPOFFS 0.00000000000000
      LENGTH 0.36266721148729
      LOOP 1
      ALLTAKES 0
      SEL 0
      FADEIN 1 0.010000 0.000000 1 0
      FADEOUT 1 0.010000 0.000000 1 0
      MUTE 0
      IGUID {644D15AB-FD5C-4448-8234-014A12D2810A}
      IID 1830
      NAME "04-L (Ibanez+DI)-120323_2213.wav"
      VOLPAN 1.000000 0.000000 1.000000 -1.000000
      SOFFS 9.04730609191301
      PLAYRATE 1.00000000000000 1 0.00000000000000 -1
      CHANMODE 0
      GUID {11553FCD-A456-4F42-BE24-2E4D8B23B016}
      RECPASS 500
      <SOURCE WAVE
        FILE "../media/04-L (Ibanez+DI)-120323_2213.wav"
      >
    >
    <ITEM
      POSITION 48.15703551672915
      SNAPOFFS 0.00000000000000
      LENGTH 0.69562044659972
      LOOP 1
      ALLTAKES 0
      SEL 0
      FADEIN 1 0.010000 0.000000 1 0
      FADEOUT 1 0.010000 0.000000 1 0
      MUTE 1
      IGUID {B58571CE-0138-9147-85CB-45A99A58E4B0}
      IID 1830
      NAME "04-L (Ibanez+DI)-120323_2213.wav"
      VOLPAN 1.000000 0.000000 1.000000 -1.000000
      SOFFS 9.40997330340030
      PLAYRATE 1.00000000000000 1 0.00000000000000 -1
      CHANMODE 0
      GUID {E3592C8F-ABE0-D34F-8938-CA6D085554D1}
      RECPASS 500
      <SOURCE WAVE
        FILE "../media/04-L (Ibanez+DI)-120323_2213.wav"
      >
    >
    <ITEM
      POSITION 49.29725059451586
      SNAPOFFS 0.00000000000000
      LENGTH 15.56755200000009
      LOOP 1
      ALLTAKES 0
      SEL 0
      FADEIN 1 0.010000 0.000000 1 0
      FADEOUT 1 0.010000 0.000000 1 0
      MUTE 0
      IGUID {3A220D9F-C08D-1D4C-8F1D-E33F863F96C5}
      IID 1540
      NAME "04-L (Ibanez+DI)-120323_2037.wav"
      VOLPAN 1.000000 0.000000 1.000000 -1.000000
      SOFFS 1.35264671453865
      PLAYRATE 1.00000000000000 1 0.00000000000000 -1
      CHANMODE 0
      GUID {DE590AE3-355A-7F4D-A0D9-32224A8517A8}
      RECPASS 399
      <SOURCE WAVE
        FILE "../media/04-L (Ibanez+DI)-120323_2037.wav"
      >
    >
    <ITEM
      POSITION 66.13092820198791
      SNAPOFFS 0.00000000000000
      LENGTH 0.93428851501585
      LOOP 0
      ALLTAKES 0
      SEL 0
      FADEIN 1 0.010000 0.000000 1 0
      FADEOUT 1 0.086421 0.000000 1 0
      MUTE 0
      IGUID {657274B3-4334-0B4B-BD3C-091E378CA22B}
      IID 2523
      NAME "04-L (Ibanez+DI)-120324_1401.wav"
      VOLPAN 1.000000 0.000000 1.000000 -1.000000
      SOFFS 0.68208846453854
      PLAYRATE 1.00000000000000 1 0.00000000000000 -1
      CHANMODE 0
      GUID {CE107440-0827-7040-9EB7-2A82415660CB}
      RECPASS 615
      <SOURCE WAVE
        FILE "../media/04-L (Ibanez+DI)-120324_1401.wav"
      >
    >
    <ITEM
      POSITION 67.16405080309188
      SNAPOFFS 0.00000000000000
      LENGTH 5.09411935028879
      LOOP 0
      ALLTAKES 0
      SEL 0
      FADEIN 1 0.010000 0.000000 1 0
      FADEOUT 1 0.010000 0.000000 1 0
      MUTE 0
      IGUID {DC204E26-6576-1F47-AEB5-71D4D89CAC9C}
      IID 2523
      NAME "04-L (Ibanez+DI)-120324_1401.wav"
      VOLPAN 1.000000 0.000000 1.000000 -1.000000
      SOFFS 1.70279788154881
      PLAYRATE 1.00000000000000 1 0.00000000000000 -1
      CHANMODE 0
      GUID {D5C890F7-BE23-D343-BADA-A1A94ECAE3C2}
      RECPASS 615
      <SOURCE WAVE
        FILE "../media/04-L (Ibanez+DI)-120324_1401.wav"
      >
    >
    <ITEM
      POSITION 72.28079671684237
      SNAPOFFS 0.00000000000000
      LENGTH 3.93534587771319
      LOOP 0
      ALLTAKES 0
      SEL 0
      FADEIN 1 0.010000 0.000000 1 0
      FADEOUT 1 0.010000 0.000000 1 0
      MUTE 0
      IGUID {D1BD7F14-3A28-FD48-8066-3AD46683A15C}
      IID 2523
      NAME "04-L (Ibanez+DI)-120324_1401.wav"
      VOLPAN 1.000000 0.000000 1.000000 -1.000000
      SOFFS 6.79691723183760
      PLAYRATE 1.00000000000000 1 0.00000000000000 -1
      CHANMODE 0
      GUID {ADDA74D3-6DDE-3546-8243-0630F68A8B06}
      RECPASS 615
      <SOURCE WAVE
        FILE "../media/04-L (Ibanez+DI)-120324_1401.wav"
      >
    >
    <ITEM
      POSITION 76.54046659454754
      SNAPOFFS 0.00000000000000
      LENGTH 7.45945199999937
      LOOP 0
      ALLTAKES 0
      SEL 0
      FADEIN 1 0.010000 0.000000 1 0
      FADEOUT 1 0.010000 0.000000 1 0
      MUTE 0
      IGUID {3CE480F7-47C6-474D-B4A3-EFC0996E6964}
      IID 3776
      NAME "04-L (Ibanez+DI)-120325_1944.wav"
      VOLPAN 1.000000 0.000000 1.000000 -1.000000
      SOFFS 35.67563758333331
      PLAYRATE 1.00000000000000 1 0.00000000000000 -1
      CHANMODE 0
      GUID {2992641C-270C-2348-9E42-DFB8760DAC1E}
      RECPASS 1213
      <SOURCE WAVE
        FILE "../media/04-L (Ibanez+DI)-120325_1944.wav"
      >
    >
    <ITEM
      POSITION 83.99991859452849
      SNAPOFFS 0.00000000000000
      LENGTH 1.94594399999983
      LOOP 0
      ALLTAKES 0
      SEL 0
      FADEIN 1 0.010000 0.000000 1 0
      FADEOUT 1 0.010000 0.331967 1 1
      MUTE 0
      IGUID {8A379F68-4897-7549-98B8-E75B65BF1C92}
      IID 3802
      NAME "04-L (Ibanez+DI)-120325_1953-01.wav"
      VOLPAN 1.000000 0.000000 1.000000 -1.000000
      SOFFS 4.86484699999991
      PLAYRATE 1.00000000000000 1 0.00000000000000 -1
      CHANMODE 0
      TAKECOLOR 33488896
      GUID {979A8CB9-5DE8-F140-AD19-9AE9F0A414B0}
      RECPASS 1255
      <SOURCE WAVE
        FILE "../media/04-L (Ibanez+DI)-120325_1953-01.wav"
      >
    >
    <ITEM
      POSITION 85.61389562887190
      SNAPOFFS 0.00000000000000
      LENGTH 3.25088296568015
      LOOP 1
      ALLTAKES 0
      SEL 0
      FADEIN 1 0.010000 0.331967 1 1
      FADEOUT 1 0.010000 0.063723 1 1
      MUTE 0
      IGUID {D4B0267C-7730-344F-9A60-A175B0F855C9}
      IID 2706
      NAME "04-L (Ibanez+DI)-120324_1445-01.wav"
      VOLPAN 1.000000 0.000000 1.000000 -1.000000
      SOFFS 0.46183341552501
      PLAYRATE 1.00000000000000 1 0.00000000000000 -1
      CHANMODE 0
      GUID {C6B4EC5F-98BA-2145-969D-0467626E5E56}
      RECPASS 696
      <SOURCE WAVE
        FILE "../media/04-L (Ibanez+DI)-120324_1445-01.wav"
      >
    >
    <ITEM
      POSITION 88.80105520392819
      SNAPOFFS 0.00000000000000
      LENGTH 29.19072714068500
      LOOP 1
      ALLTAKES 0
      SEL 0
      FADEIN 1 0.066780 0.063723 1 1
      FADEOUT 1 0.010000 0.000000 1 0
      MUTE 0
      IGUID {7245AA43-1C47-D441-9DB3-70F5C2778780}
      IID 1546
      NAME "04-L (Ibanez+DI)-120323_2041.wav"
      VOLPAN 1.000000 0.000000 1.000000 -1.000000
      SOFFS 2.37897215718442
      PLAYRATE 1.00000000000000 1 0.00000000000000 -1
      CHANMODE 0
      GUID {CA6DDA93-0959-9442-9B0C-92413EC22D12}
      RECPASS 400
      <SOURCE WAVE
        FILE "../media/04-L (Ibanez+DI)-120323_2041.wav"
      >
    >
    <ITEM
      POSITION 119.65927054666965
      SNAPOFFS 0.00000000000000
      LENGTH 18.50275604787191
      LOOP 1
      ALLTAKES 0
      SEL 0
      FADEIN 1 0.247836 0.000000 1 0
      FADEOUT 1 0.010000 0.090337 1 1
      MUTE 0
      IGUID {D7E4A34C-3E5D-274B-BB8D-4D0E33DDD1A0}
      IID 3190
      NAME "04-L (Ibanez+DI)-120324_2120-01.wav"
      VOLPAN 1.000000 0.000000 1.000000 -1.000000
      SOFFS 0.00000000000000
      PLAYRATE 1.00000000000000 1 0.00000000000000 -1
      CHANMODE 0
      GUID {E09ED435-4387-4C49-80EB-DB3B9C30BEEE}
      RECPASS 1033
      <SOURCE WAVE
        FILE "../media/04-L (Ibanez+DI)-120324_2120-01.wav"
      >
    >
    <ITEM
      POSITION 138.07168949783363
      SNAPOFFS 0.00000000000000
      LENGTH 1.00852770474683
      LOOP 0
      ALLTAKES 0
      SEL 0
      FADEIN 1 0.000000 0.090337 1 1
      FADEOUT 1 0.116926 0.000000 1 0
      MUTE 0
      IGUID {B741423A-5B05-F945-BF8B-9504EA25D167}
      IID 3052
      NAME "04-L (Ibanez+DI)-120324_2006.wav"
      VOLPAN 1.000000 0.000000 1.000000 -1.000000
      SOFFS 66.03514086436087
      PLAYRATE 1.00000000000000 1 0.00000000000000 -1
      CHANMODE 0
      GUID {3E3C663C-0A2A-7F4D-95DE-E2C7907F3ADD}
      RECPASS 974
      <SOURCE WAVE
        FILE "../media/04-L (Ibanez+DI)-120324_2006.wav"
      >
    >
    <ITEM
      POSITION 139.13499859456488
      SNAPOFFS 0.00000000000000
      LENGTH 5.19221033312726
      LOOP 0
      ALLTAKES 0
      SEL 0
      FADEIN 1 0.147996 0.000000 1 0
      FADEOUT 1 0.085254 0.000000 1 0
      MUTE 0
      IGUID {72CFA55A-5945-6849-B170-4ED3E2732345}
      IID 3052
      NAME "04-L (Ibanez+DI)-120324_2006.wav"
      VOLPAN 1.000000 0.000000 1.000000 -1.000000
      SOFFS 67.13507441666786
      PLAYRATE 1.00000000000000 1 0.00000000000000 -1
      CHANMODE 0
      GUID {1282020D-56B6-9645-B521-97B869019BEA}
      RECPASS 974
      <SOURCE WAVE
        FILE "../media/04-L (Ibanez+DI)-120324_2006.wav"
      >
    >
    <ITEM
      POSITION 145.16601866848350
      SNAPOFFS 0.00000000000000
      LENGTH 1.01779955386405
      LOOP 1
      ALLTAKES 0
      SEL 0
      FADEIN 1 0.010000 0.000000 1 0
      FADEOUT 1 0.010000 0.019023 1 1
      MUTE 0
      IGUID {C8917EF8-F793-7B41-9C2A-4211449499B2}
      IID 3132
      NAME "04-L (Ibanez+DI)-120324_2052.wav"
      VOLPAN 1.000000 0.000000 1.000000 -1.000000
      SOFFS 0.30014395513115
      PLAYRATE 1.00000000000000 1 0.00000000000000 -1
      CHANMODE 0
      GUID {29A28B97-52C2-8447-BCEB-EB481B873DD7}
      RECPASS 1013
      <SOURCE WAVE
        FILE "../media/04-L (Ibanez+DI)-120324_2052.wav"
      >
    >
    <ITEM
      POSITION 146.16479547709741
      SNAPOFFS 0.00000000000000
      LENGTH 0.36037559676015
      LOOP 1
      ALLTAKES 0
      SEL 0
      FADEIN 1 0.010000 0.019023 1 1
      FADEOUT 1 0.010000 0.017858 1 1
      MUTE 0
      IGUID {FEF7ED10-53EE-2A41-975F-69AC0700CD42}
      IID 3132
      NAME "04-L (Ibanez+DI)-120324_2052.wav"
      VOLPAN 1.000000 0.000000 1.000000 -1.000000
      SOFFS 1.31794350899520
      PLAYRATE 1.00000000000000 1 0.00000000000000 -1
      CHANMODE 0
      GUID {6EFAC3A7-F557-4846-945C-EA9AA85B913F}
      RECPASS 1013
      <SOURCE WAVE
        FILE "../media/04-L (Ibanez+DI)-120324_2052.wav"
      >
    >
    <ITEM
      POSITION 146.50731350473643
      SNAPOFFS 0.00000000000000
      LENGTH 0.31501607473660
      LOOP 1
      ALLTAKES 0
      SEL 0
      FADEIN 1 0.023548 0.017858 1 1
      FADEOUT 1 0.161409 0.000000 1 0
      MUTE 0
      IGUID {867C77DA-4042-0648-8E47-13616F621F0C}
      IID 3132
      NAME "04-L (Ibanez+DI)-120324_2052.wav"
      VOLPAN 1.000000 0.000000 1.000000 -1.000000
      SOFFS 1.67922749749743
      PLAYRATE 1.00000000000000 1 0.00000000000000 -1
      CHANMODE 0
      GUID {178454CA-27AB-6B46-AA98-7C7B94299664}
      RECPASS 1013
      <SOURCE WAVE
        FILE "../media/04-L (Ibanez+DI)-120324_2052.wav"
      >
    >
    <ITEM
      POSITION 148.71074436259505
      SNAPOFFS 0.00000000000000
      LENGTH 0.68329030848463
      LOOP 1
      ALLTAKES 0
      SEL 0
      FADEIN 1 0.010000 0.000000 1 0
      FADEOUT 1 0.062367 0.000000 1 0
      MUTE 0
      IGUID {D326B338-63DC-284D-B267-518558A31FE7}
      IID 3074
      NAME "04-L (Ibanez+DI)-120324_2042-01.wav"
      VOLPAN 1.000000 0.000000 1.000000 -1.000000
      SOFFS 0.62627589920635
      PLAYRATE 1.00000000000000 1 0.00000000000000 -1
      CHANMODE 0
      GUID {9B0B9D88-09A4-BB4F-B1E8-2422A6383FB6}
      RECPASS 984
      <SOURCE WAVE
        FILE "../media/04-L (Ibanez+DI)-120324_2042-01.wav"
      >
    >
    <ITEM
      POSITION 150.81066259454519
      SNAPOFFS 0.00000000000000
      LENGTH 4.86772417620602
      LOOP 1
      ALLTAKES 0
      SEL 0
      FADEIN 1 0.010000 0.000000 1 0
      FADEOUT 1 0.010000 0.000000 1 0
      MUTE 0
      IGUID {F227243A-12C4-7F4E-BE1D-D7E232F8167A}
      IID 3152
      NAME "04-L (Ibanez+DI)-120324_2100-02.wav"
      VOLPAN 1.000000 0.000000 1.000000 -1.000000
      SOFFS 0.44627746453762
      PLAYRATE 1.00000000000000 1 0.00000000000000 -1
      CHANMODE 0
      GUID {920D73A5-E41C-A545-B288-44F5BB9BEA57}
      RECPASS 1018
      <SOURCE WAVE
        FILE "../media/04-L (Ibanez+DI)-120324_2100-02.wav"
      >
    >
    <ITEM
      POSITION 156.25436066432439
      SNAPOFFS 0.00000000000000
      LENGTH 5.60876404904320
      LOOP 1
      ALLTAKES 0
      SEL 0
      FADEIN 1 0.010000 0.000000 1 0
      FADEOUT 1 0.010000 0.000000 1 0
      MUTE 0
      IGUID {6A01BB38-17BD-8940-BACA-9E5FF27F88DD}
      IID 3036
      NAME "04-L (Ibanez+DI)-120324_1955-02.wav"
      VOLPAN 1.000000 0.000000 1.000000 -1.000000
      SOFFS 0.51816303429018
      PLAYRATE 1.00000000000000 1 0.00000000000000 -1
      CHANMODE 0
      TAKECOLOR 33488896
      GUID {94787ACC-5EE6-B348-80F0-D0380CBD4260}
      RECPASS 944
      <SOURCE WAVE
        FILE "../media/04-L (Ibanez+DI)-120324_1955-02.wav"
      >
    >
    <ITEM
      POSITION 165.26127400287942
      SNAPOFFS 0.00000000000000
      LENGTH 7.91459095594973
      LOOP 1
      ALLTAKES 0
      SEL 0
      FADEIN 1 0.000000 0.000000 1 0
      FADEOUT 1 0.010000 0.009129 1 1
      MUTE 0
      IGUID {A06FA5C6-EC47-FC40-9C39-FBA43F6D1265}
      IID 1593
      NAME "04-L (Ibanez+DI)-120323_2105.wav"
      VOLPAN 1.000000 0.000000 1.000000 -1.000000
      SOFFS 0.33603470621620
      PLAYRATE 1.00000000000000 1 0.00000000000000 -1
      CHANMODE 0
      GUID {694680D8-D143-8E43-8CEB-C2B4C5885079}
      RECPASS 419
      <SOURCE WAVE
        FILE "../media/04-L (Ibanez+DI)-120323_2105.wav"
      >
    >
    <ITEM
      POSITION 173.16673624961686
      SNAPOFFS 0.00000000000000
      LENGTH 50.61682634499675
      LOOP 1
      ALLTAKES 0
      SEL 0
      FADEIN 1 0.010000 0.009129 1 1
      FADEOUT 1 0.000000 0.000000 1 0
      MUTE 0
      IGUID {5A5C553E-E680-8F4E-8BF4-ED069DC12827}
      IID 1567
      NAME "04-L (Ibanez+DI)-120323_2055-01.wav"
      VOLPAN 1.000000 0.000000 1.000000 -1.000000
      SOFFS 8.37338236954088
      PLAYRATE 1.00000000000000 1 0.00000000000000 -1
      CHANMODE 0
      GUID {BF175E59-D60C-244D-91CA-61CD9FB34187}
      RECPASS 408
      <SOURCE WAVE
        FILE "../media/04-L (Ibanez+DI)-120323_2055-01.wav"
      >
    >
  >
  <TRACK '{FB4BA51A-3EBC-2745-B654-59C937A28565}'
    NAME "R (Ibanez+Engl)"
    PEAKCOL 16576
    BEAT -1
    AUTOMODE 0
    VOLPAN 1.00000000000000 1.00000000000000 -1.00000000000000 -1.00000000000000 1.00000000000000
    MUTESOLO 0 0 0
    IPHASE 0
    ISBUS 0 0
    BUSCOMP 0 0
    SHOWINMIX 1 0.666700 0.500000 1 0.500000 -1 -1 -1
    FREEMODE 0
    SEL 0
    REC 0 1 1 0 0 0 0
    VU 2
    TRACKHEIGHT 0 0
    INQ 0 0 0 0.5000000000 100 0 0 100
    NCHAN 2
    FX 1
    TRACKID {FB4BA51A-3EBC-2745-B654-59C937A28565}
    PERF 0
    MIDIOUT -1
    MAINSEND 1 0
    <FXCHAIN
      WNDRECT 265 174 1262 730
      SHOW 0
      LASTSEL 0
      DOCKED 0
      BYPASS 0 0
      <VST "VST: Guitar Rig 5 (Native Instruments GmbH)" "Guitar Rig 5.vst" 0 ""
        NUdpTu5e7f4EAAAAAQAAAAAAAAACAAAAAAAAAAQAAAAAAAAACAAAAA==
        AAAAAAIAAAABAAAAAAAAAAIAAAAAAAAATC4AAAEAAAD//xAALWluLQ==
        AgAAACNOSSNDUyNEb2N1bWVudCMjTkkjU291bmRTaGVsbCNTb3VuZA==
        IwAAAAAAAAAAAAAARQEAAGF0YWQCAAAAZG5zc2JpbHoWAAAAEAAAAA==
        eNpjYmBg0PX00zV1z/QDMhkAEaUCJ2F0YWQCAAAAb2ZuaWJpbHqvAA==
        AAA7AQAAeNpdj8EOgjAMQO98xbK7DhMOHsY4qXeiHzChI4tjJVshfg==
        vphFQI7v5bVNZfXuHZsgRIu+5Kdjzhn4Blvru5I/7tfDmbNI2rfaoQ==
        h5J75KxSmYw4+jkyuA4Xec5VljEmh4ADBLIQRRIN9sM87imqGbdC3Q==
        Rks6sNp2rJBi9fuuBuPgRRh20QZjOqaJgn2OBL9ji0g8m0m7EdTFGA==
        aEiKRKkVf/EGv8ulWN5W2QebsGVCYXRhZAIAAAB0c3JwYmlsetUsAA==
        AF6UAAB42u1925aiWNZu79t+ihh564hWERFyZPU/FgcVAQEP4eGmBw==
        KiIeQEFAfY79wPubcTTyUJmR1V0Zf+/Km6oVa6255przm0dQb0xr/A==
        f/72t7/1/u/f/vbpf0677U3uJ2kYR799qP6j8uHGj+bxIoyC3z4MBw==
        zVvxw0169KKFt40j/7cPUfzh5n/++fdPQXIbRukxyXZ+dLydr7Jocw==
        M8vC7eI2ynYzP/ntA8c3hA8383i3x0as2XvzzW24wCFSo8JLgihyHw==
        bpaJt/OLOHmYweE7bx0nt88M1fGXcJ7EL3/h6C/R9Rrs2id+6n/jiA==
        Y7gD34NVdsP2yU2Vu6k2Plb4j5XKDVepch/++fe/39x8SuMsWtwuvA==
        ozfzUv8m2MYzb3u7849JHMW7+zNWIQ653cUL/4HRcBHi3l4U+VscKA==
        fCg/UIJgErBx4+33t8fz/mHxi4Bx3g3+fVqGp9tn2aQ3ENptePR3KQ==
        ltQe13y+6oZuJkqVCghGHl2qZzwvxWJauPWP/sufHv/47d03WUZ/Dg==
        ltJiYmQVNz07x9OalcLprMl+++3DNalrYrdBFr6ew2we+sWVvnGb/Q==
        1jv6tzMv2vz24cPXph4YIYTFib+4JQqPEuYhtM9GaTjb4v+X3jb1SQ==
        2q8OL/8Ob1d8e9kijG+uwPTFLfYeQfKIFTAEDydizzHeeccnrJGqXg==
        FpFKyUCO4fzVwuoXlK9p3ysjZE+a0CMysbnP5scw93FXb5vdA+dLGg==
        oEIIveLgJvF3MWS58073zDwNw3t2y19ho/y8+Yvbv0yl3xbwvRBfoQ==
        7GXyCo/lLwH56dlQk+MzZ5/Kr2D+O+AXrtEbBjdGHMFAt280gm9ReQ==
        NIajFRZrYdDvGUJxKrlSZ2+IqvuXMfyQMVS+YQzl94im2teBcMO9FQ==
        UN8m9IipcW0brUvBwV0Z3t267jT1WTII/sLUXw72fZmE+C0k196aaA==
        fJvQo0lw5mC0SXeznqCojYYV8ptDXv4r5/jLJN6ZSXBXQGb3mtSjNw==
        GsNXSTyaQV9bTbfz49Sd22u7CILcW3GjX2sG1VdmUP0r2/i34Kh65Q==
        D1EfvhFCn+9+RE85nxaR3ij33F2cdgabMDHC8K+84ivoqX6JnsbPOg==
        0Ssfus+ONy0vjF785z/qf7oH/YLB1hODLejqxo7K9nL5zGH11/M3eA==
        xd9gBcNaxdvFlRDfAZPW3ROXlpfSH+/ibba7ipT/EIV6TRB/PafmEw==
        o2a4C+mPn2m88g5YVJ559JfHG+Whb/aeMNlTrtLV1Zcs/pUYfV4+Xw==
        9xIH3t5X/fnmpvrW2vkbVB4D3LCniIfzaekKtl+ZzDrG4VDp/BdVCQ==
        R9x4gRtXvewLrp/mCGJfIOctofFngqP01eD4DSN4bUnbZ1OP4/137A==
        599gQd8x8y/YO/rPcIOy4xcfVHk/LCbPLCZelO7j1H+Hcsyemcyidw==
        yN8+f+Lvy8DNC0L1vfCZPPPZ8+dxsvg8z3g3jIbOVe/AT443TpyG5A==
        F96f7rfptQ+66R8R4t4hl/4rLrVo8cuV/u2c4ztZB01/I5j9WQkJfw==
        nUnAJSVvTEW+3P+YhNTMlm1cmtNepb+4zJXDpX0ctX9tEsK9SkK4dw==
        XGULP5xIfGYdzfhJGc042bynYmbw7AgHENuNEx7nq2f+BOnXM5gekw==
        eXR8YrJ/TOKZX1boRYP3JMbF/q1Zzp/KXrJ8ictLP/Gj+Qt7PP8OGA==
        TK1nDYdbcmIWnMH/vnqVKh3ytjdPr9aUf0l79rpJbz2+9+O/tUv7dQ==
        Io9hhBeMC6uNjd50p3OGyVsXLj+4/z2t/qe3pbzsZr6lN7GW4fa+ew==
        Ng+jY5yubtrqRzOcJV5y/sj2+204vw8GN/1sv4+T48euR0+ibvTn1w==
        ytKPrSxE6nZDDxDrH5U4OuKvH58F+3EbFzgp9/9ReEii56C4uZ2Fxw==
        nZdu7m/z8Jf/OBur8IqLXbY9hvvtgzgfJM+XeQifbHTuv/B3S02OaA==
        Qa/KYRqHP/zfn13o13++0HeK5zr1h3rMvyDF7kfPPvIczd8ff4Pd/g==
        G90Isf5eeLSeC30rO77DuvRu+81Cv/6/sYx68aN/OBC+IvBE9/ZqwQ==
        o4t88NdwTbfPvvOVH7tyXo8reE7iJaHBSfUf8GJ/BPR/SFXfUNKLjA==
        b78qLGz78s9v6Ixfv2HIdnsWedtz+uZ69JtkHvMJzxi2xDRR+ykX7Q==
        /fh4l0jx5K83aP77Xh2o16+A4NyTemoSvg1Rv0PoCVNCLTxbVtVVDg==
        e3lWdBNtoI5/bY5aeYWpyjtuddR/ttXh3L0xgv2pdab6zJ2anH+sOw==
        /afyN3rmb3SF5/fDnzV+zp/C03tizBlf+YIbeq/oBhyGUfD/yUPvVw==
        BO5J3sbZ8fYbK/6Y1f4n0pg/aql/Ck8/iv4/hZmfQfyfwtgbfdh/Jg==
        Kf6OCfzBrLhR+dqbHm/9rMW3qDzmL5KuVieVWXcwPMwy7rSvWdlh8w==
        X/i+CPfe3hcRfr6N9L/lQf07f68l7F+3um4G8c3De4t/PZ3/r3k6/w==
        v+bdkX/LawTcr3mNQLp+I/Hx1d/m+I1h6htEHqNUdrbk7ZCZPVsZ2Q==
        +5TfWNWkXfzVufmhSPPTn3166+OK9/ms9GV2HkdHL6Qnp/OHR1K39w==
        Ogu34fH83PN6+Y6Br2WC0Ha2vZfgYnYTRqD18rUK/BMB/HlOS9Jnog==
        EHoCu0niIn399QbcFyes4vR4pSgc87k+xf/4A9/P/vgo8E9RHN1+bQ==
        4svHulXx+tOM/nLrb2BAT9Y8KZbzbcXeuJk/HR3CWjOKpPB1zvltSw==
        /o4VN705Tjr/jjHrXX3wfYO+frR7TLJX9vxNWwbXUY6AQopLfCh5dg==
        8/iFF5XfPgzlU+6s3VbtwmdzxS3XgpPjCL2xty6L5/a8vN7eCQ4vuA==
        84EoTJqbcqrFmVOS87raCLK1W7Lah2runbi9KQzrrlGu2ZsoLxm5kw==
        SFqsGeXQrhR59dBUTVFTZ+eSbQZSHrBNvXEKQmsupXa96Rz6cbAW3A==
        Kh+Xwk4Ve9eT9rrBAt6VmBl6WUWJm40q2652ElMORc5UnQ32LLV1sQ==
        sJuiM2X184DjywEruVracUK1Lak1t5W40qRbbTkTlVPWJ9bzD6Le3A==
        V/KJuo4Tzu0KoRR0My3vK3s249ipp4uB2mk7S7Y+qNWidAwkqz3InA==
        GRvw6wqTkqGk272T46suG3BsO3axfh46uuJa64KtVxWRMWVs6wofzQ==
        Cla+lKS0K2zzPltKSSWYKqPSxO6Y+Y6J00adF8ZG6aDW8/wgj8cNIQ==
        GG5GpRKbr/Kt7NXNStDlzhKT+51sIy+Hl2owEpkkNme8Mwn38rpRbA==
        ClaqaOOZM1O4/Zpj46YoxfJGcVwmrcBPrUhFZoyOdqEazUvKJP3cCA==
        OiUrt5VKK6m6nO5LcUe185laKA0+WClZiRl3LM+Y0p/xrA9+OIWv5Q==
        q9W23eBZaXmQ5oq/yV1myUmFhRdenDCt6gyZu1jXgm40kVy123aGig==
        IeL8cl1sBJrazjWlM5lV3ALyrjRnbr5k27pZdQ07lAozWedTtqiZXA==
        UFq0pEIvq7mvWqlZcc9Tuv/IhL68RaMSBFtfcjvuMXeVUGxcmMb7Ig==
        5kdZwZbpJWNSixeDlqk4uryUVS4oVrEUmPEd5HGsqgWzZ26DMYHLLQ==
        JR7NqkHpsJMmrbafD9iBNRp876SURION8kw+N5NGwbulUtHS1DxUpQ==
        uskVLVGB/AU/Xypu0Kgw564kxTZfzufyqAN98cEB+Iz2wOfuZBasIQ==
        eKKrCXrOlKHTAD725wazTpJdyOJwfWGtA/DTajPHYtpxfWYCP8d9xA==
        psOUyi45sKCvAN9eN9dl89S4BPVAkXhl7udDedJtcMGdFkq6M3XzoQ==
        yt0Bv9s7DnhfHfKJsvQbGMcjaaOEZj6S+XVSZdKkJE2amZP3mLc2qw==
        BRd7UoUZSu6xY4D7NWND0rWslc/Vc5hUgzTG/TrcXT6VrWhWcxVhJA==
        Mdba5558t8d5+3ooTQxPyz3FGEF/47MhFYpj5bqqKsB/0huKgeIMHA==
        TWnpA+hjGIDfuu+MWGcK+5lVY4m1NyVnpGTausoWJu6vXUrA66GWHA==
        2eQQirqy0XGfbrdRC2o74IOV1Hyh1DYzeCrgY6iUNvlYme8b1WAueA==
        EmtmQT5SOttZ1fUnnjRRO1E+kW0b87l7lopWJOeM1WfQx2HJNVhLvw==
        AD/ubB0zrWVBP14A/Vh7NWWlloaxesiY3MtmKXOGgujaWZhbrMwlBQ==
        axaQhzzxoI+ROYP+BwL00+nmrrqBPoI64dU5DoDXYGDCfrU+5MvEfA==
        wi5dyMtWzhLfGm5zn1V1rHcVBevjVe4rh86sxrpKJsV6fIa8zzb8Rw==
        S1Nw/zqDfZwhD+aFsF9n7oBeTzDPrC2cYe/dIGeyxScpO+olgem9IQ==
        5MnyQcqyLvCv9jm7YMEE96soQ4FZRTcr1HSN9Qez32Cyd8oKeb4yUw==
        NukqAtMGd3Ygzw9qxuYsEFmTTx3GGl3Y97DPRGZe7iAvvXaJ2XriNQ==
        mFLsgdfaKjkzf2aIhaP2Mc755MQ6XUEMjGU7t9T+HvyuapkI/Vegjw==
        QRnn+zMB9lmKwc/kSOcvMDZE4J/ZJugdNU9kztbNdUUbwL78C4f9ww==
        CHirKtBHSaT9PQH8uzszZooV4/59G/wtRPCPMCIyfTpzNMYFlwIhxA==
        FV0jXDqanMWXM4vrFeC133WY6kzhL/gVj/sqc+xn5dmGiTOuETjsDA==
        fmpL8LOtQ95aKcN9pinGkoH7tM4L2H81xPjCgT9dboK/sY77blx48A==
        zvqM+5VKjZRVwXGg8jusr3eBx5aKcSsV4C84A2N7ResHtF47Yn2D5A==
        a+xnwGs6hbyKvQJ5GxzmWxfMu0eMNaWC+XMA+fl2JjCVFdCfMYL+ew==
        FmsEADT0Z7dwX0sJxKC9OSJ+xeYA+gwxbs49zEcM4yRJG6zTGwMv/A==
        ehCzitWqM4UtskAuLNhLaxfgvKRk8ywcYn2tAzx0uMKx1GUxOLFFqg==
        Ix56FQdObQf/FkXwdzrLId8Oh3h03IrA43lrQwiKGrPCIDz2ZpB3rQ==
        OsjYJYS+jNMZ/iOJLhdmW+Qf15nTUhRFrTHphHhsbRbOUM7biI9rOQ==
        lfimNXBG6kC+wJ+ULeijPAA/WjoAfqaaGGg9uq/bA79yiHgtuytHVw==
        nTbmGydRDDrWFv73SPIoXSYYT8rgP6b11c0E60+qo7ODjfsslQJ4qQ==
        zDDeK8DLqlQ0mJP07EKpn3C/Xhf+pNOu2bx616J4jP0B65RxXisC/g==
        OiIT3e7SA/4EAfFgUSrEwsxXjiXHF5zHmchvDHsIfUge9ttn4FGr1Q==
        oA83Af04nsNeFQZ5bbckTxHy7Gp34Me9UyGvGOtt44z7tyvQd2TzYg==
        3B7KTl8+KyrHuqyQCoNZjs9cBflDFAwl14qZM5dXJehPdKA/Z5CC3g==
        rI78yV8gvraTsWMp3QruX0tF0W2ObehTveD+ohWLRcfpQF7r8wDniw==
        0J82M3Hf6hnna2JFdK3Exf0qHMnXhz6dSAA9Qb5UWEfWJL6jTZyRrA==
        tBEfwhMvxRY/c4aq3gS/QrGRWLfNQz8TDngQTR72m21wv8Ga6I2hnw==
        ztaHvO7uCG9N8MvkKuy9FmL+VJ/D//TXOG92IPkb0HdXAB7Uuz34Kw==
        TytioXJ9zJcof2pG4F/tJsgnFhMV/upuAzxJE8gjo3Exhnya5zbWDw==
        ttiveLiPYV8wvuSQR2Ahn9SdJtbXTtDv3Xwouoqqgb/aCfPl+UR0nQ==
        tYX1+yrw185gP5aZOJqqlNQTuwSWFCuBhfxVaKpVtpQrkt4tNo4vHw==
        DORbUb8ixUzPoE/VAP674RDxQIS8WE1TKwFjluR2iR7Lq7j/Ze6KRQ==
        8yACbznxt0sxbidkH+c65OUvC5E3K7rjqo4G+c9XgcQcfeb01VPrUg==
        CRZyAHpxz/HUsaJWGOcA/51ZBH0Pq+CXiUPEgxLp0z5C/8ME9G2/Ag==
        +z0egcfeTAMeznvMuxHW83wKe+yeIP9eH/IUzphvagx4si7A82gG/w==
        4pSQDyi1Ovx35wR77lglkt8c/G86mlgoxh707Rz7rTSG/yr3oC+lQg==
        9mQBb3qOy7DOEfI9H6CPlmDD/uUF9jtN+IN2hcN5W7hZFsnAg60hnw==
        Z7wJeYQXjI0F7E/NvcuJDSY69Nd36PwI92kKG+C/D3zJ9QLn18WNGA==
        WKaL/Y0q5rUj/F237GK/e8b+tgj7N8oM/LSI360Jf2ufOchjd8S80g==
        gDwsFSJXByeMdZH4Wd9h/5nw7pc0+Itkh/upDdA/5eTP2jXkj/Uy6A==
        XXJR5NswqYlslIHHbjmFvtsc+LuIkAccsei2xyfiV8T80UF+1hxgvw==
        WpVgD7N8Dvs1q7hfnfJ3twT/qEc72FtSg3zKC5xvJgr2zxPw05hSvg==
        thDAj+hCniGD/ruHCeW3OfKB0DgIzJRDxGMhQnwazAz4w9IB8WqwRg==
        fIpUxOuWEmaBEqvw/9KK/GWPo/0x8pPWbIJ4V2rA32lHjJcHzOuHLg==
        8GBP1ykTww3iz2BkB0oxxXmeqgmsGe4Q73QT+JE7wI+xXCA+KSru0w==
        CCn+WAX0MzBx/7ZCeEsN3LfgsZ5rwH9rhxT0GynG8zmP/eWqzcuSBg==
        PFh95AeGDP+m1Ck/GI3hH7oc4oGyJn9R5idi0VJaoLdfwX+WdPgHYw==
        D3+vSD7sb1mD/3GmAuy7H8A+jpTvqzb5T20L/an7FPXCLoA+dzH0Pw==
        9YC3znkBfBy2kP9IR3xoGxS/UYIif93B/vTqBnjpj3GfS5PylT3imQ==
        HEzBjzQCnhwJ8ZYN59ivt4CnlpyQvU6xftGyyD8usV4fUTxswr6cRQ==
        F/Lp9TGvDoFntkA9Io8d8Hc+Aw8mm2IsU36QppCX7SH/UzIX+UXVDA==
        kC8qMvJlMUuQfykH5Cf7KCuUdQj98x7yE7lfw9ipQP+WDf1brI386A==
        3EJ+JPZ94D1Afc/uLOR3emiLgSwayGdzym9KPPYjdc7g2WTgRWHAhw==
        xlBPsYMDfSUsRvwLPOQTcd6I2aidAV8zJ+Pludo4M37Qgv66BvLR8g==
        HeqT6VYBvgMR+VzYRv54WY6gbz8HXkcT8CfYZ+SPbEPnpeqEFXrKIw==
        Kd9krqLPkF+WrBbmLyLyIVul/CsoUb2QZoFaLHB/sTupsw7rIP8ufA==
        8Lc9AE/McTDWa8Dz/Aj8quU28O7vMZ+1Ec/bAeXTbDagfKjEM5n5oA==
        7/ZAr6SGArMZ7q8Um2TDmKLxTFd022WBtt6gKEe+7qw5zCsL1CsTsQ==
        1QhUrYl8UjAgz5q2gzzvdrjv2p/B/9QE5M+dCuQRjiH/3eUAebgDrA==
        31ZxfzEme73Q+YED+iuzEJgSKNC3VUL+1zRT2NuqZUM+7UvARmof+Q==
        27mO821YEMvXlK/WfeSjBtUTQgf1L9uJkG/MmxlzkSGwpniH/DftQA==
        H/6A8t2VBn4GQ+TPjSrl01sf/PRG4L9eobHWAB4SA/wrK9T/Fq9h/g==
        INzXKy3gcdwB/RPxv7epvtsAX3K3BfpcH/vNTRl4697hvsUoBN6rNQ==
        4C0MMLZj4MPyGc0vqV4fI7/vLlCfqOMp9p811C+mXlC9oYKfjrVrMA==
        c7qBP2Me8LAyIJ8mT/XVaAR9Khr8T5cn/fNd6HOiwx+yngl59FLoJw==
        DlrIj+cp6pnyPT/tEPZmm9CPs00u7DLlgFcO9aY82s8urO1Rv8M+5A==
        msxS88TWCfTVauuoRzkO++MS9ps1HvVIzhqVYE/9CDl2Uc83tEaFmQ==
        Kw/5nTbKJ+qyOasGWc+WJm3NRf3oqWaFVZgnxd0NQz3rSZDvyt/B3w==
        qz7uq1Vx3myeIV5eFMhDyMAP12ghHoX7XEOlhXGtDnmqfRf8LEMT8Q==
        IVYgzyrwxUQP/A23Z8TDTh/yXg9gb2MN9Y5yvAP96Rjy3LT60M8W8g==
        QKrZODFvgvpRz2D/TN80LkydQn9KK7yvHzG/9TLUl1yK88YJ0fd2Yg==
        IR+2wMMlgr2Pp8C7MaL601mDf0n3MC6Bf1ld4vxVBH/TaRbUn/Fw3w==
        Jgd/o1YXWL+6g/6jKvyDudcx3rpUr64hX1U7YZwS/sRTifA7hDxsGQ==
        6ydL4KGZJMCfR3h0MvgDfQ28q0cZeGYnA3gVA9x3ZzXo/gfY4zEEPw==
        qQ/6bDKC/nYdjFsh6Fdj8NPpVMHfeYz7iBWc3y0umO/q2O+dsN8oZg==
        kFeX7LtYC+SvwT9Ll6i3RxPYtyJ42F+PiV+jj3rCWwNPzQjjXQf6Mw==
        djLuMxlT/TmAfuQN7R/LoKdlNsVPA/76kKPeVGa4jz3DWOVrGA/K8A==
        l+YEYJOnCvhfu8AnQ3LJlLUAfJdFH/cfrbCfLeAPOir8AVwV8K+d4Q==
        zyom/Ks8gL9USiboNXT4G4erY14uwT+sZdifykuQr0r+yaztYK+lNg==
        6Ctr4CGvAx9yqQ97WKxxX52HfOQS2a83g7z3VehH7o6Bn+UI963sfA==
        rM9krNc39/U68OYIXK6p5RONjzbqk8E819iJx3nBEfbnREPMD06Qvw==
        YPqIz6MI43QLee31DOvPuD+rBaAv8dAX9ds09bKF/NR9Cfj1IsjbSA==
        ZieEIkV05R38h2LS+GiEomvbK8zXd/AvkCLysVEL/Hd84LM1gj6s6Q==
        CvfNyD7cLQc8ToEXlnmYX3C4n9bLIZ+Th3nzDvp2ji7mCxf3iS/wLw==
        irikeKqAX6WEeCgb5H+1FfShyNCHJZcQzyYS8qe7CPWj41Xhr8ZUnw==
        6/AiTF1XML4IiO+tBeVf3Bn+X1tjzJqIv914jXiF/Ar+V4a/a8XI1w==
        5cMC+/t7yg845G9qWsV6yXaRD9SwnlUuiH9hh+r/DuKJXDiIJ+Mu4g==
        qbznoP8N9X8KKSR72gJvCw74GFJ/SLbHGG9GwJcRwL8rlD8y3gCeYg==
        264jXm8Rf+d7jLsy8g99RXgqHbE+cyieiRPIw+5CPtwG9tJcBZDfmQ==
        /FPGkX03IW+5Tf54VqH4FEO+ik35iVfAHzQHA+C5n0B+mz3lFyUP/A==
        FAeMTQv8dGc85vdag/Ilik+M4qttY/95bcCe9R3oRU2c3y8Q77rjHQ==
        9o8K8Necgl5zijHzW7h/xUA8byujzGVuebBhvi4KMIUu4i1fQjyxAg==
        5Du63oM8ferviyuq/9mR5I+ynZ02yCfsXhPzrAt5T1Y6xqpO/RYH+Q==
        E3MOyIzlgvLvCvIliVE+piM/l3kH8p5riNdqfYSxOML9uk3wZ+6p3w==
        jtoO991SPjZ1qd80oHimwR+0Y4nyfQf8tzXYv3aCfJTJDPObCP7R6Q==
        AX9KusQ8a8OfOGeF6oEV6HUn0LcZtrCfW2G9R+P2jujvd5i/M3Be1w==
        WGL+sMP+mU763ceYb3Uwr3c8xNcA+YjCwUTZtq1Tv38J/LkZ5NGmfA==
        tZWMgV+dA15X9/2ZJfDHogPkV+loGHcuVF/0SV4h8GoEJuSpwU0h3w==
        AN7buohxaYb1/BT2wTLgGZkuydvD/u7ZwHlK/77fNoT+VBX2dW5Bfg==
        Mx7yVCKZ8FIHv/Uy+NfaFB8mAuYtEfPdEvyl6lF/7yzTfZU55ZMt5A==
        F7zp1VlLbQMPE3UWM06F/2yt9sC/FkJ/G8OA/SiU/wWUf9cNj+YryA==
        35iIfLHQXZ45wRz6dzfAT83aIF9R98BTpQ77z6hfaoYp5icH2GOp6w==
        Ip/n+yQPF/LqRjr1j5G/AgVUnzWAr24EfKnbC+6rLSAPU3UxX61ivg==
        t0ipH7bCuEb1lbCA/BWH8JoUGG8a5E986IfNV1i/20De8qVk032Azw==
        iTWvI8m9ZEwtGsS/hvs48gn30SeQx4Fl0DdzM6YUMvgN9An4XWuo/w==
        +kgpWb7CeYw/QV+tLvhzQ+jPinWcF19wf7eDepGteliPtB31o4b9Sg==
        aOB894xxwqi+1LFfte/A7ypKyX92KV/fgX4w5Qm/PuST7kA/0DFung==
        CB/iHeSVqoSvYob9E8JjJEM+Bhthvatj7CsV0JsIGM+pfhHV+3pmgQ==
        MRPAX1nXUV+oU5up7hj6nNke1SPAh4wsEXhRke86BfJJhd9B/6zNOA==
        1AMx9Jd2SB9tnNc8j+l5RkL18mxD9XMd9xdSkjfV02w3oeeDa8zzEw==
        6FPjyF+UQvAzrpO+Mo7spQJ6dzbmW2WKB1EJ40oOekYDY6X5EB/g/w==
        9YjsyUgwbnbI3kbAD9tv6P4dkofhUX83Bv2zR/HBuBBejlh/8SA/pQ==
        tab4Q/K9dKj+75P9ZsTvMsW4mUPeckDnO0VB+f8c9fjIQL3aV4fInw==
        tBrqaZ2ex0Zn6mfrmJfPGvXz3SHiYY0n+nXQO0nAc+vSJPtGiGKeBQ==
        /Nn39ZlUgzykEunHEWxehQpQXxca6vmkTPeRMN+wcV/VnJG8KthvpA==
        G9qv0vOrnPifkf/ZxaAfxeC3bMA/mB7GyjrFODWxXlnLGJfPoMeOoA==
        Z+U7rJfFNckX922tEY+VIY0HDvE7IHkzCfvnOeSpXAqyRxHn3ZWHsA==
        R1WyeRnFAfLJwKXnI5qjqwsZ9X8abMD/hvpXfhPzm1MqMrug+v+uAw==
        +dQVzLOgwDjuYjxWsd9yM0dXVjSv9wLIb2NCnkkZ5w990k+t9yQ/vw==
        Af5MIQJ/nQj8zjrgR/cszMcrjGXqV6sKrW+S/7Cp32LVBiSvOuaXSw==
        wkcD+pGPdL97+XZrfcIn9X96e4pfdcIDym7U+3aAeri/Ad7ZAvYaag==
        iI8deQJ71lbwB2UT9qMO6PmH215TPEO81FY18Lek/CWpg7+OTf5qsg==
        JPvTED/1IKB8RcT+2IQ/lMMp4slwc6F81YJ/XJdxnmGDn1kE/s0RrQ==
        r97jZ0H2367bPKvQ8wCR0fOEuEf9FhXjI+GnmRwoHpN/rFu4rx3C/g==
        1Q7Fp0mqU3wg/yCJ8HqOC/20ReCXHU3sX6/p+dVRx3hyB3xvR6DX7Q==
        xcC/5EGfWgv6MRYh5tUx8BreUf9xCn0pLRf635F9aBNav2/R8xAGfQ==
        q2P4NyW/QD7ZgfI/8gfyiOSjT3C/Zgh9qSI9X1iQP1BL8E+qQP4uIw==
        fTj9NvaXFhgL25iev2mYL1G+4Sn38rz3n13qf2zgj5yTTf7Hw/pZDA==
        /LPDhvCTX0h+0IdTDkFPrWPs+LBHFA1Y3z9jbJhkDzucL9/Hi80W8g==
        1jqwH3amfp8RUjxhWK8OKR/q3udDkxzrPYpfskb66VD8Eig+iyrN8w==
        lM+GbdCzHOi3FS4IT50BxVuxzlQkf4HiLqF/vwt8WQG9T6FQPyc2SA==
        PrMl/MNSvhRs2oM/0gt6PsrsQYH8R4d+mtQPvH9+JFxS1GcB5uWgBQ==
        fTZd2Jc5W1H+S89nxTrk5+wJ/8MB+G0Rf6xjEV5m4K+JKpiZJZKHdg==
        oPhikj9uw9/IAvkPVOFkL+RP+uRPBweix0Gecp3ska9TP9Qm+Q+XKg==
        5Wvwb+p9/piG93jf1ZGvlJFv9D3kH5GAfK5ZQ72H1AXxZmijXnCiBQ==
        8hPlRP2dA+pDu4P8XJnziD+FrCM/ofgt9z3Sj0HxpwY8sEUN8mouSQ==
        /xfqj/TIvkMb51tj0v+E/K3ZRXxtXqaYb1YxDlLcX163KD5ma4pXBQ==
        9Q9Jv7uA8jONns+vj6SfDux/xxAfm2sT/A916i9Tftpe0fPsLj0PVQ==
        KN9syvfPUyfILy9b6hf1kI8pGdWf/n09dEH+pG4KxNthpw9/supQ/w==
        K25sWNxJgQelTf6lgfPuQsJrj+R5XoCfPg/+uwfir0H9vF2iE7+UDw==
        WCfwrx0xbg4oXxAF0qdN9yvDf8uGQPHwSPouQ9/KKnmKx22d5MVn1A==
        P9KAR7a6v18BebcD8K+6Du7nK+C/Yvu4v7Kh/MhGfhS3SqiHVN4GHg==
        E9QPRVers44S2C78z2XOeFupgz+Z6J1Ab+YIyFcD0GN6k94fkPuU/w==
        Uj9tXsP8UId8LTVEPhbPKF8ie7H1DPzvRuC3Tv5Q9pD/Kh75D0Mnfw==
        38mpH9bDeLcC/pgK+0J4w37RrtDzZBv5sdsEvzsV9Y6tSMhvi8N6ww==
        TAP+24pdiv8DylcmhCdvCPpFBHrWPZ7PZP8T8sd1E/lcS66BniYhPw==
        XrWAXzai+tG7UP1gI982LhXc5ywCD66N+7Ex1ZOjC8bbOfTfvai4fw==
        cgI+pDSj/ucE6y3q5wydEflnAXgRJYzjDOtbjT72GxnG6zrqFWNFzw==
        OzTqf4ZN5OMdVYW84xT3rVK91mXkb8M+9N1qAj/WCvpWY8pP1yt6ng==
        u6Z4VaTQt9ZEfm7Lc9tVmGhuGNOR79oq9AV94H4DygeNdUz1roCxRw==
        +mf3/dqignHT4pAPq/S8XmENyjdbVK9pVF9NMT5MqH/jjen9qQP1Tw==
        G7Bn1Uf9rQhU32oC9WNC1F9yf0n7t9Tf3itUbxmQT1XGfJtRPePS+Q==
        je4I91XIf8wRO9mwbVC/ekL1iA/7cS3GM1kNIY/JHeW3BvDjDJaw3w==
        QKF8Tib/xs8pv2kCT+p9fUvxW9VyrFfa0K+ijCAPN4c8Km0b4zPslQ==
        bepkrwH0oU9Qn7OM8GsGqDfbgzvql/vgx1WAd5I/zjvBny9k4LU9HQ==
        EJ4o/ncn5C9HKuVbI+BJDsg/shKtH1G/akXvl+xwX/lI9X45Dcn/3A==
        QV7nCvUjLPI3hy3Vp9TvTlV632swAn9BCfWL2GXAuzxDfaHT/YfduA==
        zkyFAa+VDfX36fmB0aH8/rQj/5pCvspsTf61bGYsD0IxsNxeDvujfg==
        xOV0pv7fPGfs1JqdWafXFwENJ0cRpSRnCHtE/Unqx63ofZPMIXwOCA==
        v8Myxv3AAL0N9a806vfBM4isg3OZmkkN6l/S/ZbQv7qjfrXAc7C/PQ==
        xkosQ74b3aD6awB/wHq4z5Te31D7depPxIgnmxbDvNonf+M3AjYh/w==
        3F7VgA/rAH04JuH5TM9XJj3gB76AY6pM9emkAnoGgz+02ZbqJYP86w==
        Cv6+HfKwj6Cnblho7HBejPuoHXqe2Eqgf7M2An81qqdbyxbZM+Snzg==
        T9SP3R/I3qhfk6oYBwbwqrEq8OEKwJMtE377PfBjy9R/0sj+DZ36lw==
        e4yTmU/5KvCvXE64vzc36H2lCvWjSF9uBPmYHZ3io0H0Q5vwSO/n7A==
        xhjbPPmfUkb7qZ+lUf8HrjTXFd6E/Nsq9GszCfrrOI0zqwzOyL+tag==
        rsuBMUORLGO+VWli3qH+gWvhvm3vAHrGBvpJ2hirJ+BfLhyMW2vqvw==
        TCScH/cxbm+hT6TmVC/6VD/GtJ6zaf0G4wvxZ51KpN8p1q8oPjonug==
        r9el/lRI/rGgflChUrxcUfyZ+NTPMDGvqhn1Y5r0vIf6Q2mL3ifb4w==
        fEWm53/GlPrBHPU3ugnJw6R+kmphXK1h/5b8s1IusP+O/HOSEd7yhA==
        /C3534L60WxA7z/J9DxwPsf5nfMF/Bh77O9O4c86GfmneIzxlO7Pgg==
        CemnTP7IOgN/5wnZ4xB4C+USxQv4UzaMEN84J6P6Osd5AfW7FvS8UQ==
        9no0pufXXQ/+pJXR8+tqjPttO5CH5lF/nFF+MY+wXu/Q8y7cHGOy/w==
        Vkz9HXGI+XMb/HR98k8B3V9Mbep3LOj9Q+p3gyMxaE9g30qlaVIQMg==
        gI9Kl95XlBPklw5H8ZPwI1P//WjBX6gUr+QkwzieQd7aiJ5fKuTPew==
        1C8zwynG2Rby6Owp3xEonsdL6rfvIK9WzyF8EF7ENfCsBhntJ336Cg==
        4dkleloX90k3NuWnXfA7GmCsasCTE5QxLmyyh/v9/Ab8hRr17xzqTw==
        qTbZ+xrynjBD+HCzfHgX/v4TB/SdXk8frrn6Xq9h6ifpx7XnJVHobQ==
        P6pxEW1jb5F+bMWL9F+KN/tX9R/8R0n42LfqjY9d+3bQ/1hv/Kv6rw==
        MJqv/jX39v+iDxX8q/bwVV5h8nDE11bcfxDi8W349OlzKqlHH1LAkA==
        4zj6Au37YeIdQUN6+DKXr39S4kc/MPP2D8tw1R/6XOYf+KTMn/Px6A==
        ytXHo381M/3qy/cuXq4/rVq7//eLmOJevu7z9z9O+aew0649sdMObw==
        tSh/B9+NwD9/N4K/P65+PUO9+ssnisje/V+ts6bw1e/K+0XcqI2r7w==
        svjlzIgv4Jl7V+z8QxB4/heZvCNdfZnFwt96v1xMZrXy8pnp92H2Tg==
        9dlbO1706/mxqtxXv03xF2msV6195oV+5Fv9/yQw8a/BdNNM/MOVBg==
        G4IocL8ovFXrr+Pb57zxXLXO/6r05NmPj8LF60gnifVfJLFm9dmfOw==
        vrf5XF6/yBpbVfEVV9/9Kbc/hSu3Kr3iyv3TWfr6x9O/+dH0Lz6z/Q==
        qfz1D1d/KgfJbeLNN//8O40S39sew50/f/hx2MXspfB5yu0/Pc6hjg==
        WnhH7/6u+NMyDJ4+nf44iy0vcfhq1802nm8ePrn++Kv3N46/8LZXtQ==
        0v0s8QIPiKvd/2SnyFPltI0fhpg/xvQx0lci/P1TjHC+oQL0OwdVGg==
        tauDqj9xUL+gHyC4qf7+QdUKL10dxL0cVH3jQdx3DqpV6lcH1X7+oA==
        2ncOqgvXOuJ//iD+OweJ5LyeD6r/4EHVLw+qvzqo+gUYrgUnXB9z/Q==
        tQfPvuLFGl99oyf+g8TroT/w8FW+3un2uWS+gSO4fY7sj1+6D0nfkw==
        ff6CkMfvVsiSLY2OXkBfCQZ7fhglgf9iFw+jp41Pw2w3I5u8vZZQ+Q==
        RURvkprwHamJ1zBo/KzYuv7p+Eaxce9QbI+/XPN7AqvXruEsvllgjw==
        R7xJVJXXonr1ixU/KLWH3+d5JTj6CYzPRPfvAJz4+/JrSNcuW3qz/A==
        rn4Z4o/IcODtf1h2j79M8Up4g/0fF961M9VOuGzkbR/i6/fiEVfjrg==
        41H1Z0LsZyd+JzBxdfHav1bfHGu7fnGjPMz+/knXX47+ct7XQu61lA==
        P8tvHhd4VNiDlx/Idh6U+UWeQxxcpTBf/MzKt7a/JDAPFKpvpvCSmQ==
        PFDgXlOo/jAF7olC7Wcp1J4o8D9LgX+iUP9ZCvUnCsLnFF5/5w6RuA==
        h9Yr9/AYqL800IfTfpAH4YmHxk/zwP0cD49R4+F08WdlKD5RkN5M4Q==
        S//0iOu3m8aXjueR1Btt5JVHeSTxLSP5VH50BY/D/9h3d316qBi/Ug==
        lPEfvvyGrNsHt7cN06MfUflJh3z2t9fPsT69sHVLPu+FfuP1065HUQ==
        vRz1kgW8eMLb60TmB8PpG3KIR4xf8/vvusljTP7aVaSfu8rvR/TfuQ==
        ynVl/5nunpekkbdPV/HxuiHw/Ld7rT+PvvmlcJ/Kn1H5VP4MbI9//g==
        ka+Neyb6uO7+eehL1vWy+1kYnCh+98e4yj9BVuC++1ORP0OW0szvfA==
        rfFPkK2Jte9+D+VPkK189+vwfkYE9cYT2XI+LSK9Ue65uzjtDDZhYg==
        hGHwk2Qbwnd/YPynuBW++zsaz878C4Q/9Me+aIk9dMpwpkcGW34Y4g==
        jMdk8WYZJ7udF3kBcfD8XZ20yJvTD5nd3tcE3nF18zh+rBjiZIEQ9g==
        Um++rh0eSVyvDaMAAQV+6t59lP9538sLn38l7Xa+yqLNP//+/wABhA==
        JDxhdGFkAgAAAEROU1NiaWx6FgAAABAAAAB42mNiYGDQ9fTTNXXP9A==
        AzIZABGlAicAAA==
      >
      FLOATPOS 319 147 1023 702
      FXID {91F38C47-F90D-9549-A9A1-691AE1BBE70F}
      WAK 0
    >
    <ITEM
      POSITION 2.44897703643939
      SNAPOFFS 0.00000000000000
      LENGTH 15.71316955812438
      LOOP 1
      ALLTAKES 0
      SEL 0
      FADEIN 1 0.010000 0.000000 1 0
      FADEOUT 1 0.010000 0.129039 1 1
      MUTE 0
      IGUID {8F214DDB-77FF-EB49-92FA-F83A3C46974F}
      IID 1598
      NAME "05-R (Ibanez+Engl)-120323_2111.wav"
      VOLPAN 1.000000 0.000000 1.000000 -1.000000
      SOFFS 0.68364398974654
      PLAYRATE 1.00000000000000 1 0.00000000000000 -1
      CHANMODE 0
      GUID {0B559640-EF48-D74B-83A7-690E562A8E42}
      RECPASS 422
      <SOURCE WAVE
        FILE "../media/05-R (Ibanez+Engl)-120323_2111.wav"
      >
    >
    <ITEM
      POSITION 18.03310709951030
      SNAPOFFS 0.00000000000000
      LENGTH 0.99651135274985
      LOOP 1
      ALLTAKES 0
      SEL 0
      FADEIN 1 0.010000 0.129039 1 1
      FADEOUT 1 0.073024 0.000000 1 0
      MUTE 0
      IGUID {E2D98010-A13F-EB43-BEF4-343C875E89BB}
      IID 1621
      NAME "05-R (Ibanez+Engl)-120323_2118-02.wav"
      VOLPAN 1.000000 0.000000 1.000000 -1.000000
      SOFFS 0.32963503087535
      PLAYRATE 1.00000000000000 1 0.00000000000000 -1
      CHANMODE 0
      GUID {15715A7E-50E7-3044-BCA8-8DFA3E3C2DA3}
      RECPASS 428
      <SOURCE WAVE
        FILE "../media/05-R (Ibanez+Engl)-120323_2118-02.wav"
      >
    >
    <ITEM
      POSITION 19.25991306620701
      SNAPOFFS 0.00000000000000
      LENGTH 1.99794114587883
      LOOP 1
      ALLTAKES 0
      SEL 0
      FADEIN 1 0.049656 0.000000 1 0
      FADEOUT 1 0.000000 0.023368 1 1
      MUTE 0
      IGUID {A5E0E7DC-B426-A040-B9F1-FF0B0836F4C0}
      IID 1621
      NAME "05-R (Ibanez+Engl)-120323_2118-02.wav"
      VOLPAN 1.000000 0.000000 1.000000 -1.000000
      SOFFS 1.55982371062851
      PLAYRATE 1.00000000000000 1 0.00000000000000 -1
      CHANMODE 0
      GUID {F762AC33-1CCF-D049-9258-EEE075AEC645}
      RECPASS 428
      <SOURCE WAVE
        FILE "../media/05-R (Ibanez+Engl)-120323_2118-02.wav"
      >
    >
    <ITEM
      POSITION 21.23448647934994
      SNAPOFFS 0.00000000000000
      LENGTH 0.36307967017115
      LOOP 1
      ALLTAKES 0
      SEL 0
      FADEIN 1 0.010000 0.023368 1 1
      FADEOUT 1 0.055498 0.000000 1 0
      MUTE 0
      IGUID {95F8BEB3-807B-3F4D-A594-998FB44E36F6}
      IID 1621
      NAME "05-R (Ibanez+Engl)-120323_2118-02.wav"
      VOLPAN 1.000000 0.000000 1.000000 -1.000000
      SOFFS 3.50518745793147
      PLAYRATE 1.00000000000000 1 0.00000000000000 -1
      CHANMODE 0
      GUID {747831C8-3909-F544-B5F4-F0A1608D6195}
      RECPASS 428
      <SOURCE WAVE
        FILE "../media/05-R (Ibanez+Engl)-120323_2118-02.wav"
      >
    >
    <ITEM
      POSITION 21.83232605496006
      SNAPOFFS 0.00000000000000
      LENGTH 2.44822259190494
      LOOP 1
      ALLTAKES 0
      SEL 0
      FADEIN 1 0.010000 0.000000 1 0
      FADEOUT 1 0.086255 0.000000 1 0
      MUTE 0
      IGUID {ECBD8964-D684-8E4F-9F61-F98E804BFD0D}
      IID 1689
      NAME "05-R (Ibanez+Engl)-120323_2125.wav"
      VOLPAN 1.000000 0.000000 1.000000 -1.000000
      SOFFS 0.25000342493752
      PLAYRATE 1.00000000000000 1 0.00000000000000 -1
      CHANMODE 0
      TAKECOLOR 33488896
      GUID {3B6F4D52-8695-E249-908A-5A48C6362B24}
      RECPASS 439
      <SOURCE WAVE
        FILE "../media/05-R (Ibanez+Engl)-120323_2125.wav"
      >
    >
    <ITEM
      POSITION 24.43542265174030
      SNAPOFFS 0.00000000000000
      LENGTH 0.34652637864849
      LOOP 1
      ALLTAKES 0
      SEL 0
      FADEIN 1 0.010000 0.000000 1 0
      FADEOUT 1 0.010000 0.027908 1 1
      MUTE 0
      IGUID {4169D7BC-8F80-E947-A650-D041E8DB6F4E}
      IID 1683
      NAME "03-L (Ibanez+Engl)-120323_2125.wav"
      VOLPAN 1.000000 0.000000 1.000000 -1.000000
      SOFFS 0.16011047540826
      PLAYRATE 1.00000000000000 1 0.00000000000000 -1
      CHANMODE 0
      GUID {E509F7AC-C7CA-CF43-8CC5-24548921F3AF}
      RECPASS 438
      <SOURCE WAVE
        FILE "../media/03-L (Ibanez+Engl)-120323_2125.wav"
      >
    >
    <ITEM
      POSITION 24.75404086561458
      SNAPOFFS 0.00000000000000
      LENGTH 1.00701961043490
      LOOP 1
      ALLTAKES 0
      SEL 0
      FADEIN 1 0.010000 0.027908 1 1
      FADEOUT 1 0.010000 0.023257 1 1
      MUTE 0
      IGUID {FB1A7116-BCD3-1541-9B38-97A3C6E8EF85}
      IID 1683
      NAME "03-L (Ibanez+Engl)-120323_2125.wav"
      VOLPAN 1.000000 0.000000 1.000000 -1.000000
      SOFFS 0.50663685405675
      PLAYRATE 1.00000000000000 1 0.00000000000000 -1
      CHANMODE 0
      GUID {92CF275A-7F7F-494A-B3E6-94521D80B4B3}
      RECPASS 438
      <SOURCE WAVE
        FILE "../media/03-L (Ibanez+Engl)-120323_2125.wav"
      >
    >
    <ITEM
      POSITION 25.73780367212886
      SNAPOFFS 0.00000000000000
      LENGTH 1.02933840234959
      LOOP 1
      ALLTAKES 0
      SEL 0
      FADEIN 1 0.010000 0.023257 1 1
      FADEOUT 1 0.046445 0.000000 1 0
      MUTE 0
      IGUID {599AA175-9524-954C-AB89-FEC8A57ECD18}
      IID 1683
      NAME "03-L (Ibanez+Engl)-120323_2125.wav"
      VOLPAN 1.000000 0.000000 1.000000 -1.000000
      SOFFS 1.48342261937467
      PLAYRATE 1.00000000000000 1 0.00000000000000 -1
      CHANMODE 0
      GUID {06EC094D-8679-6241-80D3-6E42367CA5F5}
      RECPASS 438
      <SOURCE WAVE
        FILE "../media/03-L (Ibanez+Engl)-120323_2125.wav"
      >
    >
    <ITEM
      POSITION 27.73241985232154
      SNAPOFFS 0.00000000000000
      LENGTH 1.78106674227922
      LOOP 0
      ALLTAKES 0
      SEL 0
      FADEIN 1 0.076389 0.000000 1 0
      FADEOUT 1 0.000000 0.000000 1 0
      MUTE 0
      IGUID {FB2A163C-B66F-4C48-A6BC-E7C535A020BB}
      IID 3815
      NAME "05-R (Ibanez+Engl)-120325_2016.wav"
      VOLPAN 1.000000 0.000000 1.000000 -1.000000
      SOFFS 22.54322425772063
      PLAYRATE 1.00000000000000 1 0.00000000000000 -1
      CHANMODE 0
      GUID {F6D22AF4-0176-DE4E-A740-8E30C8665A00}
      RECPASS 1306
      <SOURCE WAVE
        FILE "../media/05-R (Ibanez+Engl)-120325_2016.wav"
      >
    >
    <ITEM
      POSITION 31.31756916529550
      SNAPOFFS 0.00000000000000
      LENGTH 0.67026799661858
      LOOP 1
      ALLTAKES 0
      SEL 0
      FADEIN 1 0.010000 0.000000 1 0
      FADEOUT 1 0.066035 0.000000 1 0
      MUTE 0
      IGUID {6D0E77E1-9E9A-E048-A568-6B95642710E9}
      IID 1731
      NAME "05-R (Ibanez+Engl)-120323_2137.wav"
      VOLPAN 1.000000 0.000000 1.000000 -1.000000
      SOFFS 3.98180064432836
      PLAYRATE 1.00000000000000 1 0.00000000000000 -1
      CHANMODE 0
      GUID {91E2F4A3-D985-A049-BE3A-10AE7035A3FA}
      RECPASS 456
      <SOURCE WAVE
        FILE "../media/05-R (Ibanez+Engl)-120323_2137.wav"
      >
    >
    <ITEM
      POSITION 32.92487362252133
      SNAPOFFS 0.00000000000000
      LENGTH 5.34486425546493
      LOOP 1
      ALLTAKES 0
      SEL 0
      FADEIN 1 0.010000 0.000000 1 0
      FADEOUT 1 0.010000 0.000000 1 0
      MUTE 0
      IGUID {BADA893F-760B-2847-AC5D-A92A6CA7D92D}
      IID 1773
      NAME "05-R (Ibanez+Engl)-120323_2156.wav"
      VOLPAN 1.000000 0.000000 1.000000 -1.000000
      SOFFS 0.67072807582531
      PLAYRATE 1.00000000000000 1 0.00000000000000 -1
      CHANMODE 0
      GUID {B79597D9-2BE7-B145-8168-45604EEE55B9}
      RECPASS 472
      <SOURCE WAVE
        FILE "../media/05-R (Ibanez+Engl)-120323_2156.wav"
      >
    >
    <ITEM
      POSITION 38.81576178913521
      SNAPOFFS 0.00000000000000
      LENGTH 0.75376609566024
      LOOP 1
      ALLTAKES 0
      SEL 0
      FADEIN 1 0.056298 0.000000 1 0
      FADEOUT 1 0.087220 0.000000 1 0
      MUTE 0
      IGUID {19D3F89B-292D-384E-A61A-81E2B2DC6AAB}
      IID 1855
      NAME "05-R (Ibanez+Engl)-120323_2218.wav"
      VOLPAN 1.000000 0.000000 1.000000 -1.000000
      SOFFS 0.27237665910002
      PLAYRATE 1.00000000000000 1 0.00000000000000 -1
      CHANMODE 0
      GUID {2085B5B8-E482-7A48-812F-0981EA5619E9}
      RECPASS 508
      <SOURCE WAVE
        FILE "../media/05-R (Ibanez+Engl)-120323_2218.wav"
      >
    >
    <ITEM
      POSITION 39.98882024890328
      SNAPOFFS 0.00000000000000
      LENGTH 2.39638529086130
      LOOP 1
      ALLTAKES 0
      SEL 0
      FADEIN 1 0.010000 0.000000 1 0
      FADEOUT 1 0.075711 0.000000 1 0
      MUTE 0
      IGUID {6B001294-F630-404C-8B5D-CA40290D40BE}
      IID 1855
      NAME "05-R (Ibanez+Engl)-120323_2218.wav"
      VOLPAN 1.000000 0.000000 1.000000 -1.000000
      SOFFS 1.44543511891163
      PLAYRATE 1.00000000000000 1 0.00000000000000 -1
      CHANMODE 0
      GUID {52F5069E-3CFD-E244-A23F-323CB7813D09}
      RECPASS 508
      <SOURCE WAVE
        FILE "../media/05-R (Ibanez+Engl)-120323_2218.wav"
      >
    >
    <ITEM
      POSITION 42.60392751792962
      SNAPOFFS 0.00000000000000
      LENGTH 0.87912669052878
      LOOP 1
      ALLTAKES 0
      SEL 0
      FADEIN 1 0.010000 0.000000 1 0
      FADEOUT 1 0.010000 0.023636 1 1
      MUTE 0
      IGUID {4103F7A2-2374-E44E-903D-624196095FB3}
      IID 1855
      NAME "05-R (Ibanez+Engl)-120323_2218.wav"
      VOLPAN 1.000000 0.000000 1.000000 -1.000000
      SOFFS 4.06054238784804
      PLAYRATE 1.00000000000000 1 0.00000000000000 -1
      CHANMODE 0
      GUID {FD91A757-D8D5-F748-9E6F-ABC1F4DAEA20}
      RECPASS 508
      <SOURCE WAVE
        FILE "../media/05-R (Ibanez+Engl)-120323_2218.wav"
      >
    >
    <ITEM
      POSITION 43.45941859452570
      SNAPOFFS 0.00000000000000
      LENGTH 1.57148164156933
      LOOP 1
      ALLTAKES 0
      SEL 0
      FADEIN 1 0.010000 0.023636 1 1
      FADEOUT 1 0.046268 0.000000 1 0
      MUTE 0
      IGUID {D1631DC3-1DB4-F644-B896-93D0BBB4CEAB}
      IID 1861
      NAME "05-R (Ibanez+Engl)-120323_2219.wav"
      VOLPAN 1.000000 0.000000 1.000000 -1.000000
      SOFFS 1.18442929786886
      PLAYRATE 1.00000000000000 1 0.00000000000000 -1
      CHANMODE 0
      GUID {6523C37B-5793-A145-8BD3-9D0D0176AF20}
      RECPASS 509
      <SOURCE WAVE
        FILE "../media/05-R (Ibanez+Engl)-120323_2219.wav"
      >
    >
    <ITEM
      POSITION 45.18232314397166
      SNAPOFFS 0.00000000000000
      LENGTH 2.04897883309172
      LOOP 1
      ALLTAKES 0
      SEL 0
      FADEIN 1 0.033650 0.000000 1 0
      FADEOUT 1 0.010000 0.000000 1 0
      MUTE 0
      IGUID {3A5BECFA-7387-DF41-BE85-A6181B293AE7}
      IID 1855
      NAME "05-R (Ibanez+Engl)-120323_2218.wav"
      VOLPAN 1.000000 0.000000 1.000000 -1.000000
      SOFFS 6.63893801400309
      PLAYRATE 1.00000000000000 1 0.00000000000000 -1
      CHANMODE 0
      GUID {CCF6C2FB-634A-8744-9580-2DDE6CAC94B5}
      RECPASS 508
      <SOURCE WAVE
        FILE "../media/05-R (Ibanez+Engl)-120323_2218.wav"
      >
    >
    <ITEM
      POSITION 47.23130197710408
      SNAPOFFS 0.00000000000000
      LENGTH 0.47298371857005
      LOOP 1
      ALLTAKES 0
      SEL 0
      FADEIN 1 0.010000 0.000000 1 0
      FADEOUT 1 0.010000 0.000000 1 0
      MUTE 1
      IGUID {8B057574-6AEB-FD42-8D2A-56991BCA75DC}
      IID 1855
      NAME "05-R (Ibanez+Engl)-120323_2218.wav"
      VOLPAN 1.000000 0.000000 1.000000 -1.000000
      SOFFS 8.68791684709481
      PLAYRATE 1.00000000000000 1 0.00000000000000 -1
      CHANMODE 0
      GUID {B3C98702-A8AC-7148-B96A-4E8E290AEA7E}
      RECPASS 508
      <SOURCE WAVE
        FILE "../media/05-R (Ibanez+Engl)-120323_2218.wav"
      >
    >
    <ITEM
      POSITION 47.70428569572097
      SNAPOFFS 0.00000000000000
      LENGTH 0.45274982106889
      LOOP 1
      ALLTAKES 0
      SEL 0
      FADEIN 1 0.010000 0.000000 1 0
      FADEOUT 1 0.010000 0.000000 1 0
      MUTE 1
      IGUID {B555A10E-4B52-9C4F-8F47-704390215AC7}
      IID 1855
      NAME "05-R (Ibanez+Engl)-120323_2218.wav"
      VOLPAN 1.000000 0.000000 1.000000 -1.000000
      SOFFS 9.16090056566486
      PLAYRATE 1.00000000000000 1 0.00000000000000 -1
      CHANMODE 0
      GUID {F724DA8F-B823-B94B-9B05-AEFEF115869F}
      RECPASS 508
      <SOURCE WAVE
        FILE "../media/05-R (Ibanez+Engl)-120323_2218.wav"
      >
    >
    <ITEM
      POSITION 48.15703551672915
      SNAPOFFS 0.00000000000000
      LENGTH 0.55352526372383
      LOOP 1
      ALLTAKES 0
      SEL 0
      FADEIN 1 0.010000 0.000000 1 0
      FADEOUT 1 0.010000 0.000000 1 0
      MUTE 0
      IGUID {382544BF-BB58-0E4A-B161-64CB9634830A}
      IID 1855
      NAME "05-R (Ibanez+Engl)-120323_2218.wav"
      VOLPAN 1.000000 0.000000 1.000000 -1.000000
      SOFFS 9.61365038673375
      PLAYRATE 1.00000000000000 1 0.00000000000000 -1
      CHANMODE 0
      GUID {173E2358-9C23-4B46-8ECE-688CB44F57AD}
      RECPASS 508
      <SOURCE WAVE
        FILE "../media/05-R (Ibanez+Engl)-120323_2218.wav"
      >
    >
    <ITEM
      POSITION 49.14690229044346
      SNAPOFFS 0.00000000000000
      LENGTH 15.71790030412217
      LOOP 1
      ALLTAKES 0
      SEL 0
      FADEIN 1 0.010000 0.000000 1 0
      FADEOUT 1 0.043537 0.000000 1 0
      MUTE 0
      IGUID {AF20C0F6-BCD9-2B41-A383-3B42FAE1A3B6}
      IID 1535
      NAME "05-R (Ibanez+Engl)-120323_2035.wav"
      VOLPAN 1.000000 0.000000 1.000000 -1.000000
      SOFFS 0.78093382708324
      PLAYRATE 1.00000000000000 1 0.00000000000000 -1
      CHANMODE 0
      GUID {4524C525-2392-3749-8C6B-C452D055E44B}
      RECPASS 397
      <SOURCE WAVE
        FILE "../media/05-R (Ibanez+Engl)-120323_2035.wav"
      >
    >
    <ITEM
      POSITION 66.05236374567313
      SNAPOFFS 0.00000000000000
      LENGTH 1.00955326420751
      LOOP 0
      ALLTAKES 0
      SEL 0
      FADEIN 1 0.102134 0.000000 1 0
      FADEOUT 1 0.086421 0.000000 1 0
      MUTE 0
      IGUID {017C16B0-C9C0-C548-8755-A9D16E7E6E75}
      IID 3750
      NAME "05-R (Ibanez+Engl)-120325_1927.wav"
      VOLPAN 1.000000 0.000000 1.000000 -1.000000
      SOFFS 3.14921804236496
      PLAYRATE 1.00000000000000 1 0.00000000000000 -1
      CHANMODE 0
      GUID {E11D7E45-105A-9A45-9BCB-CA6C76166528}
      RECPASS 1171
      <SOURCE WAVE
        FILE "../media/05-R (Ibanez+Engl)-120325_1927.wav"
      >
    >
    <ITEM
      POSITION 67.16405080309188
      SNAPOFFS 0.00000000000000
      LENGTH 5.16199904058260
      LOOP 0
      ALLTAKES 0
      SEL 0
      FADEIN 1 0.010000 0.000000 1 0
      FADEOUT 1 0.010000 0.000000 1 0
      MUTE 0
      IGUID {6C6162FA-D081-9442-8E8B-DB603BE9C0C4}
      IID 3750
      NAME "05-R (Ibanez+Engl)-120325_1927.wav"
      VOLPAN 1.000000 0.000000 1.000000 -1.000000
      SOFFS 4.24519220856689
      PLAYRATE 1.00000000000000 1 0.00000000000000 -1
      CHANMODE 0
      GUID {B7F28C80-B504-CA46-868F-124A29980BB5}
      RECPASS 1171
      <SOURCE WAVE
        FILE "../media/05-R (Ibanez+Engl)-120325_1927.wav"
      >
    >
    <ITEM
      POSITION 72.33736312544490
      SNAPOFFS 0.00000000000000
      LENGTH 2.57942823116412
      LOOP 0
      ALLTAKES 0
      SEL 0
      FADEIN 1 0.010000 0.000000 1 0
      FADEOUT 1 0.010000 0.022627 1 1
      MUTE 0
      IGUID {B2D20FC8-F9DA-B248-B432-063330B60109}
      IID 3750
      NAME "05-R (Ibanez+Engl)-120325_1927.wav"
      VOLPAN 1.000000 0.000000 1.000000 -1.000000
      SOFFS 9.40719124914949
      PLAYRATE 1.00000000000000 1 0.00000000000000 -1
      CHANMODE 0
      GUID {3E2C18AD-117A-8241-913B-4F25A3E818DA}
      RECPASS 1171
      <SOURCE WAVE
        FILE "../media/05-R (Ibanez+Engl)-120325_1927.wav"
      >
    >
    <ITEM
      POSITION 74.89416479311468
      SNAPOFFS 0.00000000000000
      LENGTH 1.32197780140223
      LOOP 0
      ALLTAKES 0
      SEL 0
      FADEIN 1 0.010000 0.022627 1 1
      FADEOUT 1 0.010000 0.000000 1 0
      MUTE 0
      IGUID {9D66937A-F55B-BE42-A920-6A918716168D}
      IID 3750
      NAME "05-R (Ibanez+Engl)-120325_1927.wav"
      VOLPAN 1.000000 0.000000 1.000000 -1.000000
      SOFFS 11.98661948031361
      PLAYRATE 1.00000000000000 1 0.00000000000000 -1
      CHANMODE 0
      GUID {0E9FF4C3-D1EE-AF4F-ADE0-18208D750ABC}
      RECPASS 1171
      <SOURCE WAVE
        FILE "../media/05-R (Ibanez+Engl)-120325_1927.wav"
      >
    >
    <ITEM
      POSITION 76.54046659454754
      SNAPOFFS 0.00000000000000
      LENGTH 7.45945199999937
      LOOP 0
      ALLTAKES 0
      SEL 0
      FADEIN 1 0.010000 0.000000 1 0
      FADEOUT 1 0.010000 0.000000 1 0
      MUTE 0
      IGUID {DC859916-54CF-EF43-B362-190D5F82AD82}
      IID 3779
      NAME "05-R (Ibanez+Engl)-120325_1946.wav"
      VOLPAN 1.000000 0.000000 1.000000 -1.000000
      SOFFS 18.16213758333331
      PLAYRATE 1.00000000000000 1 0.00000000000000 -1
      CHANMODE 0
      GUID {A9B678EE-40DB-C54D-BBAB-4363DE0D43EB}
      RECPASS 1221
      <SOURCE WAVE
        FILE "../media/05-R (Ibanez+Engl)-120325_1946.wav"
      >
    >
    <ITEM
      POSITION 83.99991859452849
      SNAPOFFS 0.00000000000000
      LENGTH 1.94594399999983
      LOOP 0
      ALLTAKES 0
      SEL 0
      FADEIN 1 0.010000 0.000000 1 0
      FADEOUT 1 0.010000 0.324324 1 1
      MUTE 0
      IGUID {5778AF10-9F3B-DD44-A238-1AA8BD89F42E}
      IID 3803
      NAME "05-R (Ibanez+Engl)-120325_1954.wav"
      VOLPAN 1.000000 0.000000 1.000000 -1.000000
      SOFFS 32.10805533333325
      PLAYRATE 1.00000000000000 1 0.00000000000000 -1
      CHANMODE 0
      TAKECOLOR 33488896
      GUID {DEDDB6F4-5407-A64D-AC4B-F0AA258E7A01}
      RECPASS 1265
      <SOURCE WAVE
        FILE "../media/05-R (Ibanez+Engl)-120325_1954.wav"
      >
    >
    <ITEM
      POSITION 85.62153859451929
      SNAPOFFS 0.00000000000000
      LENGTH 3.26914008031417
      LOOP 1
      ALLTAKES 0
      SEL 0
      FADEIN 1 0.010000 0.324324 1 1
      FADEOUT 1 0.010000 0.067242 1 1
      MUTE 0
      IGUID {F7DAB093-2236-574D-A175-A726ECCE287C}
      IID 2709
      NAME "05-R (Ibanez+Engl)-120324_1447.wav"
      VOLPAN 1.000000 0.000000 1.000000 -1.000000
      SOFFS 1.14204929787036
      PLAYRATE 1.00000000000000 1 0.00000000000000 -1
      CHANMODE 0
      GUID {4E222BD4-919A-384C-8D2B-6A21F87D7B6E}
      RECPASS 698
      <SOURCE WAVE
        FILE "../media/05-R (Ibanez+Engl)-120324_1447.wav"
      >
    >
    <ITEM
      POSITION 88.82343684408399
      SNAPOFFS 0.00000000000000
      LENGTH 29.23050175043159
      LOOP 1
      ALLTAKES 0
      SEL 0
      FADEIN 1 0.058923 0.067242 1 1
      FADEOUT 1 0.010000 0.000000 1 0
      MUTE 0
      IGUID {FABD636A-47A7-E64C-9721-3898275354F6}
      IID 1549
      NAME "05-R (Ibanez+Engl)-120323_2044.wav"
      VOLPAN 1.000000 0.000000 1.000000 -1.000000
      SOFFS 3.15519754743787
      PLAYRATE 1.00000000000000 1 0.00000000000000 -1
      CHANMODE 0
      GUID {835796B4-7657-E847-9F93-0E6BC55A187F}
      RECPASS 402
      <SOURCE WAVE
        FILE "../media/05-R (Ibanez+Engl)-120323_2044.wav"
      >
    >
    <ITEM
      POSITION 119.65927054666965
      SNAPOFFS 0.00000000000000
      LENGTH 18.50275604787191
      LOOP 1
      ALLTAKES 0
      SEL 0
      FADEIN 1 0.247836 0.000000 1 0
      FADEOUT 1 0.010000 0.090337 1 1
      MUTE 0
      IGUID {5DCDDE37-8D76-F240-A7AD-B14DE63D1642}
      IID 3191
      NAME "05-R (Ibanez+Engl)-120324_2121.wav"
      VOLPAN 1.000000 0.000000 1.000000 -1.000000
      SOFFS 0.26133333333337
      PLAYRATE 1.00000000000000 1 0.00000000000000 -1
      CHANMODE 0
      GUID {DD9E20A0-EB0A-A44F-9412-9C081D47A9C2}
      RECPASS 1034
      <SOURCE WAVE
        FILE "../media/05-R (Ibanez+Engl)-120324_2121.wav"
      >
    >
    <ITEM
      POSITION 138.07168949783363
      SNAPOFFS 0.00000000000000
      LENGTH 1.06009168972821
      LOOP 0
      ALLTAKES 0
      SEL 0
      FADEIN 1 0.043541 0.090337 1 1
      FADEOUT 1 0.111654 0.000000 1 0
      MUTE 0
      IGUID {D3E2B228-1EF0-2D46-A707-169F9122995D}
      IID 3053
      NAME "05-R (Ibanez+Engl)-120324_2011.wav"
      VOLPAN 1.000000 0.000000 1.000000 -1.000000
      SOFFS 47.91871579505590
      PLAYRATE 1.00000000000000 1 0.00000000000000 -1
      CHANMODE 0
      GUID {05406DDA-AAB4-724C-9587-923CED527C27}
      RECPASS 981
      <SOURCE WAVE
        FILE "../media/05-R (Ibanez+Engl)-120324_2011.wav"
      >
    >
    <ITEM
      POSITION 139.20765728390825
      SNAPOFFS 0.00000000000000
      LENGTH 2.35589067529543
      LOOP 0
      ALLTAKES 0
      SEL 0
      FADEIN 1 0.018501 0.000000 1 0
      FADEOUT 1 0.010000 0.158281 1 1
      MUTE 0
      IGUID {793FF79D-5538-ED49-B5B3-6774EBC8BC68}
      IID 3053
      NAME "05-R (Ibanez+Engl)-120324_2011.wav"
      VOLPAN 1.000000 0.000000 1.000000 -1.000000
      SOFFS 30.87951321653761
      PLAYRATE 1.00000000000000 1 0.00000000000000 -1
      CHANMODE 0
      GUID {30CE6FC6-FC35-654F-820E-8B7B8F3A7252}
      RECPASS 979
      <SOURCE WAVE
        FILE "../media/05-R (Ibanez+Engl)-120324_2011.wav"
      >
    >
    <ITEM
      POSITION 141.40526659452871
      SNAPOFFS 0.00000000000000
      LENGTH 2.84379253710358
      LOOP 0
      ALLTAKES 0
      SEL 0
      FADEIN 1 0.010000 0.158281 1 1
      FADEOUT 1 0.099463 0.000000 1 0
      MUTE 0
      IGUID {4F2FBCCC-4320-F142-8B2E-F205469BF9D0}
      IID 3053
      NAME "05-R (Ibanez+Engl)-120324_2011.wav"
      VOLPAN 1.000000 0.000000 1.000000 -1.000000
      SOFFS 42.16212366666774
      PLAYRATE 1.00000000000000 1 0.00000000000000 -1
      CHANMODE 0
      GUID {85DDC500-DEF8-024F-B924-3C07B90DA7DA}
      RECPASS 980
      <SOURCE WAVE
        FILE "../media/05-R (Ibanez+Engl)-120324_2011.wav"
      >
    >
    <ITEM
      POSITION 145.17345451602296
      SNAPOFFS 0.00000000000000
      LENGTH 1.01036370634995
      LOOP 1
      ALLTAKES 0
      SEL 0
      FADEIN 1 0.010000 0.000000 1 0
      FADEOUT 1 0.010000 0.019023 1 1
      MUTE 0
      IGUID {30BF158F-CB40-7E46-BB20-F0BEC6FEB988}
      IID 3095
      NAME "05-R (Ibanez+Engl)-120324_2046.wav"
      VOLPAN 1.000000 0.000000 1.000000 -1.000000
      SOFFS 0.20624646931185
      PLAYRATE 1.00000000000000 1 0.00000000000000 -1
      CHANMODE 0
      GUID {FB3686EC-D9BB-BA41-8C6A-C0124617FB76}
      RECPASS 995
      <SOURCE WAVE
        FILE "../media/05-R (Ibanez+Engl)-120324_2046.wav"
      >
    >
    <ITEM
      POSITION 146.16479547709741
      SNAPOFFS 0.00000000000000
      LENGTH 0.62818511414457
      LOOP 1
      ALLTAKES 0
      SEL 0
      FADEIN 1 0.010000 0.019023 1 1
      FADEOUT 1 0.154082 0.000000 1 0
      MUTE 0
      IGUID {238AD5AD-0A16-3944-9619-C35FC9942A2A}
      IID 3095
      NAME "05-R (Ibanez+Engl)-120324_2046.wav"
      VOLPAN 1.000000 0.000000 1.000000 -1.000000
      SOFFS 1.21661017566180
      PLAYRATE 1.00000000000000 1 0.00000000000000 -1
      CHANMODE 0
      GUID {31F7B93A-D3FB-C74C-8602-909E28C5E81E}
      RECPASS 995
      <SOURCE WAVE
        FILE "../media/05-R (Ibanez+Engl)-120324_2046.wav"
      >
    >
    <ITEM
      POSITION 148.71672096328393
      SNAPOFFS 0.00000000000000
      LENGTH 0.63695884901108
      LOOP 1
      ALLTAKES 0
      SEL 0
      FADEIN 1 0.010000 0.000000 1 0
      FADEOUT 1 0.106390 0.000000 1 0
      MUTE 0
      IGUID {521B35FC-4310-CE43-AB37-1548058C7E35}
      IID 3079
      NAME "05-R (Ibanez+Engl)-120324_2042-02.wav"
      VOLPAN 1.000000 0.000000 1.000000 -1.000000
      SOFFS 0.44558583322942
      PLAYRATE 1.00000000000000 1 0.00000000000000 -1
      CHANMODE 0
      GUID {9A15749E-5674-CA4F-BC78-A99CF17FFD2A}
      RECPASS 987
      <SOURCE WAVE
        FILE "../media/05-R (Ibanez+Engl)-120324_2042-02.wav"
      >
    >
    <ITEM
      POSITION 150.81066259454519
      SNAPOFFS 0.00000000000000
      LENGTH 4.87873004678340
      LOOP 1
      ALLTAKES 0
      SEL 0
      FADEIN 1 0.010000 0.000000 1 0
      FADEOUT 1 0.010000 0.000000 1 0
      MUTE 0
      IGUID {7ABD1A48-7691-F148-AEC8-3BA0D973D5EC}
      IID 3153
      NAME "05-R (Ibanez+Engl)-120324_2101.wav"
      VOLPAN 1.000000 0.000000 1.000000 -1.000000
      SOFFS 0.07294413120428
      PLAYRATE 1.00000000000000 1 0.00000000000000 -1
      CHANMODE 0
      GUID {68907CB5-EF5B-4F40-AF37-2A3780250A29}
      RECPASS 1019
      <SOURCE WAVE
        FILE "../media/05-R (Ibanez+Engl)-120324_2101.wav"
      >
    >
    <ITEM
      POSITION 156.26536653485664
      SNAPOFFS 0.00000000000000
      LENGTH 5.54975817846571
      LOOP 1
      ALLTAKES 0
      SEL 0
      FADEIN 1 0.010000 0.000000 1 0
      FADEOUT 1 0.010000 0.000000 1 0
      MUTE 0
      IGUID {A75EEC33-0E7F-0B42-B396-FF758E088DF2}
      IID 3023
      NAME "05-R (Ibanez+Engl)-120324_1953.wav"
      VOLPAN 1.000000 0.000000 1.000000 -1.000000
      SOFFS 0.51850223820100
      PLAYRATE 1.00000000000000 1 0.00000000000000 -1
      CHANMODE 0
      TAKECOLOR 33488896
      GUID {58E4580C-21FE-F14C-8EF3-9A4A10B8B0BC}
      RECPASS 938
      <SOURCE WAVE
        FILE "../media/05-R (Ibanez+Engl)-120324_1953.wav"
      >
    >
    <ITEM
      POSITION 165.27040271220312
      SNAPOFFS 0.00000000000000
      LENGTH 7.88194160204011
      LOOP 1
      ALLTAKES 0
      SEL 0
      FADEIN 1 0.010000 0.000000 1 0
      FADEOUT 1 0.010000 0.014076 1 1
      MUTE 0
      IGUID {5EFEADF3-D41F-7249-983B-F94D7963C91D}
      IID 1588
      NAME "05-R (Ibanez+Engl)-120323_2103-01.wav"
      VOLPAN 1.000000 0.000000 1.000000 -1.000000
      SOFFS 0.11511133217459
      PLAYRATE 1.00000000000000 1 0.00000000000000 -1
      CHANMODE 0
      GUID {0AEE31D3-072A-834D-B9BA-C0E14F574F86}
      RECPASS 417
      <SOURCE WAVE
        FILE "../media/05-R (Ibanez+Engl)-120323_2103-01.wav"
      >
    >
    <ITEM
      POSITION 173.13826878163081
      SNAPOFFS 0.00000000000000
      LENGTH 50.64529381290208
      LOOP 1
      ALLTAKES 0
      SEL 0
      FADEIN 1 0.010000 0.014076 1 1
      FADEOUT 1 0.000000 0.000000 1 0
      MUTE 0
      IGUID {8533B6CD-806F-5A4B-B59A-563DA0E809D8}
      IID 1574
      NAME "05-R (Ibanez+Engl)-120323_2057-02.wav"
      VOLPAN 1.000000 0.000000 1.000000 -1.000000
      SOFFS 8.56891490163548
      PLAYRATE 1.00000000000000 1 0.00000000000000 -1
      CHANMODE 0
      GUID {63EDDB31-13DE-FC4D-B5D2-C76FC89DB1B0}
      RECPASS 412
      <SOURCE WAVE
        FILE "../media/05-R (Ibanez+Engl)-120323_2057-02.wav"
      >
    >
  >
  <TRACK '{3B0C5B8D-A9D9-F249-8A2B-26D919A18EE2}'
    NAME "R (Ibanez+DI)"
    PEAKCOL 16576
    BEAT -1
    AUTOMODE 0
    VOLPAN 0.97259984631529 0.00000000000000 -1.00000000000000 -1.00000000000000 1.00000000000000
    MUTESOLO 1 0 0
    IPHASE 0
    ISBUS 0 0
    BUSCOMP 0 0
    SHOWINMIX 1 0.666700 0.500000 1 0.500000 -1 -1 -1
    FREEMODE 0
    SEL 0
    REC 0 0 0 0 0 0 0
    VU 2
    TRACKHEIGHT 0 0
    INQ 0 0 0 0.5000000000 100 0 0 100
    NCHAN 2
    FX 1
    TRACKID {3B0C5B8D-A9D9-F249-8A2B-26D919A18EE2}
    PERF 0
    MIDIOUT -1
    MAINSEND 1 0
    <FXCHAIN
      SHOW 0
      LASTSEL 0
      DOCKED 0
    >
    <ITEM
      POSITION 2.44897703643939
      SNAPOFFS 0.00000000000000
      LENGTH 15.71316955812438
      LOOP 1
      ALLTAKES 0
      SEL 0
      FADEIN 1 0.010000 0.000000 1 0
      FADEOUT 1 0.010000 0.129039 1 1
      MUTE 0
      IGUID {6DC8C39D-42C7-2E4B-BB19-823E99B59CFE}
      IID 1599
      NAME "06-R (Ibanez+DI)-120323_2111.wav"
      VOLPAN 1.000000 0.000000 1.000000 -1.000000
      SOFFS 0.68364398974654
      PLAYRATE 1.00000000000000 1 0.00000000000000 -1
      CHANMODE 0
      GUID {68710A1D-E2E8-7A4D-A307-F117E62FEE64}
      RECPASS 422
      <SOURCE WAVE
        FILE "../media/06-R (Ibanez+DI)-120323_2111.wav"
      >
    >
    <ITEM
      POSITION 18.03310709951030
      SNAPOFFS 0.00000000000000
      LENGTH 0.99651135274985
      LOOP 1
      ALLTAKES 0
      SEL 0
      FADEIN 1 0.010000 0.129039 1 1
      FADEOUT 1 0.073024 0.000000 1 0
      MUTE 0
      IGUID {765AA096-EF9D-CE42-8CC9-0F39B8DE4C1F}
      IID 1622
      NAME "06-R (Ibanez+DI)-120323_2118-02.wav"
      VOLPAN 1.000000 0.000000 1.000000 -1.000000
      SOFFS 0.32963503087535
      PLAYRATE 1.00000000000000 1 0.00000000000000 -1
      CHANMODE 0
      GUID {14E33000-106F-0E42-8CB1-52545219E0D7}
      RECPASS 428
      <SOURCE WAVE
        FILE "../media/06-R (Ibanez+DI)-120323_2118-02.wav"
      >
    >
    <ITEM
      POSITION 19.25991306620701
      SNAPOFFS 0.00000000000000
      LENGTH 1.99794114587883
      LOOP 1
      ALLTAKES 0
      SEL 0
      FADEIN 1 0.049656 0.000000 1 0
      FADEOUT 1 0.000000 0.023368 1 1
      MUTE 0
      IGUID {38318729-B9D2-C44B-A958-1D9188C41D7E}
      IID 1622
      NAME "06-R (Ibanez+DI)-120323_2118-02.wav"
      VOLPAN 1.000000 0.000000 1.000000 -1.000000
      SOFFS 1.55982371062851
      PLAYRATE 1.00000000000000 1 0.00000000000000 -1
      CHANMODE 0
      GUID {AB516EA8-F824-8040-B5AC-E613BA9023DD}
      RECPASS 428
      <SOURCE WAVE
        FILE "../media/06-R (Ibanez+DI)-120323_2118-02.wav"
      >
    >
    <ITEM
      POSITION 21.23448647934994
      SNAPOFFS 0.00000000000000
      LENGTH 0.36307967017115
      LOOP 1
      ALLTAKES 0
      SEL 0
      FADEIN 1 0.010000 0.023368 1 1
      FADEOUT 1 0.055498 0.000000 1 0
      MUTE 0
      IGUID {BAE06E14-C2C4-544C-BD4A-9AF309C2452A}
      IID 1622
      NAME "06-R (Ibanez+DI)-120323_2118-02.wav"
      VOLPAN 1.000000 0.000000 1.000000 -1.000000
      SOFFS 3.50518745793147
      PLAYRATE 1.00000000000000 1 0.00000000000000 -1
      CHANMODE 0
      GUID {0E161B55-93FA-524A-97EE-BAC61049E1B7}
      RECPASS 428
      <SOURCE WAVE
        FILE "../media/06-R (Ibanez+DI)-120323_2118-02.wav"
      >
    >
    <ITEM
      POSITION 21.83232605496006
      SNAPOFFS 0.00000000000000
      LENGTH 2.44822259190494
      LOOP 1
      ALLTAKES 0
      SEL 0
      FADEIN 1 0.010000 0.000000 1 0
      FADEOUT 1 0.086255 0.000000 1 0
      MUTE 0
      IGUID {2A091BA8-67BD-1A41-A964-35E4B1006ACA}
      IID 1692
      NAME "06-R (Ibanez+DI)-120323_2125.wav"
      VOLPAN 1.000000 0.000000 1.000000 -1.000000
      SOFFS 0.25000342493752
      PLAYRATE 1.00000000000000 1 0.00000000000000 -1
      CHANMODE 0
      TAKECOLOR 33488896
      GUID {9DF49615-311F-5E40-8FC2-C45E3C6B2416}
      RECPASS 439
      <SOURCE WAVE
        FILE "../media/06-R (Ibanez+DI)-120323_2125.wav"
      >
    >
    <ITEM
      POSITION 24.43542265174030
      SNAPOFFS 0.00000000000000
      LENGTH 0.34652637864849
      LOOP 1
      ALLTAKES 0
      SEL 0
      FADEIN 1 0.010000 0.000000 1 0
      FADEOUT 1 0.010000 0.027908 1 1
      MUTE 0
      IGUID {BC299463-BF46-B74B-8496-550F087A4168}
      IID 1686
      NAME "04-L (Ibanez+DI)-120323_2125.wav"
      VOLPAN 1.000000 0.000000 1.000000 -1.000000
      SOFFS 0.16011047540826
      PLAYRATE 1.00000000000000 1 0.00000000000000 -1
      CHANMODE 0
      GUID {4DCC2A26-875F-2945-A963-E81EB80407F4}
      RECPASS 438
      <SOURCE WAVE
        FILE "../media/04-L (Ibanez+DI)-120323_2125.wav"
      >
    >
    <ITEM
      POSITION 24.75404086561458
      SNAPOFFS 0.00000000000000
      LENGTH 1.00701961043490
      LOOP 1
      ALLTAKES 0
      SEL 0
      FADEIN 1 0.010000 0.027908 1 1
      FADEOUT 1 0.010000 0.023257 1 1
      MUTE 0
      IGUID {B37DB5AF-FABB-8342-B3E9-493D97EAA992}
      IID 1686
      NAME "04-L (Ibanez+DI)-120323_2125.wav"
      VOLPAN 1.000000 0.000000 1.000000 -1.000000
      SOFFS 0.50663685405675
      PLAYRATE 1.00000000000000 1 0.00000000000000 -1
      CHANMODE 0
      GUID {098D936B-03DB-9C40-9F3E-1760D8A4AF92}
      RECPASS 438
      <SOURCE WAVE
        FILE "../media/04-L (Ibanez+DI)-120323_2125.wav"
      >
    >
    <ITEM
      POSITION 25.73780367212886
      SNAPOFFS 0.00000000000000
      LENGTH 1.02933840234959
      LOOP 1
      ALLTAKES 0
      SEL 0
      FADEIN 1 0.010000 0.023257 1 1
      FADEOUT 1 0.046445 0.000000 1 0
      MUTE 0
      IGUID {300BA121-5918-AA41-827E-102F09B58C8C}
      IID 1686
      NAME "04-L (Ibanez+DI)-120323_2125.wav"
      VOLPAN 1.000000 0.000000 1.000000 -1.000000
      SOFFS 1.48342261937467
      PLAYRATE 1.00000000000000 1 0.00000000000000 -1
      CHANMODE 0
      GUID {CBD3842F-EAA7-AB43-B548-AFF73957BD69}
      RECPASS 438
      <SOURCE WAVE
        FILE "../media/04-L (Ibanez+DI)-120323_2125.wav"
      >
    >
    <ITEM
      POSITION 27.73241985232154
      SNAPOFFS 0.00000000000000
      LENGTH 1.78106674227922
      LOOP 0
      ALLTAKES 0
      SEL 0
      FADEIN 1 0.076389 0.000000 1 0
      FADEOUT 1 0.000000 0.000000 1 0
      MUTE 0
      IGUID {295470FD-1467-D345-8F2B-2F3364C49321}
      IID 3816
      NAME "06-R (Ibanez+DI)-120325_2016.wav"
      VOLPAN 1.000000 0.000000 1.000000 -1.000000
      SOFFS 22.54322425772063
      PLAYRATE 1.00000000000000 1 0.00000000000000 -1
      CHANMODE 0
      GUID {72F1E473-C249-C746-B6A5-F826241FDBBC}
      RECPASS 1306
      <SOURCE WAVE
        FILE "../media/06-R (Ibanez+DI)-120325_2016.wav"
      >
    >
    <ITEM
      POSITION 31.31756916529550
      SNAPOFFS 0.00000000000000
      LENGTH 0.67026799661858
      LOOP 1
      ALLTAKES 0
      SEL 0
      FADEIN 1 0.010000 0.000000 1 0
      FADEOUT 1 0.066035 0.000000 1 0
      MUTE 0
      IGUID {63B50B99-C675-3041-B7F7-51C15F9500A0}
      IID 1732
      NAME "06-R (Ibanez+DI)-120323_2137.wav"
      VOLPAN 1.000000 0.000000 1.000000 -1.000000
      SOFFS 3.98180064432836
      PLAYRATE 1.00000000000000 1 0.00000000000000 -1
      CHANMODE 0
      GUID {DD21D5D7-2F76-E846-B94C-71C0CA9EAE99}
      RECPASS 456
      <SOURCE WAVE
        FILE "../media/06-R (Ibanez+DI)-120323_2137.wav"
      >
    >
    <ITEM
      POSITION 32.92487362252133
      SNAPOFFS 0.00000000000000
      LENGTH 5.34486425546493
      LOOP 1
      ALLTAKES 0
      SEL 0
      FADEIN 1 0.010000 0.000000 1 0
      FADEOUT 1 0.010000 0.000000 1 0
      MUTE 0
      IGUID {FF87314C-1942-344F-B4B5-74794906E699}
      IID 1774
      NAME "06-R (Ibanez+DI)-120323_2156.wav"
      VOLPAN 1.000000 0.000000 1.000000 -1.000000
      SOFFS 0.67072807582531
      PLAYRATE 1.00000000000000 1 0.00000000000000 -1
      CHANMODE 0
      GUID {3896AA57-39FD-0145-9A9A-BB8BE9928C69}
      RECPASS 472
      <SOURCE WAVE
        FILE "../media/06-R (Ibanez+DI)-120323_2156.wav"
      >
    >
    <ITEM
      POSITION 38.81576178913521
      SNAPOFFS 0.00000000000000
      LENGTH 0.75376609566024
      LOOP 1
      ALLTAKES 0
      SEL 0
      FADEIN 1 0.056298 0.000000 1 0
      FADEOUT 1 0.087220 0.000000 1 0
      MUTE 0
      IGUID {B593C5EA-8123-5447-800F-7235B0E94BC4}
      IID 1856
      NAME "06-R (Ibanez+DI)-120323_2218.wav"
      VOLPAN 1.000000 0.000000 1.000000 -1.000000
      SOFFS 0.27237665910002
      PLAYRATE 1.00000000000000 1 0.00000000000000 -1
      CHANMODE 0
      GUID {15C39B04-8D5E-2E43-9446-335A9955ABCE}
      RECPASS 508
      <SOURCE WAVE
        FILE "../media/06-R (Ibanez+DI)-120323_2218.wav"
      >
    >
    <ITEM
      POSITION 39.98882024890328
      SNAPOFFS 0.00000000000000
      LENGTH 2.39638529086130
      LOOP 1
      ALLTAKES 0
      SEL 0
      FADEIN 1 0.010000 0.000000 1 0
      FADEOUT 1 0.075711 0.000000 1 0
      MUTE 0
      IGUID {32E96354-E14E-624B-B1F0-EE70C9D8C800}
      IID 1856
      NAME "06-R (Ibanez+DI)-120323_2218.wav"
      VOLPAN 1.000000 0.000000 1.000000 -1.000000
      SOFFS 1.44543511891163
      PLAYRATE 1.00000000000000 1 0.00000000000000 -1
      CHANMODE 0
      GUID {F827B829-90EC-7647-9D15-ED01B4A9E690}
      RECPASS 508
      <SOURCE WAVE
        FILE "../media/06-R (Ibanez+DI)-120323_2218.wav"
      >
    >
    <ITEM
      POSITION 42.60392751792962
      SNAPOFFS 0.00000000000000
      LENGTH 0.87912669052878
      LOOP 1
      ALLTAKES 0
      SEL 0
      FADEIN 1 0.010000 0.000000 1 0
      FADEOUT 1 0.010000 0.023636 1 1
      MUTE 0
      IGUID {4E260CB4-635D-CB49-A6BF-39A126533702}
      IID 1856
      NAME "06-R (Ibanez+DI)-120323_2218.wav"
      VOLPAN 1.000000 0.000000 1.000000 -1.000000
      SOFFS 4.06054238784804
      PLAYRATE 1.00000000000000 1 0.00000000000000 -1
      CHANMODE 0
      GUID {159DA1D2-DDD4-734F-B03D-D29AEBD8F262}
      RECPASS 508
      <SOURCE WAVE
        FILE "../media/06-R (Ibanez+DI)-120323_2218.wav"
      >
    >
    <ITEM
      POSITION 43.45941859452570
      SNAPOFFS 0.00000000000000
      LENGTH 1.57148164156933
      LOOP 1
      ALLTAKES 0
      SEL 0
      FADEIN 1 0.010000 0.023636 1 1
      FADEOUT 1 0.046268 0.000000 1 0
      MUTE 0
      IGUID {DF3C4473-1F74-0C4F-A21C-3C9932669531}
      IID 1864
      NAME "06-R (Ibanez+DI)-120323_2219.wav"
      VOLPAN 1.000000 0.000000 1.000000 -1.000000
      SOFFS 1.18442929786886
      PLAYRATE 1.00000000000000 1 0.00000000000000 -1
      CHANMODE 0
      GUID {D8B6D3B5-4208-5744-9F70-CE97854E9E6A}
      RECPASS 509
      <SOURCE WAVE
        FILE "../media/06-R (Ibanez+DI)-120323_2219.wav"
      >
    >
    <ITEM
      POSITION 45.18232314397166
      SNAPOFFS 0.00000000000000
      LENGTH 2.04897883309172
      LOOP 1
      ALLTAKES 0
      SEL 0
      FADEIN 1 0.033650 0.000000 1 0
      FADEOUT 1 0.010000 0.000000 1 0
      MUTE 0
      IGUID {8DB91C1E-53E4-A04D-8F45-1DE7C14C717D}
      IID 1856
      NAME "06-R (Ibanez+DI)-120323_2218.wav"
      VOLPAN 1.000000 0.000000 1.000000 -1.000000
      SOFFS 6.63893801400309
      PLAYRATE 1.00000000000000 1 0.00000000000000 -1
      CHANMODE 0
      GUID {FFCD24F7-15B7-1C41-A1F5-6D734324542B}
      RECPASS 508
      <SOURCE WAVE
        FILE "../media/06-R (Ibanez+DI)-120323_2218.wav"
      >
    >
    <ITEM
      POSITION 47.23130197710408
      SNAPOFFS 0.00000000000000
      LENGTH 0.47298371857005
      LOOP 1
      ALLTAKES 0
      SEL 0
      FADEIN 1 0.010000 0.000000 1 0
      FADEOUT 1 0.010000 0.000000 1 0
      MUTE 1
      IGUID {539C3B7E-4D13-704A-93B2-9F484D6E4649}
      IID 1856
      NAME "06-R (Ibanez+DI)-120323_2218.wav"
      VOLPAN 1.000000 0.000000 1.000000 -1.000000
      SOFFS 8.68791684709481
      PLAYRATE 1.00000000000000 1 0.00000000000000 -1
      CHANMODE 0
      GUID {9015A509-C18E-2745-B3BE-65CAC969326A}
      RECPASS 508
      <SOURCE WAVE
        FILE "../media/06-R (Ibanez+DI)-120323_2218.wav"
      >
    >
    <ITEM
      POSITION 47.70428569572097
      SNAPOFFS 0.00000000000000
      LENGTH 0.45274982106889
      LOOP 1
      ALLTAKES 0
      SEL 0
      FADEIN 1 0.010000 0.000000 1 0
      FADEOUT 1 0.010000 0.000000 1 0
      MUTE 1
      IGUID {CBBB9A13-CC29-6943-87F5-3EA58B6BD854}
      IID 1856
      NAME "06-R (Ibanez+DI)-120323_2218.wav"
      VOLPAN 1.000000 0.000000 1.000000 -1.000000
      SOFFS 9.16090056566486
      PLAYRATE 1.00000000000000 1 0.00000000000000 -1
      CHANMODE 0
      GUID {88EBF6A5-1909-1F46-9FAA-82D07D9E9192}
      RECPASS 508
      <SOURCE WAVE
        FILE "../media/06-R (Ibanez+DI)-120323_2218.wav"
      >
    >
    <ITEM
      POSITION 48.15703551672915
      SNAPOFFS 0.00000000000000
      LENGTH 0.55352526372383
      LOOP 1
      ALLTAKES 0
      SEL 0
      FADEIN 1 0.010000 0.000000 1 0
      FADEOUT 1 0.010000 0.000000 1 0
      MUTE 0
      IGUID {79D663C0-5FAA-5948-8A63-73AB27FECF94}
      IID 1856
      NAME "06-R (Ibanez+DI)-120323_2218.wav"
      VOLPAN 1.000000 0.000000 1.000000 -1.000000
      SOFFS 9.61365038673375
      PLAYRATE 1.00000000000000 1 0.00000000000000 -1
      CHANMODE 0
      GUID {432E35A7-BEFB-1543-96D2-0A868FA25547}
      RECPASS 508
      <SOURCE WAVE
        FILE "../media/06-R (Ibanez+DI)-120323_2218.wav"
      >
    >
    <ITEM
      POSITION 49.14690229044346
      SNAPOFFS 0.00000000000000
      LENGTH 15.71790030412217
      LOOP 1
      ALLTAKES 0
      SEL 0
      FADEIN 1 0.010000 0.000000 1 0
      FADEOUT 1 0.043537 0.000000 1 0
      MUTE 0
      IGUID {D3A82F78-DE90-3748-A57A-84799B66BD11}
      IID 1536
      NAME "06-R (Ibanez+DI)-120323_2035.wav"
      VOLPAN 1.000000 0.000000 1.000000 -1.000000
      SOFFS 0.78093382708324
      PLAYRATE 1.00000000000000 1 0.00000000000000 -1
      CHANMODE 0
      GUID {F6D30F7E-E04B-8043-A1C1-E9ADD417E0FB}
      RECPASS 397
      <SOURCE WAVE
        FILE "../media/06-R (Ibanez+DI)-120323_2035.wav"
      >
    >
    <ITEM
      POSITION 66.05236374567313
      SNAPOFFS 0.00000000000000
      LENGTH 1.00955326420751
      LOOP 0
      ALLTAKES 0
      SEL 0
      FADEIN 1 0.102134 0.000000 1 0
      FADEOUT 1 0.086421 0.000000 1 0
      MUTE 0
      IGUID {570E1D1E-D2F2-9940-9401-C47C4F9466FE}
      IID 3751
      NAME "06-R (Ibanez+DI)-120325_1927.wav"
      VOLPAN 1.000000 0.000000 1.000000 -1.000000
      SOFFS 3.14921804236496
      PLAYRATE 1.00000000000000 1 0.00000000000000 -1
      CHANMODE 0
      GUID {1EE943C2-73D6-3246-A9CB-83753160CD89}
      RECPASS 1171
      <SOURCE WAVE
        FILE "../media/06-R (Ibanez+DI)-120325_1927.wav"
      >
    >
    <ITEM
      POSITION 67.16405080309188
      SNAPOFFS 0.00000000000000
      LENGTH 5.16199904058260
      LOOP 0
      ALLTAKES 0
      SEL 0
      FADEIN 1 0.010000 0.000000 1 0
      FADEOUT 1 0.010000 0.000000 1 0
      MUTE 0
      IGUID {C5189FF7-2CD8-604A-BA50-199463F98FCE}
      IID 3751
      NAME "06-R (Ibanez+DI)-120325_1927.wav"
      VOLPAN 1.000000 0.000000 1.000000 -1.000000
      SOFFS 4.24519220856689
      PLAYRATE 1.00000000000000 1 0.00000000000000 -1
      CHANMODE 0
      GUID {C9B4ABB7-CB98-0B4A-B788-2C679505293B}
      RECPASS 1171
      <SOURCE WAVE
        FILE "../media/06-R (Ibanez+DI)-120325_1927.wav"
      >
    >
    <ITEM
      POSITION 72.33736312544490
      SNAPOFFS 0.00000000000000
      LENGTH 2.57942823116412
      LOOP 0
      ALLTAKES 0
      SEL 0
      FADEIN 1 0.010000 0.000000 1 0
      FADEOUT 1 0.010000 0.022627 1 1
      MUTE 0
      IGUID {A053F6AB-E14A-1E43-B761-258FDBFBE52C}
      IID 3751
      NAME "06-R (Ibanez+DI)-120325_1927.wav"
      VOLPAN 1.000000 0.000000 1.000000 -1.000000
      SOFFS 9.40719124914949
      PLAYRATE 1.00000000000000 1 0.00000000000000 -1
      CHANMODE 0
      GUID {E9E5753B-336C-4F47-909D-4D4B667A715D}
      RECPASS 1171
      <SOURCE WAVE
        FILE "../media/06-R (Ibanez+DI)-120325_1927.wav"
      >
    >
    <ITEM
      POSITION 74.89416479311468
      SNAPOFFS 0.00000000000000
      LENGTH 1.32197780140223
      LOOP 0
      ALLTAKES 0
      SEL 0
      FADEIN 1 0.010000 0.022627 1 1
      FADEOUT 1 0.010000 0.000000 1 0
      MUTE 0
      IGUID {CCA1E207-DEF7-D149-AF5A-8B617B083542}
      IID 3751
      NAME "06-R (Ibanez+DI)-120325_1927.wav"
      VOLPAN 1.000000 0.000000 1.000000 -1.000000
      SOFFS 11.98661948031361
      PLAYRATE 1.00000000000000 1 0.00000000000000 -1
      CHANMODE 0
      GUID {4AC7DD0D-7B2E-BB4B-B16A-C6D796F4DE60}
      RECPASS 1171
      <SOURCE WAVE
        FILE "../media/06-R (Ibanez+DI)-120325_1927.wav"
      >
    >
    <ITEM
      POSITION 76.54046659454754
      SNAPOFFS 0.00000000000000
      LENGTH 7.45945199999937
      LOOP 0
      ALLTAKES 0
      SEL 0
      FADEIN 1 0.010000 0.000000 1 0
      FADEOUT 1 0.010000 0.000000 1 0
      MUTE 0
      IGUID {B3D71F60-6D97-8C4A-B91D-5A32E856B7BB}
      IID 3780
      NAME "06-R (Ibanez+DI)-120325_1946.wav"
      VOLPAN 1.000000 0.000000 1.000000 -1.000000
      SOFFS 18.16213758333331
      PLAYRATE 1.00000000000000 1 0.00000000000000 -1
      CHANMODE 0
      GUID {CEAE90AF-BCBC-B244-AE16-7ADE874D9F7A}
      RECPASS 1221
      <SOURCE WAVE
        FILE "../media/06-R (Ibanez+DI)-120325_1946.wav"
      >
    >
    <ITEM
      POSITION 83.99991859452849
      SNAPOFFS 0.00000000000000
      LENGTH 1.94594399999983
      LOOP 0
      ALLTAKES 0
      SEL 0
      FADEIN 1 0.010000 0.000000 1 0
      FADEOUT 1 0.010000 0.324324 1 1
      MUTE 0
      IGUID {8245FE38-3AB2-894D-89D4-45D938279CA0}
      IID 3804
      NAME "06-R (Ibanez+DI)-120325_1954.wav"
      VOLPAN 1.000000 0.000000 1.000000 -1.000000
      SOFFS 32.10805533333325
      PLAYRATE 1.00000000000000 1 0.00000000000000 -1
      CHANMODE 0
      TAKECOLOR 33488896
      GUID {8039C48B-36F0-7F41-9156-9C000C44F361}
      RECPASS 1265
      <SOURCE WAVE
        FILE "../media/06-R (Ibanez+DI)-120325_1954.wav"
      >
    >
    <ITEM
      POSITION 85.62153859451929
      SNAPOFFS 0.00000000000000
      LENGTH 3.26914008031417
      LOOP 1
      ALLTAKES 0
      SEL 0
      FADEIN 1 0.010000 0.324324 1 1
      FADEOUT 1 0.010000 0.067242 1 1
      MUTE 0
      IGUID {F03A734E-BAD9-E74F-8774-A76ACC1F0B49}
      IID 2710
      NAME "06-R (Ibanez+DI)-120324_1447.wav"
      VOLPAN 1.000000 0.000000 1.000000 -1.000000
      SOFFS 1.14204929787037
      PLAYRATE 1.00000000000000 1 0.00000000000000 -1
      CHANMODE 0
      GUID {CBB463F5-8278-3445-AA36-2BE04EC96CCF}
      RECPASS 698
      <SOURCE WAVE
        FILE "../media/06-R (Ibanez+DI)-120324_1447.wav"
      >
    >
    <ITEM
      POSITION 88.82343684408399
      SNAPOFFS 0.00000000000000
      LENGTH 29.23050175043159
      LOOP 1
      ALLTAKES 0
      SEL 0
      FADEIN 1 0.058923 0.067242 1 1
      FADEOUT 1 0.010000 0.000000 1 0
      MUTE 0
      IGUID {174C99D8-5A35-5E4A-9A56-EF0222D741B1}
      IID 1550
      NAME "06-R (Ibanez+DI)-120323_2044.wav"
      VOLPAN 1.000000 0.000000 1.000000 -1.000000
      SOFFS 3.15519754743787
      PLAYRATE 1.00000000000000 1 0.00000000000000 -1
      CHANMODE 0
      GUID {AAD2E04C-5595-B844-AB41-FF1A20D0063B}
      RECPASS 402
      <SOURCE WAVE
        FILE "../media/06-R (Ibanez+DI)-120323_2044.wav"
      >
    >
    <ITEM
      POSITION 119.65927054666965
      SNAPOFFS 0.00000000000000
      LENGTH 18.50275604787191
      LOOP 1
      ALLTAKES 0
      SEL 0
      FADEIN 1 0.247836 0.000000 1 0
      FADEOUT 1 0.010000 0.090337 1 1
      MUTE 0
      IGUID {4ED76BE7-2FC3-6D47-B8DB-398657A76C8D}
      IID 3192
      NAME "06-R (Ibanez+DI)-120324_2121.wav"
      VOLPAN 1.000000 0.000000 1.000000 -1.000000
      SOFFS 0.26133333333337
      PLAYRATE 1.00000000000000 1 0.00000000000000 -1
      CHANMODE 0
      GUID {7DF0B58E-84C5-A948-9591-9A76E6CF84D0}
      RECPASS 1034
      <SOURCE WAVE
        FILE "../media/06-R (Ibanez+DI)-120324_2121.wav"
      >
    >
    <ITEM
      POSITION 138.07168949783363
      SNAPOFFS 0.00000000000000
      LENGTH 1.06009168972821
      LOOP 0
      ALLTAKES 0
      SEL 0
      FADEIN 1 0.043541 0.090337 1 1
      FADEOUT 1 0.111654 0.000000 1 0
      MUTE 0
      IGUID {BE30AAA1-51D4-CE44-A357-5008C7EFF94B}
      IID 3054
      NAME "06-R (Ibanez+DI)-120324_2011.wav"
      VOLPAN 1.000000 0.000000 1.000000 -1.000000
      SOFFS 47.91871579505590
      PLAYRATE 1.00000000000000 1 0.00000000000000 -1
      CHANMODE 0
      GUID {D319FC70-F00B-7744-8101-92E6B3BDBF81}
      RECPASS 981
      <SOURCE WAVE
        FILE "../media/06-R (Ibanez+DI)-120324_2011.wav"
      >
    >
    <ITEM
      POSITION 139.20372906109833
      SNAPOFFS 0.00000000000000
      LENGTH 2.35589067529543
      LOOP 0
      ALLTAKES 0
      SEL 0
      FADEIN 1 0.010000 0.000000 1 0
      FADEOUT 1 0.010000 0.154353 1 1
      MUTE 0
      IGUID {90C5C293-7BA9-F647-A8BD-EBD4E6F2CFF1}
      IID 3054
      NAME "06-R (Ibanez+DI)-120324_2011.wav"
      VOLPAN 1.000000 0.000000 1.000000 -1.000000
      SOFFS 30.87951321653761
      PLAYRATE 1.00000000000000 1 0.00000000000000 -1
      CHANMODE 0
      GUID {D80B86C6-1D35-DD4C-A915-3B536A0F2243}
      RECPASS 979
      <SOURCE WAVE
        FILE "../media/06-R (Ibanez+DI)-120324_2011.wav"
      >
    >
    <ITEM
      POSITION 141.40526659452871
      SNAPOFFS 0.00000000000000
      LENGTH 2.84379253710358
      LOOP 0
      ALLTAKES 0
      SEL 0
      FADEIN 1 0.010000 0.154353 1 1
      FADEOUT 1 0.099463 0.000000 1 0
      MUTE 0
      IGUID {D5567542-AD24-D942-9832-2A0B9B80DF30}
      IID 3054
      NAME "06-R (Ibanez+DI)-120324_2011.wav"
      VOLPAN 1.000000 0.000000 1.000000 -1.000000
      SOFFS 42.16212366666774
      PLAYRATE 1.00000000000000 1 0.00000000000000 -1
      CHANMODE 0
      GUID {EE606847-25A0-4E4A-BEF3-CFF549B4047B}
      RECPASS 980
      <SOURCE WAVE
        FILE "../media/06-R (Ibanez+DI)-120324_2011.wav"
      >
    >
    <ITEM
      POSITION 145.17345451602296
      SNAPOFFS 0.00000000000000
      LENGTH 1.01036370634995
      LOOP 1
      ALLTAKES 0
      SEL 0
      FADEIN 1 0.010000 0.000000 1 0
      FADEOUT 1 0.010000 0.019023 1 1
      MUTE 0
      IGUID {1295F3F7-42B9-7145-AFC2-373EFA19764C}
      IID 3096
      NAME "06-R (Ibanez+DI)-120324_2046.wav"
      VOLPAN 1.000000 0.000000 1.000000 -1.000000
      SOFFS 0.20624646931185
      PLAYRATE 1.00000000000000 1 0.00000000000000 -1
      CHANMODE 0
      GUID {249FB517-DC37-B84B-A071-8E3B927A2FA6}
      RECPASS 995
      <SOURCE WAVE
        FILE "../media/06-R (Ibanez+DI)-120324_2046.wav"
      >
    >
    <ITEM
      POSITION 146.16479547709741
      SNAPOFFS 0.00000000000000
      LENGTH 0.62818511414457
      LOOP 1
      ALLTAKES 0
      SEL 0
      FADEIN 1 0.010000 0.019023 1 1
      FADEOUT 1 0.154082 0.000000 1 0
      MUTE 0
      IGUID {998D565E-88E7-4844-A235-82D01DB0C446}
      IID 3096
      NAME "06-R (Ibanez+DI)-120324_2046.wav"
      VOLPAN 1.000000 0.000000 1.000000 -1.000000
      SOFFS 1.21661017566180
      PLAYRATE 1.00000000000000 1 0.00000000000000 -1
      CHANMODE 0
      GUID {CFC95487-E97E-A342-917B-75837E9E0FEF}
      RECPASS 995
      <SOURCE WAVE
        FILE "../media/06-R (Ibanez+DI)-120324_2046.wav"
      >
    >
    <ITEM
      POSITION 148.71672096328393
      SNAPOFFS 0.00000000000000
      LENGTH 0.63695884901108
      LOOP 1
      ALLTAKES 0
      SEL 0
      FADEIN 1 0.010000 0.000000 1 0
      FADEOUT 1 0.106390 0.000000 1 0
      MUTE 0
      IGUID {2AFB77A6-9ED9-9A44-8D57-A0C70A63C9EB}
      IID 3080
      NAME "06-R (Ibanez+DI)-120324_2042-02.wav"
      VOLPAN 1.000000 0.000000 1.000000 -1.000000
      SOFFS 0.44558583322942
      PLAYRATE 1.00000000000000 1 0.00000000000000 -1
      CHANMODE 0
      GUID {2FC12B0C-BA98-1F40-A82A-D7926C9D8052}
      RECPASS 987
      <SOURCE WAVE
        FILE "../media/06-R (Ibanez+DI)-120324_2042-02.wav"
      >
    >
    <ITEM
      POSITION 150.81066259454519
      SNAPOFFS 0.00000000000000
      LENGTH 4.87873004678340
      LOOP 1
      ALLTAKES 0
      SEL 0
      FADEIN 1 0.010000 0.000000 1 0
      FADEOUT 1 0.010000 0.000000 1 0
      MUTE 0
      IGUID {BCB3C285-8190-4B40-9D69-2DBE1EEA82CE}
      IID 3154
      NAME "06-R (Ibanez+DI)-120324_2101.wav"
      VOLPAN 1.000000 0.000000 1.000000 -1.000000
      SOFFS 0.07294413120428
      PLAYRATE 1.00000000000000 1 0.00000000000000 -1
      CHANMODE 0
      GUID {05FFFE6D-BB4B-D84A-841A-723B90BBEFA2}
      RECPASS 1019
      <SOURCE WAVE
        FILE "../media/06-R (Ibanez+DI)-120324_2101.wav"
      >
    >
    <ITEM
      POSITION 156.26536653485664
      SNAPOFFS 0.00000000000000
      LENGTH 5.54975817846571
      LOOP 1
      ALLTAKES 0
      SEL 0
      FADEIN 1 0.010000 0.000000 1 0
      FADEOUT 1 0.010000 0.000000 1 0
      MUTE 0
      IGUID {AFF97EED-F586-DA41-89BA-7AFED59A52E7}
      IID 3024
      NAME "06-R (Ibanez+DI)-120324_1953.wav"
      VOLPAN 1.000000 0.000000 1.000000 -1.000000
      SOFFS 0.51850223820100
      PLAYRATE 1.00000000000000 1 0.00000000000000 -1
      CHANMODE 0
      TAKECOLOR 33488896
      GUID {55261450-956B-F743-B428-368A2C17A283}
      RECPASS 938
      <SOURCE WAVE
        FILE "../media/06-R (Ibanez+DI)-120324_1953.wav"
      >
    >
    <ITEM
      POSITION 165.27040271220312
      SNAPOFFS 0.00000000000000
      LENGTH 7.88194160204011
      LOOP 1
      ALLTAKES 0
      SEL 0
      FADEIN 1 0.010000 0.000000 1 0
      FADEOUT 1 0.010000 0.014076 1 1
      MUTE 0
      IGUID {C9D3CA80-A85D-F349-B9C9-3D015C81942D}
      IID 1589
      NAME "06-R (Ibanez+DI)-120323_2103-01.wav"
      VOLPAN 1.000000 0.000000 1.000000 -1.000000
      SOFFS 0.11511133217459
      PLAYRATE 1.00000000000000 1 0.00000000000000 -1
      CHANMODE 0
      GUID {06CEC83E-A4CC-FE46-B4AE-975380062E09}
      RECPASS 417
      <SOURCE WAVE
        FILE "../media/06-R (Ibanez+DI)-120323_2103-01.wav"
      >
    >
    <ITEM
      POSITION 173.13826878163081
      SNAPOFFS 0.00000000000000
      LENGTH 50.64529381290208
      LOOP 1
      ALLTAKES 0
      SEL 0
      FADEIN 1 0.010000 0.014076 1 1
      FADEOUT 1 0.000000 0.000000 1 0
      MUTE 0
      IGUID {993DA2D7-042E-E549-BB1E-6AEDFCECC183}
      IID 1575
      NAME "06-R (Ibanez+DI)-120323_2057-02.wav"
      VOLPAN 1.000000 0.000000 1.000000 -1.000000
      SOFFS 8.56891490163548
      PLAYRATE 1.00000000000000 1 0.00000000000000 -1
      CHANMODE 0
      GUID {5BC4B22E-8B86-314F-8EB1-D9835154EDB6}
      RECPASS 412
      <SOURCE WAVE
        FILE "../media/06-R (Ibanez+DI)-120323_2057-02.wav"
      >
    >
  >
  <TRACK '{9A0734D3-3EA0-144C-A4EF-48343D188F90}'
    NAME "C (Ibanez+Engl)"
    PEAKCOL 16576
    BEAT -1
    AUTOMODE 0
    VOLPAN 1.00000000000000 0.00000000000000 -1.00000000000000 -1.00000000000000 1.00000000000000
    MUTESOLO 1 0 0
    IPHASE 0
    ISBUS 0 0
    BUSCOMP 0 0
    SHOWINMIX 1 0.666700 0.500000 1 0.500000 -1 -1 -1
    FREEMODE 0
    SEL 0
    REC 0 1 1 0 0 0 0
    VU 2
    TRACKHEIGHT 0 0
    INQ 0 0 0 0.5000000000 100 0 0 100
    NCHAN 2
    FX 1
    TRACKID {9A0734D3-3EA0-144C-A4EF-48343D188F90}
    PERF 0
    MIDIOUT -1
    MAINSEND 1 0
    <FXCHAIN
      WNDRECT 265 174 1262 730
      SHOW 0
      LASTSEL 0
      DOCKED 0
      BYPASS 0 0
      <VST "VST: Guitar Rig 5 (Native Instruments GmbH)" "Guitar Rig 5.vst" 0 ""
        NUdpTu5e7f4EAAAAAQAAAAAAAAACAAAAAAAAAAQAAAAAAAAACAAAAA==
        AAAAAAIAAAABAAAAAAAAAAIAAAAAAAAASy4AAAEAAAD//xAALWluLQ==
        AgAAACNOSSNDUyNEb2N1bWVudCMjTkkjU291bmRTaGVsbCNTb3VuZA==
        IwAAAAAAAAAAAAAARQEAAGF0YWQCAAAAZG5zc2JpbHoWAAAAEAAAAA==
        eNpjYmBg0PX00zV1z/QDMhkAEaUCJ2F0YWQCAAAAb2ZuaWJpbHqvAA==
        AAA7AQAAeNpdj8EOgjAMQO98xbK7DhMOHsY4qXeiHzChI4tjJVshfg==
        vphFQI7v5bVNZfXuHZsgRIu+5Kdjzhn4Blvru5I/7tfDmbNI2rfaoQ==
        h5J75KxSmYw4+jkyuA4Xec5VljEmh4ADBLIQRRIN9sM87imqGbdC3Q==
        Rks6sNp2rJBi9fuuBuPgRRh20QZjOqaJgn2OBL9ji0g8m0m7EdTFGA==
        aEiKRKkVf/EGv8ulWN5W2QebsGVCYXRhZAIAAAB0c3JwYmlsetQsAA==
        AF6UAAB42u1925aiWNZu79t+ihh564hWERFyZPU/FgcVAQEP4eGmBw==
        KiIeQEFAfY79wPubcTTyUJmR1V0Zf+/Km6oVa6255przm0dQb0xr/A==
        f/72t7/1/u/f/vbpf0677U3uJ2kYR799qP6j8uHGj+bxIoyC3z4MBw==
        zVvxw0169KKFt40j/7cPUfzh5n/++fdPQXIbRukxyXZ+dLydr7Jocw==
        M8vC7eI2ynYzP/ntA8c3hA8383i3x0as2XvzzW24wCFSo8JLgihyHw==
        bpaJt/OLOHmYweE7bx0nt88M1fGXcJ7EL3/h6C/R9Rrs2id+6n/jiA==
        Y7gD34NVdsP2yU2Vu6k2Plb4j5XKDVepch/++fe/39x8SuMsWtwuvA==
        ozfzUv8m2MYzb3u7849JHMW7+zNWIQ653cUL/4HRcBHi3l4U+VscKA==
        fCg/UIJgErBx4+33t8fz/mHxi4Bx3g3+fVqGp9tn2aQ3ENptePR3KQ==
        ltQe13y+6oZuJkqVCghGHl2qZzwvxWJauPWP/sufHv/47d03WUZ/dg==
        MkdfjaeNHuf1C77K7PKst3J/++3DNalrYrdBFr6ew2we+sWVvnGb/Q==
        1jv6tzMv2vz24cPXph4YIYTFib+4JQqPEuYhtM9GaTjb4v+X3jb1SQ==
        2q8OL/8Ob1d8e9kijG+uwPTFLfYeQfKIFTAEDydizzHeeccnrJGqXg==
        FpFKyUCO4fzVwuoXlK9p3ysjZE+a0CMysbnP5scw93FXb5vdA+dLGg==
        oEIIveLgJvF3MWS58073zDwNw3t2y19ho/y8+Yvbv0yl3xbwvRBfoQ==
        7GXyCo/lLwH56dlQk+MzZ5/Kr2D+O+AXrtEbBjdGHMFAt280gm9ReQ==
        NIajFRZrYdDvGUJxKrlSZ2+I6l/G8GPGUPmGMZTfI5pqXwfCDfdWQA==
        fZvQI6bGtW20LgUHd2V4d+u609RnySD4C1N/Odj3ZRLit5Bce2ui8Q==
        bUKPJsGZg9Em3c16gqI2GlbIbw55mf1lEn+ZxPsyCe4KyOxek3r0Rg==
        Y/gqiUczkIVmtZwOg356iLSyVy/He9UqfqkZVF+ZQfWvbOPfgqPqlQ==
        P0R9+EYIfb77ET3lfFpEeqPcc3dx2hlswsQIw7/yiq+gp/oleho/6w==
        RK986D473rS8MHrxn/+o/+ke9AsGW08MtqCrGzsq28vlM4fVX8/f4A==
        FX+DFQxrFW8XV0J8B0xad09cWl5Kf7yLt9nuKlL+QxTqNUH89ZyaTw==
        jJrhLqQ/fqbxyjtgUXnm0V8eb5SHvtl7wmRPuUpXV1+y+Fdi9Hn5fA==
        3UsceHtf9eebm+pba+dvUHkMcMOeIh7Op6Ur2H5lMusYh0Ol819UJQ==
        HHHjBW5c9bIvuH6aI4h9gZy3hMafCY7SV4PjN4zgtSVtn009jvffsQ==
        n3+DBX3HzL9g7+g/ww3Kjl98UOX9sJg8s5h4UbqPU/8dyjF7ZjKL3g==
        IX/7/Im/LwM3LwjV98Jn8sxnz5/HyeLzPOPdMBo6V70DPzneOHEakg==
        X3h/ut+m1z7opn9EiHuHXPqvuNSixS9X+rdzju9kHTT9jWD2ZyUk/A==
        dSYBl5S8MRX5cv9jElIzW7ZxaU57lf7iMlcOl/Zx1P61SQj3Kgnh3g==
        cZUt/HAi8Zl1NOMnZTTjZPOeipnBsyMcQGw3Tnicr575E6Rfz2B6TA==
        5tHxicn+MYlnflmhFw3ekxgX+7dmOX8qe8nyJS4v/cSP5i/s8fw7YA==
        MLWeNRxuyYlZcAb/++pVqnTI2948vVpT/iXt2esmvfX43o//1i7t1w==
        iTyGEV4wLqw2NnrTnc4ZJm9duPzg/ve0+p/elvKym/mW3sRahtv77g==
        2TyMjnG6ummrH81wlnjJ+SPb77fh/D4Y3PSz/T5Ojh+7Hj2JutGfXw==
        K0s/trIQqdsNPUCsf1Ti6Ii/fnwW7MdtXOCk3P9H4SGJnoPi5nYWHg==
        d166ub/Nw1/+42yswisudtn2GO63D+J8kDxf5iF8stG5/8LfLTU5og==
        Bb0qh2kc/vB/f3ahX//5Qt8pnuvUH+ox/4IUux89+8hzNH9//A12+w==
        b3QjuHdTpljPhb6VHd9hXXq3/WahX//fWEa9+NE/HAhfEXiie3u14A==
        0UU++Gu4pttn3/nKj105r8cVPCfxktDgpPoPeLE/Avo/pKpvKOlFxg==
        t18VFrZ9+ec3dMav3zBkuz2LvO05fXM9+k0yj/mE6RnDbdIZDvZGoA==
        lJtjzuof/3pr97/w1YF6/QoIzj2ppybh2xD1O4QeMeUJtfBsWVVXOQ==
        7OVZ0U20gTr+tZiqvMJU5R23Ouo/2+pw7t4Ywf7UOlN95k5Nzj/WnQ==
        /lP5Gz3zN7rC8/vhzxo/50/h6T0x5oyvfMENvVd0Aw7DKPj/5KH3Kw==
        Avckb+PsePuNFX/Mav8TacwftdQ/hacfRf+fwszPIP5PYeyNPuw/kw==
        FH/HBP5gVtyofO1Nj7d+1uJbVB7zF0lXq5PKrDsYHmYZd9rXrOyw+Q==
        L3xfhHtv74sIP99G+t/yoP6dv9cS9q9bXTeD+ObhvcW/ns7/1zyd/w==
        X/PuyL/lNQLu17xGIF2/kfj46m9z/MYw9Q0ij1EqO1vydsjMnq2M7A==
        fcpvrGrSLv7q3PxQpPnpzz699XHF+3xW+jI7j6OjF9KT0/nDI6nbew==
        nYXb8Hh+7nm9fMfA1zJBaDvb3ktwMbsJI9B6+VoF/okA/jynJekzUQ==
        CD2B3SRxkb7+egPuixNWcXq8UhSO+Vyf4n/8ge9nf3wU+Kcojm6/Ng==
        8eVj3ap4/WlGf7n1NzCgJ2ueFMv5tmJv3Myfjg5hrRlFUvg65/y2JQ==
        f8eKm94cJ51/x5j1rj74vkFfP9o9Jtkre/6mLYPrKEdAIcUlPpQ8uw==
        efzCi8pvH4byKXfWbqt24bO54pZrwclxhN7YW5fFc3teXm/vBIcX3A==
        +UAUJs1NOdXizCnJeV1tBNnaLVntQzX3TtzeFIZ11yjX7E2Ul4zcSQ==
        JC3WjHJoV4q8emiqpqips3PJNgMpD9im3jgFoTWXUrvedA79OFgLbg==
        lY9LYaeKvetJe91gAe9KzAy9rKLEzUaVbVc7iSmHImeqzgZ7ltq6WA==
        2E3RmbL6ecDx5YCVXC3tOKHaltSa20pcadKttpyJyinrE+v5B1Fv7g==
        K/lEXccJ53aFUAq6mZb3lT2bcezU08VA7bSdJVsf1GpROgaS1R5kzg==
        jA34dYVJyVDS7d7J8VWXDTi2HbtYPw8dXXGtdcHWq4rImDK2dYWPZg==
        BStfSlLaFbZ5ny2lpBJMlVFpYnfMfMfEaaPOC2OjdFDreX6Qx+OGEA==
        DDejUonNV/lW9upmJehyZ4nJ/U62kZfDSzUYiUwSmzPemYR7ed0oNg==
        BStVtPHMmSncfs2xcVOUYnmjOC6TVuCnVqQiM0ZHu1CN5iVlkn5uBA==
        nZKV20qllVRdTveluKPa+UwtlAYfrJSsxIw7lmdM6c941gc/nMLX8g==
        1WrbbvCstDxIc8Xf5C6z5KTCwgsvTphWdYbMXaxrQTeaSK7abTtDxQ==
        EHF+uS42Ak1t55rSmcwqbgF5V5ozN1+ybd2suoYdSoWZrPMpW9RMLg==
        KC1aUqGX1dxXrdSsuOcp3X9kQl/eolEJgq0vuR33mLtKKDYuTON9EQ==
        86OsYMv0kjGpxYtBy1QcXV7KKhcUq1gKzPgO8jhW1YLZM7fBmMDllg==
        Eo9m1aB02EmTVtvPB+zAGg2+d1JKosFGeSafm0mj4N1SqWhpah6qUg==
        3eSKlqhA/oKfLxU3aFSYc1eSYpsv53N51IG++OAAfEZ74HN3MgvWEA==
        PNHVBD1nytBpAB/7c4NZJ8kuZHG4vrDWAfhptZljMe24PjOBn+M+Yg==
        02FKZZccWNBXgG+vm+uyeWpcgnqgSLwy9/OhPOk2uOBOCyXdmbr5UA==
        5e6A3+0dB7yvDvlEWfoNjOORtFFCMx/J/DqpMmlSkibNzMl7zFub1Q==
        gos9qcIMJffYMcD9mrEh6VrWyufqOUyqQRrjfh3uLp/KVjSruYowkg==
        GGvtc0++2+O8fT2UJoan5Z5ijKC/8dmQCsWxcl1VFeA/6Q3FQHEGjg==
        prT0AfQxDMBv3XdGrDOF/cyqscTam5IzUjJtXWULE/fXLiXg9VBLjg==
        bHIIRV3Z6LhPt9uoBbUd8MFKar5QapsZPBXwMVRKm3yszPeNajAXPA==
        iTWzIB8pne2s6voTT5qonSifyLaN+dw9S0UrknPG6jPo47DkGqylXw==
        gB93to6Z1rKgHy+Afqy9mrJSS8NYPWRM7mWzlDlDQXTtLMwtVuaSgg==
        NQvIQ5540MfInEH/AwH66XRzV91AH0Gd8OocB8BrMDBhv1of8mViPg==
        YZcu5GUrZ4lvDbe5z6o61ruKgvXxKveVQ2dWY10lk2I9PkPeZxv+ow==
        pSm4f53BPs6QB/NC2K8zd0CvJ5hn1hbOsPdukDPZ4pOUHfWSwPTeEA==
        8mT5IGVZF/hX+5xdsGCC+1WUocCsopsVarrG+oPZbzDZO2WFPF+ZKQ==
        m3QVgWmDOzuQ5wc1Y3MWiKzJpw5jjS7se9hnIjMvd5CXXrvEbD3xGg==
        TCn2wGttlZyZPzPEwlH7GOd8cmKdriAGxrKdW2p/D35XtUyE/ivQxw==
        oIzz/ZkA+yzF4GdypPMXGBsi8M9sE/SOmicyZ+vmuqINYF/+hcP+YQ==
        BLxVFeijJNL+ngD+3Z0ZM8WKcf++Df4WIvhHGBGZPp05GuOCS4EQ4g==
        iq4RLh1NzuLLmcX1CvDa7zpMdabwF/yKx32VOfaz8mzDxBnXCBx2Bg==
        P7Ul+NnWIW+tlOE+0xRjycB9WucF7L8aYnzhwJ8uN8HfWMd9Ny48eA==
        Z33G/UqlRsqq4DhQ+R3W17vAY0vFuJUK8BecgbG9ovUDWq8dsb5B8g==
        NfYz4DWdQl7FXoG8DQ7zrQvm3SPGmlLB/DmA/Hw7E5jKCujPGEH/PQ==
        izUCABr6s1u4r6UEYtDeHBG/YnMAfYYYN+ce5iOGcZKkDdbpjYEXfg==
        PYhZxWrVmcIWWSAXFuyltQtwXlKyeRYOsb7WAR46XOFY6rIYnNgi1Q==
        EQ+9igOntoN/iyL4O53lkG+HQzw6bkXg8by1IQRFjVlhEB57M8i7Vg==
        HWTsEkJfxukM/5FElwuzLfKP68xpKYqi1ph0Qjy2NgtnKOdtxMe1nA==
        SnzTGjgjdSBf4E/KFvRRHoAfLR0AP1NNDLQe3dftgV85RLyW3ZWjqw==
        ThvzjZMoBh1rC/97JHmULhOMJ2XwH9P66maC9SfV0dnBxn2WSgG8VA==
        ZhjvFeBlVSoazEl6dqHUT7hfrwt/0mnXbF69a1E8xv6Adco4rxUBfw==
        HZGJbnfpAX+CgHiwKBViYeYrx5LjC87jTOQ3hj2EPiQP++0z8KjVag==
        0IebgH4cz2GvCoO8tluSpwh5drU78OPeqZBXjPW2ccb92xXoO7J5MQ==
        bg9lpy+fFZVjXVZIhcEsx2eugvwhCoaSa8XMmcurEvQnOtCfM0hBbw==
        Vkf+5C8QX9vJ2LGUbgX3r6Wi6DbHNvSpXnB/0YrFouN0IK/1eYDzRQ==
        6E+bmbhv9YzzNbEiulbi4n4VjuTrQ59OJICeIF8qrCNrEt/RJs5IVg==
        2ogP4YmXYoufOUNVb4JfodhIrNvmoZ8JBzyIJg/7zTa432BN9MbQTw==
        Z+tDXnd3hLcm+GVyFfZeCzF/qs/hf/prnDc7kPwN6LsrAA/q3R78lQ==
        pxWxULk+5kuUPzUj8K92E+QTi4kKf3W3AZ6kCeSR0bgYQz7NcxvrBw==
        W+xXPNzHsC8YX3LII7CQT+pOE+trJ+j3bj4UXUXVwF/thPnyfCK6zg==
        2sL6fRX4a2ewH8tMHE1VSuqJXQJLipXAQv4qNNUqW8oVSe8WG8eXDw==
        BvKtqF+RYqZn0KdqAP/dcIh4IEJerKaplYAxS3K7RI/lVdz/MnfFog==
        eRCBt5z426UYtxOyj3Md8vKXhcibFd1xVUeD/OerQGKOPnP66ql1qQ==
        BAs5AL2453jqWFErjHOA/84sgr6HVfDLxCHiQYn0aR+h/2EC+rZfgQ==
        /R6PwGNvpgEP5z3m3QjreT6FPXZPkH+vD3kKZ8w3NQY8WRfgeTSDfw==
        cUrIB5RaHf67c4I9d6wSyW8O/jcdTSwUYw/6do79VhrDf5V70JdSIQ==
        e7KANz3HZVjnCPmeD9BHS7Bh//IC+50m/EG7wuG8Ldwsi2TgwdaQzw==
        M96EPMILxsYC9qfm3uXEBhMd+us7dH6E+zSFDfDfB77keoHz6+JGDA==
        LNPF/kYV89oR/q5bdrHfPWN/W4T9G2UGflrE79aEv7XPHOSxO2JeaQ==
        QB6WCpGrgxPGukj8rO+w/0x490sa/EWyw/3UBuifcvJn7Rryx3oZ9A==
        Lrko8m2Y1EQ2ysBjt5xC320O/F1EyAOOWHTb4xPxK2L+6CA/aw6wXw==
        rUqwh1k+h/2aVdyvTvm7W4J/1KMd7C2pQT7lBc43EwX75wn4aUwpXw==
        WwjgR3Qhz5BB/93DhPLbHPlAaBwEZsoh4rEQIT4NZgb8YemAeDVYIw==
        PkUq4nVLCbNAiVX4f2lF/rLH0f4Y+UlrNkG8KzXg77QjxssD5vVDFw==
        eLCn65SJ4QbxZzCyA6WY4jxP1QTWDHeId7oJ/Mgd4MdYLhCfFBX3aQ==
        hBR/rAL6GZi4f1shvKUG7lvwWM814L+1Qwr6jRTj+ZzH/nLV5mVJAw==
        Hqw+8gNDhn9T6pQfjMbwD10O8UBZk78o8xOxaCkt0Nuv4D9LOvyDsQ==
        h79XJB/2t6zB/zhTAfbdD2AfR8r3VZv8p7aF/tR9inphF0Cfuxj6nw==
        esBb57wAPg5byH+kIz60DYrfKEGRv+5gf3p1A7z0x7jPpUn5yh7xTA==
        DqbgRxoBT46EeMuGc+zXW8BTS07IXqdYv2hZ5B+XWK+PKB42YV/Oog==
        C/n0+phXh8AzW6AekccO+DufgQeTTTGWKT9IU8jL9pD/KZmL/KJqBg==
        yBcVGfmymCXIv5QD8pN9lBXKOoT+eQ/5idyvYexUoH/Lhv4t1kZ+dA==
        biE/Evs+8B6gvmd3FvI7PbTFQBYN5LM55TclHvuROmfwbDLwojDgQw==
        Y6in2MGBvhIWI/4FHvKJOG/EbNTOgK+Zk/HyXG2cGT9oQX9dA/lo+Q==
        DvXJdKsA34GIfC5sI3+8LEfQt58Dr6MJ+BPsM/JHtqHzUnXCCj3lkQ==
        lG8yV9FnyC9LVgvzFxH5kK1S/hWUqF5Is0AtFri/2J3UWYd1kH8XPg==
        +NsegCfmOBjrNeB5fgR+1XIbePf3mM/aiOftgPJpNhtQPlTimcx80A==
        d3ugV1JDgdkM91eKTbJhTNF4piu67bJAW29QlCNfd9Yc5pUF6pWJ2A==
        agSq1kQ+KRiQZ03bQZ53O9x37c/gf2oC8udOBfIIx5D/7nKAPNwB1g==
        b6u4vxiTvV7o/MAB/ZVZCEwJFOjbKiH/a5op7G3VsiGf9iVgI7WP/A==
        7VzH+TYsiOVrylfrPvJRg+oJoYP6l+1EyDfmzYy5yBBYU7xD/pt2oA==
        D39A+e5KAz+DIfLnRpXy6a0Pfnoj8F+v0FhrAA+JAf6VFep/i9cwfw==
        EO7rlRbwOO6A/on439tU322AL7nbAn2uj/3mpgy8de9w32IUAu/VGg==
        8BYGGNsx8GH5jOaXVK+Pkd93F6hP1PEU+88a6hdTL6jeUMFPx9o1mA==
        Od3AnzEPeFgZkE+Tp/pqNII+FQ3+p8uT/vku9DnR4Q9Zz4Q8ein0Ew==
        By3kx/MU9Uz5np92CHuzTejH2SYXdplywCuHelMe7WcX1vao32Efcg==
        TWapeWLrBPpqtXXUoxyH/XEJ+80aj3okZ41KsKd+hBy7qOcbWqPCzA==
        lYf8ThvlE3XZnFWDrGdLk7bmon70VLPCKsyT4u6GoZ71JMh35e/g7w==
        VR/31ao4bzbPEC8vCuQhZOCHa7QQj8J9rqHSwrhWhzzVvgt+lqGJ+A==
        ECuQZxX4YqIH/obbM+Jhpw95rwewt7GGekc53oH+dAx5blp96GcLeQ==
        INVsnJg3Qf2oZ7B/pm8aF6ZOoT+lFd7Xj5jfehnqSy7FeeOE6Hs7sQ==
        kA9b4OESwd7HU+DdGFH96azBv6R7GJfAv6wucf4qgr/pNAvqz3i4bw==
        k4O/UasLrF/dQf9RFf7B3OsYb12qV9eQr6qdME4Jf+KpRPgdQh62jA==
        9ZMl8NBMEuDPIzw6GfyBvgbe1aMMPLOTAbyKAe67sxp0/wPs8RiCnw==
        1Ad9NhlBf7sOxq0Q9Ksx+Ol0quDvPMZ9xArO7xYXzHd17PdO2G8UMw==
        yKtL9l2sBfLX4J+lS9TbownsWxE87K/HxK/RRz3hrYGnZoTxrgP9GQ==
        Oxn3mYyp/hxAP/KG9o9l0NMym+KnAX99yFFvKjPcx55hrPI1jAdl+A==
        S3MCsMlTBfyvXeCTIblkyloAvsuij/uPVtjPFvAHHRX+AK4K+NfO8A==
        ZxUT/lUewF8qJRP0Gjr8jcPVMS+X4B/WMuxP5SXIVyX/ZNZ2sNdSGw==
        9JU18JDXgQ+51Ic9LNa4r85DPnKJ7NebQd77KvQjd8fAz3KE+1Z2Pg==
        1mcy1uub+3odeHMELtfU8onGRxv1yWCea+zE47zgCPtzoiHmByfIXw==
        MH3E51GEcbqFvPZ6hvVn3J/VAtCXeOiL+m2aetlCfuq+BPx6EeRtJA==
        sxNCkSK68g7+QzFpfDRC0bXtFebrO/gXSBH52KgF/js+8NkaQR/WdA==
        hftmZB/ulgMep8ALyzzMLzjcT+vlkM/Jw7x5B307RxfzhYv7xBf4Fw==
        RVxSPFXAr1JCPJQN8r/aCvpQZOjDkkuIZxMJ+dNdhPrR8arwV2Oqzw==
        dXgRpq4rGF8ExPfWgvIv7gz/r60xZk3E3268RrxCfgX/K8PftWLk6w==
        8mGB/f095Qcc8jc1rWK9ZLvIB2pYzyoXxL+wQ/V/B/FELhzEk3EX8Q==
        VN5z0P+G+j+FFJI9bYG3BQd8DKk/JNtjjDcj4MsI4N8Vyh8ZbwBPsQ==
        bdcRr7eIv/M9xl0Z+Ye+IjyVjlifORTPxAnkYXchH24De2muAsjvTA==
        /injyL6bkLfcJn88q1B8iiFfxab8xCvgD5qDAfDcTyC/zZ7yi5IHfg==
        igPGpgV+ujMe83utQfkSxSdG8dW2sf+8NmDP+g70oibO7xeId93xDg==
        +0cF+GtOQa85xZj5Ldy/YiCet5VR5jK3PNgwXxcFmEIX8ZYvIZ5YAQ==
        8h1d70GePvX3xRXV/+xI8kfZzk4b5BN2r4l51oW8JysdY1WnfouD/A==
        iTkHZMZyQfl3BfmSxCgf05Gfy7wDec81xGu1PsJYHOF+3Sb4M/fUbw==
        R22H+24pH5u61G8aUDzT4A/asUT5vgP+2xrsXztBPspkhvlNBP/o9A==
        gD8lXWKeteFPnLNC9cAK9LoT6NsMW9jPrbDeo3F7R/T3O8zfGTivaw==
        LDF/2GH/TCf97mPMtzqY1zse4muAfEThYKJs29ap378E/twM8mhTvg==
        2krGwK/OAa+r+/7MEvhj0QHyq3Q0jDsXqi/6JK8QeDUCE/LU4KaQbw==
        AO9tXcS4NMN6fgr7YBnwjEyX5O1hf/ds4Dylf99vG0J/qgr7Orcgvw==
        GQ95KpFMeKmD33oZ/Gttig8TAfOWiPluCf5S9ai/d5bpvsqc8skW8g==
        C9706qyltoGHiTqLGafCf7ZWe+BfC6G/jWHAfhTK/wLKv+uGR/MV5A==
        b0xEvljoLs+cYA79uxvgp2ZtkK+oe+CpUof9Z9QvNcMU85MD7LHUdQ==
        kc/zfZKHC3l1I536x8hfgQKqzxrAVzcCvtTtBffVFpCHqbqYr1Yx3w==
        W6TUD1thXKP6SlhA/opDeE0KjDcN8ic+9MPmK6zfbSBv+VKy6T7A5w==
        xJrXkeReMqYWDeJfw30c+YT76BPI48Ay6Ju5GVMKGfwG+gT8rjXUfw==
        faSULF/hPMafoK9WF/y5IfRnxTrOiy+4v9tBvchWPaxH2o76UcN+JQ==
        NHC+e8Y4YVRf6tiv2nfgdxWl5D+7lK/vQD+Y8oRfH/JJd6Af6Bg3Tw==
        hA/xDvJKVcJXMcP+CeExkiEfg42w3tUx9pUK6E0EjOdUv4jqfT2zwA==
        mAngr6zrqC/Uqc1Udwx9zmyP6hHgQ0aWCLyoyHedAvmkwu+gf9ZmHA==
        6oEY+ks7pI82zmuex/Q8I6F6ebah+rmO+wspyZvqabab0PPBNeb5CQ==
        9Klx5C9KIfgZ10lfGUf2UgG9OxvzrTLFg6iEcSUHPaOBsdJ8iA/w/w==
        ekT2ZCQYNztkbyPgh+03dP8OycPwqL8bg/7Zo/hgXAgvR6y/eJCf0g==
        WlP8IfleOlT/98l+M+J3mWLczCFvOaDznaKg/H+OenxkoF7tq0PkTw==
        Wg31tE7PY6Mz9bN1zMtnjfr57hDxsMYT/TronSTguXVpkn0jRDHPAg==
        /uz7+kyqQR5SifTjCDavQgWorwsN9XxSpvtImG/YuK9qzkheFew30g==
        De1X6flVTvzPyP/sYtCPYvBbNuAfTA9jZZ1inJpYr6xljMtn0GNH0A==
        s/Id1svimuSL+7bWiMfKkMYDh/gdkLyZhP3zHPJULgXZo4jz7spD2A==
        oyrZvIziAPlk4NLzEc3R1YWM+j8NNuB/Q/0rv4n5zSkVmV1Q/X/XgQ==
        fOoK5llQYBx3MR6r2G+5maMrK5rXewHktzEhz6SM84c+6afWe5Kf3w==
        AH+mEIG/TgR+Zx3wo3sW5uMVxjL1q1WF1jfJf9jUb7FqA5JXHfPLJQ==
        4aMB/chHut+9fLu1PuGT+j+9PcWvOuEBZTfqfTtAPdzfAO9sAXsNNQ==
        xMeOPIE9ayv4g7IJ+1EH9PzDba8pniFeaqsa+FtS/pLUwV/HJn81WQ==
        kv1piJ96EFC+ImJ/bMIfyuEU8WS4uVC+asE/rss4z7DBzywC/+aI1g==
        V+/xsyD7b9dtnlXoeYDI6HlC3KN+i4rxkfDTTA4Uj8k/1i3c1w5h/w==
        aofi0yTVKT6Qf5BEeD3HhX7aIvDLjib2r9f0/OqoYzy5A763I9Dr9g==
        YuBf8qBPrQX9GIsQ8+oYeA3vqP84hb6Ulgv978g+tAmt37foeQiDvg==
        1TH8m5JfIJ/sQPkf+QN5RPLRJ7hfM4S+VJGeLyzIH6gl+CdVIH+XkQ==
        Ppx+G/tLC4yFbUzP3zTMlyjf8JR7ed77zy71PzbwR87JJv/jYf0sBg==
        /tlhQ/jJLyQ/6MMph6Cn1jF2fNgjigas758xNkyyhx3Ol+/jxWYLeQ==
        ax3YDztTv88IKZ4wrFeHlA917/OhSY71HsUvWSP9dCh+CRSfRZXmeQ==
        ymfDNuhZDvTbCheEp86A4q1YZyqSv0Bxl9C/3wW+rIDep1ConxMbJA==
        n9kS/mEpXwo27cEf6QU9H2X2oED+o0M/TeoH3j8/Ei4p6rMA83LQgg==
        Ppsu7MucrSj/peezYh3yc/aE/+EA/LaIP9axCC8z8NdEFczMEslDOw==
        UHwxyR+34W9kgfwHqnCyF/InffKngwPR4yBPuU72yNepH2qT/IdLlQ==
        8jX4N/U+f0zDe7zv6shXysg3+h7yj0hAPtesod5D6oJ4M7RRLzjRAg==
        +Ylyov7OAfWh3UF+rsx5xJ9C1pGfUPyW+x7px6D4UwMe2KIGeTWXpA==
        /wv1R3pk36GN860x6X9C/tbsIr42L1PMN6sYBynuL69bFB+zNcWrgg==
        +oek311A+ZlGz+fXR9JPB/a/Y4iPzbUJ/oc69ZcpP22v6Hl2l56HKg==
        lG825fvnqRPkl5ct9Yt6yMeUjOpP/74euiB/UjcF4u2w04c/WXWo/w==
        FTc2LO6kwIPSJv/SwHl3IeG1R/I8L8BPnwf/3QPx16B+3i7RiV/KBw==
        rBP4144YNweUL4gC6dOm+5Xhv2VDoHh4JH2XoW9llTzF47ZO8uIz6g==
        H2nAI1vd36+AvNsB+FddB/fzFfBfsX3cX9lQfmQjP4pbJdRDKm8Djw==
        CeqHoqvVWUcJbBf+5zJnvK3UwZ9M9E6gN3ME5KsB6DG9Se8PyH3Kfw==
        qZ82r2F+qEO+lhoiH4tnlC+Rvdh6Bv53I/BbJ38oe8h/FY/8h6GTvw==
        7+TUD+thvFsBf0yFfSG8Yb9oV+h5so382G2C352KesdWJOS3xWG9YQ==
        pgH/bcUuxf8B5SsTwpM3BP0iAj3rHs9nsv8J+eO6iXyuJddAT5OQHw==
        r1rALxtR/ehdqH6wkW8blwrucxaBB9fG/diY6snRBePtHPrvXlTcPw==
        OQEfUppR/3OC9Rb1c4bOiPyzALyIEsZxhvWtRh/7jQzjdR31irGi5w==
        HRr1P8Mm8vGOqkLecYr7Vqle6zLyt2Ef+m41gR9rBX2rMeWn6xU9zw==
        XVO8KlLoW2siP7flue0qTDQ3jOnId20V+oI+cL8B5YPGOqZ6V8DYIw==
        /bP7fm1RwbhpcciHVXper7AG5Zstqtc0qq+mGB8m1L/xxvT+1IH6pw==
        Ddiz6qP+VgSqbzWB+jEh6i+5v6T9W+pv7xWqtwzIpypjvs2onnHp/A==
        RneE+yrkP+aInWzYNqhfPaF6xIf9uBbjmayGkMfkjvJbA/hxBkvYbw==
        oFA+J5N/4+eU3zSBJ/W+vqX4rWo51itt6FdRRpCHm0MelbaN8Rn2yg==
        NnWy1wD60Ceoz1lG+DUD1JvtwR31y33w4yrAO8kf553gzxcy8NqeDg==
        CE8U/7sT8pcjlfKtEfAkB+QfWYnWj6hftaL3S3a4r3yker+chuR/7g==
        IK9zhfoRFvmbw5bqU+p3pyq97zUYgb+ghPpF7DLgXZ6hvtDp/sNuXA==
        Z6bCgNfKhvr79PzA6FB+f9qRf00hX2W2Jv9aNjOWB6EYWG4vh/1RPw==
        4nI6U/9vnjN2as3OrNPri4CGk6OIUpIzhD2i/iT141b0vknmED4HhA==
        32EZ435ggN6G+lca9fvgGUTWwblMzaQG9S/pfkvoX91Rv1rgOdjfHg==
        YyWWId+NblD9NYA/YD3cZ0rvb6j9OvUnYsSTTYthXu2Tv/EbAZuQfw==
        bq9qwId1gD4ck/B8pucrkx7wA1/AMVWm+nRSAT2DwR/abEv1kkH+dQ==
        BX/fDnnYR9BTNyw0djgvxn3UDj1PbCXQv1kbgb8a1dOtZYvsGfJT5w==
        J+rH7g9kb9SvSVWMAwN41VgV+HAF4MmWCb/9HvixZeo/aWT/hk79yw==
        PcbJzKd8FfhXLifc35sb9L5ShfpRpC83gnzMjk7x0SD6oU14pPdzdg==
        Y4xtnvxPKaP91M/SqP8DV5rrCm9C/m0V+rWZBP11nMaZVQZn5N9WNQ==
        1+XAmKFIljHfqjQx71D/wLVw37Z3AD1jA/0kbYzVE/AvFw7GrTX1Xw==
        JhLOj/sYt7fQJ1Jzqhd9qh9jWs/ZtH6D8YX4s04l0u8U61cUH50T3Q==
        1+tSfyok/1hQP6hQKV6uKP5MfOpnmJhX1Yz6MU163kP9obRF75PtcQ==
        viLT8z9jSv1gjvob3YTkYVI/SbUwrtawf0v+WSkX2H9H/jnJCG95Qg==
        /pb8b0H9aDag959keh44n+P8zvkCfow99nen8GedjPxTPMZ4SvdnwQ==
        hPRTJn9knYG/84TscQi8hXKJ4gX8KRtGiG+ck1F9neO8gPpdC3reKA==
        ez0a0/Prrgd/0sro+XU1xv22HchD86g/zii/mEdYr3foeRdujjHZfw==
        K6b+jjjE/LkNfro++aeA7i+mNvU7FvT+IfW7wZEYtCewb6XSNCkIGQ==
        wEelS+8rygnyS4ej+En4kan/frTgL1SKV3KSYRzPIG9tRM8vFfLnPQ==
        6peZ4RTjbAt5dPaU7wgUz+Ml9dt3kFer5xA+CC/iGnhWg4z2kz59hQ==
        8OwSPa2L+6Qbm/LTLvgdDTBWNeDJCcoYFzbZw/1+fgP+Qo36dw71pw==
        VJvsfQ15T5ghfLhZPrwLf/+JA/pOr6cP11x9r9cw9ZP049rzkij0tg==
        H9W4iLaxt0g/tuJF+i/Fm/2r+g/+oyR87Fv1xseufTvof6w3/lX9Vw==
        GM1X/5p7+3/Rhwr+VXv4Kq8weTjiayvuPwjx+DZ8+vQ5ldSjDylgyA==
        cRx9gfb9MPGOoCE9fJnL1z8p8aMfmHn7h2W46g99LvMPfFLmz/l4dA==
        5erj0b+amX715XsXL9efVq3d//tFTHEvX/f5+x+n/FPYadee2GmHtw==
        WpS/g+9G4J+/G8HfH1e/nqFe/eUTRWTv/q/WWVP46nfl/SJu1MbVdw==
        WfxyZsQX8My9K3b+IQg8/4tM3pGuvsxi4W+9Xy4ms1p5+cz0+zB7pw==
        +uytHS/69fxYVe6r36b4izTWq9Y+80I/8q3+fxKY+Ndgumkm/uFKgw==
        DUEUuF8U3qr11/Htc954rlrnf1V68uzHR+HidaSTxPovkliz+uzPHQ==
        39t8Lq9fZI2tqviKq+/+lNufwpVblV5x5f7pLH394+nf/Gj6F5/Z/g==
        VP76h6s/lYPkNvHmm3/+nUaJ722P4c6fP/w47GL2Uvg85fafHudQRw==
        Lbyjd39X/GkZBk+fTn+cxZaXOHy162YbzzcPn1x//NX7G8dfeNurWg==
        6X6WeIEHxNXuf7JT5Kly2sYPQ8wfY/oY6SsR/v4pRjjfUAH6nYMqjQ==
        2tVB1Z84qF/QDxDcVH//oGqFl64O4l4Oqr7xIO47B9Uq9auDaj9/UA==
        7TsH1YVrHfE/fxD/nYNEcl7PB9V/8KDqlwfVXx1U/QIM14ITro+5/g==
        2oNnX/Fija++0RP/QeL10B94+Cpf73T7XDLfwBHcPkf2xy/dh6TvyQ==
        Pn9ByON3K2TJlkZHL6CvBIM9P4ySwH+xi4fR08anYbabkU3eXkuo/A==
        IqI3SU34jtTEaxg0flZsXf90fKPYuHcotsdfrvk9gdVr13AW3yywxw==
        I94kqsprUb36xYoflNrD7/O8Ehz9BMZnovt3AE78ffk1pGuXLb1Zfg==
        V78M8UdkOPD2Pyy7x1+meCW8wf6PC+/amWonXDbytg/x9XvxiKtx1w==
        8aj6MyH2sxO/E5i4unjtX6tvjrVdv7hRHmZ//6TrL0d/Oe9rIfdayg==
        n+U3jws8KuzByw9kOw/K/CLPIQ6uUpgvfmblW9tfEpgHCtU3U3jJTA==
        HihwrylUf5gC90Sh9rMUak8U+J+lwD9RqP8shfoTBeFzCq+/c4dI3A==
        Q+uVe3gM1F8a6MNpP8iD8MRD46d54H6Oh8eo8XC6+LMyFJ8oSG+m8A==
        pX96xPXbTeNLx/NI6o028sqjPJL4lpF8Kj+6gsfhf+y7uz49VIxfKQ==
        yvgPX35D1u2D29uG6dGPqPykQz772+vnWJ9e2Loln/dCv/H6adejqA==
        Xo56yQJePOHtdSLzg+H0DTnEI8av+f133eQxJn/tKtLPXeX3I/rvXA==
        5bqy/0x3z0vSyNunq/h43RB4/tu91p9H3/xSuE/lz6h8Kn8Gtsc//w==
        yNfGPRN9XHf/PPQl63rZ/SwMThS/+2Nc5Z8gK3Df/anInyFLaeZ3vg==
        1vgnyNbE2ne/h/InyFa++3V4PyOCeuOJbDmfFpHeKPfcXZx2BpswMQ==
        wjD4SbIN4bs/MP5T3Arf/R2NZ2f+BcIf+mNftMQeOmU40yODLT8McQ==
        xmOyeLOMk93Oi7yAOHj+rk5a5M3ph8xu72sC77i6eRw/VgxxskAIew==
        qTdf1w6PJK7XhlGAgAI/de8+yv+87+WFz7+SdjtfZdHmn3//f91aIQ==
        9mF0YWQCAAAARE5TU2JpbHoWAAAAEAAAAHjaY2JgYND19NM1dc/0Aw==
        MhkAEaUCJwAA
      >
      FLOATPOS 319 147 1023 702
      FXID {91F38C47-F90D-9549-A9A1-691AE1BBE70F}
      WAK 0
    >
    <ITEM
      POSITION 119.67555859455889
      SNAPOFFS 0.00000000000000
      LENGTH 18.48646800000279
      LOOP 1
      ALLTAKES 0
      SEL 0
      FADEIN 1 0.166778 0.000000 1 0
      FADEOUT 1 0.010000 0.000000 1 0
      MUTE 0
      IGUID {4AD3BF10-1607-D548-8A28-ADF9379626DA}
      IID 3241
      NAME "07-C (Ibanez+Engl)-120324_2139-01.wav"
      VOLPAN 1.000000 0.000000 1.000000 -1.000000
      SOFFS 1.62161096453588
      PLAYRATE 1.00000000000000 1 0.00000000000000 -1
      CHANMODE 0
      GUID {6671E91D-2563-6C48-9D59-A1F90B7BC35A}
      RECPASS 1054
      <SOURCE WAVE
        FILE "../media/07-C (Ibanez+Engl)-120324_2139-01.wav"
      >
    >
    <ITEM
      POSITION 156.10665596338504
      SNAPOFFS 0.00000000000000
      LENGTH 1.08011059674391
      LOOP 1
      ALLTAKES 0
      SEL 0
      FADEIN 1 0.010000 0.000000 1 0
      FADEOUT 1 0.010000 0.000000 1 0
      MUTE 0
      IGUID {28C51A02-F318-F94B-867F-D18040611B69}
      IID 3159
      NAME "07-C (Ibanez+Engl)-120324_2103.wav"
      VOLPAN 1.000000 0.000000 1.000000 -1.000000
      SOFFS 0.00000000000000
      PLAYRATE 1.00000000000000 1 0.00000000000000 -1
      CHANMODE 0
      TAKECOLOR 33488896
      GUID {B31CB4DD-DF48-774D-8F21-892DC48A7E93}
      RECPASS 1022
      <SOURCE WAVE
        FILE "../media/07-C (Ibanez+Engl)-120324_2103.wav"
      >
    >
    <ITEM
      POSITION 157.19882288730287
      SNAPOFFS 0.00000000000000
      LENGTH 0.33772618265243
      LOOP 1
      ALLTAKES 0
      SEL 0
      FADEIN 1 0.010000 0.000000 1 0
      FADEOUT 1 0.010000 0.000000 1 0
      MUTE 0
      IGUID {506F6C27-08F1-E642-9D5A-A9EE4250EB1F}
      IID 3159
      NAME "07-C (Ibanez+Engl)-120324_2103.wav"
      VOLPAN 1.000000 0.000000 1.000000 -1.000000
      SOFFS 1.08011059674391
      PLAYRATE 1.00000000000000 1 0.00000000000000 -1
      CHANMODE 0
      TAKECOLOR 33488896
      GUID {0BB2F2B6-0F01-924D-B35F-C52B09377E61}
      RECPASS 1022
      <SOURCE WAVE
        FILE "../media/07-C (Ibanez+Engl)-120324_2103.wav"
      >
    >
    <ITEM
      POSITION 157.55250252042015
      SNAPOFFS 0.00000000000000
      LENGTH 0.31253688190191
      LOOP 1
      ALLTAKES 0
      SEL 0
      FADEIN 1 0.010000 0.000000 1 0
      FADEOUT 1 0.010000 0.028010 1 1
      MUTE 0
      IGUID {C8BDBD86-71D0-144F-9A7F-6B58B0DC850A}
      IID 3159
      NAME "07-C (Ibanez+Engl)-120324_2103.wav"
      VOLPAN 1.000000 0.000000 1.000000 -1.000000
      SOFFS 1.41783677939634
      PLAYRATE 1.00000000000000 1 0.00000000000000 -1
      CHANMODE 0
      TAKECOLOR 33488896
      GUID {126E6F35-C57A-E844-BEFE-DD6AEACA04CC}
      RECPASS 1022
      <SOURCE WAVE
        FILE "../media/07-C (Ibanez+Engl)-120324_2103.wav"
      >
    >
    <ITEM
      POSITION 157.83702962465168
      SNAPOFFS 0.00000000000000
      LENGTH 3.69255342203509
      LOOP 1
      ALLTAKES 0
      SEL 0
      FADEIN 1 0.010000 0.028010 1 1
      FADEOUT 1 0.010000 0.000000 1 0
      MUTE 0
      IGUID {B4A12F23-CAE6-694E-AB15-ACA00C514385}
      IID 3159
      NAME "07-C (Ibanez+Engl)-120324_2103.wav"
      VOLPAN 1.000000 0.000000 1.000000 -1.000000
      SOFFS 1.73037366129824
      PLAYRATE 1.00000000000000 1 0.00000000000000 -1
      CHANMODE 0
      TAKECOLOR 33488896
      GUID {47EE3821-D1FA-F542-A73C-99FCB32F30B1}
      RECPASS 1022
      <SOURCE WAVE
        FILE "../media/07-C (Ibanez+Engl)-120324_2103.wav"
      >
    >
    <ITEM
      POSITION 211.69794762999800
      SNAPOFFS 0.00000000000000
      LENGTH 12.08561496453365
      LOOP 1
      ALLTAKES 0
      SEL 0
      FADEIN 1 7.615125 0.000000 1 0
      FADEOUT 1 0.000000 0.000000 1 0
      MUTE 0
      IGUID {AA493CEA-7DA4-F74D-BB18-92378C65C5C1}
      IID 3167
      NAME "07-C (Ibanez+Engl)-120324_2109.wav"
      VOLPAN 1.000000 0.000000 1.000000 -1.000000
      SOFFS 0.00000000000000
      PLAYRATE 1.00000000000000 1 0.00000000000000 -1
      CHANMODE 0
      GUID {9ECDB98A-6DF7-2045-B9E8-37174E1F4ACD}
      RECPASS 1023
      <SOURCE WAVE
        FILE "../media/07-C (Ibanez+Engl)-120324_2109.wav"
      >
    >
  >
  <TRACK '{84753EAB-0D25-6E49-9884-87F1BB8C678D}'
    NAME "C (Ibanez+DI)"
    PEAKCOL 16576
    BEAT -1
    AUTOMODE 0
    VOLPAN 1.00000000000000 0.00000000000000 -1.00000000000000 -1.00000000000000 1.00000000000000
    MUTESOLO 1 0 0
    IPHASE 0
    ISBUS 2 -1
    BUSCOMP 0 0
    SHOWINMIX 1 0.666700 0.500000 1 0.500000 -1 -1 -1
    FREEMODE 0
    SEL 0
    REC 0 0 0 0 0 0 0
    VU 2
    TRACKHEIGHT 0 0
    INQ 0 0 0 0.5000000000 100 0 0 100
    NCHAN 2
    FX 1
    TRACKID {84753EAB-0D25-6E49-9884-87F1BB8C678D}
    PERF 0
    MIDIOUT -1
    MAINSEND 1 0
    <FXCHAIN
      SHOW 0
      LASTSEL 0
      DOCKED 0
    >
    <ITEM
      POSITION 119.67555859455889
      SNAPOFFS 0.00000000000000
      LENGTH 18.48646800000279
      LOOP 1
      ALLTAKES 0
      SEL 0
      FADEIN 1 0.166778 0.000000 1 0
      FADEOUT 1 0.010000 0.000000 1 0
      MUTE 0
      IGUID {52F98452-6BFD-AE44-9CCD-6361720132BA}
      IID 3242
      NAME "08-C (Ibanez+DI)-120324_2139-01.wav"
      VOLPAN 1.000000 0.000000 1.000000 -1.000000
      SOFFS 1.62161096453588
      PLAYRATE 1.00000000000000 1 0.00000000000000 -1
      CHANMODE 0
      GUID {FE2EA69F-B08E-0940-9951-4A808AB97CFF}
      RECPASS 1054
      <SOURCE WAVE
        FILE "../media/08-C (Ibanez+DI)-120324_2139-01.wav"
      >
    >
    <ITEM
      POSITION 156.10665596338504
      SNAPOFFS 0.00000000000000
      LENGTH 1.08011059674391
      LOOP 1
      ALLTAKES 0
      SEL 0
      FADEIN 1 0.010000 0.000000 1 0
      FADEOUT 1 0.010000 0.000000 1 0
      MUTE 0
      IGUID {59090140-C17F-A54D-BF43-BC2F3AD4AF62}
      IID 3160
      NAME "08-C (Ibanez+DI)-120324_2103.wav"
      VOLPAN 1.000000 0.000000 1.000000 -1.000000
      SOFFS 0.00000000000000
      PLAYRATE 1.00000000000000 1 0.00000000000000 -1
      CHANMODE 0
      TAKECOLOR 33488896
      GUID {8B315AAC-5FA4-6D4E-9C67-B0550C616176}
      RECPASS 1022
      <SOURCE WAVE
        FILE "../media/08-C (Ibanez+DI)-120324_2103.wav"
      >
    >
    <ITEM
      POSITION 157.19882288730287
      SNAPOFFS 0.00000000000000
      LENGTH 0.33772618265243
      LOOP 1
      ALLTAKES 0
      SEL 0
      FADEIN 1 0.010000 0.000000 1 0
      FADEOUT 1 0.010000 0.000000 1 0
      MUTE 0
      IGUID {4A792C6B-BA7E-9545-A5BE-17DD82863BC5}
      IID 3160
      NAME "08-C (Ibanez+DI)-120324_2103.wav"
      VOLPAN 1.000000 0.000000 1.000000 -1.000000
      SOFFS 1.08011059674391
      PLAYRATE 1.00000000000000 1 0.00000000000000 -1
      CHANMODE 0
      TAKECOLOR 33488896
      GUID {FC4E62A7-5170-1243-9F0B-B87CA65FA542}
      RECPASS 1022
      <SOURCE WAVE
        FILE "../media/08-C (Ibanez+DI)-120324_2103.wav"
      >
    >
    <ITEM
      POSITION 157.55250252042015
      SNAPOFFS 0.00000000000000
      LENGTH 0.31253688190191
      LOOP 1
      ALLTAKES 0
      SEL 0
      FADEIN 1 0.010000 0.000000 1 0
      FADEOUT 1 0.010000 0.028010 1 1
      MUTE 0
      IGUID {B89BC01A-DFB9-224F-A8DE-3CB7412E20C4}
      IID 3160
      NAME "08-C (Ibanez+DI)-120324_2103.wav"
      VOLPAN 1.000000 0.000000 1.000000 -1.000000
      SOFFS 1.41783677939634
      PLAYRATE 1.00000000000000 1 0.00000000000000 -1
      CHANMODE 0
      TAKECOLOR 33488896
      GUID {31A770A3-70E7-DF4F-9D1C-CD01871D1BCE}
      RECPASS 1022
      <SOURCE WAVE
        FILE "../media/08-C (Ibanez+DI)-120324_2103.wav"
      >
    >
    <ITEM
      POSITION 157.83702962465168
      SNAPOFFS 0.00000000000000
      LENGTH 3.69255342203509
      LOOP 1
      ALLTAKES 0
      SEL 0
      FADEIN 1 0.010000 0.028010 1 1
      FADEOUT 1 0.010000 0.000000 1 0
      MUTE 0
      IGUID {20FDA749-4CF3-0247-ACA9-F9153F6A5EA6}
      IID 3160
      NAME "08-C (Ibanez+DI)-120324_2103.wav"
      VOLPAN 1.000000 0.000000 1.000000 -1.000000
      SOFFS 1.73037366129824
      PLAYRATE 1.00000000000000 1 0.00000000000000 -1
      CHANMODE 0
      TAKECOLOR 33488896
      GUID {CC3D7869-8D24-A446-B476-211C4C5796B3}
      RECPASS 1022
      <SOURCE WAVE
        FILE "../media/08-C (Ibanez+DI)-120324_2103.wav"
      >
    >
    <ITEM
      POSITION 211.69794762999800
      SNAPOFFS 0.00000000000000
      LENGTH 12.08561496453365
      LOOP 1
      ALLTAKES 0
      SEL 0
      FADEIN 1 7.615125 0.000000 1 0
      FADEOUT 1 0.000000 0.000000 1 0
      MUTE 0
      IGUID {FD2E2F0F-16D1-AA4C-A474-AEB951260D40}
      IID 3168
      NAME "08-C (Ibanez+DI)-120324_2109.wav"
      VOLPAN 1.000000 0.000000 1.000000 -1.000000
      SOFFS 0.00000000000000
      PLAYRATE 1.00000000000000 1 0.00000000000000 -1
      CHANMODE 0
      GUID {A21A3D64-1249-A645-BCDD-6F7FB04916D3}
      RECPASS 1023
      <SOURCE WAVE
        FILE "../media/08-C (Ibanez+DI)-120324_2109.wav"
      >
    >
  >
>
